<?xml version="1.0" encoding="utf-8"?>
<!-- Generator: Adobe Illustrator 16.0.0, SVG Export Plug-In . SVG Version: 6.00 Build 0)  -->
<!DOCTYPE svg PUBLIC "-//W3C//DTD SVG 1.1//EN" "http://www.w3.org/Graphics/SVG/1.1/DTD/svg11.dtd">
<svg version="1.1" id="Layer_1" xmlns="http://www.w3.org/2000/svg" xmlns:xlink="http://www.w3.org/1999/xlink" x="0px" y="0px"
	 width="600px" height="600px" viewBox="0 0 600 600" enable-background="new 0 0 600 600" xml:space="preserve">
<g>
	<path fill="none" stroke="#FFFFFF" stroke-miterlimit="10" d="M92.736,321.336C94.506,196.294,195.033,96.391,317.272,98.2
		c110.019,1.625,197.916,94.174,196.325,206.713c-1.429,101.285-82.858,182.205-181.874,180.743
		c-89.113-1.315-160.31-76.283-159.021-167.44c1.159-82.039,67.114-147.586,147.318-146.4
		c72.185,1.068,129.85,61.789,128.805,135.625c-0.938,66.454-54.36,119.548-119.325,118.584
		c-58.467-0.864-105.18-50.049-104.334-109.854c0.76-53.827,44.036-96.831,96.655-96.053c47.359,0.7,85.195,40.538,84.512,88.982
		c-0.619,43.602-35.67,78.433-78.29,77.804c-38.36-0.564-69.01-32.834-68.455-72.079c0.498-35.313,28.892-63.528,63.417-63.017
		c31.071,0.459,55.896,26.597,55.449,58.38c-0.407,28.606-23.406,51.465-51.367,51.048c-25.171-0.369-45.279-21.544-44.916-47.289
		c0.329-23.17,18.956-41.686,41.607-41.349c20.389,0.301,36.676,17.452,36.381,38.301c-0.267,18.774-15.354,33.77-33.702,33.495
		c-16.514-0.239-29.707-14.134-29.469-31.028"/>
	<path fill="none" stroke="#FFFFFF" stroke-miterlimit="10" d="M296.987,313.364c0.605-14.411,10.513-23.975,24.896-24.79
		c12.943-0.733,24.016,9.404,24.736,22.645c0.645,11.916-8.273,22.114-19.925,22.775c-10.484,0.593-19.455-7.621-20.039-18.346
		c-0.522-9.651,6.704-17.912,16.141-18.445c8.496-0.481,15.759,6.171,16.229,14.858c0.422,7.817-5.429,14.508-13.072,14.942
		c-6.877,0.389-12.767-4.999-13.146-12.037c-0.345-6.331,4.398-11.751,10.587-12.102c5.574-0.319,10.342,4.048,10.65,9.747
		c0.278,5.133-3.562,9.518-8.579,9.803c-4.515,0.257-8.374-3.277-8.625-7.894c-0.226-4.155,2.885-7.712,6.946-7.938
		c3.657-0.211,6.785,2.654,6.987,6.393c0.185,3.365-2.337,6.243-5.625,6.433c-2.964,0.165-5.499-2.151-5.659-5.181"/>
	<ellipse fill="none" stroke="#FFFFFF" stroke-miterlimit="10" cx="325.181" cy="313.486" rx="5.719" ry="5.851"/>
	<ellipse fill="none" stroke="#FFFFFF" stroke-miterlimit="10" cx="92.736" cy="327.047" rx="5.72" ry="5.851"/>
</g>
<g>
	<path fill="none" d="M76.781,322.537c1.902-134.4,109.953-241.78,241.34-239.835c118.252,1.747,212.728,101.222,211.018,222.183
		c-1.535,108.865-89.059,195.842-195.484,194.271c-95.782-1.414-172.308-81.992-170.922-179.972
		c1.245-88.179,72.137-158.632,158.343-157.356c77.586,1.148,139.567,66.413,138.444,145.774
		c-1.009,71.428-58.429,128.494-128.256,127.459c-62.843-0.93-113.052-53.795-112.143-118.076
		c0.817-57.855,47.331-104.077,103.889-103.241c50.903,0.752,91.571,43.572,90.836,95.642
		c-0.665,46.864-38.339,84.303-84.149,83.627c-41.23-0.607-74.174-35.292-73.577-77.474c0.535-37.956,31.054-68.282,68.163-67.733
		c33.397,0.494,60.08,28.587,59.6,62.749c-0.438,30.748-25.158,55.316-55.212,54.869c-27.055-0.397-48.667-23.157-48.277-50.829
		c0.354-24.904,20.374-44.805,44.721-44.443c21.914,0.324,39.42,18.758,39.104,41.167c-0.287,20.18-16.504,36.297-36.225,36.002
		c-17.75-0.258-31.93-15.191-31.674-33.351"/>
	<text transform="matrix(0.1448 -0.9895 0.9895 0.1448 76.23 311.3438)"><tspan x="0" y="0" fill="none" stroke="#FFFFFF" font-family="'BigJohn'" font-size="72">E</tspan><tspan x="41.558" y="-0.942" fill="none" stroke="#FFFFFF" font-family="'BigJohn'" font-size="72" rotate="11.293">v</tspan><tspan x="96.297" y="10.488" fill="none" stroke="#FFFFFF" font-family="'BigJohn'" font-size="72" rotate="22.659">e</tspan><tspan x="134.972" y="25.838" fill="none" stroke="#FFFFFF" font-family="'BigJohn'" font-size="72" rotate="33.675">r</tspan><tspan x="178.599" y="54.557" fill="none" stroke="#FFFFFF" font-family="'BigJohn'" font-size="72" rotate="46.064">y</tspan><tspan x="215.484" y="91.694" fill="none" stroke="#FFFFFF" font-family="'BigJohn'" font-size="72" rotate="59.644">o</tspan><tspan x="245.766" y="143.501" fill="none" stroke="#FFFFFF" font-family="'BigJohn'" font-size="72" rotate="73.603">n</tspan><tspan x="260.683" y="195.371" fill="none" stroke="#FFFFFF" font-family="'BigJohn'" font-size="72" rotate="85.478">e</tspan><tspan x="263.666" y="236.966" fill="none" stroke="#FFFFFF" font-family="'BigJohn'" font-size="72" rotate="95.302"> </tspan><tspan x="262.281" y="267.201" fill="none" stroke="#FFFFFF" font-family="'BigJohn'" font-size="72" rotate="106.778">n</tspan><tspan x="246.33" y="318.584" fill="none" stroke="#FFFFFF" font-family="'BigJohn'" font-size="72" rotate="119.507">e</tspan><tspan x="226.051" y="354.818" fill="none" stroke="#FFFFFF" font-family="'BigJohn'" font-size="72" rotate="130.42">e</tspan><tspan x="199.96" y="386.937" fill="none" stroke="#FFFFFF" font-family="'BigJohn'" font-size="72" rotate="142.841">d</tspan><tspan x="156.366" y="419.345" fill="none" stroke="#FFFFFF" font-family="'BigJohn'" font-size="72" rotate="155.058">s</tspan><tspan x="119.463" y="436.226" fill="none" stroke="#FFFFFF" font-family="'BigJohn'" font-size="72" rotate="164.215"> </tspan><tspan x="90.791" y="446.104" fill="none" stroke="#FFFFFF" font-family="'BigJohn'" font-size="72" rotate="175.69">a</tspan><tspan x="32.875" y="449.226" fill="none" stroke="#FFFFFF" font-family="'BigJohn'" font-size="72" rotate="-171.801"> </tspan><tspan x="2.783" y="446.042" fill="none" stroke="#FFFFFF" font-family="'BigJohn'" font-size="72" rotate="-160.455">b</tspan><tspan x="-42.873" y="430.456" fill="none" stroke="#FFFFFF" font-family="'BigJohn'" font-size="72" rotate="-146.027">r</tspan><tspan x="-85.773" y="401.172" fill="none" stroke="#FFFFFF" font-family="'BigJohn'" font-size="72" rotate="-132.42">e</tspan><tspan x="-114.531" y="371.876" fill="none" stroke="#FFFFFF" font-family="'BigJohn'" font-size="72" rotate="-117.669">a</tspan><tspan x="-141.699" y="321.271" fill="none" stroke="#FFFFFF" font-family="'BigJohn'" font-size="72" rotate="-100.193">k</tspan><tspan x="-150.212" y="262.723" fill="none" stroke="#FFFFFF" font-family="'BigJohn'" font-size="72" rotate="-88.137">.</tspan><tspan x="-150.328" y="247.007" fill="none" stroke="#FFFFFF" font-family="'BigJohn'" font-size="72" rotate="-80.286"> </tspan><tspan x="-145.608" y="217.141" fill="none" stroke="#FFFFFF" font-family="'BigJohn'" font-size="60" rotate="-69.483">E</tspan><tspan x="-133.781" y="185.088" fill="none" stroke="#FFFFFF" font-family="'BigJohn'" font-size="60" rotate="-58.403">s</tspan><tspan x="-117.21" y="156.532" fill="none" stroke="#FFFFFF" font-family="'BigJohn'" font-size="60" rotate="-45.993">c</tspan><tspan x="-87.356" y="124.741" fill="none" stroke="#FFFFFF" font-family="'BigJohn'" font-size="60" rotate="-31.419">a</tspan><tspan x="-46.506" y="100.017" fill="none" stroke="#FFFFFF" font-family="'BigJohn'" font-size="60" rotate="-17.596">p</tspan><tspan x="-8.868" y="88.089" fill="none" stroke="#FFFFFF" font-family="'BigJohn'" font-size="60" rotate="-5.965">e</tspan><tspan x="25.296" y="84.746" fill="none" stroke="#FFFFFF" font-family="'BigJohn'" font-size="60" rotate="4.391"> </tspan><tspan x="50.559" y="86.784" fill="none" stroke="#FFFFFF" font-family="'BigJohn'" font-size="60" rotate="12.291">i</tspan><tspan x="69.113" y="89.289" fill="none" stroke="#FFFFFF" font-family="'BigJohn'" font-size="60" rotate="23.535">n</tspan><tspan x="109.546" y="106.779" fill="none" stroke="#FFFFFF" font-family="'BigJohn'" font-size="60" rotate="38.488">t</tspan><tspan x="141.319" y="130.6" fill="none" stroke="#FFFFFF" font-family="'BigJohn'" font-size="60" rotate="54.619">o</tspan><tspan x="168.957" y="171.527" fill="none" stroke="#FFFFFF" font-family="'BigJohn'" font-size="60" rotate="68.378"> </tspan><tspan x="179.03" y="194.044" fill="none" stroke="#FFFFFF" font-family="'BigJohn'" font-size="60" rotate="80.458">t</tspan><tspan x="186.454" y="232.857" fill="none" stroke="#FFFFFF" font-family="'BigJohn'" font-size="60" rotate="97.321">h</tspan><tspan x="180.568" y="276.247" fill="none" stroke="#FFFFFF" font-family="'BigJohn'" font-size="60" rotate="113.216">e</tspan><tspan x="166.952" y="307.369" fill="none" stroke="#FFFFFF" font-family="'BigJohn'" font-size="60" rotate="125.055"> </tspan><tspan x="153.723" y="328.116" fill="none" stroke="#FFFFFF" font-family="'BigJohn'" font-size="60" rotate="137.732">p</tspan><tspan x="125.917" y="355.09" fill="none" stroke="#FFFFFF" font-family="'BigJohn'" font-size="60" rotate="154.923">o</tspan><tspan x="81.615" y="376.115" fill="none" stroke="#FFFFFF" font-family="'BigJohn'" font-size="60" rotate="173.392">r</tspan><tspan x="39.867" y="381.576" fill="none" stroke="#FFFFFF" font-family="'BigJohn'" font-size="60" rotate="-169.948">t</tspan><tspan x="1.001" y="375.924" fill="none" stroke="#FFFFFF" font-family="'BigJohn'" font-size="60" rotate="-151.164">a</tspan><tspan x="-39.892" y="352.819" fill="none" stroke="#FFFFFF" font-family="'BigJohn'" font-size="60" rotate="-133.439">l</tspan><tspan x="-62.844" y="327.403" fill="none" stroke="#FFFFFF" font-family="'BigJohn'" font-size="60" rotate="-122.848">.</tspan><tspan x="-70.378" y="317.485" fill="none" stroke="#FFFFFF" font-family="'BigJohn'" font-size="72" rotate="-112.987"> </tspan><tspan x="-82.072" y="290.054" fill="none" stroke="#FFFFFF" font-family="'BigJohn'" font-size="48" rotate="-100.178">s</tspan><tspan x="-87.016" y="264.823" fill="none" stroke="#FFFFFF" font-family="'BigJohn'" font-size="48" rotate="-87.239">e</tspan><tspan x="-86.062" y="238.418" fill="none" stroke="#FFFFFF" font-family="'BigJohn'" font-size="48" rotate="-73.71">e</tspan><tspan x="-78.43" y="212.819" fill="none" stroke="#FFFFFF" font-family="'BigJohn'" font-size="48" rotate="-62.107"> </tspan><tspan x="-70.513" y="195.43" fill="none" stroke="#FFFFFF" font-family="'BigJohn'" font-size="48" rotate="-49.037">y</tspan><tspan x="-49.378" y="169.713" fill="none" stroke="#FFFFFF" font-family="'BigJohn'" font-size="48" rotate="-31.646">o</tspan><tspan x="-16.658" y="149.521" fill="none" stroke="#FFFFFF" font-family="'BigJohn'" font-size="48" rotate="-14.588">u</tspan><tspan x="15.272" y="141.638" fill="none" stroke="#FFFFFF" font-family="'BigJohn'" font-size="48" rotate="-1.703"> </tspan><tspan x="34.183" y="140.014" fill="none" stroke="#FFFFFF" font-family="'BigJohn'" font-size="48" rotate="11.771">t</tspan><tspan x="64.485" y="145.523" fill="none" stroke="#FFFFFF" font-family="'BigJohn'" font-size="48" rotate="29.283">h</tspan><tspan x="94.317" y="162.38" fill="none" stroke="#FFFFFF" font-family="'BigJohn'" font-size="48" rotate="45.732">e</tspan><tspan x="113.172" y="180.274" fill="none" stroke="#FFFFFF" font-family="'BigJohn'" font-size="48" rotate="62.265">r</tspan><tspan x="128.523" y="209.574" fill="none" stroke="#FFFFFF" font-family="'BigJohn'" font-size="48" rotate="79.005">e</tspan><tspan x="133.496" y="235.414" fill="none" stroke="#FFFFFF" font-family="'BigJohn'" font-size="48" rotate="92.733"> </tspan><tspan x="132.311" y="254.998" fill="none" stroke="#FFFFFF" font-family="'BigJohn'" font-size="48" rotate="102.014">.</tspan><tspan x="130.846" y="264.542" fill="none" stroke="#FFFFFF" font-family="'BigJohn'" font-size="48" rotate="111.233"> </tspan><tspan x="123.489" y="282.781" fill="none" stroke="#FFFFFF" font-family="'BigJohn'" font-size="48" rotate="120.327">.</tspan><tspan x="119.059" y="291.415" fill="none" stroke="#FFFFFF" font-family="'BigJohn'" font-size="48" rotate="129.306"> </tspan><tspan x="106.367" y="306.523" fill="none" stroke="#FFFFFF" font-family="'BigJohn'" font-size="48" rotate="138.22">.</tspan><tspan x="99.504" y="313.37" fill="none" stroke="#FFFFFF" font-family="'BigJohn'" font-size="48" rotate="147.074"> </tspan><tspan x="82.814" y="323.885" fill="none" stroke="#FFFFFF" font-family="'BigJohn'" font-size="48" rotate="155.922">.</tspan><tspan x="74.147" y="328.331" fill="none" stroke="#FFFFFF" font-family="'BigJohn'" font-size="48" rotate="164.718"> </tspan><tspan x="55.053" y="333.314" fill="none" stroke="#FFFFFF" font-family="'BigJohn'" font-size="48" rotate="173.584">.</tspan><tspan x="45.589" y="334.979" fill="none" stroke="#FFFFFF" font-family="'BigJohn'" font-size="48" rotate="-176.966"> </tspan><tspan x="26.102" y="333.697" fill="none" stroke="#FFFFFF" font-family="'BigJohn'" font-size="48" rotate="-167.296">.</tspan><tspan x="16.642" y="332.175" fill="none" stroke="#FFFFFF" font-family="'BigJohn'" font-size="48" rotate="-157.553"> </tspan><tspan x="-1.301" y="324.489" fill="none" stroke="#FFFFFF" font-family="'BigJohn'" font-size="48" rotate="-147.787">.</tspan><tspan x="-9.679" y="319.934" fill="none" stroke="#FFFFFF" font-family="'BigJohn'" font-size="48" rotate="-137.954"> </tspan><tspan x="-23.981" y="306.704" fill="none" stroke="#FFFFFF" font-family="'BigJohn'" font-size="48" rotate="-127.994">.</tspan><tspan x="-30.311" y="299.632" fill="none" stroke="#FFFFFF" font-family="'BigJohn'" font-size="48" rotate="-117.892"> </tspan><tspan x="-39.188" y="282.308" fill="none" stroke="#FFFFFF" font-family="'BigJohn'" font-size="48" rotate="-107.709">.</tspan><tspan x="-42.709" y="273.566" fill="none" stroke="#FFFFFF" font-family="'BigJohn'" font-size="48" rotate="-97.265"> </tspan><tspan x="-44.951" y="254.381" fill="none" stroke="#FFFFFF" font-family="'BigJohn'" font-size="48" rotate="-86.543">.</tspan><tspan x="-45.095" y="245.07" fill="none" stroke="#FFFFFF" font-family="'BigJohn'" font-size="48" rotate="-75.415"> </tspan><tspan x="-39.98" y="226.493" fill="none" stroke="#FFFFFF" font-family="'BigJohn'" font-size="48" rotate="-64.388">.</tspan><tspan x="-36.576" y="217.813" fill="none" stroke="#FFFFFF" font-family="'BigJohn'" font-size="48" rotate="-53.537"> </tspan><tspan x="-24.875" y="202.42" fill="none" stroke="#FFFFFF" font-family="'BigJohn'" font-size="48" rotate="-42.821">.</tspan><tspan x="-18.46" y="195.561" fill="none" stroke="#FFFFFF" font-family="'BigJohn'" font-size="48" rotate="-32.15"> </tspan><tspan x="-1.942" y="185.487" fill="none" stroke="#FFFFFF" font-family="'BigJohn'" font-size="48" rotate="-21.527">.</tspan><tspan x="6.541" y="181.428" fill="none" stroke="#FFFFFF" font-family="'BigJohn'" font-size="48" rotate="-10.96"> </tspan><tspan x="25.482" y="177.981" fill="none" stroke="#FFFFFF" font-family="'BigJohn'" font-size="48" rotate="0.086">.</tspan><tspan x="34.666" y="177.236" fill="none" stroke="#FFFFFF" font-family="'BigJohn'" font-size="48" rotate="11.673"> </tspan><tspan x="53.351" y="181.363" fill="none" stroke="#FFFFFF" font-family="'BigJohn'" font-size="48" rotate="23.334">.</tspan><tspan x="62.073" y="184.294" fill="none" stroke="#FFFFFF" font-family="'BigJohn'" font-size="48" rotate="35.079"> </tspan><tspan x="77.55" y="195.471" fill="none" stroke="#FFFFFF" font-family="'BigJohn'" font-size="48" rotate="46.934">.</tspan><tspan x="84.341" y="201.558" fill="none" stroke="#FFFFFF" font-family="'BigJohn'" font-size="48" rotate="58.969"> </tspan><tspan x="93.94" y="218.012" fill="none" stroke="#FFFFFF" font-family="'BigJohn'" font-size="48" rotate="71.146">.</tspan><tspan x="97.677" y="226.256" fill="none" stroke="#FFFFFF" font-family="'BigJohn'" font-size="48" rotate="83.606"> </tspan><tspan x="99.571" y="245.035" fill="none" stroke="#FFFFFF" font-family="'BigJohn'" font-size="48" rotate="96.584">.</tspan><tspan x="99.427" y="253.957" fill="none" stroke="#FFFFFF" font-family="'BigJohn'" font-size="48" rotate="109.786"> </tspan><tspan x="92.789" y="271.582" fill="none" stroke="#FFFFFF" font-family="'BigJohn'" font-size="48" rotate="122.845">.</tspan><tspan x="88.656" y="279.55" fill="none" stroke="#FFFFFF" font-family="'BigJohn'" font-size="48" rotate="135.717"> </tspan><tspan x="74.923" y="292.571" fill="none" stroke="#FFFFFF" font-family="'BigJohn'" font-size="48" rotate="148.475">.</tspan><tspan x="67.728" y="297.967" fill="none" stroke="#FFFFFF" font-family="'BigJohn'" font-size="48" rotate="161.173"> </tspan><tspan x="49.764" y="303.86" fill="none" stroke="#FFFFFF" font-family="'BigJohn'" font-size="48" rotate="174.107">.</tspan><tspan x="41.103" y="305.707" fill="none" stroke="#FFFFFF" font-family="'BigJohn'" font-size="48" rotate="-172.406"> </tspan><tspan x="22.633" y="302.99" fill="none" stroke="#FFFFFF" font-family="'BigJohn'" font-size="48" rotate="-158.529">.</tspan><tspan x="14.17" y="300.702" fill="none" stroke="#FFFFFF" font-family="'BigJohn'" font-size="48" rotate="-144.545"> </tspan><tspan x="-0.863" y="289.687" fill="none" stroke="#FFFFFF" font-family="'BigJohn'" font-size="48" rotate="-130.384">.</tspan><tspan x="-7.22" y="283.765" fill="none" stroke="#FFFFFF" font-family="'BigJohn'" font-size="48" rotate="-116.004"> </tspan><tspan x="-15.015" y="267.026" fill="none" stroke="#FFFFFF" font-family="'BigJohn'" font-size="48" rotate="-101.324">.</tspan><tspan x="-17.166" y="259.019" fill="none" stroke="#FFFFFF" font-family="'BigJohn'" font-size="48" rotate="-86.019"> </tspan><tspan x="-15.703" y="240.948" fill="none" stroke="#FFFFFF" font-family="'BigJohn'" font-size="48" rotate="-70.535">.</tspan><tspan x="-14.025" y="232.813" fill="none" stroke="#FFFFFF" font-family="'BigJohn'" font-size="48" rotate="-55.045"> </tspan><tspan x="-3.427" y="218.04" fill="none" stroke="#FFFFFF" font-family="'BigJohn'" font-size="48" rotate="-39.75">.</tspan><tspan x="2.263" y="211.878" fill="none" stroke="#FFFFFF" font-family="'BigJohn'" font-size="48" rotate="-24.587"> </tspan><tspan x="18.837" y="204.515" fill="none" stroke="#FFFFFF" font-family="'BigJohn'" font-size="48" rotate="-9.175">.</tspan><tspan x="26.696" y="202.033" fill="none" stroke="#FFFFFF" font-family="'BigJohn'" font-size="48" rotate="6.668"> </tspan><tspan x="44.471" y="204.293" fill="none" stroke="#FFFFFF" font-family="'BigJohn'" font-size="48" rotate="22.983">.</tspan><tspan x="52.298" y="206.237" fill="none" stroke="#FFFFFF" font-family="'BigJohn'" font-size="48" rotate="39.626"> </tspan><tspan x="65.903" y="217.742" fill="none" stroke="#FFFFFF" font-family="'BigJohn'" font-size="48" rotate="56.41">.</tspan><tspan x="71.325" y="223.541" fill="none" stroke="#FFFFFF" font-family="'BigJohn'" font-size="48" rotate="73.659"> </tspan><tspan x="76.098" y="240.399" fill="none" stroke="#FFFFFF" font-family="'BigJohn'" font-size="48" rotate="91.46">.</tspan><tspan x="76.31" y="247.684" fill="none" stroke="#FFFFFF" font-family="'BigJohn'" font-size="48" rotate="109.629"> </tspan><tspan x="70.473" y="263.757" fill="none" stroke="#FFFFFF" font-family="'BigJohn'" font-size="48" rotate="127.862">.</tspan><tspan x="67.138" y="270.436" fill="none" stroke="#FFFFFF" font-family="'BigJohn'" font-size="48" rotate="145.948"> </tspan><tspan x="52.919" y="279.95" fill="none" stroke="#FFFFFF" font-family="'BigJohn'" font-size="48" rotate="164.178">.</tspan><tspan x="46.423" y="283.416" fill="none" stroke="#FFFFFF" font-family="'BigJohn'" font-size="48" rotate="-177.261"> </tspan><tspan x="29.588" y="282.586" fill="none" stroke="#FFFFFF" font-family="'BigJohn'" font-size="48" rotate="-158.255">.</tspan><tspan x="22.552" y="281.595" fill="none" stroke="#FFFFFF" font-family="'BigJohn'" font-size="48" rotate="-138.74"> </tspan><tspan x="10.704" y="270.443" fill="none" stroke="#FFFFFF" font-family="'BigJohn'" font-size="48" rotate="-118.627">.</tspan><tspan x="6.805" y="265.556" fill="none" stroke="#FFFFFF" font-family="'BigJohn'" font-size="48" rotate="-98.098"> </tspan><tspan x="2.341" y="249.432" fill="none" stroke="#FFFFFF" font-family="'BigJohn'" font-size="48" rotate="-77.401">.</tspan><tspan x="0.433" y="241.64" fill="none" stroke="#FFFFFF" font-family="'BigJohn'" font-size="48" rotate="-56.068"> </tspan><tspan x="9.759" y="227.176" fill="none" stroke="#FFFFFF" font-family="'BigJohn'" font-size="48" rotate="-34.962">.</tspan><tspan x="15.702" y="221.064" fill="none" stroke="#FFFFFF" font-family="'BigJohn'" font-size="48" rotate="-12.699"> </tspan></text>
</g>
</svg>
