<?xml version="1.0" encoding="utf-8"?>
<!-- Generator: Adobe Illustrator 16.0.0, SVG Export Plug-In . SVG Version: 6.00 Build 0)  -->
<!DOCTYPE svg PUBLIC "-//W3C//DTD SVG 1.1//EN" "http://www.w3.org/Graphics/SVG/1.1/DTD/svg11.dtd">
<svg version="1.1" id="Layer_1" xmlns="http://www.w3.org/2000/svg" xmlns:xlink="http://www.w3.org/1999/xlink" x="0px" y="0px"
	 width="782.961px" height="664.076px" viewBox="0 0 782.961 664.076" enable-background="new 0 0 782.961 664.076"
	 xml:space="preserve">
<g>
	<g>
		<path fill="#EF78D3" d="M196.878,355.974c-18.281,6.82-32.421,19.696-42.62,35.752c-10.202,16.055-7.936,38.674-15.775,55.155
			c-7.568,14.975-21.375,42.05-43.127,36.576c-4.718-0.85-7.729-2.169-10.982-6.646c-2.468-4.333-0.462-10.972-7.948-9.987
			c-12.475,1.645-10.74,19.069-5.396,25.477c11.987,14.607,38.511,11.604,52.071,3.93c15.408-8.892,31.102-20.341,38.534-34.561
			c8.354-14.832,13.992-35.707,25.869-47.572c8.573-7.015,19.338-17.389,30.487-16.159c7.917,0.467,19.362,7.832,23.498,14.479
			c4.97,7.994,9.227,15.652,15.906,22.475c3.925,4.011,8.995,7.441,13.453,10.878c8.65,6.673,18.855,7.948,27.264-0.267
			c7.188-7.022,9.285-15.466,7.594-24.949c-1.104-6.178-3.628-10.326-5.942-16.078c-2.377-5.915-4.809-10.012-7.485-14.826
			c-5.416-9.737-12.064-18.27-21.247-24.286c-5.884-3.854-11.336-7.373-17.93-9.215c-5.737-1.601-12.191-2.34-18.255-2.828
			c-3.753-0.302-8.064,0.023-11.897,0.066C214.662,353.49,204.833,353.313,196.878,355.974z"/>
	</g>
	<g>
		<path fill="#D83FB8" d="M196.906,355.802c-18.282,6.823-32.423,19.698-42.622,35.756c-10.199,16.054-7.934,38.67-15.775,55.153
			c-7.566,14.975-21.375,42.049-43.125,36.576c-4.719-0.848-7.729-2.169-10.981-6.645c-2.47-4.334-1.238-10.818-7.948-9.988
			c-4.509,0.558-0.931,0.544,0.709,2.576c1.831,2.269,2.145,6.705,4.323,9.41c11.835,14.729,24.667,14.641,38.23,6.969
			c15.405-8.895,20.341-23.391,26.382-38.27c3.201-7.887,5.677-19.409,8.841-30.809c3.167-11.396,8.011-21.552,13.935-28.13
			c7.414-8.228,31.426-20.638,42.628-21.141c3.806-0.174,12.858-1.961,21.799-1.319c7.453,0.536,15.261,3.724,20.417,5.726
			c4.404,1.713,11.789,4.693,18.184,10.183c5.215,4.472,9.595,11.365,12.594,14.429c3.926,4.011,8.868,14.475,13.03,24.549
			c4.173,10.101-7.797,32.72,0.611,24.506c7.188-7.022,9.29-15.466,7.592-24.95c-1.1-6.178-3.628-10.327-5.938-16.079
			c-2.376-5.913-4.811-10.013-7.486-14.823c-5.417-9.739-12.066-18.271-21.247-24.289c-5.883-3.855-11.335-7.372-17.929-9.213
			c-5.74-1.603-12.376-3.128-18.437-3.618c-3.753-0.298-7.496-0.177-11.328-0.132C215.078,352.332,204.858,353.143,196.906,355.802z
			"/>
	</g>
	<g opacity="0.6">
		<path fill="#FFFFFF" d="M266.956,393.53c5.049,1.149,10.801,4.5,14.456,7.87c2.74,2.524,14.864,22.937,2.952,21.052
			c-6.81-1.076-9.009-13.637-13.128-18.475c-2.4-2.473-7.274-2.546-8.043-6.505c-0.25-2.832,2.115-4.551,5.125-3.727"/>
	</g>
	<g opacity="0.6">
		<path fill="#FFFFFF" d="M260.792,388.369c1.951,3.101-0.288,6.235-4.032,5.643c-3.406-0.539-5.769-5.447-1.934-7.632
			c1.917-1.094,6.682-0.341,6.146,3.064"/>
	</g>
	<g opacity="0.6">
		<path fill="#FFFFFF" d="M210.249,374.522c2.689-1.566,5.282,0.426,4.672,3.586c-0.556,2.874-4.792,4.736-6.532,1.417
			c-0.872-1.66-0.092-5.679,2.779-5.125"/>
	</g>
	<g opacity="0.6">
		<path fill="#FFFFFF" d="M74.235,475.275c1.438-0.838,2.829,0.229,2.5,1.921c-0.3,1.538-2.566,2.534-3.5,0.757
			c-0.462-0.887-0.046-3.038,1.493-2.742"/>
	</g>
	<g opacity="0.6">
		<path fill="#FFFFFF" d="M205.076,378.86c-0.089,2.778-1.612,3.584-4.211,4.568c-1.864,0.75-4.354,1.055-6.217,1.807
			c-2.706,1.666-5.395,5.428-8.852,5.23c-1.217-3.332,7.061-9.35,9.481-11.41c2.31-1.38,11.628-5.14,9.926,1.22"/>
	</g>
	<g opacity="0.6">
		<path fill="#FFFFFF" d="M79.2,479.852c-2.354-0.548-0.446,3.939,0.099,4.898c1.638,2.875,4.765,4.069,8.025,4.41
			c-0.697-2.205-4.299-2.601-5.507-4.885c-0.663-1.325-0.717-4.299-2.643-4.256"/>
	</g>
	<g>
		<g>
			<path fill="#B2E85D" d="M254.197,441.781c-6.852-3.146-9.855-11.252-6.709-18.104c3.148-6.854,10.332-7.845,17.182-4.697
				c6.853,3.146,10.781,9.238,7.633,16.094C269.155,441.926,261.049,444.93,254.197,441.781z"/>
			<path opacity="0.4" fill="#385066" d="M247.427,423.654c3.146-6.85,10.327-7.844,17.181-4.695
				c6.852,3.146,10.925,9.408,7.632,16.093c-3.568,7.236-3.011,1.111-5.275-4.532c-0.755-1.883-2.604-3.563-3.982-4.877
				c-1.556-1.479-4.961-2.453-7.644-2.346C250.616,423.488,246.547,425.566,247.427,423.654z"/>
			<g opacity="0.9">
				<path fill="#FFF9D9" d="M256.953,440.14c4.146-1.065-0.593-7.335-2.94-7.909c-6.663-0.912-0.025,11.68,3.75,7.526"/>
			</g>
		</g>
		<circle opacity="0.9" fill="#FFF9D9" cx="250.742" cy="429.993" r="1.582"/>
	</g>
	<g>
		<g>
			<path fill="#B2E85D" d="M234.168,413.717c-6.322,0.248-11.648-4.679-11.893-11.002c-0.248-6.323,4.751-9.793,11.072-10.037
				c6.323-0.25,11.577,2.82,11.824,9.144S240.491,413.471,234.168,413.717z"/>
			<path opacity="0.4" fill="#385066" d="M222.218,402.722c-0.247-6.322,4.75-9.792,11.074-10.039
				c6.322-0.247,11.75,2.892,11.822,9.147c0.079,6.768-1.829,1.977-5.669-1.39c-1.277-1.122-3.3-1.678-4.829-2.136
				c-1.728-0.517-4.644,0.046-6.612,1.146C224.544,401.389,222.286,404.486,222.218,402.722z"/>
			<g opacity="0.9">
				<path fill="#FFF9D9" d="M235.607,411.441c2.698-2.371-3.227-5.266-5.203-4.803c-5.331,1.848,4.417,8.752,5.664,4.209"/>
			</g>
		</g>
		<circle opacity="0.9" fill="#FFF9D9" cx="227.107" cy="406.207" r="1.328"/>
	</g>
	<g>
		<g>
			<path fill="#B2E85D" d="M204.48,412.689c-4.8,2.561-10.769,0.744-13.328-4.058c-2.56-4.8,0.009-9.357,4.811-11.918
				c4.799-2.559,10.014-2.149,12.576,2.649C211.099,404.166,209.28,410.131,204.48,412.689z"/>
			<path opacity="0.4" fill="#385066" d="M191.11,408.66c-2.558-4.803,0.013-9.359,4.811-11.92
				c4.802-2.561,10.179-2.162,12.578,2.649c2.595,5.21-0.676,2.216-4.91,1.048c-1.409-0.39-3.182-0.063-4.539,0.159
				c-1.531,0.245-3.574,1.773-4.685,3.363C192.411,406.754,191.826,409.996,191.11,408.66z"/>
			<g opacity="0.9">
				<path fill="#FFF9D9" d="M204.742,410.391c1.201-2.848-4.471-2.865-5.825-1.77c-3.434,3.431,6.696,5.121,5.958,1.138"/>
			</g>
		</g>
		<circle opacity="0.9" fill="#FFF9D9" cx="196.203" cy="409.524" r="1.141"/>
	</g>
	<g>
		<g>
			<path fill="#B2E85D" d="M184.867,428.488c-1.627,4.537-6.624,6.893-11.159,5.266c-4.535-1.628-5.562-6.147-3.936-10.681
				c1.627-4.536,5.294-7.372,9.829-5.747C184.137,418.957,186.496,423.953,184.867,428.488z"/>
			<path opacity="0.4" fill="#385066" d="M173.698,433.797c-4.539-1.629-5.565-6.148-3.936-10.683
				c1.625-4.536,5.39-7.474,9.827-5.743c4.804,1.873,0.873,1.854-2.596,3.606c-1.157,0.583-2.125,1.854-2.888,2.802
				c-0.855,1.071-1.288,3.295-1.071,4.996C173.415,431.772,174.962,434.25,173.698,433.797z"/>
			<g opacity="0.9">
				<path fill="#FFF9D9" d="M183.669,426.822c-0.905-2.582-4.637,0.781-4.875,2.306c-0.211,4.294,7.439-0.624,4.588-2.8"/>
			</g>
		</g>
		<circle opacity="0.9" fill="#FFF9D9" cx="177.55" cy="431.334" r="1.011"/>
	</g>
	<g>
		<g>
			<path fill="#B2E85D" d="M168.83,456.614c-1.373,3.832-5.596,5.823-9.428,4.447c-3.833-1.374-4.699-5.191-3.325-9.022
				c1.375-3.832,4.472-6.23,8.305-4.854C168.213,448.562,170.205,452.781,168.83,456.614z"/>
			<path opacity="0.4" fill="#385066" d="M159.394,461.097c-3.832-1.374-4.699-5.19-3.325-9.022
				c1.374-3.832,4.554-6.316,8.303-4.854c4.059,1.582,0.738,1.568-2.194,3.047c-0.977,0.494-1.795,1.568-2.438,2.369
				c-0.724,0.905-1.088,2.781-0.907,4.221C159.156,459.389,160.463,461.481,159.394,461.097z"/>
		</g>
		<circle opacity="0.9" fill="#FFF9D9" cx="163.284" cy="458.39" r="2.144"/>
	</g>
	<circle opacity="0.9" fill="#FFF9D9" cx="166.471" cy="456.407" r="0.785"/>
	<g>
		<g>
			<path fill="#B2E85D" d="M151.821,481.16c-2.74,2.523-7.005,2.347-9.527-0.389c-2.522-2.74-1.609-6.201,1.129-8.724
				c2.739-2.523,6.263-3.153,8.786-0.415C154.732,474.373,154.557,478.635,151.821,481.16z"/>
			<path opacity="0.4" fill="#385066" d="M142.271,480.794c-2.524-2.737-1.609-6.2,1.13-8.723c2.739-2.522,6.367-3.188,8.785-0.413
				c2.619,3.004-0.066,1.582-3.069,1.541c-1.002-0.016-2.119,0.507-2.979,0.885c-0.97,0.427-2.063,1.793-2.522,3.037
				C142.803,479.309,142.977,481.557,142.271,480.794z"/>
		</g>
		<circle opacity="0.9" fill="#FFF9D9" cx="146.571" cy="480.248" r="1.961"/>
	</g>
	<g>
		<g>
			<path fill="#B2E85D" d="M129.439,495.945c-3.333,0.455-6.401-1.879-6.857-5.211c-0.456-3.334,2.012-5.424,5.345-5.88
				c3.333-0.454,6.27,0.9,6.725,4.233C135.107,492.421,132.774,495.491,129.439,495.945z"/>
			<path opacity="0.4" fill="#385066" d="M122.554,490.74c-0.453-3.332,2.011-5.426,5.344-5.879
				c3.333-0.455,6.366,0.928,6.724,4.232c0.389,3.578-0.868,1.141-3.07-0.443c-0.735-0.529-1.83-0.719-2.666-0.885
				c-0.941-0.186-2.454,0.263-3.439,0.945C123.715,489.914,122.68,491.67,122.554,490.74z"/>
		</g>
		<circle opacity="0.9" fill="#FFF9D9" cx="126.022" cy="492.559" r="1.772"/>
	</g>
	<g>
		<g>
			<path fill="#B2E85D" d="M107.22,503.493c-2.839,0.386-5.457-1.604-5.841-4.44c-0.386-2.84,1.714-4.621,4.553-5.01
				c2.838-0.385,5.342,0.77,5.729,3.607C112.047,500.488,110.058,503.104,107.22,503.493z"/>
			<path opacity="0.4" fill="#385066" d="M101.355,499.059c-0.39-2.841,1.712-4.623,4.552-5.01c2.838-0.387,5.421,0.792,5.727,3.607
				c0.332,3.049-0.738,0.969-2.616-0.381c-0.626-0.448-1.56-0.611-2.271-0.75c-0.801-0.159-2.089,0.223-2.928,0.805
				C102.343,498.354,101.46,499.852,101.355,499.059z"/>
		</g>
		<circle opacity="0.9" fill="#FFF9D9" cx="104.308" cy="500.606" r="1.509"/>
	</g>
	<g>
		<g>
			<path fill="#B2E85D" d="M83.996,502.299c-1.893-1.134-2.507-3.589-1.373-5.482c1.137-1.892,3.258-1.949,5.152-0.813
				c1.892,1.134,2.836,3.033,1.703,4.925C88.342,502.82,85.89,503.436,83.996,502.299z"/>
			<path opacity="0.4" fill="#385066" d="M82.607,496.808c1.135-1.892,3.258-1.95,5.149-0.812c1.892,1.133,2.877,3.085,1.704,4.923
				c-1.269,1.993-0.91,0.228-1.388-1.488c-0.16-0.57-0.644-1.117-1.002-1.543c-0.406-0.48-1.365-0.874-2.148-0.93
				C83.542,496.861,82.29,497.336,82.607,496.808z"/>
		</g>
		<circle opacity="0.9" fill="#FFF9D9" cx="83.636" cy="499.163" r="1.162"/>
	</g>
	<circle opacity="0.9" fill="#FFF9D9" cx="150.285" cy="479.651" r="0.786"/>
	<circle opacity="0.9" fill="#FFF9D9" cx="129.64" cy="492.691" r="0.784"/>
	<g>
		<path fill="#EF78D3" d="M613.362,363.191c20.562,7.671,36.466,22.155,47.938,40.213c11.474,18.058,8.926,43.499,17.741,62.035
			c8.513,16.842,24.041,47.295,48.507,41.14c5.308-0.956,8.693-2.439,12.353-7.475c2.775-4.874,0.521-12.342,8.938-11.233
			c14.033,1.848,12.081,21.447,6.071,28.654c-13.481,16.428-43.315,13.051-58.568,4.42c-17.328-10.001-34.98-22.879-43.34-38.873
			c-9.396-16.682-15.737-40.161-29.098-53.505c-9.64-7.891-21.749-19.56-34.288-18.174c-8.904,0.524-21.778,8.81-26.431,16.283
			c-5.588,8.993-10.376,17.605-17.889,25.278c-4.416,4.511-10.116,8.37-15.131,12.236c-9.727,7.504-21.207,8.938-30.664-0.3
			c-8.086-7.901-10.445-17.396-8.543-28.064c1.243-6.948,4.081-11.612,6.685-18.081c2.673-6.652,5.405-11.262,8.418-16.676
			c6.091-10.951,13.568-20.55,23.898-27.315c6.617-4.334,12.749-8.293,20.168-10.364c6.451-1.801,13.712-2.633,20.529-3.182
			c4.223-0.339,9.071,0.025,13.382,0.075C593.361,360.397,604.415,360.2,613.362,363.191z"/>
	</g>
	<g>
		<path fill="#D83FB8" d="M613.333,362.999c20.56,7.674,36.467,22.156,47.937,40.216c11.473,18.059,8.925,43.496,17.744,62.033
			c8.509,16.843,24.041,47.294,48.505,41.139c5.306-0.955,8.692-2.439,12.352-7.473c2.776-4.875,1.393-12.169,8.939-11.234
			c5.07,0.627,1.049,0.611-0.798,2.898c-2.061,2.55-2.414,7.539-4.863,10.584c-13.311,16.565-27.745,16.464-42.997,7.836
			c-17.329-10.004-22.88-26.307-29.673-43.042c-3.601-8.871-6.386-21.831-9.945-34.65c-3.561-12.82-9.01-24.241-15.674-31.64
			c-8.34-9.255-35.348-23.213-47.946-23.779c-4.279-0.195-14.461-2.205-24.518-1.482c-8.383,0.602-17.165,4.187-22.963,6.439
			c-4.953,1.927-13.261,5.278-20.453,11.453c-5.864,5.032-10.79,12.784-14.164,16.229c-4.417,4.512-9.977,16.278-14.655,27.609
			c-4.693,11.36,8.77,36.803-0.688,27.563c-8.087-7.898-10.449-17.395-8.54-28.064c1.237-6.947,4.08-11.613,6.681-18.082
			c2.671-6.65,5.408-11.262,8.417-16.672c6.092-10.954,13.571-20.552,23.897-27.317c6.617-4.336,12.751-8.293,20.166-10.364
			c6.456-1.802,13.919-3.518,20.736-4.067c4.221-0.337,8.431-0.2,12.74-0.15C592.894,359.095,604.388,360.008,613.333,362.999z"/>
	</g>
	<g opacity="0.6">
		<path fill="#FFFFFF" d="M534.544,405.432c-5.681,1.295-12.147,5.063-16.258,8.852c-3.083,2.842-16.719,25.798-3.319,23.678
			c7.656-1.209,10.132-15.336,14.764-20.777c2.701-2.783,8.182-2.863,9.048-7.318c0.282-3.184-2.378-5.118-5.765-4.189"/>
	</g>
	<g opacity="0.6">
		<path fill="#FFFFFF" d="M541.477,399.628c-2.195,3.487,0.323,7.015,4.534,6.347c3.831-0.605,6.487-6.126,2.175-8.583
			c-2.157-1.23-7.516-0.384-6.912,3.446"/>
	</g>
	<g opacity="0.6">
		<path fill="#FFFFFF" d="M598.322,384.054c-3.021-1.762-5.94,0.479-5.253,4.034c0.624,3.232,5.39,5.326,7.346,1.594
			c0.981-1.867,0.104-6.389-3.126-5.765"/>
	</g>
	<g opacity="0.6">
		<path fill="#FFFFFF" d="M751.305,497.377c-1.618-0.942-3.18,0.258-2.811,2.16c0.336,1.729,2.884,2.85,3.936,0.852
			c0.521-0.997,0.053-3.418-1.679-3.085"/>
	</g>
	<g opacity="0.6">
		<path fill="#FFFFFF" d="M604.145,388.934c0.1,3.125,1.812,4.031,4.734,5.139c2.096,0.844,4.896,1.186,6.993,2.033
			c3.043,1.873,6.067,6.104,9.956,5.881c1.369-3.748-7.94-10.516-10.661-12.834c-2.601-1.551-13.08-5.779-11.165,1.373"/>
	</g>
	<g opacity="0.6">
		<path fill="#FFFFFF" d="M745.72,502.522c2.649-0.616,0.503,4.433-0.11,5.511c-1.842,3.234-5.359,4.576-9.025,4.959
			c0.784-2.48,4.833-2.924,6.194-5.492c0.744-1.492,0.805-4.837,2.971-4.786"/>
	</g>
	<g>
		<g>
			<path fill="#B2E85D" d="M548.895,459.703c7.706-3.537,11.086-12.654,7.545-20.359c-3.541-7.711-11.62-8.825-19.326-5.284
				c-7.706,3.536-12.123,10.39-8.584,18.102C532.069,459.867,541.187,463.244,548.895,459.703z"/>
			<path opacity="0.4" fill="#385066" d="M556.508,439.314c-3.537-7.704-11.614-8.822-19.323-5.281
				c-7.707,3.539-12.288,10.583-8.584,18.102c4.013,8.139,3.388,1.25,5.934-5.099c0.848-2.116,2.928-4.007,4.479-5.484
				c1.751-1.665,5.577-2.76,8.597-2.638C552.922,439.127,557.499,441.466,556.508,439.314z"/>
			<g opacity="0.9">
				<path fill="#FFF9D9" d="M545.794,457.857c-4.663-1.197,0.667-8.25,3.307-8.896c7.494-1.026,0.029,13.137-4.219,8.464"/>
			</g>
		</g>
		<circle opacity="0.9" fill="#FFF9D9" cx="552.779" cy="446.445" r="1.78"/>
	</g>
	<g>
		<g>
			<path fill="#B2E85D" d="M571.422,428.138c7.108,0.278,13.099-5.261,13.377-12.373c0.277-7.112-5.344-11.015-12.454-11.291
				c-7.112-0.28-13.022,3.175-13.299,10.284C558.77,421.871,564.311,427.861,571.422,428.138z"/>
			<path opacity="0.4" fill="#385066" d="M584.861,415.771c0.276-7.111-5.345-11.012-12.455-11.292
				c-7.11-0.276-13.215,3.254-13.295,10.288c-0.09,7.613,2.058,2.225,6.374-1.561c1.438-1.264,3.712-1.889,5.432-2.405
				c1.942-0.58,5.226,0.054,7.437,1.29C582.244,414.271,584.785,417.756,584.861,415.771z"/>
			<g opacity="0.9">
				<path fill="#FFF9D9" d="M569.802,425.58c-3.033-2.668,3.63-5.922,5.853-5.401c5.995,2.077-4.968,9.842-6.37,4.731"/>
			</g>
		</g>
		<path opacity="0.9" fill="#FFF9D9" d="M580.383,420.783c0.604-0.562,0.634-1.508,0.07-2.111c-0.562-0.602-1.506-0.635-2.107-0.072
			c-0.605,0.566-0.637,1.506-0.073,2.113C578.835,421.312,579.777,421.346,580.383,420.783z"/>
	</g>
	<g>
		<g>
			<path fill="#B2E85D" d="M604.813,426.984c5.397,2.879,12.11,0.834,14.989-4.564c2.878-5.4-0.009-10.525-5.41-13.405
				c-5.399-2.879-11.264-2.418-14.146,2.979C597.369,417.395,599.413,424.105,604.813,426.984z"/>
			<path opacity="0.4" fill="#385066" d="M619.849,422.451c2.878-5.401-0.012-10.526-5.41-13.408
				c-5.4-2.878-11.446-2.43-14.146,2.98c-2.922,5.861,0.761,2.493,5.522,1.18c1.584-0.439,3.579-0.07,5.104,0.178
				c1.721,0.275,4.021,1.996,5.27,3.781C618.388,420.307,619.044,423.955,619.849,422.451z"/>
			<g opacity="0.9">
				<path fill="#FFF9D9" d="M604.518,424.396c-1.348-3.203,5.029-3.221,6.554-1.988c3.86,3.855-7.533,5.758-6.703,1.278"/>
			</g>
		</g>
		<circle opacity="0.9" fill="#FFF9D9" cx="614.123" cy="423.422" r="1.284"/>
	</g>
	<g>
		<g>
			<path fill="#B2E85D" d="M626.873,444.752c1.83,5.103,7.451,7.753,12.551,5.924c5.102-1.831,6.257-6.914,4.427-12.014
				c-1.831-5.102-5.953-8.292-11.055-6.462C627.693,434.032,625.041,439.65,626.873,444.752z"/>
			<path opacity="0.4" fill="#385066" d="M639.436,450.723c5.104-1.832,6.259-6.916,4.426-12.016
				c-1.827-5.103-6.062-8.405-11.053-6.461c-5.403,2.109-0.982,2.088,2.918,4.059c1.304,0.656,2.392,2.085,3.248,3.15
				c0.964,1.207,1.451,3.706,1.205,5.619C639.752,448.447,638.014,451.234,639.436,450.723z"/>
			<g opacity="0.9">
				<path fill="#FFF9D9" d="M628.219,442.879c1.021-2.904,5.218,0.879,5.483,2.594c0.24,4.828-8.367-0.704-5.159-3.149"/>
			</g>
		</g>
		<path opacity="0.9" fill="#FFF9D9" d="M634.621,448.984c0.57,0.266,1.245,0.021,1.511-0.551c0.267-0.567,0.021-1.244-0.55-1.512
			c-0.568-0.262-1.246-0.016-1.513,0.551C633.803,448.041,634.053,448.721,634.621,448.984z"/>
	</g>
	<g>
		<g>
			<path fill="#B2E85D" d="M644.909,476.388c1.544,4.31,6.295,6.548,10.604,5.003c4.312-1.547,5.288-5.842,3.739-10.15
				c-1.545-4.31-5.028-7.005-9.339-5.458C645.603,467.33,643.363,472.076,644.909,476.388z"/>
			<path opacity="0.4" fill="#385066" d="M655.522,481.428c4.311-1.545,5.285-5.837,3.739-10.148
				c-1.544-4.309-5.121-7.103-9.338-5.458c-4.564,1.779-0.831,1.763,2.468,3.428c1.1,0.556,2.02,1.762,2.741,2.664
				c0.813,1.019,1.225,3.13,1.021,4.747C655.791,479.508,654.32,481.861,655.522,481.428z"/>
		</g>
		<circle opacity="0.9" fill="#FFF9D9" cx="651.148" cy="478.384" r="2.411"/>
	</g>
	<path opacity="0.9" fill="#FFF9D9" d="M647.191,476.957c0.442,0.205,0.967,0.014,1.173-0.43c0.206-0.441,0.015-0.965-0.429-1.174
		c-0.443-0.205-0.965-0.016-1.174,0.43C646.557,476.223,646.748,476.75,647.191,476.957z"/>
	<g>
		<g>
			<path fill="#B2E85D" d="M664.041,503.994c3.083,2.838,7.879,2.641,10.716-0.438c2.837-3.082,1.809-6.975-1.271-9.812
				c-3.08-2.838-7.042-3.544-9.882-0.466C660.766,496.359,660.962,501.154,664.041,503.994z"/>
			<path opacity="0.4" fill="#385066" d="M674.782,503.584c2.838-3.08,1.81-6.975-1.271-9.812c-3.079-2.837-7.161-3.586-9.881-0.466
				c-2.945,3.379,0.074,1.781,3.452,1.733c1.126-0.017,2.383,0.57,3.35,0.995c1.093,0.48,2.32,2.018,2.838,3.416
				C674.184,501.912,673.989,504.442,674.782,503.584z"/>
		</g>
		<path opacity="0.9" fill="#FFF9D9" d="M670.047,505.172c1.217-0.053,2.157-1.084,2.102-2.303c-0.055-1.218-1.086-2.16-2.303-2.102
			c-1.219,0.053-2.16,1.086-2.104,2.303C667.797,504.286,668.83,505.23,670.047,505.172z"/>
	</g>
	<g>
		<g>
			<path fill="#B2E85D" d="M689.214,520.625c3.748,0.512,7.203-2.113,7.713-5.863c0.513-3.747-2.263-6.1-6.011-6.611
				c-3.749-0.512-7.052,1.012-7.565,4.76C682.84,516.661,685.464,520.114,689.214,520.625z"/>
			<path opacity="0.4" fill="#385066" d="M696.958,514.771c0.512-3.749-2.261-6.104-6.009-6.613
				c-3.749-0.512-7.162,1.043-7.564,4.761c-0.438,4.023,0.976,1.282,3.452-0.499c0.827-0.596,2.061-0.808,3.001-0.994
				c1.057-0.209,2.759,0.295,3.867,1.062C695.652,513.842,696.816,515.814,696.958,514.771z"/>
		</g>
		<path opacity="0.9" fill="#FFF9D9" d="M694.271,518.396c0.874-0.67,1.038-1.922,0.369-2.795c-0.67-0.871-1.922-1.036-2.796-0.367
			c-0.871,0.67-1.039,1.921-0.368,2.795S693.398,519.065,694.271,518.396z"/>
	</g>
	<g>
		<g>
			<path fill="#B2E85D" d="M714.208,529.113c3.191,0.434,6.134-1.803,6.567-4.993c0.437-3.194-1.929-5.2-5.12-5.636
				c-3.193-0.433-6.009,0.865-6.443,4.059C708.775,525.734,711.014,528.676,714.208,529.113z"/>
			<path opacity="0.4" fill="#385066" d="M720.803,524.125c0.438-3.193-1.926-5.197-5.119-5.633c-3.192-0.437-6.1,0.89-6.443,4.057
				c-0.372,3.428,0.832,1.09,2.941-0.428c0.706-0.506,1.756-0.688,2.555-0.844c0.901-0.18,2.352,0.25,3.293,0.904
				C719.689,523.334,720.684,525.018,720.803,524.125z"/>
		</g>
		<path opacity="0.9" fill="#FFF9D9" d="M718.514,527.213c0.743-0.567,0.884-1.633,0.313-2.379c-0.57-0.744-1.635-0.885-2.38-0.313
			c-0.743,0.571-0.886,1.636-0.313,2.38C716.705,527.645,717.77,527.785,718.514,527.213z"/>
	</g>
	<g>
		<g>
			<path fill="#B2E85D" d="M740.327,527.77c2.129-1.275,2.819-4.037,1.542-6.165s-3.662-2.194-5.792-0.917
				c-2.129,1.276-3.192,3.412-1.917,5.543C735.438,528.357,738.198,529.049,740.327,527.77z"/>
			<path opacity="0.4" fill="#385066" d="M741.89,521.594c-1.278-2.128-3.665-2.191-5.793-0.914
				c-2.126,1.274-3.235,3.471-1.915,5.541c1.427,2.237,1.024,0.253,1.561-1.676c0.179-0.645,0.723-1.26,1.128-1.738
				c0.456-0.541,1.534-0.981,2.416-1.043C740.839,521.655,742.244,522.188,741.89,521.594z"/>
		</g>
		<circle opacity="0.9" fill="#FFF9D9" cx="740.731" cy="524.243" r="1.308"/>
	</g>
	<circle opacity="0.9" fill="#FFF9D9" cx="665.769" cy="502.297" r="0.883"/>
	<circle opacity="0.9" fill="#FFF9D9" cx="688.988" cy="516.965" r="0.882"/>
	<g>
		<path fill="#EF78D3" d="M185.929,423.807c-24.004,7.734-43.019,23.529-57.13,43.662c-14.112,20.131-12.515,49.469-23.604,70.29
			c-10.651,18.891-30.066,53.036-57.83,44.696c-6.043-1.375-9.853-3.256-13.791-9.224c-2.932-5.742,0.047-14.198-9.676-13.364
			c-16.203,1.391-14.987,23.993-8.466,32.58c14.624,19.56,49.048,17.238,67.007,8.13c20.415-10.579,41.351-24.441,51.782-42.366
			c11.655-18.66,20.159-45.284,36.195-59.906c11.478-8.553,25.987-21.318,40.308-19.074c10.197,1.066,24.543,11.249,29.491,20.072
			c5.948,10.616,10.998,20.752,19.221,29.952c4.833,5.411,11.176,10.138,16.729,14.837c10.777,9.123,23.881,11.367,35.218,1.255
			c9.697-8.646,12.9-19.423,11.272-31.77c-1.062-8.041-4.08-13.544-6.728-21.108c-2.722-7.774-5.622-13.209-8.796-19.58
			c-6.419-12.893-14.503-24.3-26.008-32.604c-7.371-5.322-14.203-10.188-22.613-12.95c-7.313-2.405-15.604-3.739-23.4-4.724
			c-4.829-0.609-10.415-0.444-15.366-0.611C209.035,421.641,196.354,420.841,185.929,423.807z"/>
	</g>
	<g>
		<path fill="#D83FB8" d="M185.975,423.588c-24.006,7.734-43.022,23.529-57.131,43.662c-14.111,20.133-12.515,49.471-23.604,70.291
			c-10.65,18.891-30.066,53.037-57.831,44.695c-6.041-1.373-9.852-3.255-13.79-9.225c-2.934-5.74-0.963-14.041-9.676-13.361
			c-5.854,0.455-1.236,0.644,0.764,3.365c2.232,3.038,2.378,8.783,5.031,12.406c14.416,19.711,30.992,20.35,48.952,11.238
			c20.412-10.58,27.638-29.004,36.31-47.863c4.595-9.995,8.469-24.728,13.224-39.26c4.755-14.528,11.606-27.357,19.644-35.502
			c10.054-10.191,41.786-24.805,56.281-24.797c4.922,0,16.715-1.777,28.222-0.423c9.591,1.126,19.486,5.7,26.027,8.591
			c5.583,2.473,14.947,6.751,22.881,14.215c6.47,6.082,11.72,15.24,15.413,19.369c4.834,5.41,10.602,19.209,15.385,32.462
			c4.792,13.284-11.989,41.79-0.651,31.677c9.697-8.646,12.903-19.424,11.27-31.77c-1.059-8.044-4.078-13.545-6.726-21.107
			c-2.721-7.774-5.623-13.211-8.793-19.58c-6.424-12.891-14.509-24.299-26.011-32.606c-7.371-5.322-14.202-10.187-22.609-12.947
			c-7.316-2.405-15.797-4.769-23.592-5.755c-4.826-0.605-9.666-0.669-14.618-0.836C209.64,420.17,196.398,420.619,185.975,423.588z"
			/>
	</g>
	<g opacity="0.6">
		<path fill="#FFFFFF" d="M274.205,476.408c6.454,1.782,13.682,6.447,18.203,11.013c3.392,3.421,17.848,30.485,2.576,27.353
			c-8.727-1.789-10.831-18.134-15.866-24.623c-2.956-3.332-9.242-3.713-10.003-8.871c-0.156-3.671,2.997-5.752,6.836-4.51"/>
	</g>
	<g opacity="0.6">
		<path fill="#FFFFFF" d="M266.551,469.385c2.341,4.117-0.739,8.034-5.538,7.047c-4.363-0.893-7.126-7.369-2.048-9.965
			c2.542-1.299,8.649-0.047,7.753,4.316"/>
	</g>
	<g opacity="0.6">
		<path fill="#FFFFFF" d="M202.104,448.541c3.563-1.863,6.794,0.859,5.82,4.904c-0.886,3.679-6.463,5.832-8.516,1.445
			c-1.026-2.19,0.214-7.338,3.889-6.451"/>
	</g>
	<g opacity="0.6">
		<path fill="#FFFFFF" d="M195.169,453.838c-0.281,3.581-2.293,4.531-5.704,5.654c-2.45,0.858-5.685,1.104-8.134,1.967
			c-3.592,1.99-7.285,6.691-11.736,6.23c-1.379-4.373,9.665-11.654,12.909-14.173c3.065-1.647,15.317-5.955,12.743,2.157"/>
	</g>
	<g>
		<g>
			<path fill="#B2E85D" d="M254.9,537.965c-8.662-4.465-12.063-15.107-7.597-23.77c4.465-8.666,13.798-9.525,22.459-5.058
				c8.663,4.464,13.375,12.563,8.909,21.231C274.208,539.027,263.565,542.432,254.9,537.965z"/>
			<path opacity="0.4" fill="#385066" d="M247.226,514.16c4.463-8.66,13.794-9.521,22.459-5.056
				c8.662,4.467,13.554,12.79,8.909,21.229c-5.032,9.133-3.953,1.26-6.549-6.163c-0.861-2.476-3.15-4.753-4.852-6.527
				c-1.923-2.003-6.261-3.462-9.731-3.479C251.353,514.133,245.976,516.578,247.226,514.16z"/>
			<g opacity="0.9">
				<path fill="#FFF9D9" d="M258.557,536.006c5.416-1.133-0.336-9.506-3.333-10.385c-8.548-1.566-0.719,15.08,4.399,9.937"/>
			</g>
		</g>
		<circle opacity="0.9" fill="#FFF9D9" cx="251.132" cy="522.541" r="2.044"/>
	</g>
	<g>
		<g>
			<path fill="#B2E85D" d="M230.687,500.551c-8.176-0.051-14.763-6.723-14.71-14.902c0.053-8.178,6.707-12.363,14.887-12.311
				c8.178,0.049,14.781,4.324,14.728,12.498C245.539,494.014,238.866,500.606,230.687,500.551z"/>
			<path opacity="0.4" fill="#385066" d="M215.903,485.654c0.055-8.178,6.71-12.364,14.889-12.313
				c8.178,0.052,15,4.425,14.727,12.503c-0.293,8.748-2.477,2.447-7.239-2.126c-1.585-1.524-4.162-2.359-6.109-3.042
				c-2.199-0.767-6-0.213-8.605,1.094C218.985,484.069,215.888,487.936,215.903,485.654z"/>
			<g opacity="0.9">
				<path fill="#FFF9D9" d="M232.679,497.697c3.623-2.902-3.858-6.986-6.436-6.504c-6.99,2.07,5.188,11.561,7.066,5.768"/>
			</g>
		</g>
		<path opacity="0.9" fill="#FFF9D9" d="M220.784,491.643c-0.663-0.677-0.651-1.766,0.029-2.426
			c0.678-0.665,1.763-0.652,2.421,0.025c0.668,0.678,0.654,1.764-0.024,2.428C222.533,492.33,221.45,492.318,220.784,491.643z"/>
	</g>
	<g>
		<g>
			<path fill="#B2E85D" d="M192.415,497.484c-6.348,3.023-13.947,0.326-16.97-6.021c-3.022-6.352,0.559-12.084,6.909-15.106
				c6.348-3.024,13.059-2.189,16.086,4.158C201.462,486.866,198.764,494.463,192.415,497.484z"/>
			<path opacity="0.4" fill="#385066" d="M175.393,491.494c-3.022-6.35,0.561-12.082,6.91-15.106
				c6.348-3.024,13.266-2.193,16.082,4.159c3.048,6.878-1.004,2.818-6.398,1.064c-1.799-0.584-4.104-0.265-5.871-0.062
				c-1.99,0.228-4.72,2.083-6.248,4.069C177.181,489.113,176.235,493.264,175.393,491.494z"/>
			<g opacity="0.9">
				<path fill="#FFF9D9" d="M192.887,494.529c1.718-3.606-5.603-3.961-7.417-2.623c-4.632,4.223,8.349,7.002,7.629,1.814"/>
			</g>
		</g>
		<path opacity="0.9" fill="#FFF9D9" d="M181.414,494.297c-0.767-0.273-1.167-1.117-0.89-1.886c0.278-0.767,1.122-1.163,1.89-0.89
			c0.764,0.275,1.163,1.125,0.886,1.89C183.026,494.176,182.18,494.572,181.414,494.297z"/>
	</g>
	<g>
		<g>
			<path fill="#B2E85D" d="M166.165,516.73c-2.369,5.76-8.959,8.513-14.718,6.145c-5.761-2.367-6.823-8.261-4.455-14.021
				c2.366-5.762,7.266-9.209,13.027-6.842C165.779,504.381,168.533,510.97,166.165,516.73z"/>
			<path opacity="0.4" fill="#385066" d="M151.432,522.93c-5.766-2.37-6.824-8.264-4.457-14.024
				c2.367-5.763,7.398-9.333,13.028-6.841c6.093,2.702,1.018,2.451-3.563,4.507c-1.529,0.685-2.854,2.269-3.892,3.45
				c-1.169,1.332-1.86,4.178-1.677,6.387C151.186,520.301,153.038,523.591,151.432,522.93z"/>
			<g opacity="0.9">
				<path fill="#FFF9D9" d="M164.715,514.513c-1.021-3.388-6.036,0.733-6.43,2.69c-0.527,5.527,9.645-0.372,6.088-3.348"/>
			</g>
		</g>
		<path opacity="0.9" fill="#FFF9D9" d="M157.046,521.186c-0.666,0.274-1.43-0.042-1.704-0.709
			c-0.274-0.668,0.042-1.432,0.706-1.709c0.669-0.271,1.435,0.045,1.709,0.711C158.035,520.145,157.713,520.911,157.046,521.186z"/>
	</g>
	<g>
		<g>
			<path fill="#B2E85D" d="M143.809,552.105c-2,4.867-7.568,7.189-12.434,5.191c-4.871-2-5.766-6.982-3.765-11.848
				c1.999-4.867,6.136-7.777,11.006-5.779C143.482,541.672,145.809,547.236,143.809,552.105z"/>
			<path opacity="0.4" fill="#385066" d="M131.361,557.342c-4.868-1.999-5.765-6.979-3.764-11.849
				c1.999-4.867,6.25-7.884,11.004-5.778c5.149,2.281,0.862,2.068-3.01,3.807c-1.288,0.58-2.409,1.916-3.285,2.915
				c-0.989,1.127-1.57,3.53-1.42,5.396C131.153,555.12,132.716,557.899,131.361,557.342z"/>
		</g>
		<path opacity="0.9" fill="#FFF9D9" d="M137.595,556.637c-1.412,0.584-3.033-0.091-3.617-1.506
			c-0.583-1.418,0.092-3.037,1.507-3.621c1.415-0.583,3.037,0.095,3.621,1.508C139.688,554.433,139.014,556.053,137.595,556.637z"/>
	</g>
	<circle opacity="0.9" fill="#FFF9D9" cx="140.773" cy="551.701" r="1.016"/>
	<g>
		<g>
			<path fill="#B2E85D" d="M120.403,582.801c-3.685,3.097-9.183,2.619-12.278-1.062c-3.099-3.687-1.712-8.101,1.973-11.198
				c3.683-3.096,8.269-3.702,11.365-0.02C124.561,574.206,124.086,579.701,120.403,582.801z"/>
			<path opacity="0.4" fill="#385066" d="M108.096,581.768c-3.098-3.684-1.715-8.102,1.97-11.193
				c3.686-3.099,8.409-3.744,11.367-0.021c3.208,4.029-0.176,2.041-4.052,1.811c-1.293-0.079-2.768,0.531-3.898,0.967
				c-1.279,0.496-2.77,2.194-3.437,3.775C108.869,579.881,108.961,582.795,108.096,581.768z"/>
		</g>
		<path opacity="0.9" fill="#FFF9D9" d="M113.449,583.841c-1.395-0.127-2.421-1.359-2.292-2.753
			c0.126-1.396,1.359-2.423,2.751-2.296c1.398,0.128,2.423,1.362,2.296,2.755C116.078,582.939,114.844,583.97,113.449,583.841z"/>
	</g>
	<g>
		<g>
			<path fill="#B2E85D" d="M90.638,600.58c-4.329,0.39-8.157-2.803-8.55-7.135c-0.39-4.328,2.918-6.885,7.249-7.276
				c4.33-0.393,8.042,1.533,8.435,5.858C98.162,596.36,94.97,600.188,90.638,600.58z"/>
			<path opacity="0.4" fill="#385066" d="M82.054,593.453c-0.392-4.33,2.913-6.888,7.244-7.277c4.33-0.393,8.167,1.574,8.435,5.861
				c0.292,4.643-1.188,1.42-3.938-0.753c-0.916-0.728-2.324-1.034-3.392-1.299c-1.201-0.293-3.183,0.194-4.495,1.018
				C83.602,592.456,82.161,594.662,82.054,593.453z"/>
		</g>
		<path opacity="0.9" fill="#FFF9D9" d="M84.949,597.758c-0.967-0.814-1.09-2.26-0.274-3.228c0.81-0.968,2.256-1.093,3.224-0.278
			c0.968,0.817,1.093,2.263,0.276,3.229C87.358,598.448,85.916,598.57,84.949,597.758z"/>
	</g>
	<g>
		<g>
			<path fill="#B2E85D" d="M61.506,609.018c-3.691,0.333-6.949-2.387-7.281-6.072c-0.334-3.689,2.485-5.869,6.17-6.203
				c3.689-0.332,6.855,1.306,7.186,4.994C67.914,605.424,65.192,608.683,61.506,609.018z"/>
			<path opacity="0.4" fill="#385066" d="M54.193,602.949c-0.337-3.687,2.483-5.867,6.172-6.201
				c3.687-0.332,6.954,1.341,7.184,4.996c0.25,3.953-1.013,1.205-3.356-0.645c-0.782-0.618-1.978-0.885-2.887-1.104
				c-1.025-0.252-2.713,0.165-3.829,0.869C55.51,602.096,54.285,603.98,54.193,602.949z"/>
		</g>
		<circle opacity="0.9" fill="#FFF9D9" cx="57.916" cy="605.123" r="1.951"/>
	</g>
	<path opacity="0.9" fill="#FFF9D9" d="M118.895,581.702c-0.517,0.213-1.11-0.033-1.323-0.552c-0.213-0.516,0.032-1.113,0.55-1.326
		c0.519-0.213,1.115,0.033,1.326,0.553C119.662,580.895,119.416,581.487,118.895,581.702z"/>
	<path opacity="0.9" fill="#FFF9D9" d="M91.474,597.327c-0.517,0.213-1.11-0.032-1.324-0.55c-0.211-0.52,0.035-1.113,0.555-1.325
		c0.515-0.216,1.107,0.032,1.322,0.552C92.24,596.522,91.996,597.117,91.474,597.327z"/>
	<g>
		<path fill="#EF95DE" d="M249.712,512.499c1.411-23.766,22.628-67.294,35.006-84.009c19.187-26.781,50.135-42.395,78.675-52.336
			c29.642-11.037,59.762-12.741,90.641-9.745c28.813,2.875,66.154,19.05,82.108,46.756c20.7,34.962,11.553,84.442-20.77,105.792
			c-14.993,8.418-17.741,19.888-27.785,32.086c-9.007,12.263-27.369,7.684-40.779,6.887c-43.325-2.569-86.857-1.663-130.25-3.075
			c-14.441-0.857-25.859-0.37-38.787-9.282C268.831,539.227,249.919,526.471,249.712,512.499"/>
	</g>
	<g opacity="0.7">
		<path fill="#D83FB8" d="M256.432,488.641c9.523,7.703,15.521,20.327,25.872,26.973c10.06,6.452,21.641,10.863,33.326,13.062
			c13.615,2.566,27.492,3.721,41.337,2.938c12.769-0.725,25.149-5.746,37.282-1.811c18.009,5.844,32.493-5.918,47.212-15.936
			c12.758-8.682,29.318-20.449,24.474-37.912c-2.81-10.123-21.23-29.99,2.558-27.75c9.73,0.918,15.298,6.125,25.78,3.745
			c7.544-1.714,14.153-5.804,19.095-11.9c2.677-3.298,15.965-28.752,18.748-29.276c16.409,3.182,15.902,47.291,14.033,58.707
			c-3.073,18.777-13.386,40.484-30.698,50.203c-14.993,8.417-17.742,19.889-27.783,32.09c-9.009,12.26-27.372,7.682-40.782,6.883
			c-43.325-2.568-86.855-1.663-130.25-3.072c-14.442-0.86-25.857-0.373-38.787-9.283c-8.94-6.348-27.85-19.105-28.058-33.074"/>
	</g>
	<path fill="#E8E2E7" d="M373.056,509.049c6.629,22.304,30.086,35.01,52.393,28.379c22.304-6.629,35.012-30.086,28.383-52.393"/>
	<g>
		<path fill="#EF78D3" d="M327.055,461.656c15.722,17.156,14.554,43.81-2.603,59.529c-17.162,15.719-43.812,14.551-59.531-2.605
			c-15.719-17.159-14.555-43.812,2.605-59.53C284.684,443.331,311.336,444.497,327.055,461.656z"/>
		<path fill="#E8E2E7" d="M334.842,473.939c8.921,21.496-1.269,46.146-22.761,55.068c-21.493,8.921-46.145-1.271-55.068-22.762"/>
	</g>
	<g>
		<path fill="#B2E85D" d="M480.25,368.161c5.146,4.65,5.551,12.595,0.898,17.741c-4.651,5.15-11.229,4.041-16.378-0.61
			c-5.148-4.651-6.914-11.083-2.263-16.23C467.159,363.91,475.102,363.509,480.25,368.161z"/>
		<path opacity="0.4" fill="#385066" d="M481.197,385.94c-4.651,5.147-11.229,4.04-16.377-0.61
			c-5.146-4.653-6.998-11.272-2.263-16.232c5.124-5.369,2.948-0.148,3.382,5.435c0.143,1.859,1.301,3.842,2.149,5.374
			c0.957,1.73,3.679,3.521,6.062,4.167C478.351,385.206,482.496,384.503,481.197,385.94z"/>
		<g opacity="0.9">
			<path fill="#FFF9D9" d="M477.376,368.845c-3.932-0.208-1.499,6.602,0.403,7.753c5.595,2.634,3.243-10.25-1.218-7.643"/>
		</g>
		<circle opacity="0.9" fill="#FFF9D9" cx="480.033" cy="379.461" r="1.455"/>
	</g>
	<g>
		<path fill="#B2E85D" d="M511.062,397.891c4.635,4.371,4.853,11.668,0.482,16.307c-4.368,4.635-10.386,3.49-15.021-0.879
			c-4.637-4.367-6.137-10.307-1.769-14.941C499.125,393.738,506.424,393.521,511.062,397.891z"/>
		<path opacity="0.4" fill="#385066" d="M511.589,414.23c-4.367,4.637-10.386,3.494-15.022-0.875
			c-4.636-4.371-6.207-10.482-1.765-14.946c4.807-4.832,2.708-0.077,2.998,5.053c0.096,1.712,1.122,3.556,1.872,4.979
			c0.846,1.604,3.309,3.302,5.486,3.939C508.992,413.502,512.809,412.938,511.589,414.23z"/>
		<g opacity="0.9">
			<path fill="#FFF9D9" d="M508.41,398.461c-3.604-0.265-1.505,6.033,0.221,7.125c5.085,2.528,3.173-9.344-0.968-7.036"/>
		</g>
		<path opacity="0.9" fill="#FFF9D9" d="M511.98,408.225c0.021,0.739-0.562,1.354-1.302,1.37c-0.737,0.021-1.351-0.563-1.369-1.3
			c-0.018-0.739,0.566-1.354,1.303-1.371C511.352,406.906,511.964,407.49,511.98,408.225z"/>
	</g>
	<g>
		<path fill="#B2E85D" d="M420.493,362.065c5.573-0.583,10.563,3.461,11.146,9.035c0.584,5.572-3.63,8.929-9.204,9.511
			c-5.573,0.585-10.391-1.823-10.974-7.398C410.876,367.639,414.92,362.65,420.493,362.065z"/>
		<path opacity="0.4" fill="#385066" d="M431.688,371.09c0.583,5.573-3.632,8.927-9.205,9.511
			c-5.573,0.583-10.55-1.877-10.976-7.399c-0.462-5.978,1.504-1.852,5.09,0.9c1.194,0.917,3.014,1.292,4.393,1.609
			c1.553,0.357,4.101-0.309,5.773-1.395C429.711,372.405,431.524,369.535,431.688,371.09z"/>
		<g opacity="0.9">
			<path fill="#FFF9D9" d="M419.353,364.161c-2.245,2.25,3.156,4.465,4.875,3.94c4.604-1.937-4.407-7.478-5.247-3.39"/>
		</g>
		<path opacity="0.9" fill="#FFF9D9" d="M427.911,367.385c0.503,0.409,0.576,1.151,0.167,1.653
			c-0.413,0.501-1.153,0.577-1.658,0.165c-0.501-0.41-0.574-1.15-0.163-1.655C426.668,367.048,427.409,366.973,427.911,367.385z"/>
	</g>
	<g>
		<path fill="#B2E85D" d="M448.828,394.922c3.96,1.041,6.328,5.087,5.288,9.049c-1.041,3.959-4.787,5.164-8.747,4.125
			c-3.957-1.039-6.629-3.928-5.593-7.888C440.818,396.25,444.869,393.882,448.828,394.922z"/>
		<path opacity="0.4" fill="#385066" d="M454.15,403.977c-1.039,3.959-4.785,5.165-8.743,4.125
			c-3.961-1.038-6.727-4.005-5.592-7.888c1.227-4.204,1.504-0.876,3.245,1.929c0.581,0.937,1.727,1.659,2.585,2.232
			c0.972,0.646,2.883,0.846,4.309,0.537C452.46,404.367,454.441,402.873,454.15,403.977z"/>
		<g opacity="0.9">
			<path fill="#FFF9D9" d="M447.508,396.059c-2.113,0.96,1.006,3.867,2.315,3.951c3.648-0.138-1.081-6.246-2.712-3.669"/>
		</g>
		<path opacity="0.9" fill="#FFF9D9" d="M452.526,400.468c0.237,0.412,0.095,0.936-0.313,1.174
			c-0.412,0.237-0.938,0.097-1.172-0.312c-0.24-0.411-0.098-0.938,0.311-1.174C451.764,399.919,452.29,400.06,452.526,400.468z"/>
	</g>
	<g>
		<path fill="#B2E85D" d="M483.069,421.627c4.995,3.402,6.288,10.213,2.884,15.209c-3.404,4.998-9.213,4.824-14.211,1.418
			c-4.996-3.398-7.288-8.742-3.885-13.742C471.262,419.518,478.07,418.225,483.069,421.627z"/>
		<path opacity="0.4" fill="#385066" d="M486.001,436.863c-3.401,4.996-9.215,4.82-14.213,1.416
			c-4.995-3.401-7.381-8.895-3.882-13.74c3.784-5.247,2.528-0.477,3.562,4.289c0.347,1.588,1.584,3.164,2.499,4.383
			c1.032,1.38,3.592,2.605,5.73,2.877C483.455,436.567,486.949,435.467,486.001,436.863z"/>
		<g opacity="0.9">
			<path fill="#FFF9D9" d="M480.669,422.557c-3.419,0.289-0.511,5.879,1.267,6.645c5.147,1.611,1.582-9.23-1.958-6.449"/>
		</g>
		<path opacity="0.9" fill="#FFF9D9" d="M485.473,431.178c0.126,0.688-0.329,1.348-1.018,1.479c-0.688,0.126-1.35-0.331-1.477-1.02
			c-0.127-0.69,0.327-1.349,1.016-1.478C484.684,430.035,485.346,430.486,485.473,431.178z"/>
	</g>
	<g>
		<path fill="#B2E85D" d="M524.54,429.32c2.512,3.053,2.074,7.561-0.974,10.074c-3.049,2.512-6.666,1.339-9.178-1.711
			c-2.513-3.05-2.973-6.823,0.079-9.336C517.517,425.835,522.025,426.27,524.54,429.32z"/>
		<path opacity="0.4" fill="#385066" d="M523.59,439.42c-3.048,2.511-6.665,1.337-9.176-1.713s-3.003-6.935,0.078-9.336
			c3.336-2.597,1.672,0.166,1.449,3.348c-0.071,1.058,0.416,2.272,0.767,3.207c0.396,1.053,1.779,2.291,3.067,2.854
			C522.047,438.768,524.44,438.719,523.59,439.42z"/>
		<g opacity="0.9">
			<path fill="#FFF9D9" d="M522.864,429.467c-2.199-0.445-1.396,3.593-0.42,4.401c2.932,1.954,2.681-5.505-0.051-4.407"/>
		</g>
		<path opacity="0.9" fill="#FFF9D9" d="M524.298,435.755c-0.045,0.454-0.45,0.788-0.905,0.741c-0.457-0.045-0.788-0.453-0.743-0.91
			c0.047-0.455,0.454-0.785,0.911-0.741C524.014,434.893,524.345,435.297,524.298,435.755z"/>
	</g>
	<g>
		<path fill="#B2E85D" d="M515.542,464.787c1.719,5.797-1.591,11.888-7.386,13.607c-5.795,1.717-10.187-2.093-11.902-7.889
			c-1.719-5.8-0.115-11.385,5.682-13.102C507.731,455.688,513.824,458.991,515.542,464.787z"/>
		<path opacity="0.4" fill="#385066" d="M508.175,478.445c-5.794,1.716-10.185-2.095-11.903-7.893
			c-1.718-5.795-0.089-11.56,5.683-13.1c6.251-1.668,2.262,1.229,0.05,5.576c-0.735,1.449-0.775,3.451-0.839,4.977
			c-0.074,1.721,1.138,4.288,2.618,5.85C506.394,476.605,509.794,477.965,508.175,478.445z"/>
		<g opacity="0.9">
			<path fill="#FFF9D9" d="M513.094,463.99c-2.828-1.939-4.111,4.231-3.218,5.951c2.965,4.5,7.062-6.152,2.562-6.237"/>
		</g>
		<circle opacity="0.9" fill="#FFF9D9" cx="510.251" cy="473.095" r="1.269"/>
	</g>
	<g>
		<path fill="#B2E85D" d="M484.164,457.237c2.526,2.683,2.4,6.901-0.278,9.427c-2.682,2.527-6.113,1.66-8.642-1.021
			c-2.524-2.678-3.186-6.158-0.506-8.686C477.42,454.432,481.641,454.56,484.164,457.237z"/>
		<path opacity="0.4" fill="#385066" d="M483.908,466.686c-2.68,2.527-6.111,1.66-8.639-1.02c-2.524-2.684-3.223-6.262-0.507-8.686
			c2.942-2.623,1.567,0.047,1.56,3.021c-0.004,0.989,0.524,2.088,0.908,2.937c0.432,0.951,1.798,2.019,3.031,2.461
			C482.437,466.177,484.657,465.98,483.908,466.686z"/>
		<g opacity="0.9">
			<path fill="#FFF9D9" d="M482.615,457.478c-2.071-0.276-1.075,3.43-0.117,4.118c2.85,1.633,2.152-5.283-0.318-4.093"/>
		</g>
		<path opacity="0.9" fill="#FFF9D9" d="M484.343,463.235c-0.016,0.426-0.375,0.759-0.799,0.746c-0.428-0.015-0.763-0.372-0.747-0.8
			c0.017-0.426,0.372-0.759,0.8-0.748C484.025,462.451,484.356,462.811,484.343,463.235z"/>
	</g>
	<g>
		<path fill="#B2E85D" d="M402.628,389.747c3.616-0.698,7.115,1.666,7.813,5.283c0.7,3.617-1.871,6.051-5.485,6.752
			c-3.62,0.697-6.911-0.605-7.609-4.222C396.647,393.944,399.013,390.447,402.628,389.747z"/>
		<path opacity="0.4" fill="#385066" d="M410.472,395.019c0.7,3.618-1.869,6.054-5.488,6.754c-3.614,0.698-7.011-0.63-7.606-4.22
			c-0.641-3.889,0.881-1.298,3.385,0.299c0.833,0.532,2.047,0.675,2.967,0.803c1.04,0.146,2.667-0.435,3.703-1.242
			C409.253,395.995,410.278,394.012,410.472,395.019z"/>
		<g opacity="0.9">
			<path fill="#FFF9D9" d="M402,391.184c-1.342,1.602,2.322,2.745,3.417,2.305c2.907-1.532-3.312-4.647-3.627-1.923"/>
		</g>
		<circle opacity="0.9" fill="#FFF9D9" cx="407.354" cy="393.446" r="0.772"/>
	</g>
	<g>
		<path fill="#B2E85D" d="M384.453,366.744c3.446-1.299,7.292,0.444,8.59,3.889c1.297,3.449-0.826,6.284-4.271,7.581
			c-3.448,1.297-6.912,0.566-8.21-2.879C379.264,371.887,381.005,368.042,384.453,366.744z"/>
		<path opacity="0.4" fill="#385066" d="M393.071,370.62c1.298,3.447-0.826,6.281-4.271,7.578c-3.447,1.297-7.021,0.561-8.208-2.879
			c-1.289-3.725,0.645-1.426,3.384-0.274c0.913,0.386,2.129,0.321,3.06,0.293c1.048-0.029,2.556-0.879,3.44-1.847
			C392.034,371.785,392.711,369.659,393.071,370.62z"/>
		<g opacity="0.9">
			<path fill="#FFF9D9" d="M384.076,368.262c-1.052,1.807,2.751,2.315,3.757,1.7c2.605-2-4.048-4.023-3.901-1.286"/>
		</g>
		<circle opacity="0.9" fill="#FFF9D9" cx="389.732" cy="369.594" r="0.772"/>
	</g>
	<g>
		<path fill="#B2E85D" d="M552.167,436.865c2.513,3.051,2.077,7.562-0.974,10.072c-3.05,2.513-6.662,1.339-9.177-1.711
			c-2.513-3.053-2.973-6.823,0.078-9.335C545.144,433.379,549.654,433.814,552.167,436.865z"/>
		<path opacity="0.4" fill="#385066" d="M551.218,446.963c-3.051,2.512-6.664,1.34-9.176-1.712
			c-2.512-3.049-3.003-6.935,0.077-9.336c3.337-2.595,1.674,0.167,1.451,3.343c-0.073,1.062,0.414,2.276,0.765,3.21
			c0.396,1.054,1.778,2.293,3.068,2.853C549.675,446.312,552.072,446.262,551.218,446.963z"/>
		<g opacity="0.9">
			<path fill="#FFF9D9" d="M550.492,437.014c-2.198-0.448-1.396,3.592-0.421,4.398c2.934,1.951,2.682-5.504-0.046-4.408"/>
		</g>
		<circle opacity="0.9" fill="#FFF9D9" cx="551.102" cy="443.215" r="0.828"/>
	</g>
	<g>
		<path fill="#B2E85D" d="M550.665,470.516c-0.838,3.863-4.647,6.314-8.509,5.477c-3.862-0.837-5.18-4.405-4.345-8.266
			c0.839-3.86,3.517-6.557,7.378-5.721C549.052,462.844,551.504,466.654,550.665,470.516z"/>
		<path opacity="0.4" fill="#385066" d="M542.15,476.025c-3.862-0.838-5.18-4.4-4.342-8.264c0.839-3.859,3.587-6.652,7.377-5.721
			c4.106,1.01,0.908,1.415-1.726,3.211c-0.878,0.6-1.53,1.734-2.044,2.587c-0.584,0.964-0.697,2.816-0.34,4.179
			C541.705,474.411,543.229,476.26,542.15,476.025z"/>
		<g opacity="0.9">
			<path fill="#FFF9D9" d="M549.515,469.289c-1.014-1.999-3.687,1.131-3.718,2.4c0.284,3.512,5.984-1.307,3.429-2.77"/>
		</g>
		<path opacity="0.9" fill="#FFF9D9" d="M545.469,474.312c-0.389,0.246-0.898,0.132-1.146-0.252
			c-0.244-0.391-0.133-0.898,0.253-1.146c0.388-0.246,0.9-0.133,1.146,0.255C545.967,473.554,545.853,474.066,545.469,474.312z"/>
	</g>
	<g>
		<path fill="#B2E85D" d="M533.776,495.562c-1.538,3.64-5.738,5.343-9.377,3.804c-3.644-1.54-4.273-5.284-2.738-8.923
			c1.54-3.644,4.669-5.798,8.311-4.257C533.611,487.724,535.314,491.922,533.776,495.562z"/>
		<path opacity="0.4" fill="#385066" d="M524.388,499.398c-3.64-1.541-4.275-5.286-2.737-8.926c1.539-3.637,4.756-5.873,8.311-4.255
			c3.846,1.752,0.631,1.56-2.291,2.835c-0.974,0.426-1.824,1.42-2.489,2.166c-0.751,0.836-1.207,2.637-1.106,4.04
			C524.25,497.73,525.405,499.826,524.388,499.398z"/>
		<g opacity="0.9">
			<path fill="#FFF9D9" d="M532.872,494.143c-0.625-2.152-3.831,0.428-4.097,1.666c-0.37,3.504,6.118-0.174,3.884-2.084"/>
		</g>
		<circle opacity="0.9" fill="#FFF9D9" cx="527.656" cy="497.559" r="0.829"/>
	</g>
	<g>
		<path fill="#B2E85D" d="M535.134,399.985c3.304,2.167,4.227,6.603,2.06,9.908c-2.167,3.306-5.964,3.258-9.271,1.092
			c-3.305-2.164-4.865-5.631-2.697-8.936C527.391,398.743,531.827,397.821,535.134,399.985z"/>
		<path opacity="0.4" fill="#385066" d="M537.227,409.91c-2.168,3.304-5.967,3.258-9.272,1.09c-3.304-2.164-4.927-5.729-2.698-8.936
			c2.414-3.473,1.647-0.341,2.38,2.762c0.243,1.035,1.071,2.047,1.682,2.838c0.69,0.888,2.38,1.658,3.779,1.811
			C535.559,409.746,537.828,408.987,537.227,409.91z"/>
		<g opacity="0.9">
			<path fill="#FFF9D9" d="M533.575,400.623c-2.231,0.228-0.267,3.846,0.906,4.327c3.382,0.994,0.926-6.05-1.355-4.192"/>
		</g>
		<circle opacity="0.9" fill="#FFF9D9" cx="536.001" cy="406.365" r="0.829"/>
	</g>
	<g opacity="0.6">
		<path fill="#FFFFFF" d="M312.854,430.607c4.465-13.952,13.99-23.971,28.16-28.751c4.731-1.703,14.793-4.083,16.029,2.933
			c1.045,4.695-0.296,10.568-3.477,14.016c-4.266,5.038-11.129,9.26-16.328,13.25c-3.451,2.44-8.24,5.134-12.603,6.194
			c-3.355,0.794-6.668,0.931-9.128-2.194c-1.241-1.395-3.332-5.158-1.896-7.057"/>
	</g>
	<g opacity="0.6">
		<path fill="#FFFFFF" d="M363.969,394.287c2.148-3.73,5.385-5.463,9.524-6.181c5.101-0.664,6.822,2.814,3.005,6.204
			c-2.796,2.482-6.201,3.004-9.337,3.06c-1.199-0.071-3.39,0.279-4.055-0.725c-0.634-1.483,0.936-3.558,2.178-4.207"/>
	</g>
	<g>
		<path fill="#EF78D3" d="M582.185,441.387c22.813,7.613,40.79,22.869,54.049,42.207c13.255,19.338,11.442,47.301,21.81,67.268
			c9.969,18.121,28.146,50.877,54.705,43.197c5.774-1.251,9.427-3.006,13.245-8.658c2.852-5.447,0.094-13.539,9.358-12.65
			c15.439,1.488,14.055,23.031,7.748,31.155c-14.137,18.51-46.943,15.954-63.979,7.088c-19.364-10.294-39.191-23.719-48.96-40.916
			c-10.931-17.913-18.777-43.384-33.923-57.49c-10.86-8.271-24.57-20.585-38.251-18.589c-9.733,0.916-23.516,10.482-28.322,18.848
			c-5.778,10.062-10.692,19.68-18.627,28.373c-4.66,5.112-10.759,9.557-16.103,13.98c-10.368,8.595-22.886,10.604-33.597,0.851
			c-9.162-8.343-12.109-18.653-10.433-30.411c1.092-7.658,4.024-12.875,6.626-20.062c2.67-7.387,5.491-12.54,8.581-18.583
			c6.251-12.231,14.073-23.03,25.127-30.836c7.082-5.001,13.646-9.572,21.692-12.126c6.998-2.219,14.919-3.408,22.363-4.27
			c4.61-0.535,9.936-0.322,14.658-0.433C560.173,439.096,572.271,438.456,582.185,441.387z"/>
	</g>
	<g>
		<path fill="#D83FB8" d="M582.142,441.18c22.817,7.615,40.794,22.867,54.049,42.207c13.257,19.338,11.445,47.299,21.812,67.264
			c9.969,18.122,28.146,50.878,54.706,43.199c5.774-1.247,9.429-3.006,13.243-8.66c2.854-5.443,1.056-13.379,9.358-12.646
			c5.579,0.495,1.173,0.631-0.763,3.204c-2.158,2.874-2.355,8.352-4.92,11.78c-13.943,18.656-29.758,19.098-46.796,10.232
			c-19.361-10.293-26.066-27.935-34.149-46.006c-4.284-9.579-7.831-23.666-12.219-37.57c-4.393-13.904-10.799-26.205-18.382-34.053
			c-9.487-9.818-39.603-24.07-53.427-24.209c-4.694-0.047-15.923-1.858-26.91-0.682c-9.158,0.979-18.641,5.244-24.905,7.935
			c-5.351,2.302-14.32,6.288-21.962,13.327c-6.229,5.736-11.326,14.416-14.892,18.318c-4.666,5.111-10.301,18.213-14.991,30.805
			c-4.705,12.621,11.015,39.973,0.302,30.215c-9.159-8.342-12.11-18.65-10.43-30.408c1.09-7.659,4.023-12.878,6.624-20.062
			c2.674-7.388,5.491-12.541,8.58-18.586c6.252-12.228,14.075-23.027,25.128-30.836c7.082-5.001,13.646-9.574,21.689-12.124
			c7.003-2.22,15.111-4.388,22.556-5.251c4.608-0.531,9.225-0.541,13.949-0.65C559.605,437.687,572.23,438.244,582.142,441.18z"/>
	</g>
	<g opacity="0.6">
		<path fill="#FFFFFF" d="M497.479,490.677c-6.173,1.636-13.113,6.011-17.47,10.319c-3.269,3.229-17.323,28.896-2.729,26.06
			c8.343-1.619,10.509-17.187,15.375-23.325c2.853-3.146,8.854-3.447,9.627-8.36c0.188-3.498-2.8-5.515-6.473-4.368"/>
	</g>
	<g opacity="0.6">
		<path fill="#FFFFFF" d="M504.845,484.055c-2.271,3.902,0.626,7.668,5.214,6.775c4.17-0.811,6.867-6.959,2.051-9.484
			c-2.412-1.265-8.248-0.129-7.438,4.042"/>
	</g>
	<g opacity="0.6">
		<path fill="#FFFFFF" d="M566.511,464.814c-3.378-1.812-6.487,0.755-5.598,4.621c0.808,3.514,6.104,5.629,8.107,1.465
			c1-2.082-0.132-7.004-3.647-6.193"/>
	</g>
	<g opacity="0.6">
		<path fill="#FFFFFF" d="M738.417,583.068c-1.81-0.969-3.474,0.404-2.997,2.476c0.435,1.88,3.27,3.009,4.342,0.782
			c0.533-1.112-0.071-3.748-1.955-3.314"/>
	</g>
	<g opacity="0.6">
		<path fill="#FFFFFF" d="M573.072,469.938c0.235,3.418,2.142,4.346,5.384,5.446c2.33,0.846,5.411,1.111,7.739,1.958
			c3.405,1.935,6.881,6.452,11.132,6.06c1.354-4.159-9.103-11.212-12.172-13.646c-2.907-1.6-14.549-5.829-12.176,1.932"/>
	</g>
	<g opacity="0.6">
		<path fill="#FFFFFF" d="M732.496,588.922c2.877-0.779,0.72,4.834,0.09,6.037c-1.893,3.615-5.692,5.22-9.695,5.777
			c0.763-2.748,5.184-3.387,6.576-6.252c0.756-1.662,0.694-5.331,3.069-5.356"/>
	</g>
	<g>
		<g>
			<path fill="#B2E85D" d="M515.275,549.568c8.304-4.17,11.654-14.285,7.481-22.59c-4.171-8.31-13.064-9.221-21.366-5.047
				c-8.308,4.17-12.881,11.85-8.708,20.155C496.852,550.393,506.967,553.742,515.275,549.568z"/>
			<path opacity="0.4" fill="#385066" d="M522.832,526.944c-4.169-8.304-13.062-9.217-21.367-5.044
				c-8.306,4.171-13.054,12.064-8.707,20.156c4.706,8.762,3.755,1.239,6.304-5.811c0.847-2.354,3.052-4.501,4.694-6.176
				c1.854-1.895,6.005-3.242,9.315-3.223C518.896,526.879,523.999,529.264,522.832,526.944z"/>
			<g opacity="0.9">
				<path fill="#FFF9D9" d="M511.808,547.664c-5.151-1.133,0.415-9.062,3.28-9.869c8.17-1.41,0.537,14.388-4.295,9.432"/>
			</g>
		</g>
		<path opacity="0.9" fill="#FFF9D9" d="M520.876,535.502c0.336-1.023-0.228-2.125-1.251-2.458c-1.023-0.331-2.124,0.228-2.457,1.25
			c-0.331,1.024,0.226,2.126,1.249,2.458C519.44,537.086,520.541,536.525,520.876,535.502z"/>
	</g>
	<g>
		<g>
			<path fill="#B2E85D" d="M538.738,514.133c7.797,0.031,14.146-6.267,14.176-14.068c0.031-7.799-6.272-11.857-14.073-11.889
				c-7.801-0.032-14.138,3.979-14.171,11.777C524.64,507.75,530.939,514.102,538.738,514.133z"/>
			<path opacity="0.4" fill="#385066" d="M552.985,500.071c0.029-7.799-6.278-11.856-14.076-11.89
				c-7.8-0.029-14.351,4.07-14.169,11.779c0.194,8.342,2.34,2.355,6.926-1.959c1.525-1.438,3.99-2.207,5.855-2.838
				c2.104-0.711,5.722-0.143,8.194,1.127C550.061,498.529,552.975,502.248,552.985,500.071z"/>
			<g opacity="0.9">
				<path fill="#FFF9D9" d="M536.868,511.39c-3.428-2.805,3.747-6.626,6.199-6.14c6.647,2.045-5.06,10.974-6.795,5.43"/>
			</g>
		</g>
		<path opacity="0.9" fill="#FFF9D9" d="M548.269,505.734c0.641-0.641,0.639-1.678-0.001-2.314c-0.642-0.643-1.676-0.64-2.311,0
			c-0.642,0.639-0.642,1.676,0,2.315C546.597,506.371,547.629,506.371,548.269,505.734z"/>
	</g>
	<g>
		<g>
			<path fill="#B2E85D" d="M575.265,511.588c6.024,2.943,13.3,0.449,16.245-5.574c2.943-6.025-0.415-11.529-6.439-14.476
				c-6.025-2.946-12.43-2.217-15.38,3.808C566.744,501.369,569.241,508.644,575.265,511.588z"/>
			<path opacity="0.4" fill="#385066" d="M591.562,506.045c2.943-6.026-0.417-11.529-6.441-14.477
				c-6.023-2.947-12.63-2.223-15.379,3.807c-2.975,6.527,0.93,2.7,6.093,1.08c1.721-0.539,3.918-0.212,5.599-0.002
				c1.896,0.236,4.481,2.033,5.918,3.942C589.877,503.754,590.737,507.723,591.562,506.045z"/>
			<g opacity="0.9">
				<path fill="#FFF9D9" d="M574.846,508.766c-1.603-3.458,5.382-3.723,7.099-2.428c4.376,4.072-8.03,6.594-7.291,1.654"/>
			</g>
		</g>
		<path opacity="0.9" fill="#FFF9D9" d="M585.79,508.656c0.733-0.252,1.123-1.058,0.868-1.789c-0.26-0.734-1.061-1.123-1.795-0.865
			c-0.731,0.255-1.122,1.058-0.864,1.791C584.254,508.525,585.056,508.912,585.79,508.656z"/>
	</g>
	<g>
		<g>
			<path fill="#B2E85D" d="M600.108,530.204c2.202,5.515,8.459,8.205,13.976,6.005c5.517-2.201,6.586-7.812,4.388-13.328
				c-2.199-5.518-6.837-8.854-12.356-6.655C600.597,518.43,597.909,524.686,600.108,530.204z"/>
			<path opacity="0.4" fill="#385066" d="M614.098,536.26c5.52-2.203,6.59-7.812,4.391-13.33c-2.201-5.519-6.965-8.975-12.356-6.652
				c-5.838,2.516-0.996,2.325,3.353,4.332c1.452,0.67,2.697,2.192,3.677,3.331c1.102,1.28,1.729,4.001,1.536,6.106
				C614.356,533.755,612.559,536.875,614.098,536.26z"/>
			<g opacity="0.9">
				<path fill="#FFF9D9" d="M601.512,528.101c1.009-3.221,5.749,0.76,6.107,2.628c0.447,5.279-9.192-0.448-5.773-3.252"/>
			</g>
		</g>
		<path opacity="0.9" fill="#FFF9D9" d="M608.76,534.542c0.633,0.269,1.363-0.027,1.634-0.66c0.266-0.634-0.026-1.367-0.659-1.636
			c-0.635-0.268-1.368,0.03-1.637,0.66C607.827,533.539,608.126,534.271,608.76,534.542z"/>
	</g>
	<g>
		<g>
			<path fill="#B2E85D" d="M621.076,564.158c1.859,4.66,7.146,6.934,11.806,5.074c4.665-1.858,5.567-6.6,3.708-11.258
				c-1.859-4.664-5.775-7.48-10.438-5.621C621.491,554.211,619.218,559.496,621.076,564.158z"/>
			<path opacity="0.4" fill="#385066" d="M632.896,569.273c4.662-1.857,5.565-6.596,3.708-11.26
				c-1.859-4.662-5.885-7.581-10.438-5.619c-4.931,2.123-0.841,1.966,2.832,3.659c1.227,0.565,2.28,1.851,3.105,2.814
				c0.932,1.084,1.464,3.381,1.302,5.16C633.117,567.16,631.597,569.795,632.896,569.273z"/>
		</g>
		<path opacity="0.9" fill="#FFF9D9" d="M626.956,568.542c1.344,0.569,2.896-0.058,3.466-1.4c0.57-1.347-0.06-2.897-1.401-3.466
			c-1.344-0.574-2.897,0.059-3.466,1.398C624.984,566.42,625.609,567.97,626.956,568.542z"/>
	</g>
	<path opacity="0.9" fill="#FFF9D9" d="M623.596,564.695c0.493,0.209,1.062-0.021,1.272-0.515c0.206-0.489-0.023-1.06-0.513-1.271
		c-0.494-0.208-1.062,0.022-1.271,0.516C622.876,563.92,623.106,564.486,623.596,564.695z"/>
	<g>
		<g>
			<path fill="#B2E85D" d="M643.093,593.664c3.482,2.989,8.729,2.588,11.717-0.891c2.993-3.484,1.717-7.709-1.771-10.696
				c-3.478-2.991-7.848-3.615-10.837-0.134C639.211,585.425,639.608,590.671,643.093,593.664z"/>
			<path opacity="0.4" fill="#385066" d="M654.839,592.802c2.989-3.482,1.715-7.708-1.769-10.697
				c-3.482-2.989-7.982-3.652-10.838-0.132c-3.101,3.812,0.147,1.947,3.845,1.768c1.232-0.062,2.633,0.533,3.71,0.963
				c1.213,0.483,2.616,2.117,3.239,3.632C654.121,590.994,654.005,593.773,654.839,592.802z"/>
		</g>
		<circle opacity="0.9" fill="#FFF9D9" cx="649.518" cy="592.315" r="2.419"/>
	</g>
	<g>
		<g>
			<path fill="#B2E85D" d="M671.301,610.915c4.126,0.416,7.807-2.591,8.223-6.719c0.416-4.124-2.712-6.597-6.839-7.013
				c-4.124-0.416-7.685,1.382-8.102,5.504C664.165,606.814,667.172,610.498,671.301,610.915z"/>
			<path opacity="0.4" fill="#385066" d="M679.56,604.203c0.414-4.125-2.712-6.596-6.839-7.013
				c-4.124-0.415-7.803,1.418-8.101,5.507c-0.325,4.424,1.118,1.367,3.764-0.68c0.881-0.684,2.226-0.965,3.246-1.203
				c1.149-0.271,3.036,0.215,4.278,1.016C678.09,603.237,679.442,605.355,679.56,604.203z"/>
		</g>
		<circle opacity="0.9" fill="#FFF9D9" cx="675.364" cy="606.594" r="2.183"/>
	</g>
	<g>
		<g>
			<path fill="#B2E85D" d="M698.999,619.252c3.514,0.352,6.651-2.209,7.003-5.722c0.357-3.514-2.309-5.619-5.821-5.977
				c-3.515-0.351-6.552,1.179-6.9,4.692C692.924,615.759,695.486,618.896,698.999,619.252z"/>
			<path opacity="0.4" fill="#385066" d="M706.033,613.535c0.356-3.514-2.31-5.618-5.823-5.973c-3.515-0.355-6.648,1.209-6.9,4.689
				c-0.279,3.77,0.951,1.163,3.205-0.58c0.752-0.579,1.896-0.822,2.767-1.022c0.978-0.23,2.582,0.185,3.642,0.865
				C704.785,612.712,705.935,614.52,706.033,613.535z"/>
		</g>
		<path opacity="0.9" fill="#FFF9D9" d="M703.643,617.008c0.794-0.652,0.908-1.826,0.254-2.62c-0.652-0.792-1.826-0.907-2.62-0.253
			c-0.792,0.655-0.905,1.828-0.252,2.619C701.681,617.547,702.852,617.663,703.643,617.008z"/>
	</g>
	<g>
		<g>
			<path fill="#B2E85D" d="M727.557,616.779c2.283-1.48,2.933-4.53,1.454-6.812c-1.48-2.283-4.099-2.264-6.379-0.779
				c-2.283,1.478-3.366,3.857-1.888,6.14C722.224,617.609,725.275,618.262,727.557,616.779z"/>
			<path opacity="0.4" fill="#385066" d="M729.031,609.956c-1.482-2.282-4.098-2.263-6.378-0.782
				c-2.282,1.48-3.41,3.928-1.889,6.141c1.65,2.399,1.133,0.24,1.649-1.891c0.17-0.714,0.742-1.408,1.168-1.949
				c0.477-0.607,1.641-1.134,2.605-1.234C727.882,610.061,729.445,610.591,729.031,609.956z"/>
		</g>
		<circle opacity="0.9" fill="#FFF9D9" cx="727.865" cy="612.901" r="1.433"/>
	</g>
	<path opacity="0.9" fill="#FFF9D9" d="M644.54,592.63c0.492,0.21,1.061-0.02,1.268-0.512s-0.018-1.06-0.512-1.27
		c-0.492-0.21-1.062,0.021-1.27,0.513C643.821,591.854,644.046,592.422,644.54,592.63z"/>
	<path opacity="0.9" fill="#FFF9D9" d="M670.535,607.805c0.491,0.207,1.059-0.02,1.27-0.51c0.209-0.496-0.021-1.063-0.517-1.27
		c-0.489-0.213-1.059,0.018-1.268,0.51C669.814,607.029,670.04,607.598,670.535,607.805z"/>
	<g>
		<path fill="#EF78D3" d="M384.909,465.957c-17.07,15.814-18.085,42.475-2.27,59.543c15.819,17.068,42.476,18.084,59.543,2.267
			c17.069-15.815,18.086-42.474,2.27-59.543S401.978,450.139,384.909,465.957z"/>
		<path fill="#E8E2E7" d="M376.145,477.561c-10.648,20.696-2.507,46.099,18.185,56.746c20.689,10.648,46.095,2.506,56.743-18.186"/>
	</g>
	<path fill="#EF78D3" d="M380.099,474.461c-1.093,2.143-0.046,4.866,2.336,6.08l69.521,35.407c2.381,1.214,5.198,0.457,6.293-1.687
		l0.83-1.63c1.093-2.146,0.048-4.868-2.337-6.083l-69.519-35.406c-2.384-1.215-5.2-0.459-6.293,1.686L380.099,474.461z"/>
	<polygon fill="#5B5B5B" points="413.266,498.856 403.915,508.209 394.042,498.336 389.364,503.013 399.238,512.886 
		388.845,523.277 393.522,527.954 403.915,517.561 413.786,527.436 418.462,522.758 408.592,512.886 417.943,503.532 	"/>
	<polygon fill="#5B5B5B" points="316.155,493.462 306.803,502.813 296.929,492.941 292.253,497.617 302.126,507.49 291.734,517.882 
		296.41,522.559 306.803,512.167 316.675,522.039 321.351,517.363 311.48,507.49 320.833,498.139 	"/>
</g>
<g>
	<g>
		<path fill="#A06D47" d="M556.834,341.966c-0.418,5.944-6.666,9.868-12.611,9.451l-291.89-20.438
			c-5.946-0.417-10.892-5.123-10.476-11.067l13.488-192.626c0.416-5.945,6.025-10.701,11.971-10.285l291.889,20.438
			c5.946,0.416,11.533,5.956,11.117,11.901L556.834,341.966z"/>
		<path fill="#875D40" d="M570.908,139.979c3.717-53.068-23.936-98.758-61.872-101.415l0.047-0.107L329.366,25.873l0.214,0.126
			c-37.94-2.656-71.689,38.735-75.406,91.802L570.908,139.979z"/>
		<path fill="#E2BF30" d="M407.211,341.428c-0.336,4.807-5.316,8.373-10.023,8.042l0,0c-4.707-0.33-9.143-4.554-8.806-9.361
			l21.462-306.517c0.337-4.807,5.318-8.373,10.025-8.043l0,0c4.707,0.329,9.141,4.555,8.805,9.363L407.211,341.428z"/>
		<path fill="#E2BF30" d="M279.228,312.641L279.228,312.641c0,0-1.884-1.22-2.065-1.896c-0.21-0.791,0.986-3.115,0.986-3.115
			c3.164-2.751,2.925-8.208-0.531-12.185c-3.458-3.979-8.827-4.974-11.992-2.224c0,0-2.83,0.852-3.696,0.509
			c-0.924-0.367-2.495-3.09-2.495-3.09l0,0c0.292-4.183-4.077-7.895-9.335-8.263c-5.259-0.369-10.104,2.699-10.396,6.88
			l-1.94,27.708c-0.052,0.748-0.345,1.511-0.401,2.313c-0.057,0.807,0.127,1.601,0.075,2.347l-0.04,0.572
			c-0.274,3.927,3.602,7.442,8.388,8.158c2.202,0.725,8.241,0.815,7.291,0.795l24.734,0.528c4.181,0.293,7.914-3.729,8.282-8.988
			C286.459,317.433,283.409,312.934,279.228,312.641z"/>
		<path fill="#E2BF30" d="M542.253,310.546L542.253,310.546c0,0-1.223,1.884-1.899,2.064c-0.789,0.211-3.114-0.986-3.114-0.986
			c-2.75-3.165-8.204-2.925-12.184,0.534c-3.979,3.458-4.977,8.824-2.226,11.989c0,0,0.853,2.83,0.511,3.699
			c-0.366,0.922-3.092,2.492-3.092,2.492l0,0c-4.184-0.293-7.851,3.438-8.219,8.692c-0.368,5.263,2.745,9.464,6.927,9.755
			l27.707,1.941c0.749,0.052,1.509,0.343,2.315,0.401c0.805,0.056,1.6-0.127,2.348-0.074l0.57,0.039
			c3.927,0.275,7.396-2.958,8.112-7.748c0.725-2.201,0.791-7.919,0.77-6.967l0.52-24.572c0.293-4.185-3.734-7.836-8.993-8.204
			S542.545,306.363,542.253,310.546z"/>
		<path fill="#E2BF30" d="M532.703,155.48L532.703,155.48c0,0,1.886,1.219,2.066,1.897c0.212,0.79-0.986,3.114-0.986,3.114
			c-3.163,2.75-2.926,8.206,0.532,12.187c3.458,3.976,8.827,4.974,11.991,2.224c0,0,2.83-0.856,3.697-0.509
			c0.924,0.364,2.494,3.09,2.494,3.09l0,0c-0.292,4.181,3.81,7.874,9.068,8.243c5.26,0.369,9.838-2.718,10.13-6.897l1.939-27.71
			c0.053-0.746,0.294-1.512,0.349-2.316c0.056-0.807-0.183-1.607-0.128-2.353l0.042-0.571c0.29-3.928-3.283-7.419-8.069-8.136
			c-2.201-0.725-8.081-0.803-7.131-0.782l-24.654-0.522c-4.184-0.295-7.875,3.73-8.242,8.99
			C525.434,150.688,528.522,155.188,532.703,155.48z"/>
		<path fill="#E2BF30" d="M269.679,157.578L269.679,157.578c0,0,1.222-1.886,1.899-2.066c0.79-0.209,3.115,0.985,3.115,0.985
			c2.749,3.164,8.203,2.928,12.183-0.531c3.98-3.458,4.976-8.827,2.225-11.99c0,0-0.852-2.829-0.508-3.698
			c0.366-0.923,3.09-2.492,3.09-2.492l0,0c4.182,0.291,7.868-3.707,8.236-8.965c0.368-5.258-2.726-9.728-6.907-10.02l-27.708-1.941
			c-0.748-0.052-1.508-0.342-2.314-0.399c-0.806-0.057-1.6,0.125-2.347,0.073l-0.572-0.041c-3.927-0.274-7.415,3.231-8.132,8.014
			c-0.725,2.206-0.8,8.056-0.78,7.107l-0.525,24.638c-0.292,4.182,3.735,7.866,8.992,8.232
			C264.887,164.853,269.387,161.759,269.679,157.578z"/>
		<path fill="#F4CF31" d="M443.726,129.354l-27.707-1.941c-0.748-0.052-1.502-0.44-2.308-0.496
			c-0.405-0.029-0.804-0.047-1.199-0.016c-2.569-0.524-7.146-0.608-6.304-0.592l-24.662-0.536c-4.182-0.293-7.879,3.726-8.247,8.984
			c-0.368,5.258,2.715,9.756,6.898,10.049c0,0,1.885,1.217,2.065,1.896c0.21,0.789-0.985,3.114-0.985,3.114
			c-3.166,2.75-2.927,8.206,0.53,12.186c3.459,3.977,8.826,4.973,11.991,2.221c0,0,2.83-0.854,3.697-0.507
			c0.923,0.363,2.494,3.091,2.494,3.091c-0.293,4.181,3.801,7.873,9.061,8.241c0.569,0.039,1.132,0.037,1.681-0.001
			c5.091,0.193,9.377-2.839,9.662-6.916c0,0,1.22-1.886,1.899-2.066c0.789-0.209,3.113,0.985,3.113,0.985
			c2.749,3.164,8.205,2.928,12.184-0.531c3.979-3.458,4.975-8.828,2.225-11.99c0,0-0.853-2.829-0.508-3.698
			c0.366-0.923,3.09-2.493,3.09-2.493c4.182,0.292,7.868-3.706,8.237-8.964C451.002,134.115,447.908,129.646,443.726,129.354z"/>
		<path fill="#CCAD2B" d="M293.076,102.662L293.076,102.662c0,0-1.884-1.222-2.065-1.899c-0.211-0.789,0.985-3.115,0.985-3.115
			c3.165-2.75,2.927-8.203-0.533-12.182c-3.458-3.98-8.825-4.977-11.989-2.225c0,0-2.83,0.852-3.698,0.507
			c-0.923-0.365-2.494-3.091-2.494-3.091l0,0c0.292-4.182-4.081-7.893-9.338-8.261c-5.258-0.369-10.105,2.697-10.398,6.88
			l-1.94,27.708c-0.052,0.748-0.345,1.508-0.401,2.317c-0.056,0.801,0.127,1.599,0.074,2.344l-0.039,0.571
			c-0.275,3.927,3.604,7.443,8.389,8.16c2.204,0.726,8.243,0.814,7.294,0.793l24.733,0.53c4.182,0.293,7.914-3.727,8.282-8.987
			C300.307,107.451,297.259,102.955,293.076,102.662z"/>
		<path fill="#CCAD2B" d="M556.101,100.564L556.101,100.564c0,0-1.221,1.883-1.899,2.064c-0.789,0.21-3.112-0.986-3.112-0.986
			c-2.752-3.166-8.206-2.926-12.185,0.535c-3.979,3.457-4.975,8.824-2.225,11.99c0,0,0.853,2.828,0.508,3.696
			c-0.365,0.923-3.092,2.495-3.092,2.495l0,0c-4.181-0.293-7.856,3.546-8.225,8.805c-0.368,5.258,2.737,9.574,6.918,9.867
			l27.708,1.94c0.748,0.051,1.509,0.34,2.314,0.398c0.806,0.055,1.6-0.125,2.348-0.072l0.572,0.04
			c3.925,0.275,7.403-3.072,8.118-7.859c0.726-2.205,0.798-7.977,0.777-7.026l0.52-24.599c0.292-4.184-3.732-7.849-8.992-8.216
			C560.896,93.266,556.395,96.381,556.101,100.564z"/>
		<path fill="#E2BF30" d="M326.609,337.878c-0.233,3.343-2.776,5.886-5.13,5.722l0,0c-2.354-0.166-4.519-3.038-4.284-6.381
			l14.929-213.214c0.235-3.341,2.776-5.887,5.132-5.722l0,0c2.354,0.166,4.518,3.04,4.283,6.381L326.609,337.878z"/>
		<path fill="#E2BF30" d="M478.962,348.546c-0.233,3.343-1.921,5.947-4.274,5.781l0,0c-2.354-0.165-3.662-2.978-3.429-6.32
			l14.929-213.213c0.234-3.342,1.923-5.947,4.276-5.782l0,0c2.354,0.164,3.662,2.979,3.428,6.321L478.962,348.546z"/>
		<path fill="#E2BF30" d="M340.51,127.522c-0.559,1.516-2.737,2.108-4.948,1.292l0,0c-2.214-0.817-3.485-2.684-2.926-4.197
			l35.663-96.666c0.561-1.515,2.736-2.109,4.95-1.292l0,0c2.214,0.816,3.483,2.681,2.925,4.197L340.51,127.522z"/>
		<path fill="#E2BF30" d="M486.432,134.736c0.343,1.578,2.417,2.465,4.722,1.968l0,0c2.304-0.5,3.823-2.168,3.481-3.75
			L472.788,32.262c-0.342-1.579-2.415-2.468-4.722-1.969l0,0c-2.305,0.501-3.822,2.17-3.479,3.749L486.432,134.736z"/>
		<path fill="#D3B431" d="M382.077,128.476l27.707,1.94c0.747,0.051,1.49,0.6,2.297,0.656c0.403,0.029,0.798,0.122,1.193,0.089
			c2.57,0.522,7.144,0.647,6.3,0.631l24.661,0.556c4.182,0.293,7.879-3.715,8.247-8.973c0.367-5.261-2.717-9.75-6.898-10.044
			c0,0-1.885-1.215-2.065-1.895c-0.21-0.788,0.984-3.111,0.984-3.111c3.165-2.752,2.927-8.206-0.53-12.186
			c-3.46-3.978-8.828-4.972-11.99-2.22c0,0-2.832,0.853-3.698,0.507c-0.923-0.365-2.494-3.091-2.494-3.091
			c0.294-4.183-3.802-7.875-9.061-8.242c-0.569-0.041-1.132-0.037-1.681,0c-5.09-0.191-9.377,2.839-9.663,6.918
			c0,0-1.218,1.884-1.897,2.064c-0.789,0.21-3.113-0.986-3.113-0.986c-2.751-3.165-8.206-2.926-12.185,0.535
			c-3.979,3.457-4.975,8.824-2.226,11.989c0,0,0.854,2.829,0.51,3.696c-0.366,0.923-3.091,2.496-3.091,2.496
			c-4.182-0.294-7.858,3.545-8.227,8.804C374.79,123.868,377.895,128.183,382.077,128.476z"/>
		<g>
			<path fill="#F4CF31" d="M440.487,210.148c-0.262,3.717-3.704,6.449-7.42,6.189l-0.727-0.051
				c-3.716-0.261-6.665-3.439-6.404-7.157l0.051-0.725c0.261-3.715,3.656-6.928,7.372-6.669l0.729,0.052
				c3.715,0.259,6.71,3.92,6.45,7.637L440.487,210.148z"/>
			<path fill="#F4CF31" d="M438.753,234.918c-0.261,3.716-3.482,6.517-7.198,6.256l-1.097-0.076
				c-3.716-0.26-6.516-3.484-6.257-7.199l0.077-1.094c0.26-3.716,3.482-6.518,7.198-6.258l1.097,0.077
				c3.716,0.26,6.517,3.483,6.256,7.198L438.753,234.918z"/>
			<path fill="#F4CF31" d="M437.06,259.091c-0.26,3.719-3.964,7.134-7.68,6.874l-0.613-0.043c-3.716-0.259-6.518-4.131-6.258-7.848
				l0.043-0.611c0.26-3.716,3.518-6.351,7.232-6.092l0.614,0.043c3.716,0.261,6.965,3.352,6.704,7.066L437.06,259.091z"/>
		</g>
		<g>
			<path fill="#F4CF31" d="M346.116,329.534c-0.109,1.566-1.469,2.747-3.035,2.638l0.012,0.002
				c-1.564-0.109-2.422-1.444-2.306-3.012l0.023-0.317c0.115-1.565,1.137-2.771,2.703-2.662l0.152,0.01
				c1.566,0.109,2.664,1.463,2.555,3.03L346.116,329.534z"/>
			<path fill="#F4CF31" d="M357.746,330.346c-0.116,1.566-1.292,2.761-2.859,2.651l-0.229-0.015
				c-1.566-0.11-2.703-1.466-2.593-3.033l0.027-0.092c0.109-1.566,1.474-2.529,3.04-2.414l0.319,0.023
				c1.566,0.115,2.434,0.995,2.317,2.561L357.746,330.346z"/>
			<path fill="#F4CF31" d="M372.728,331.145c-0.115,1.566-1.511,2.499-3.076,2.383l-0.317-0.023
				c-1.566-0.115-2.726-0.962-2.61-2.528l0.023-0.317c0.115-1.566,1.439-3.255,3.006-3.14l0.318,0.023
				c1.565,0.116,2.804,1.597,2.688,3.162L372.728,331.145z"/>
		</g>
		<g>
			<path fill="#F4CF31" d="M430.567,335.45c-0.115,1.565-1.754,2.726-3.32,2.616l-0.173-0.011c-1.566-0.109-2.607-1.459-2.492-3.025
				l0.023-0.317c0.115-1.565,1.18-2.769,2.746-2.659l0.46,0.032c1.566,0.11,2.895,1.481,2.779,3.047L430.567,335.45z"/>
			<path fill="#F4CF31" d="M443.536,336.357c-0.116,1.567-2.153,2.461-3.718,2.346l-0.319-0.024
				c-1.566-0.115-3.07-1.129-2.955-2.696l0.028-0.377c0.115-1.565,1.616-2.766,3.182-2.657l0.742,0.038
				c1.566,0.11,3.179,1.487,3.063,3.053L443.536,336.357z"/>
			<path fill="#F4CF31" d="M454.824,337.047c-0.109,1.566-1.461,2.655-3.027,2.54l-0.318-0.023c-1.565-0.116-2.073-1.22-1.957-2.786
				l0.023-0.318c0.115-1.566,0.921-2.987,2.487-2.872l0.251,0.019c1.566,0.116,2.711,1.512,2.602,3.079L454.824,337.047z"/>
		</g>
		<g>
			<path fill="#F4CF31" d="M332.616,30.987c-0.143,2.041-1.913,3.58-3.953,3.437l-0.411-0.029c-2.041-0.143-3.688-1.921-3.537-3.962
				l0.023-0.311c0.15-2.041,1.938-3.586,3.98-3.436l0.396,0.029c2.04,0.151,3.623,1.917,3.48,3.958L332.616,30.987z"/>
			<path fill="#F4CF31" d="M346.299,32.111c-0.143,2.042-1.926,3.752-3.967,3.602l-0.311-0.023c-2.041-0.15-3.491-2.237-3.341-4.278
				l0.023-0.311c0.15-2.041,1.877-3.583,3.918-3.44l0.292,0.02c2.042,0.144,3.565,1.995,3.422,4.037L346.299,32.111z"/>
			<path fill="#F4CF31" d="M361.625,33.018c-0.15,2.041-1.777,2.983-3.816,2.833l-0.312-0.023c-2.04-0.15-4.003-1.33-3.853-3.371
				l0.023-0.311c0.15-2.041,2.098-3.567,4.14-3.423l0.356,0.024c2.041,0.144,3.635,1.918,3.483,3.958L361.625,33.018z"/>
		</g>
		<g>
			<path fill="#F4CF31" d="M486.687,41.701c-0.143,2.042-1.908,3.515-3.949,3.364l-0.312-0.023c-2.039-0.15-3.232-1.813-3.082-3.854
				l0.021-0.274c0.15-2.04,1.731-3.575,3.772-3.432l0.222,0.024c2.039,0.143,3.536,1.879,3.393,3.92L486.687,41.701z"/>
			<path fill="#F4CF31" d="M500.286,42.727c-0.15,2.041-1.868,3.583-3.91,3.44l-0.471-0.033c-2.042-0.143-3.75-1.926-3.6-3.967
				l0.023-0.311c0.15-2.041,2.096-3.567,4.138-3.424l0.357,0.025c2.041,0.143,3.636,1.918,3.485,3.958L500.286,42.727z"/>
			<path fill="#F4CF31" d="M515.25,43.776c-0.15,2.041-2.075,3.568-4.116,3.425l-0.37-0.026c-2.041-0.143-3.645-1.919-3.494-3.959
				l0.022-0.311c0.15-2.041,1.817-2.915,3.857-2.765l0.312,0.023c2.114-0.847,3.946,1.472,3.796,3.513L515.25,43.776z"/>
		</g>
		<g>
			<path fill="#F4CF31" d="M388.274,206.508c-0.247,3.544-3.282,6.463-6.989,6.203l-0.644-0.044
				c-3.707-0.26-5.453-3.514-5.205-7.058l0.087-1.235c0.247-3.544,2.43-6.519,6.138-6.258l0.643,0.044
				c3.708,0.26,6.306,3.569,6.058,7.113L388.274,206.508z"/>
			<path fill="#F4CF31" d="M388.254,231.381c-0.261,3.716-3.484,6.517-7.2,6.258l-1.093-0.077c-3.717-0.259-6.518-3.483-6.258-7.2
				l0.077-1.093c0.26-3.716,3.483-6.518,7.2-6.258l1.092,0.077c3.716,0.26,6.519,3.483,6.258,7.199L388.254,231.381z"/>
			<path fill="#F4CF31" d="M384.352,255.111c-0.286,3.874-3.095,7.484-6.802,7.223l-0.837-0.059
				c-3.707-0.259-5.615-4.199-5.33-8.072l0.003-0.038c0.285-3.872,2.768-6.69,6.475-6.431l0.547,0.039
				c3.707,0.258,6.232,3.428,5.947,7.3L384.352,255.111z"/>
		</g>
		<path fill="#CCAD2B" d="M571.088,137.41c-0.207,2.97-2.717,4.971-5.627,4.768l-306.196-21.44c-2.912-0.205-5.118-2.535-4.91-5.505
			l0,0c0.208-2.973,2.718-4.97,5.629-4.767l306.197,21.44C569.09,132.11,571.298,134.438,571.088,137.41L571.088,137.41z"/>
		<path fill="#282828" d="M422.319,125.671l0.174-2.478c0.312-4.476-2.484-8.403-6.961-8.717l-2.476-0.174
			c-4.479-0.314-9.08,3.096-9.395,7.573l-0.173,2.477c-0.26,3.712,2.347,7.431,5.682,8.627l-5.478,24.533l15.087,1.057
			l-2.647-25.102C419.604,132.749,422.06,129.383,422.319,125.671z"/>
	</g>
	<path opacity="0.4" d="M571.644,179.595l1.992-28.476c0.053-0.746,0.294-1.512,0.349-2.316c0.056-0.807-0.183-1.607-0.128-2.353
		l0.042-0.571c0.173-2.338-3.559-6.129-3.556-6.148c1.475-1.474-318.135-23.5-317.238-22.067c-0.006,0.082-0.012,0.165-0.018,0.246
		c0,0-1.309,4.01-1.676,6.458c-0.726,2.205-0.537,8.125-0.516,7.174l-0.346,24.677c-0.14,2.003,1.612,3.955,2.373,5.373
		l-8.536,122.06c-0.953,1.328-4.521,3.217-4.688,5.604l-1.938,27.708c-0.052,0.749-0.344,1.511-0.4,2.314
		c-0.056,0.807,0.128,1.601,0.076,2.347l-0.04,0.572c-0.274,3.927,3.602,7.442,8.389,8.158c1.061,0.35,3.105,1.013,4.701,1.125"/>
</g>
</svg>
