<?xml version="1.0" encoding="utf-8"?>
<!-- Generator: Adobe Illustrator 16.0.0, SVG Export Plug-In . SVG Version: 6.00 Build 0)  -->
<!DOCTYPE svg PUBLIC "-//W3C//DTD SVG 1.1//EN" "http://www.w3.org/Graphics/SVG/1.1/DTD/svg11.dtd">
<svg version="1.1" id="Layer_1" xmlns="http://www.w3.org/2000/svg" xmlns:xlink="http://www.w3.org/1999/xlink" x="0px" y="0px"
	 width="782.961px" height="664.076px" viewBox="0 0 782.961 664.076" enable-background="new 0 0 782.961 664.076"
	 xml:space="preserve">
<g>
	<g>
		<path fill="#EF78D3" d="M166.771,486.227c-10.744-19.298-13.475-40.775-10.474-62.099c2.999-21.321,21.557-39.149,26.903-59.105
			c4.474-18.459,12.456-51.923-10.303-63.179c-4.691-2.731-8.254-3.806-14.344-2.337c-5.308,1.923-8.455,9.117-14.181,2.771
			c-9.541-10.576,4.747-24.318,14.055-25.916c21.053-3.782,41.702,18.279,47.753,34.846c6.746,18.974,11.863,40.362,7.826,58.072
			c-3.692,18.913-14.161,41.038-12.636,59.983c2.235,12.338,3.894,29.179,14.403,36.304c7.166,5.413,22.436,7.47,30.877,4.778
			c10.152-3.24,19.442-6.712,30.207-7.686c6.327-0.574,13.214,0.19,19.577,0.502c12.353,0.604,22.082,6.998,23.297,20.246
			c1.037,11.333-3.352,20.145-11.776,27.076c-5.485,4.513-10.706,6.231-16.923,9.49c-6.389,3.35-11.493,5.096-17.333,7.277
			c-11.815,4.414-23.81,6.886-36.137,5.326c-7.9-0.999-15.18-1.97-22.216-5.225c-6.12-2.832-12.223-6.936-17.804-10.966
			c-3.455-2.494-6.933-5.94-10.202-8.794C180.269,501.423,171.671,494.357,166.771,486.227z"/>
	</g>
	<g>
		<path fill="#D83FB8" d="M166.668,486.393c-10.742-19.298-13.474-40.776-10.473-62.1c3-21.32,21.558-39.146,26.902-59.104
			c4.474-18.458,12.455-51.923-10.305-63.178c-4.688-2.732-8.252-3.804-14.342-2.337c-5.308,1.921-9.009,8.412-14.179,2.771
			c-3.476-3.792-0.406-1.154,2.5-1.7c3.244-0.61,6.771-4.201,10.635-4.935c21.01-4,32.002,5.5,38.055,22.065
			c6.744,18.974,0.356,35.087-5.365,52.343c-3.033,9.146-9.358,20.891-15.001,33.035c-5.64,12.145-8.921,24.452-8.646,34.469
			c0.345,12.535,11.924,40.857,21.207,49.517c3.153,2.942,9.64,11.128,17.815,17.14c6.815,5.012,15.883,7.996,21.796,10.055
			c5.052,1.757,13.603,4.613,23.145,4.58c7.775-0.029,16.611-2.752,21.443-3.188c6.329-0.573,18.269-5.96,29.252-11.585
			c11.008-5.64,17.303-33.917,18.517-20.668c1.039,11.333-3.35,20.146-11.775,27.075c-5.486,4.517-10.708,6.233-16.921,9.492
			c-6.389,3.35-11.496,5.097-17.333,7.275c-11.817,4.415-23.812,6.887-36.139,5.331c-7.899-1-15.181-1.972-22.214-5.226
			c-6.121-2.834-12.959-6.391-18.54-10.418c-3.454-2.497-6.59-5.352-9.858-8.203C179.777,502.728,171.568,494.524,166.668,486.393z"
			/>
	</g>
	<g opacity="0.6">
		<path fill="#FFFFFF" d="M254.723,505.317c5.197,2.718,12.613,4.053,18.235,3.832c4.216-0.163,29.647-8.849,17.998-15.973
			c-6.655-4.069-17.772,5.135-24.874,6.282c-3.884,0.367-8.136-3.15-11.706-0.302c-2.296,2.256-1.52,5.474,1.68,6.972"/>
	</g>
	<g opacity="0.6">
		<path fill="#FFFFFF" d="M245.626,505.237c3.957-1.236,4.328-5.584,0.667-7.823c-3.328-2.033-8.967,0.461-7.268,5.158
			c0.85,2.351,5.508,5.199,7.545,1.872"/>
	</g>
	<g opacity="0.6">
		<path fill="#FFFFFF" d="M191.909,480.062c1.168,3.321,4.865,3.51,6.658,0.338c1.631-2.881-0.651-7.597-4.586-6.016
			c-1.969,0.791-4.251,4.827-1.368,6.456"/>
	</g>
	<g opacity="0.6">
		<path fill="#FFFFFF" d="M148.688,293.386c0.625,1.776,2.604,1.878,3.563,0.181c0.871-1.544-0.35-4.067-2.457-3.223
			c-1.052,0.424-2.273,2.584-0.73,3.458"/>
	</g>
	<g opacity="0.6">
		<path fill="#FFFFFF" d="M190.636,472.523c1.961-2.459,1.242-4.271-0.271-7.028c-1.055-2.014-2.978-4.104-4.032-6.122
			c-1.108-3.42-0.663-8.637-3.789-11.004c-3.495,1.979-0.779,13.239-0.208,16.793c0.978,2.885,6.248,12.965,9.449,6.232"/>
	</g>
	<g opacity="0.6">
		<path fill="#FFFFFF" d="M156.327,293.09c-2.432-1.258,2.508-3.724,3.682-4.149c3.522-1.275,7.092-0.007,10.152,2.093
			c-2.22,1.388-5.613-0.917-8.332,0.163c-1.544,0.658-3.773,3.181-5.4,1.728"/>
	</g>
	<g>
		<g>
			<path fill="#B2E85D" d="M279.159,454.373c-8.214-2.317-16.753,2.46-19.072,10.674c-2.321,8.216,3.141,14.347,11.355,16.664
				c8.214,2.318,16.072-0.049,18.393-8.267C292.153,465.232,287.374,456.693,279.159,454.373z"/>
			<path opacity="0.4" fill="#385066" d="M260.016,465.023c-2.32,8.212,3.14,14.34,11.355,16.66
				c8.215,2.319,16.322-0.087,18.393-8.263c2.238-8.856-1.776-3.171-7.875,0.031c-2.031,1.067-4.857,1.158-7.011,1.278
				c-2.426,0.132-6.074-1.528-8.308-3.59C262.643,467.507,260.662,462.729,260.016,465.023z"/>
			<g opacity="0.9">
				<path fill="#FFF9D9" d="M280.326,457.813c2.791,3.962-5.894,5.883-8.338,4.654c-6.41-4.104,8.553-10.082,8.755-3.731"/>
			</g>
		</g>
		<circle opacity="0.9" fill="#FFF9D9" cx="267.527" cy="461.994" r="1.791"/>
	</g>
	<g>
		<g>
			<path fill="#B2E85D" d="M241.296,463.85c-5.265-4.854-13.471-4.519-18.325,0.748c-4.854,5.268-3.096,11.924,2.17,16.779
				s12.048,6.066,16.901,0.801C246.896,476.91,246.562,468.704,241.296,463.85z"/>
			<path opacity="0.4" fill="#385066" d="M222.927,464.55c-4.853,5.268-3.095,11.927,2.171,16.78
				c5.267,4.854,12.247,6.136,16.901,0.801c5.039-5.775-0.126-3.049-5.906-2.967c-1.924,0.029-4.073-0.978-5.729-1.704
				c-1.866-0.824-3.965-3.449-4.853-5.843C223.951,467.407,224.281,463.079,222.927,464.55z"/>
			<g opacity="0.9">
				<path fill="#FFF9D9" d="M240.866,466.868c0.583,4.023-6.646,2.165-8.01,0.317c-3.237-5.504,10.231-4.3,7.97,0.532"/>
			</g>
		</g>
		<path opacity="0.9" fill="#FFF9D9" d="M229.63,463.635c-0.83,0.037-1.471,0.742-1.432,1.571c0.037,0.83,0.74,1.47,1.567,1.431
			c0.832-0.036,1.472-0.74,1.435-1.57C231.162,464.24,230.461,463.598,229.63,463.635z"/>
	</g>
	<g>
		<g>
			<path fill="#B2E85D" d="M214.963,442.937c-2.257-5.729-8.734-8.545-14.462-6.287c-5.731,2.256-6.865,8.068-4.607,13.8
				c2.256,5.73,7.049,9.207,12.781,6.952C214.405,455.144,217.22,448.669,214.963,442.937z"/>
			<path opacity="0.4" fill="#385066" d="M200.483,436.597c-5.728,2.258-6.862,8.069-4.606,13.802
				c2.258,5.731,7.184,9.334,12.782,6.948c6.063-2.579,1.044-2.403-3.458-4.504c-1.502-0.702-2.789-2.286-3.796-3.469
				c-1.138-1.335-1.778-4.155-1.568-6.339C200.205,439.192,202.082,435.967,200.483,436.597z"/>
			<g opacity="0.9">
				<path fill="#FFF9D9" d="M213.498,445.112c-1.057,3.334-5.955-0.814-6.316-2.756c-0.442-5.473,9.528,0.507,5.969,3.399"/>
			</g>
		</g>
		<circle opacity="0.9" fill="#FFF9D9" cx="205.505" cy="439.589" r="1.292"/>
	</g>
	<g>
		<g>
			<path fill="#B2E85D" d="M209.661,414.926c1.928-5.103-0.648-10.803-5.748-12.732c-5.104-1.924-9.307,1.215-11.235,6.316
				c-1.927,5.102-0.852,10.238,4.25,12.166C202.035,422.603,207.733,420.028,209.661,414.926z"/>
			<path opacity="0.4" fill="#385066" d="M203.935,402.152c-5.106-1.929-9.308,1.211-11.235,6.314
				c-1.929,5.103-0.842,10.396,4.25,12.165c5.516,1.912,2.116-0.958,0.412-5.015c-0.567-1.353-0.47-3.158-0.428-4.534
				c0.048-1.553,1.308-3.786,2.744-5.092C202.205,403.688,205.358,402.689,203.935,402.152z"/>
			<g opacity="0.9">
				<path fill="#FFF9D9" d="M207.407,415.48c-2.677,1.561-3.424-4.076-2.508-5.565c2.967-3.854,5.951,6.002,1.897,5.781"/>
			</g>
		</g>
		<circle opacity="0.9" fill="#FFF9D9" cx="205.447" cy="407.102" r="1.145"/>
	</g>
	<g>
		<g>
			<path fill="#B2E85D" d="M216.493,378.918c1.63-4.309-0.545-9.125-4.856-10.756c-4.313-1.63-7.862,1.024-9.49,5.336
				c-1.63,4.311-0.721,8.647,3.59,10.278C210.049,385.405,214.864,383.23,216.493,378.918z"/>
			<path opacity="0.4" fill="#385066" d="M211.655,368.127c-4.312-1.631-7.862,1.022-9.491,5.333
				c-1.629,4.311-0.711,8.785,3.591,10.276c4.658,1.617,1.787-0.809,0.347-4.235c-0.479-1.143-0.397-2.668-0.362-3.832
				c0.042-1.311,1.105-3.196,2.317-4.303C210.195,369.424,212.856,368.58,211.655,368.127z"/>
		</g>
		<circle opacity="0.9" fill="#FFF9D9" cx="213.019" cy="373.315" r="2.427"/>
	</g>
	<circle opacity="0.9" fill="#FFF9D9" cx="214.309" cy="377.364" r="0.889"/>
	<g>
		<g>
			<path fill="#B2E85D" d="M219.859,345.28c-0.508-4.185-4.312-7.165-8.494-6.658c-4.187,0.506-5.94,4.161-5.432,8.344
				c0.507,4.185,3.081,7.314,7.265,6.809C217.384,353.266,220.364,349.465,219.859,345.28z"/>
			<path opacity="0.4" fill="#385066" d="M211.362,338.584c-4.185,0.506-5.938,4.16-5.43,8.344c0.507,4.185,3.146,7.422,7.265,6.807
				c4.46-0.663,1.106-1.412-1.513-3.58c-0.874-0.723-1.453-1.993-1.916-2.951c-0.523-1.081-0.462-3.059,0.056-4.47
				C210.73,340.255,212.53,338.444,211.362,338.584z"/>
		</g>
		<circle opacity="0.9" fill="#FFF9D9" cx="214.667" cy="342.21" r="2.221"/>
	</g>
	<g>
		<g>
			<path fill="#B2E85D" d="M211.432,316.108c-2.538-2.84-6.897-3.083-9.737-0.544c-2.838,2.538-2.249,6.151,0.289,8.991
				c2.539,2.838,6.064,3.828,8.902,1.291C213.726,323.305,213.97,318.947,211.432,316.108z"/>
			<path opacity="0.4" fill="#385066" d="M201.675,315.537c-2.838,2.539-2.25,6.152,0.289,8.99c2.537,2.84,6.167,3.875,8.903,1.291
				c2.961-2.797,0.089-1.619-2.971-1.872c-1.021-0.083-2.107-0.728-2.947-1.197c-0.944-0.53-1.922-2.028-2.269-3.339
				C202.071,317.101,202.468,314.828,201.675,315.537z"/>
		</g>
		<circle opacity="0.9" fill="#FFF9D9" cx="205.998" cy="316.517" r="2.005"/>
	</g>
	<g>
		<g>
			<path fill="#B2E85D" d="M197.824,293.291c-2.162-2.417-5.874-2.625-8.291-0.463c-2.418,2.163-1.917,5.241,0.244,7.66
				c2.162,2.416,5.167,3.261,7.584,1.097C199.78,299.423,199.986,295.709,197.824,293.291z"/>
			<path opacity="0.4" fill="#385066" d="M189.517,292.805c-2.419,2.161-1.917,5.242,0.246,7.659
				c2.161,2.418,5.252,3.299,7.583,1.097c2.522-2.383,0.073-1.378-2.533-1.594c-0.871-0.072-1.794-0.618-2.509-1.019
				c-0.806-0.453-1.636-1.728-1.932-2.845C189.851,294.139,190.191,292.201,189.517,292.805z"/>
		</g>
		<circle opacity="0.9" fill="#FFF9D9" cx="193.199" cy="293.64" r="1.708"/>
	</g>
	<g>
		<g>
			<path fill="#B2E85D" d="M176.939,277.27c-2.464-0.413-4.795,1.252-5.208,3.716c-0.411,2.465,1.375,4.073,3.841,4.482
				c2.463,0.413,4.672-0.528,5.084-2.994C181.068,280.011,179.404,277.679,176.939,277.27z"/>
			<path opacity="0.4" fill="#385066" d="M171.711,280.98c-0.411,2.463,1.375,4.071,3.838,4.483
				c2.464,0.411,4.746-0.548,5.086-2.994c0.367-2.647-0.62-0.864-2.29,0.263c-0.557,0.376-1.376,0.492-1.998,0.597
				c-0.702,0.114-1.817-0.25-2.534-0.778C172.556,281.62,171.826,280.293,171.711,280.98z"/>
		</g>
		<circle opacity="0.9" fill="#FFF9D9" cx="174.326" cy="279.707" r="1.316"/>
	</g>
	<circle opacity="0.9" fill="#FFF9D9" cx="217.428" cy="345.452" r="0.889"/>
	<circle opacity="0.9" fill="#FFF9D9" cx="209.215" cy="319.059" r="0.888"/>
</g>
<g>
	<g>
		<path fill="#EF78D3" d="M226.462,399.409c3.442-21.819,14.534-40.412,30.042-55.349c15.508-14.939,41.11-17.531,57.624-29.946
			c14.903-11.774,41.821-33.199,30.843-56.093c-2.008-5.043-4.151-8.086-9.851-10.685c-5.364-1.759-12.277,1.965-12.873-6.562
			c-0.992-14.208,18.73-16.218,27.043-11.736c18.907,10.001,21.561,40.102,16.11,56.875c-6.389,19.101-15.546,39.092-29.645,50.546
			c-14.567,12.614-36.452,23.578-46.933,39.434c-5.847,11.09-14.925,25.373-11.046,37.463c2.307,8.677,13.061,19.71,21.365,22.799
			c9.99,3.709,19.445,6.702,28.52,12.573c5.335,3.45,10.286,8.297,15.104,12.465c9.354,8.092,13.07,19.126,5.857,30.305
			c-6.169,9.562-15.06,13.793-25.964,14.056c-7.102,0.171-12.271-1.695-19.176-2.962c-7.095-1.302-12.189-3.076-18.134-4.958
			c-12.023-3.81-22.991-9.261-31.735-18.089c-5.603-5.658-10.738-10.909-14.269-17.812c-3.071-6.005-5.347-12.994-7.256-19.609
			c-1.183-4.096-1.796-8.952-2.611-13.212C227.72,419.695,225.308,408.83,226.462,399.409z"/>
	</g>
	<g>
		<path fill="#D83FB8" d="M226.28,399.476c3.442-21.818,14.535-40.412,30.043-55.349c15.508-14.937,41.11-17.529,57.623-29.945
			c14.903-11.772,41.821-33.199,30.841-56.093c-2.007-5.041-4.15-8.084-9.85-10.682c-5.363-1.76-12.28,1.067-12.873-6.562
			c-0.397-5.127,0.393-1.156,3.018,0.205c2.93,1.519,7.92,0.868,11.416,2.672c19.007,9.805,21.805,24.062,16.355,40.836
			c-6.39,19.096-21.354,27.844-36.498,37.901c-8.026,5.331-20.249,10.678-32.179,16.76c-11.929,6.084-22.101,13.75-28.06,21.808
			c-7.456,10.08-15.803,39.517-13.833,52.058c0.668,4.261,0.727,14.704,3.458,24.478c2.275,8.147,7.574,16.091,10.96,21.355
			c2.893,4.499,7.865,12.02,15.398,17.876c6.139,4.771,14.774,8.077,18.848,10.712c5.335,3.451,18.057,6.573,30.172,8.915
			c12.146,2.349,34.537-16.033,27.323-4.852c-6.168,9.56-15.06,13.795-25.964,14.052c-7.103,0.174-12.274-1.692-19.175-2.96
			c-7.095-1.301-12.191-3.075-18.133-4.957c-12.025-3.812-22.991-9.261-31.738-18.089c-5.603-5.658-10.737-10.909-14.267-17.809
			c-3.072-6.005-6.262-13.022-8.172-19.635c-1.181-4.094-1.89-8.275-2.704-12.536C226.529,420.418,225.124,408.898,226.28,399.476z"
			/>
	</g>
	<g opacity="0.6">
		<path fill="#FFFFFF" d="M283.937,468.667c2.416,5.343,7.432,10.967,11.993,14.26c3.421,2.471,28.797,11.313,24.018-1.477
			c-2.73-7.309-17.158-6.916-23.456-10.392c-3.285-2.105-4.464-7.495-9.03-7.455c-3.198,0.359-4.571,3.372-2.978,6.525"/>
	</g>
	<g opacity="0.6">
		<path fill="#FFFFFF" d="M276.823,462.997c3.878,1.463,6.851-1.729,5.348-5.749c-1.365-3.653-7.344-5.167-8.902-0.421
			c-0.78,2.375,1.131,7.489,4.785,6.126"/>
	</g>
	<g opacity="0.6">
		<path fill="#FFFFFF" d="M250.056,410.055c-1.129,3.336,1.666,5.763,5.032,4.372c3.062-1.264,4.171-6.384,0.099-7.565
			c-2.038-0.591-6.322,1.179-5.058,4.238"/>
	</g>
	<g opacity="0.6">
		<path fill="#FFFFFF" d="M331.128,236.437c-0.604,1.784,0.893,3.085,2.694,2.339c1.639-0.679,2.233-3.418,0.052-4.053
			c-1.088-0.313-3.383,0.633-2.707,2.273"/>
	</g>
	<g opacity="0.6">
		<path fill="#FFFFFF" d="M253.702,403.336c3.06-0.729,3.611-2.598,4.118-5.702c0.413-2.236,0.188-5.068,0.602-7.306
			c1.236-3.376,4.802-7.208,3.802-11c-3.972-0.598-8.779,9.943-10.519,13.092c-1.008,2.875-3.076,14.059,3.594,10.733"/>
	</g>
	<g opacity="0.6">
		<path fill="#FFFFFF" d="M337.324,240.913c-1.141-2.489,4.27-1.386,5.456-0.998c3.56,1.169,5.589,4.369,6.703,7.908
			c-2.604-0.274-3.854-4.182-6.661-5.007c-1.62-0.436-4.932,0.177-5.316-1.971"/>
	</g>
	<g>
		<g>
			<path fill="#B2E85D" d="M334.584,443.625c-5.037-6.89-14.706-8.393-21.596-3.354c-6.894,5.037-6.372,13.23-1.333,20.117
				c5.036,6.893,12.683,9.873,19.576,4.835C338.12,460.187,339.623,450.517,334.584,443.625z"/>
			<path opacity="0.4" fill="#385066" d="M312.948,440.209c-6.891,5.034-6.371,13.227-1.333,20.116
				c5.039,6.891,12.905,9.996,19.577,4.836c7.222-5.593,0.553-3.592-6.219-4.832c-2.258-0.411-4.54-2.082-6.307-3.315
				c-1.993-1.392-3.842-4.949-4.328-7.949C313.483,443.783,314.87,438.801,312.948,440.209z"/>
			<g opacity="0.9">
				<path fill="#FFF9D9" d="M333.385,447.055c-0.247,4.84-8.27,0.998-9.436-1.476c-2.515-7.186,12.951-2.665,9.193,2.46"/>
			</g>
		</g>
		<path opacity="0.9" fill="#FFF9D9" d="M320.995,440.684c-0.978-0.147-1.889,0.528-2.037,1.506
			c-0.147,0.975,0.527,1.888,1.503,2.035c0.978,0.146,1.89-0.525,2.038-1.505C322.646,441.743,321.973,440.832,320.995,440.684z"/>
	</g>
	<g>
		<g>
			<path fill="#B2E85D" d="M298.933,427.741c-1.151-7.067-7.819-11.864-14.889-10.71c-7.069,1.153-9.79,7.479-8.637,14.548
				c1.152,7.071,5.744,12.206,12.812,11.053C295.289,441.479,300.086,434.812,298.933,427.741z"/>
			<path opacity="0.4" fill="#385066" d="M284.04,416.968c-7.068,1.153-9.791,7.483-8.637,14.549
				c1.154,7.069,5.859,12.381,12.813,11.049c7.527-1.438,1.779-2.475-2.821-5.974c-1.534-1.165-2.605-3.282-3.459-4.875
				c-0.963-1.799-0.996-5.163-0.219-7.593C283.084,419.848,286.011,416.644,284.04,416.968z"/>
			<g opacity="0.9">
				<path fill="#FFF9D9" d="M296.733,429.852c-2.023,3.526-6.568-2.39-6.502-4.688c0.845-6.329,10.705,2.926,5.947,5.333"/>
			</g>
		</g>
		<path opacity="0.9" fill="#FFF9D9" d="M289.881,420.38c-0.676-0.483-1.615-0.324-2.096,0.354
			c-0.483,0.675-0.324,1.613,0.352,2.093c0.677,0.486,1.613,0.326,2.097-0.352C290.714,421.798,290.557,420.864,289.881,420.38z"/>
	</g>
	<g>
		<g>
			<path fill="#B2E85D" d="M291.095,395.041c1.756-5.901-1.606-12.114-7.51-13.868c-5.902-1.756-10.379,2.121-12.135,8.023
				c-1.757,5.903-0.126,11.595,5.776,13.354C283.13,404.307,289.338,400.942,291.095,395.041z"/>
			<path opacity="0.4" fill="#385066" d="M283.606,381.122c-5.903-1.755-10.379,2.123-12.137,8.025
				c-1.756,5.904-0.1,11.777,5.778,13.353c6.364,1.705,2.305-1.251,0.056-5.682c-0.75-1.476-0.786-3.515-0.85-5.069
				c-0.073-1.753,1.162-4.368,2.674-5.958C281.786,382.992,285.252,381.612,283.606,381.122z"/>
			<g opacity="0.9">
				<path fill="#FFF9D9" d="M288.601,395.851c-2.888,1.973-4.187-4.314-3.274-6.065c3.027-4.581,7.189,6.274,2.605,6.355"/>
			</g>
		</g>
		<circle opacity="0.9" fill="#FFF9D9" cx="285.714" cy="386.573" r="1.292"/>
	</g>
	<g>
		<g>
			<path fill="#B2E85D" d="M304.191,369.718c4.666-2.828,6.152-8.903,3.325-13.567c-2.83-4.665-8.075-4.784-12.738-1.957
				c-4.664,2.83-6.983,7.535-4.155,12.201C293.454,371.06,299.528,372.548,304.191,369.718z"/>
			<path opacity="0.4" fill="#385066" d="M307.56,356.13c-2.831-4.667-8.075-4.785-12.737-1.956
				c-4.666,2.828-7.074,7.667-4.155,12.199c3.164,4.906,2.256,0.55,3.417-3.695c0.385-1.415,1.575-2.774,2.457-3.833
				c0.996-1.193,3.364-2.175,5.3-2.317C305.252,356.273,308.35,357.43,307.56,356.13z"/>
			<g opacity="0.9">
				<path fill="#FFF9D9" d="M302.076,368.766c-3.07-0.423-0.182-5.32,1.456-5.927c4.713-1.207,0.986,8.394-2.07,5.721"/>
			</g>
		</g>
		<circle opacity="0.9" fill="#FFF9D9" cx="305.699" cy="360.959" r="1.145"/>
	</g>
	<g>
		<g>
			<path fill="#B2E85D" d="M331.773,345.583c3.941-2.388,5.197-7.522,2.809-11.462c-2.391-3.943-6.822-4.042-10.762-1.652
				c-3.94,2.391-5.899,6.365-3.51,10.306C322.7,346.716,327.833,347.972,331.773,345.583z"/>
			<path opacity="0.4" fill="#385066" d="M334.617,334.104c-2.389-3.942-6.82-4.042-10.762-1.654
				c-3.939,2.391-5.976,6.479-3.509,10.306c2.672,4.146,1.906,0.467,2.886-3.121c0.327-1.196,1.332-2.344,2.076-3.239
				c0.842-1.006,2.842-1.834,4.479-1.957C332.669,334.225,335.284,335.202,334.617,334.104z"/>
		</g>
		<path opacity="0.9" fill="#FFF9D9" d="M334.852,339.595c0.314-1.303-0.489-2.615-1.792-2.926
			c-1.306-0.314-2.615,0.492-2.928,1.794c-0.313,1.301,0.492,2.614,1.794,2.926C333.228,341.701,334.54,340.9,334.852,339.595z"/>
	</g>
	<circle opacity="0.9" fill="#FFF9D9" cx="331.013" cy="343.012" r="0.889"/>
	<g>
		<g>
			<path fill="#B2E85D" d="M355.164,321.174c2.18-3.608,1.023-8.299-2.582-10.48c-3.607-2.182-7.242-0.384-9.421,3.223
				c-2.181,3.607-2.084,7.656,1.521,9.838C348.291,325.936,352.98,324.781,355.164,321.174z"/>
			<path opacity="0.4" fill="#385066" d="M352.603,310.664c-3.608-2.182-7.241-0.386-9.42,3.222c-2.181,3.607-2.1,7.782,1.523,9.838
				c3.921,2.228,1.741-0.43,1.016-3.752c-0.243-1.107,0.085-2.465,0.31-3.506c0.255-1.172,1.523-2.691,2.8-3.484
				C351.074,311.589,353.609,311.273,352.603,310.664z"/>
		</g>
		<circle opacity="0.9" fill="#FFF9D9" cx="352.968" cy="315.557" r="2.22"/>
	</g>
	<g>
		<g>
			<path fill="#B2E85D" d="M366.516,293.011c-0.249-3.8-3.529-6.679-7.33-6.432c-3.799,0.248-5.564,3.456-5.315,7.256
				c0.248,3.8,2.414,6.754,6.213,6.506C363.885,300.092,366.763,296.812,366.516,293.011z"/>
			<path opacity="0.4" fill="#385066" d="M359.186,286.547c-3.799,0.247-5.565,3.454-5.316,7.254c0.248,3.8,2.466,6.852,6.213,6.505
				c4.058-0.375,1.07-1.219-1.185-3.306c-0.752-0.696-1.209-1.871-1.582-2.759c-0.417-1-0.263-2.782,0.272-4.028
				C358.533,288.021,360.247,286.477,359.186,286.547z"/>
		</g>
		<path opacity="0.9" fill="#FFF9D9" d="M363.302,288.469c-0.835-0.726-2.103-0.638-2.829,0.2c-0.727,0.833-0.637,2.102,0.197,2.828
			c0.837,0.726,2.104,0.639,2.831-0.198C364.228,290.462,364.138,289.196,363.302,288.469z"/>
	</g>
	<g>
		<g>
			<path fill="#B2E85D" d="M369.871,266.658c-0.21-3.236-3.005-5.689-6.242-5.477c-3.237,0.211-4.74,2.944-4.53,6.18
				c0.213,3.237,2.057,5.754,5.294,5.542C367.629,272.691,370.082,269.894,369.871,266.658z"/>
			<path opacity="0.4" fill="#385066" d="M363.628,261.153c-3.237,0.208-4.739,2.943-4.528,6.18
				c0.211,3.236,2.102,5.837,5.293,5.541c3.456-0.321,0.909-1.04-1.011-2.818c-0.64-0.592-1.03-1.592-1.346-2.348
				c-0.357-0.854-0.225-2.371,0.232-3.432C363.071,262.409,364.532,261.093,363.628,261.153z"/>
		</g>
		<circle opacity="0.9" fill="#FFF9D9" cx="366.014" cy="264.081" r="1.708"/>
	</g>
	<g>
		<g>
			<path fill="#B2E85D" d="M363.306,241.167c-1.686-1.844-4.546-1.97-6.39-0.284c-1.843,1.685-1.43,4.052,0.258,5.896
				c1.686,1.842,4.006,2.463,5.851,0.777C364.867,245.87,364.994,243.009,363.306,241.167z"/>
			<path opacity="0.4" fill="#385066" d="M356.902,240.865c-1.842,1.687-1.428,4.053,0.259,5.895
				c1.685,1.842,4.073,2.495,5.848,0.778c1.923-1.858,0.045-1.061-1.965-1.204c-0.67-0.048-1.387-0.461-1.94-0.763
				c-0.624-0.341-1.276-1.316-1.514-2.174C357.173,241.889,357.416,240.395,356.902,240.865z"/>
		</g>
		<path opacity="0.9" fill="#FFF9D9" d="M359.8,240.16c-0.728-0.029-1.339,0.538-1.37,1.263c-0.028,0.726,0.538,1.338,1.265,1.368
			c0.724,0.029,1.338-0.536,1.366-1.263C361.09,240.8,360.525,240.189,359.8,240.16z"/>
	</g>
	<circle opacity="0.9" fill="#FFF9D9" cx="353.144" cy="319.811" r="0.89"/>
	<circle opacity="0.9" fill="#FFF9D9" cx="362.95" cy="293.967" r="0.889"/>
</g>
<g>
	<g>
		<path fill="#EF78D3" d="M580.685,329.93c-7.169-24.778-22.731-44.701-42.879-59.746c-20.146-15.045-50.188-14.314-71.132-26.291
			c-18.981-11.468-53.293-32.366-43.912-60.494c1.59-6.134,3.631-9.973,9.854-13.814c5.96-2.82,14.509,0.486,13.959-9.48
			c-0.924-16.608-24.067-16.059-33.045-9.654c-20.448,14.344-19.133,49.607-10.37,68.247c10.185,21.196,23.712,43.024,41.715,54.239
			c18.719,12.49,45.673,22,60.127,38.842c8.392,11.998,20.994,27.224,18.262,41.794c-1.405,10.392-12.258,24.743-21.43,29.533
			c-11.032,5.753-21.55,10.602-31.208,18.727c-5.678,4.773-10.704,11.113-15.679,16.646c-9.658,10.736-12.357,24.062-2.368,35.963
			c8.541,10.178,19.46,13.786,32.129,12.5c8.255-0.839,13.972-3.754,21.788-6.23c8.03-2.542,13.674-5.34,20.286-8.387
			c13.375-6.169,25.285-14.083,34.13-25.587c5.667-7.374,10.848-14.207,13.936-22.718c2.682-7.402,4.298-15.837,5.546-23.777
			c0.774-4.917,0.775-10.633,1.099-15.691C582.185,353.617,583.396,340.677,580.685,329.93z"/>
	</g>
	<g>
		<path fill="#D83FB8" d="M580.906,329.981c-7.169-24.776-22.731-44.701-42.881-59.745c-20.146-15.044-50.185-14.313-71.128-26.292
			c-18.983-11.466-53.295-32.365-43.915-60.492c1.59-6.134,3.632-9.972,9.855-13.814c5.958-2.821,14.384-0.553,13.958-9.479
			c-0.287-5.999-0.626-1.284-3.467,0.676c-3.175,2.188-9.049,2.161-12.836,4.762c-20.593,14.131-21.754,31.056-12.995,49.697
			c10.188,21.193,28.802,29.145,47.814,38.589c10.077,5.006,25.019,9.418,39.727,14.727c14.708,5.308,27.612,12.708,35.69,21.173
			c10.109,10.591,24.073,43.48,23.621,58.298c-0.153,5.032,1.3,17.143-0.436,28.864c-1.449,9.772-6.431,19.745-9.587,26.341
			c-2.696,5.634-7.357,15.073-15.231,22.956c-6.417,6.425-15.939,11.511-20.276,15.161c-5.678,4.774-19.963,10.246-33.658,14.729
			c-13.728,4.488-42.352-13.541-32.361-1.642c8.54,10.181,19.461,13.789,32.131,12.497c8.254-0.833,13.974-3.751,21.783-6.226
			c8.03-2.543,13.678-5.339,20.286-8.389c13.378-6.168,25.288-14.081,34.134-25.586c5.666-7.371,10.849-14.204,13.933-22.711
			c2.683-7.41,5.357-16.004,6.607-23.944c0.768-4.916,0.981-9.862,1.304-14.918C583.672,354.281,583.62,340.728,580.906,329.981z"/>
	</g>
	<g opacity="0.6">
		<path fill="#FFFFFF" d="M524.195,418.555c-2.021,6.543-7.011,13.791-11.815,18.27c-3.603,3.36-31.714,17.308-28.042,1.791
			c2.096-8.864,18.869-10.513,25.661-15.459c3.497-2.918,4.079-9.337,9.374-9.955c3.76-0.049,5.789,3.241,4.4,7.126"/>
	</g>
	<g opacity="0.6">
		<path fill="#FFFFFF" d="M531.611,410.948c-4.281,2.263-8.19-1.006-7.035-5.88c1.048-4.435,7.753-7.059,10.251-1.788
			c1.25,2.639-0.217,8.844-4.651,7.797"/>
	</g>
	<g opacity="0.6">
		<path fill="#FFFFFF" d="M554.902,345.705c1.795,3.698-1.09,6.919-5.194,5.799c-3.731-1.018-5.763-6.788-1.216-8.751
			c2.274-0.982,7.496,0.443,6.479,4.173"/>
	</g>
	<g opacity="0.6">
		<path fill="#FFFFFF" d="M435.652,156.373c0.96,1.98-0.585,3.706-2.782,3.105c-1.995-0.548-3.084-3.635-0.648-4.688
			c1.216-0.524,4.011,0.239,3.466,2.238"/>
	</g>
	<g opacity="0.6">
		<path fill="#FFFFFF" d="M549.699,338.452c-3.652-0.397-4.562-2.483-5.604-6.005c-0.805-2.531-0.955-5.846-1.761-8.377
			c-1.927-3.732-6.616-7.652-6.011-12.19c4.514-1.272,11.619,10.238,14.096,13.634c1.588,3.184,5.614,15.841-2.599,12.96"/>
	</g>
	<g opacity="0.6">
		<path fill="#FFFFFF" d="M429.126,162.463c0.959-3.05-5.149-0.982-6.468-0.359c-3.954,1.873-5.838,5.875-6.611,10.139
			c2.975-0.7,3.855-5.407,6.986-6.774c1.812-0.739,5.738-0.513,5.87-3.058"/>
	</g>
	<g>
		<g>
			<path fill="#B2E85D" d="M461.863,396.928c4.83-8.718,15.814-11.868,24.531-7.037c8.721,4.832,9.313,14.398,4.479,23.116
				c-4.828,8.719-13.254,13.288-21.975,8.455C460.181,416.633,457.029,405.647,461.863,396.928z"/>
			<path opacity="0.4" fill="#385066" d="M486.432,389.812c8.721,4.828,9.311,14.395,4.479,23.115
				c-4.833,8.716-13.493,13.463-21.978,8.454c-9.184-5.424-1.163-4.08,6.502-6.502c2.557-0.807,4.955-3.077,6.824-4.762
				c2.106-1.904,3.729-6.292,3.853-9.842C486.333,394.032,483.999,388.461,486.432,389.812z"/>
			<g opacity="0.9">
				<path fill="#FFF9D9" d="M463.752,400.725c0.993,5.572,9.727-0.049,10.719-3.087c1.865-8.691-15.396-1.198-10.291,4.192"/>
			</g>
		</g>
		<circle opacity="0.9" fill="#FFF9D9" cx="477.746" cy="393.549" r="2.09"/>
	</g>
	<g>
		<g>
			<path fill="#B2E85D" d="M500.853,373.324c0.304-8.357,7.329-14.886,15.688-14.58c8.359,0.305,12.434,7.239,12.129,15.596
				c-0.306,8.359-4.875,14.979-13.232,14.673C507.077,388.707,500.548,381.684,500.853,373.324z"/>
			<path opacity="0.4" fill="#385066" d="M516.537,358.67c8.357,0.306,12.434,7.239,12.13,15.597
				c-0.308,8.359-4.986,15.2-13.235,14.672c-8.932-0.57-2.422-2.609,2.396-7.334c1.606-1.573,2.539-4.182,3.297-6.153
				c0.852-2.224,0.4-6.125-0.853-8.829C518.064,361.869,514.204,358.583,516.537,358.67z"/>
			<g opacity="0.9">
				<path fill="#FFF9D9" d="M503.709,375.45c2.857,3.791,7.261-3.729,6.85-6.38c-1.903-7.21-11.977,4.949-6.111,7.047"/>
			</g>
		</g>
		<path opacity="0.9" fill="#FFF9D9" d="M510.267,363.475c0.713-0.658,1.823-0.61,2.479,0.105c0.658,0.713,0.612,1.821-0.101,2.475
			c-0.715,0.659-1.823,0.614-2.481-0.101C509.509,365.242,509.555,364.134,510.267,363.475z"/>
	</g>
	<g>
		<g>
			<path fill="#B2E85D" d="M505.166,334.295c-2.897-6.582,0.094-14.268,6.676-17.163c6.584-2.896,12.336,0.943,15.23,7.527
				c2.896,6.583,1.838,13.416-4.744,16.314C515.744,343.869,508.061,340.876,505.166,334.295z"/>
			<path opacity="0.4" fill="#385066" d="M511.811,317.076c6.584-2.895,12.336,0.945,15.231,7.527
				c2.896,6.585,1.837,13.631-4.746,16.314c-7.124,2.903-2.851-1.113-0.894-6.574c0.658-1.821,0.4-4.188,0.247-5.999
				c-0.172-2.042-1.982-4.891-3.967-6.512C514.193,318.978,509.976,317.884,511.811,317.076z"/>
			<g opacity="0.9">
				<path fill="#FFF9D9" d="M508.173,334.87c3.633,1.864,4.22-5.61,2.91-7.504c-4.176-4.867-7.416,8.316-2.093,7.742"/>
			</g>
		</g>
		<circle opacity="0.9" fill="#FFF9D9" cx="510.165" cy="323.7" r="1.509"/>
	</g>
	<g>
		<g>
			<path fill="#B2E85D" d="M486.298,306.866c-5.817-2.596-8.426-9.419-5.829-15.234c2.598-5.816,8.656-6.719,14.472-4.123
				c5.815,2.597,9.188,7.71,6.592,13.529C498.934,306.854,492.114,309.463,486.298,306.866z"/>
			<path opacity="0.4" fill="#385066" d="M480.414,291.615c2.599-5.82,8.656-6.722,14.473-4.123
				c5.819,2.597,9.313,7.85,6.592,13.527c-2.948,6.145-2.532,0.966-4.498-3.783c-0.651-1.583-2.23-2.986-3.405-4.084
				c-1.325-1.235-4.213-2.028-6.478-1.91C483.109,291.444,479.688,293.235,480.414,291.615z"/>
			<g opacity="0.9">
				<path fill="#FFF9D9" d="M488.609,305.454c3.496-0.938-0.563-6.192-2.552-6.655c-5.636-0.709,0.082,9.869,3.233,6.327"/>
			</g>
		</g>
		<circle opacity="0.9" fill="#FFF9D9" cx="483.273" cy="296.938" r="1.336"/>
	</g>
	<g>
		<g>
			<path fill="#B2E85D" d="M450.822,282.926c-4.915-2.194-7.119-7.958-4.926-12.872c2.196-4.917,7.314-5.677,12.228-3.482
				c4.916,2.193,7.762,6.513,5.57,11.428C461.499,282.915,455.736,285.119,450.822,282.926z"/>
			<path opacity="0.4" fill="#385066" d="M445.854,270.04c2.192-4.915,7.311-5.677,12.227-3.483
				c4.913,2.194,7.869,6.632,5.568,11.428c-2.49,5.192-2.142,0.816-3.8-3.195c-0.553-1.337-1.884-2.522-2.878-3.45
				c-1.122-1.044-3.558-1.711-5.474-1.616C448.129,269.896,445.24,271.409,445.854,270.04z"/>
		</g>
		<path opacity="0.9" fill="#FFF9D9" d="M446.381,276.437c-0.554-1.464,0.187-3.1,1.65-3.652c1.467-0.553,3.101,0.188,3.656,1.652
			c0.551,1.463-0.19,3.1-1.655,3.651C448.568,278.641,446.934,277.903,446.381,276.437z"/>
	</g>
	<path opacity="0.9" fill="#FFF9D9" d="M450.356,280.201c-0.202-0.536,0.069-1.136,0.605-1.338c0.536-0.202,1.136,0.068,1.339,0.606
		c0.202,0.537-0.067,1.135-0.607,1.337C451.16,281.008,450.561,280.738,450.356,280.201z"/>
	<g>
		<g>
			<path fill="#B2E85D" d="M420.162,258.057c-3.051-3.864-2.396-9.468,1.463-12.519c3.862-3.054,8.335-1.502,11.385,2.359
				c3.054,3.861,3.533,8.568-0.326,11.62C428.819,262.57,423.218,261.917,420.162,258.057z"/>
			<path opacity="0.4" fill="#385066" d="M421.598,245.506c3.862-3.054,8.331-1.503,11.383,2.359
				c3.052,3.861,3.567,8.71-0.33,11.621c-4.219,3.153-2.08-0.244-1.726-4.199c0.121-1.319-0.457-2.844-0.869-4.016
				c-0.467-1.322-2.157-2.899-3.753-3.629C423.502,246.353,420.52,246.358,421.598,245.506z"/>
		</g>
		<path opacity="0.9" fill="#FFF9D9" d="M419.313,250.914c0.173-1.421,1.464-2.433,2.886-2.26c1.423,0.173,2.434,1.466,2.262,2.886
			c-0.174,1.423-1.467,2.435-2.889,2.26C420.154,253.628,419.138,252.336,419.313,250.914z"/>
	</g>
	<g>
		<g>
			<path fill="#B2E85D" d="M402.902,227.082c-0.267-4.44,3.114-8.253,7.555-8.521c4.438-0.268,6.95,3.193,7.217,7.632
				c0.267,4.436-1.812,8.175-6.25,8.442C406.984,234.903,403.169,231.521,402.902,227.082z"/>
			<path opacity="0.4" fill="#385066" d="M410.451,218.523c4.438-0.267,6.951,3.191,7.217,7.629c0.268,4.439-1.858,8.3-6.249,8.443
				c-4.756,0.156-1.418-1.257,0.89-4.003c0.771-0.915,1.128-2.343,1.43-3.427c0.338-1.219-0.1-3.261-0.903-4.627
				C411.423,220.136,409.213,218.597,410.451,218.523z"/>
		</g>
		<circle opacity="0.9" fill="#FFF9D9" cx="407.708" cy="222.913" r="2.343"/>
	</g>
	<g>
		<g>
			<path fill="#B2E85D" d="M395.171,197.039c-0.228-3.781,2.653-7.03,6.434-7.256c3.781-0.229,5.922,2.719,6.149,6.5
				c0.226,3.78-1.543,6.966-5.324,7.191C398.648,203.701,395.399,200.819,395.171,197.039z"/>
			<path opacity="0.4" fill="#385066" d="M401.6,189.75c3.782-0.23,5.923,2.719,6.149,6.5c0.227,3.78-1.583,7.069-5.326,7.191
				c-4.05,0.133-1.204-1.072,0.761-3.411c0.655-0.78,0.962-1.996,1.217-2.918c0.29-1.04-0.085-2.777-0.769-3.941
				C402.431,191.124,400.546,189.812,401.6,189.75z"/>
		</g>
		<circle opacity="0.9" fill="#FFF9D9" cx="399.264" cy="193.489" r="1.995"/>
	</g>
	<g>
		<g>
			<path fill="#B2E85D" d="M399.06,166.546c1.684-2.381,4.98-2.945,7.363-1.262c2.381,1.685,2.246,4.489,0.559,6.87
				c-1.684,2.382-4.28,3.438-6.664,1.755C397.938,172.224,397.373,168.927,399.06,166.546z"/>
			<path opacity="0.4" fill="#385066" d="M406.436,165.263c2.381,1.687,2.246,4.489,0.56,6.87c-1.685,2.379-4.356,3.483-6.663,1.754
				c-2.499-1.873-0.208-1.225,2.1-1.683c0.771-0.152,1.54-0.736,2.137-1.166c0.673-0.488,1.285-1.711,1.437-2.741
				C406.271,166.488,405.772,164.792,406.436,165.263z"/>
		</g>
		<path opacity="0.9" fill="#FFF9D9" d="M402.976,164.869c0.84-0.14,1.629,0.427,1.771,1.263c0.137,0.838-0.429,1.63-1.267,1.77
			c-0.835,0.139-1.627-0.426-1.767-1.264C401.573,165.799,402.141,165.008,402.976,164.869z"/>
	</g>
	<path opacity="0.9" fill="#FFF9D9" d="M421.332,256.548c-0.202-0.536,0.068-1.135,0.604-1.336c0.537-0.202,1.137,0.068,1.341,0.603
		c0.201,0.537-0.072,1.138-0.607,1.339C422.133,257.353,421.534,257.085,421.332,256.548z"/>
	<circle opacity="0.9" fill="#FFF9D9" cx="407.172" cy="227.669" r="1.037"/>
</g>
<g>
	<g>
		<path fill="#EF78D3" d="M198.322,603.644c-25.08-7.06-45.316-22.637-60.661-42.879c-15.343-20.238-14.823-50.587-27.072-71.658
			c-11.723-19.09-33.078-53.596-61.42-43.916c-6.188,1.652-10.049,3.741-13.885,10.053c-2.807,6.042,0.597,14.655-9.473,14.17
			c-16.784-0.812-16.396-24.192-9.995-33.31c14.343-20.756,49.973-19.684,68.864-10.972c21.484,10.137,43.629,23.642,55.088,41.744
			c12.751,18.817,22.554,45.975,39.671,60.454c12.18,8.389,27.651,21.008,42.349,18.14c10.486-1.494,24.902-12.558,29.673-21.855
			c5.732-11.189,10.552-21.847,18.689-31.663c4.781-5.77,11.148-10.894,16.7-15.959c10.776-9.833,24.216-12.655,36.311-2.653
			c10.343,8.556,14.065,19.556,12.858,32.364c-0.787,8.345-3.689,14.14-6.135,22.052c-2.508,8.132-5.295,13.854-8.325,20.554
			c-6.132,13.556-14.04,25.644-25.597,34.66c-7.405,5.776-14.271,11.062-22.846,14.238c-7.456,2.764-15.963,4.461-23.977,5.776
			c-4.959,0.815-10.734,0.86-15.84,1.225C222.26,604.988,209.199,606.306,198.322,603.644z"/>
	</g>
	<g>
		<path fill="#D83FB8" d="M198.377,603.868c-25.079-7.062-45.318-22.637-60.66-42.881c-15.341-20.239-14.824-50.586-27.074-71.654
			c-11.721-19.093-33.08-53.598-61.423-43.918c-6.184,1.649-10.045,3.738-13.882,10.055c-2.807,6.038-0.452,14.532-9.474,14.167
			c-6.061-0.248-1.301-0.62,0.658-3.507c2.188-3.222,2.118-9.157,4.716-13c14.125-20.904,31.213-22.202,50.105-13.488
			c21.481,10.138,29.65,28.881,39.327,48.018c5.13,10.144,9.695,25.201,15.163,40.02c5.47,14.819,13.036,27.799,21.646,35.897
			c10.773,10.135,44.096,24.001,59.059,23.437c5.082-0.192,17.326,1.19,29.152-0.65c9.859-1.534,19.897-6.638,26.54-9.873
			c5.669-2.765,15.171-7.545,23.074-15.554c6.445-6.527,11.514-16.185,15.168-20.593c4.783-5.768,10.206-20.236,14.633-34.102
			c4.436-13.9-13.985-42.684-1.889-32.68c10.344,8.555,14.067,19.557,12.855,32.366c-0.783,8.346-3.688,14.14-6.13,22.05
			c-2.512,8.131-5.298,13.854-8.328,20.552c-6.132,13.557-14.04,25.646-25.595,34.664c-7.406,5.776-14.272,11.061-22.844,14.237
			c-7.46,2.765-16.123,5.528-24.135,6.847c-4.958,0.812-9.952,1.064-15.056,1.428C222.942,606.485,209.253,606.531,198.377,603.868z
			"/>
	</g>
	<g opacity="0.6">
		<path fill="#FFFFFF" d="M287.432,545.941c6.596-2.089,13.88-7.183,18.368-12.068c3.371-3.664,17.252-32.161,1.607-28.339
			c-8.94,2.183-10.483,19.139-15.433,26.032c-2.921,3.555-9.397,4.188-9.983,9.544c-0.022,3.794,3.314,5.823,7.229,4.391"/>
	</g>
	<g opacity="0.6">
		<path fill="#FFFFFF" d="M279.801,553.484c2.259-4.338-1.072-8.262-5.99-7.062c-4.468,1.092-7.072,7.883-1.729,10.368
			c2.674,1.245,8.93-0.284,7.838-4.755"/>
	</g>
	<g opacity="0.6">
		<path fill="#FFFFFF" d="M214.07,577.487c3.75,1.784,6.981-1.152,5.82-5.288c-1.057-3.765-6.899-5.775-8.848-1.167
			c-0.973,2.303,0.503,7.569,4.264,6.515"/>
	</g>
	<g opacity="0.6">
		<path fill="#FFFFFF" d="M21.961,458.41c2.007,0.953,3.737-0.618,3.116-2.831c-0.569-2.014-3.693-3.094-4.74-0.626
			c-0.52,1.231,0.271,4.052,2.288,3.486"/>
	</g>
	<g opacity="0.6">
		<path fill="#FFFFFF" d="M206.708,572.283c-0.43-3.687-2.542-4.59-6.107-5.616c-2.564-0.794-5.911-0.923-8.475-1.719
			c-3.785-1.917-7.777-6.626-12.356-5.979c-1.253,4.566,10.429,11.661,13.873,14.137c3.227,1.579,16.044,5.556,13.074-2.721"/>
	</g>
	<g opacity="0.6">
		<path fill="#FFFFFF" d="M28.066,451.77c-3.075,0.992-1.031-5.192-0.41-6.526c1.862-4.01,5.891-5.941,10.192-6.755
			c-0.684,3.013-5.435,3.934-6.792,7.106c-0.734,1.838-0.477,5.802-3.046,5.954"/>
	</g>
	<g>
		<g>
			<path fill="#B2E85D" d="M265.135,483.136c-8.77,4.941-11.874,16.061-6.93,24.831c4.942,8.773,14.613,9.302,23.38,4.358
				c8.773-4.945,13.327-13.488,8.381-22.262C285.025,481.294,273.905,478.189,265.135,483.136z"/>
			<path opacity="0.4" fill="#385066" d="M258.126,508.006c4.939,8.771,14.607,9.3,23.379,4.354
				c8.771-4.944,13.501-13.728,8.381-22.259c-5.545-9.235-4.128-1.147-6.522,6.614c-0.794,2.588-3.069,5.027-4.758,6.927
				c-1.909,2.141-6.33,3.812-9.912,3.964C262.388,507.873,256.744,505.556,258.126,508.006z"/>
			<g opacity="0.9">
				<path fill="#FFF9D9" d="M268.982,485.018c5.635,0.96,0.02,9.825-3.04,10.847c-8.765,1.948-1.321-15.538,4.16-10.426"/>
			</g>
		</g>
		<circle opacity="0.9" fill="#FFF9D9" cx="261.836" cy="499.205" r="2.111"/>
	</g>
	<g>
		<g>
			<path fill="#B2E85D" d="M241.575,522.689c-8.437,0.369-14.981,7.511-14.612,15.952c0.37,8.444,7.4,12.508,15.842,12.14
				c8.44-0.369,15.092-5.034,14.724-13.473C257.161,528.867,250.017,522.322,241.575,522.689z"/>
			<path opacity="0.4" fill="#385066" d="M226.886,538.64c0.37,8.439,7.405,12.506,15.845,12.138
				c8.442-0.369,15.315-5.145,14.725-13.475c-0.642-9.02-2.653-2.429-7.393,2.474c-1.577,1.636-4.205,2.597-6.191,3.376
				c-2.239,0.879-6.185,0.449-8.924-0.799C230.129,540.158,226.783,536.284,226.886,538.64z"/>
			<g opacity="0.9">
				<path fill="#FFF9D9" d="M243.742,525.562c3.855,2.856-3.713,7.359-6.393,6.962c-7.296-1.87,4.91-12.133,7.073-6.227"/>
			</g>
		</g>
		<path opacity="0.9" fill="#FFF9D9" d="M231.695,532.27c-0.658,0.727-0.604,1.848,0.123,2.504c0.727,0.661,1.844,0.605,2.5-0.121
			c0.662-0.724,0.606-1.844-0.121-2.505C233.475,531.493,232.356,531.545,231.695,532.27z"/>
	</g>
	<g>
		<g>
			<path fill="#B2E85D" d="M202.183,527.33c-6.668-2.878-14.412,0.199-17.287,6.868c-2.877,6.672,1.044,12.456,7.716,15.33
				c6.668,2.879,13.562,1.76,16.443-4.913C211.931,537.946,208.854,530.206,202.183,527.33z"/>
			<path opacity="0.4" fill="#385066" d="M184.839,534.17c-2.875,6.671,1.046,12.452,7.714,15.328
				c6.67,2.877,13.782,1.755,16.444-4.91c2.883-7.219-1.145-2.875-6.647-0.854c-1.834,0.674-4.227,0.434-6.056,0.293
				c-2.064-0.159-4.954-1.97-6.608-3.964C186.778,536.561,185.643,532.31,184.839,534.17z"/>
			<g opacity="0.9">
				<path fill="#FFF9D9" d="M202.785,530.363c1.909,3.656-5.633,4.305-7.557,2.993c-4.945-4.183,8.348-7.552,7.804-2.168"/>
			</g>
		</g>
		<path opacity="0.9" fill="#FFF9D9" d="M190.948,531.045c-0.781,0.312-1.161,1.199-0.846,1.982
			c0.316,0.775,1.204,1.157,1.985,0.843c0.778-0.315,1.158-1.204,0.841-1.983C192.617,531.105,191.727,530.729,190.948,531.045z"/>
	</g>
	<g>
		<g>
			<path fill="#B2E85D" d="M174.341,508.471c-2.666-5.855-9.575-8.442-15.43-5.777c-5.858,2.666-6.726,8.793-4.062,14.647
				c2.666,5.856,7.856,9.227,13.713,6.562C174.421,521.235,177.009,514.327,174.341,508.471z"/>
			<path opacity="0.4" fill="#385066" d="M158.893,502.639c-5.859,2.668-6.727,8.793-4.06,14.648
				c2.664,5.859,7.996,9.352,13.711,6.561c6.187-3.023,0.958-2.565-3.851-4.514c-1.605-0.649-3.033-2.232-4.151-3.413
				c-1.257-1.329-2.079-4.24-1.977-6.528C158.742,505.362,160.526,501.896,158.893,502.639z"/>
			<g opacity="0.9">
				<path fill="#FFF9D9" d="M172.933,510.819c-0.924,3.534-6.261-0.527-6.743-2.531c-0.757-5.688,9.968,0.012,6.415,3.218"/>
			</g>
		</g>
		<circle opacity="0.9" fill="#FFF9D9" cx="164.289" cy="505.489" r="1.349"/>
	</g>
	<g>
		<g>
			<path fill="#B2E85D" d="M149.9,472.813c-2.25-4.948-8.089-7.134-13.036-4.884c-4.95,2.253-5.682,7.432-3.43,12.375
				c2.251,4.95,6.634,7.796,11.585,5.545C149.967,483.597,152.153,477.761,149.9,472.813z"/>
			<path opacity="0.4" fill="#385066" d="M136.849,467.885c-4.949,2.251-5.683,7.429-3.432,12.377
				c2.252,4.949,6.759,7.899,11.584,5.541c5.229-2.553,0.81-2.167-3.253-3.815c-1.354-0.548-2.562-1.885-3.506-2.882
				c-1.063-1.124-1.756-3.583-1.673-5.516C136.722,470.185,138.227,467.256,136.849,467.885z"/>
		</g>
		<circle opacity="0.9" fill="#FFF9D9" cx="142.323" cy="471.059" r="2.864"/>
	</g>
	<path opacity="0.9" fill="#FFF9D9" d="M147.146,472.363c-0.542-0.204-1.147,0.076-1.35,0.619c-0.198,0.541,0.08,1.146,0.623,1.349
		c0.545,0.199,1.147-0.078,1.347-0.624C147.969,473.165,147.689,472.562,147.146,472.363z"/>
	<g>
		<g>
			<path fill="#B2E85D" d="M124.557,442.021c-3.923-3.054-9.58-2.349-12.635,1.568c-3.057,3.925-1.456,8.432,2.467,11.484
				c3.922,3.058,8.68,3.505,11.735-0.413C129.18,450.734,128.48,445.081,124.557,442.021z"/>
			<path opacity="0.4" fill="#385066" d="M111.892,443.563c-3.058,3.921-1.458,8.426,2.465,11.479
				c3.921,3.058,8.824,3.543,11.736-0.417c3.153-4.282-0.264-2.098-4.254-1.71c-1.331,0.128-2.875-0.44-4.062-0.852
				c-1.339-0.463-2.942-2.158-3.692-3.762C112.761,445.481,112.743,442.467,111.892,443.563z"/>
		</g>
		<path opacity="0.9" fill="#FFF9D9" d="M117.339,441.215c-1.437,0.187-2.448,1.498-2.262,2.932c0.183,1.439,1.499,2.447,2.93,2.266
			c1.436-0.187,2.448-1.5,2.263-2.935C120.085,442.045,118.772,441.029,117.339,441.215z"/>
	</g>
	<g>
		<g>
			<path fill="#B2E85D" d="M93.145,424.814c-4.484-0.239-8.313,3.206-8.552,7.694c-0.237,4.483,3.276,6.994,7.761,7.231
				c4.486,0.239,8.246-1.89,8.484-6.374C101.076,428.88,97.631,425.05,93.145,424.814z"/>
			<path opacity="0.4" fill="#385066" d="M84.554,432.5c-0.236,4.486,3.274,6.998,7.76,7.235c4.487,0.239,8.371-1.938,8.483-6.373
				c0.124-4.807-1.281-1.423-4.037,0.928c-0.918,0.784-2.36,1.156-3.452,1.469c-1.23,0.351-3.295-0.076-4.681-0.877
				C86.191,433.472,84.62,431.25,84.554,432.5z"/>
		</g>
		<path opacity="0.9" fill="#FFF9D9" d="M87.379,427.948c-0.967,0.877-1.04,2.375-0.161,3.342c0.875,0.965,2.374,1.039,3.34,0.161
			c0.968-0.881,1.042-2.377,0.163-3.344C89.842,427.139,88.347,427.07,87.379,427.948z"/>
	</g>
	<g>
		<g>
			<path fill="#B2E85D" d="M62.743,417.225c-3.822-0.203-7.083,2.73-7.282,6.549c-0.205,3.823,2.789,5.962,6.609,6.167
				c3.819,0.2,7.025-1.612,7.225-5.433C69.498,420.687,66.561,417.427,62.743,417.225z"/>
			<path opacity="0.4" fill="#385066" d="M55.429,423.771c-0.208,3.82,2.789,5.962,6.609,6.163c3.82,0.202,7.129-1.65,7.225-5.432
				c0.104-4.091-1.093-1.208-3.44,0.795c-0.783,0.665-2.01,0.986-2.938,1.249c-1.05,0.3-2.808-0.066-3.987-0.749
				C56.821,424.599,55.484,422.703,55.429,423.771z"/>
		</g>
		<path opacity="0.9" fill="#FFF9D9" d="M57.833,419.892c-0.824,0.745-0.886,2.023-0.138,2.847c0.748,0.826,2.021,0.886,2.847,0.136
			c0.823-0.748,0.885-2.022,0.137-2.844C59.93,419.207,58.658,419.142,57.833,419.892z"/>
	</g>
	<g>
		<g>
			<path fill="#B2E85D" d="M31.97,421.371c-2.394,1.719-2.937,5.055-1.22,7.448c1.721,2.393,4.549,2.235,6.943,0.516
				c2.393-1.718,3.441-4.351,1.724-6.744C37.698,420.197,34.364,419.649,31.97,421.371z"/>
			<path opacity="0.4" fill="#385066" d="M30.729,428.832c1.719,2.393,4.549,2.235,6.94,0.517c2.393-1.721,3.49-4.426,1.727-6.745
				c-1.909-2.509-1.239-0.199-1.685,2.135c-0.149,0.78-0.732,1.562-1.162,2.167c-0.485,0.683-1.718,1.313-2.759,1.473
				C31.965,428.657,30.248,428.165,30.729,428.832z"/>
		</g>
		<path opacity="0.9" fill="#FFF9D9" d="M30.305,425.342c-0.134,0.847,0.443,1.641,1.286,1.777c0.848,0.134,1.646-0.443,1.781-1.29
			c0.134-0.846-0.443-1.642-1.291-1.775C31.235,423.917,30.44,424.496,30.305,425.342z"/>
	</g>
	<path opacity="0.9" fill="#FFF9D9" d="M123.045,443.217c-0.545-0.203-1.148,0.075-1.349,0.62c-0.198,0.541,0.078,1.146,0.62,1.347
		c0.544,0.198,1.151-0.078,1.348-0.623C123.863,444.019,123.587,443.415,123.045,443.217z"/>
	<path opacity="0.9" fill="#FFF9D9" d="M94.133,428.139c-0.543-0.2-1.146,0.074-1.346,0.619c-0.199,0.546,0.078,1.149,0.623,1.348
		c0.541,0.2,1.144-0.075,1.345-0.62C94.954,428.939,94.679,428.337,94.133,428.139z"/>
</g>
<g>
	<g>
		<path fill="#EF78D3" d="M620.104,492.301c10.788-18.626,13.803-39.51,11.232-60.337c-2.572-20.826-20.362-38.503-25.241-58.036
			c-4.056-18.061-11.281-50.8,11.08-61.393c4.616-2.584,8.105-3.572,14.014-2.043c5.142,1.962,8.089,9.024,13.773,2.935
			c9.472-10.147-4.224-23.772-13.269-25.482c-20.45-4.035-40.936,17.123-47.104,33.167c-6.886,18.378-12.226,39.133-8.584,56.457
			c3.285,18.491,13.122,40.222,11.324,58.657c-2.381,11.984-4.276,28.37-14.632,35.139c-7.072,5.156-21.984,6.906-30.167,4.146
			c-9.839-3.323-18.833-6.86-29.307-7.986c-6.157-0.665-12.879-0.032-19.085,0.167c-12.045,0.382-21.632,6.452-23.034,19.345
			c-1.197,11.023,2.936,19.684,11.026,26.576c5.272,4.487,10.331,6.246,16.336,9.525c6.17,3.369,11.115,5.156,16.771,7.378
			c11.44,4.495,23.087,7.102,35.126,5.784c7.713-0.844,14.824-1.668,21.733-4.725c6.008-2.659,12.023-6.557,17.529-10.389
			c3.408-2.378,6.854-5.677,10.084-8.401C606.7,506.887,615.196,500.143,620.104,492.301z"/>
	</g>
	<g>
		<path fill="#D83FB8" d="M620.201,492.466c10.786-18.629,13.803-39.511,11.231-60.338c-2.573-20.826-20.361-38.502-25.242-58.036
			c-4.056-18.059-11.282-50.8,11.082-61.393c4.615-2.585,8.104-3.572,14.013-2.042c5.143,1.96,8.641,8.347,13.772,2.934
			c3.449-3.638,0.413-1.117-2.409-1.697c-3.15-0.649-6.527-4.205-10.283-4.984c-20.404-4.245-31.271,4.831-37.443,20.874
			c-6.885,18.378-0.924,34.185,4.364,51.093c2.806,8.961,8.775,20.511,14.073,32.438c5.297,11.926,8.292,23.975,7.854,33.73
			c-0.54,12.205-12.29,39.612-21.479,47.897c-3.12,2.815-9.577,10.685-17.642,16.408c-6.722,4.771-15.608,7.531-21.403,9.44
			c-4.952,1.628-13.332,4.269-22.629,4.078c-7.577-0.152-16.142-2.952-20.843-3.458c-6.156-0.663-17.702-6.109-28.312-11.771
			c-10.634-5.678-16.304-33.336-17.704-20.444c-1.2,11.023,2.932,19.688,11.028,26.574c5.271,4.492,10.33,6.253,16.33,9.529
			c6.173,3.37,11.118,5.155,16.772,7.378c11.441,4.493,23.089,7.1,35.127,5.787c7.715-0.844,14.824-1.67,21.729-4.728
			c6.015-2.658,12.735-6.013,18.24-9.845c3.405-2.378,6.51-5.105,9.74-7.832C607.159,508.165,615.294,500.308,620.201,492.466z"/>
	</g>
	<g opacity="0.6">
		<path fill="#FFFFFF" d="M534.09,509.453c-5.111,2.563-12.36,3.743-17.833,3.434c-4.105-0.229-28.742-9.111-17.274-15.857
			c6.551-3.857,17.234,5.295,24.136,6.529c3.776,0.421,7.978-2.935,11.409-0.102c2.198,2.236,1.391,5.358-1.75,6.768"/>
	</g>
	<g opacity="0.6">
		<path fill="#FFFFFF" d="M542.953,509.528c-3.837-1.271-4.125-5.515-0.521-7.635c3.278-1.93,8.729,0.595,6.998,5.145
			c-0.867,2.277-5.454,4.977-7.384,1.699"/>
	</g>
	<g opacity="0.6">
		<path fill="#FFFFFF" d="M595.71,485.88c-1.191,3.219-4.798,3.339-6.492,0.22c-1.542-2.836,0.759-7.392,4.568-5.785
			c1.905,0.802,4.062,4.771,1.228,6.312"/>
	</g>
	<g opacity="0.6">
		<path fill="#FFFFFF" d="M640.903,304.691c-0.64,1.723-2.569,1.788-3.478,0.118c-0.822-1.52,0.409-3.958,2.449-3.1
			c1.018,0.43,2.172,2.555,0.653,3.382"/>
	</g>
	<g opacity="0.6">
		<path fill="#FFFFFF" d="M597.075,478.557c-1.871-2.429-1.138-4.184,0.382-6.843c1.062-1.948,2.969-3.952,4.028-5.901
			c1.138-3.313,0.791-8.406,3.872-10.661c3.375,1.985,0.545,12.915-0.073,16.367c-1,2.795-6.298,12.531-9.308,5.92"/>
	</g>
	<g opacity="0.6">
		<path fill="#FFFFFF" d="M633.465,304.278c2.393-1.185-2.381-3.67-3.52-4.104c-3.41-1.301-6.91-0.125-9.926,1.871
			c2.141,1.389,5.484-0.8,8.115,0.296c1.493,0.667,3.624,3.163,5.232,1.773"/>
	</g>
	<g>
		<g>
			<path fill="#B2E85D" d="M511.116,459.411c8.043-2.124,16.286,2.673,18.409,10.714c2.125,8.046-3.296,13.928-11.342,16.049
				c-8.04,2.127-15.658-0.311-17.783-8.356C498.276,469.777,503.073,461.536,511.116,459.411z"/>
			<path opacity="0.4" fill="#385066" d="M529.595,470.104c2.127,8.041-3.295,13.925-11.34,16.048
				c-8.043,2.123-15.902-0.354-17.785-8.354c-2.036-8.666,1.784-3.061,7.673,0.159c1.962,1.074,4.715,1.21,6.808,1.361
				c2.363,0.17,5.946-1.388,8.154-3.361C526.995,472.482,529.002,467.857,529.595,470.104z"/>
			<g opacity="0.9">
				<path fill="#FFF9D9" d="M509.922,462.743c-2.783,3.815,5.646,5.83,8.049,4.675c6.314-3.896-8.169-9.967-8.47-3.78"/>
			</g>
		</g>
		<circle opacity="0.9" fill="#FFF9D9" cx="522.325" cy="467.029" r="1.745"/>
	</g>
	<g>
		<g>
			<path fill="#B2E85D" d="M547.855,469.27c5.209-4.644,13.201-4.182,17.845,1.03c4.643,5.212,2.82,11.672-2.394,16.314
				c-5.21,4.644-11.838,5.715-16.48,0.502C542.183,481.904,542.644,473.914,547.855,469.27z"/>
			<path opacity="0.4" fill="#385066" d="M565.742,470.255c4.644,5.212,2.82,11.672-2.393,16.315
				c-5.212,4.643-12.033,5.775-16.481,0.5c-4.814-5.711,0.172-2.966,5.803-2.793c1.876,0.059,3.986-0.886,5.611-1.565
				c1.832-0.774,3.923-3.299,4.825-5.615C564.697,473.021,564.447,468.8,565.742,470.255z"/>
			<g opacity="0.9">
				<path fill="#FFF9D9" d="M548.225,472.217c-0.634,3.911,6.439,2.222,7.799,0.44c3.246-5.31-9.896-4.355-7.773,0.388"/>
			</g>
		</g>
		<path opacity="0.9" fill="#FFF9D9" d="M559.226,469.252c0.807,0.05,1.421,0.746,1.369,1.555c-0.049,0.807-0.743,1.42-1.55,1.366
			c-0.81-0.048-1.422-0.742-1.374-1.552C557.725,469.816,558.417,469.203,559.226,469.252z"/>
	</g>
	<g>
		<g>
			<path fill="#B2E85D" d="M573.86,449.325c2.292-5.546,8.648-8.184,14.195-5.888c5.547,2.293,6.557,7.977,4.262,13.523
				c-2.295,5.546-7.023,8.854-12.569,6.561C574.201,461.229,571.566,454.872,573.86,449.325z"/>
			<path opacity="0.4" fill="#385066" d="M588.072,443.386c5.546,2.293,6.555,7.979,4.261,13.525
				c-2.294,5.544-7.151,8.979-12.568,6.562c-5.864-2.618-0.979-2.363,3.444-4.337c1.474-0.657,2.754-2.178,3.755-3.316
				c1.134-1.282,1.803-4.021,1.634-6.15C588.301,445.919,586.524,442.746,588.072,443.386z"/>
			<g opacity="0.9">
				<path fill="#FFF9D9" d="M575.25,451.47c0.974,3.266,5.817-0.695,6.201-2.58c0.521-5.328-9.292,0.336-5.872,3.211"/>
			</g>
		</g>
		<circle opacity="0.9" fill="#FFF9D9" cx="583.13" cy="446.218" r="1.259"/>
	</g>
	<g>
		<g>
			<path fill="#B2E85D" d="M579.486,422.118c-1.794-5.005,0.81-10.516,5.812-12.311c5.004-1.794,9.048,1.334,10.843,6.338
				c1.794,5.003,0.66,9.988-4.345,11.786C586.792,429.725,581.281,427.123,579.486,422.118z"/>
			<path opacity="0.4" fill="#385066" d="M585.277,409.766c5.005-1.796,9.05,1.334,10.844,6.339
				c1.795,5.004,0.649,10.145-4.344,11.784c-5.404,1.771-2.045-0.97-0.319-4.896c0.577-1.309,0.511-3.066,0.493-4.411
				c-0.021-1.513-1.211-3.71-2.59-5.006C586.938,411.29,583.882,410.264,585.277,409.766z"/>
			<g opacity="0.9">
				<path fill="#FFF9D9" d="M581.674,422.695c2.582,1.563,3.403-3.916,2.533-5.381c-2.826-3.804-5.895,5.748-1.941,5.601"/>
			</g>
		</g>
		<path opacity="0.9" fill="#FFF9D9" d="M582.717,414.082c0.265-0.556,0.929-0.792,1.485-0.525c0.556,0.263,0.792,0.932,0.527,1.487
			c-0.269,0.554-0.934,0.791-1.489,0.526C582.686,415.304,582.45,414.639,582.717,414.082z"/>
	</g>
	<g>
		<g>
			<path fill="#B2E85D" d="M573.422,386.918c-1.517-4.226,0.682-8.884,4.91-10.4c4.23-1.517,7.644,1.127,9.158,5.354
				c1.519,4.229,0.56,8.439-3.668,9.958C579.594,393.345,574.94,391.147,573.422,386.918z"/>
			<path opacity="0.4" fill="#385066" d="M578.315,376.483c4.229-1.516,7.643,1.126,9.16,5.354c1.517,4.227,0.549,8.571-3.67,9.954
				c-4.565,1.5-1.729-0.816-0.268-4.132c0.486-1.105,0.431-2.593,0.417-3.726c-0.021-1.28-1.024-3.132-2.188-4.232
				C579.717,377.771,577.138,376.906,578.315,376.483z"/>
		</g>
		<circle opacity="0.9" fill="#FFF9D9" cx="576.902" cy="381.518" r="2.365"/>
	</g>
	<circle opacity="0.9" fill="#FFF9D9" cx="575.577" cy="385.439" r="0.867"/>
	<g>
		<g>
			<path fill="#B2E85D" d="M570.697,354.086c0.564-4.07,4.319-6.912,8.387-6.35c4.07,0.563,5.721,4.153,5.154,8.221
				c-0.562,4.071-3.121,7.077-7.19,6.516C572.979,361.909,570.136,358.156,570.697,354.086z"/>
			<path opacity="0.4" fill="#385066" d="M579.087,347.701c4.069,0.562,5.718,4.151,5.154,8.221
				c-0.563,4.07-3.188,7.179-7.193,6.513c-4.335-0.72-1.053-1.394,1.534-3.464c0.862-0.689,1.45-1.918,1.917-2.843
				c0.526-1.045,0.499-2.974,0.018-4.355C579.675,349.338,577.952,347.545,579.087,347.701z"/>
		</g>
		<circle opacity="0.9" fill="#FFF9D9" cx="575.807" cy="351.181" r="2.164"/>
	</g>
	<g>
		<g>
			<path fill="#B2E85D" d="M579.391,325.799c2.52-2.725,6.771-2.891,9.496-0.371c2.723,2.519,2.091,6.031-0.431,8.756
				c-2.52,2.725-5.97,3.629-8.694,1.111C577.037,332.774,576.871,328.524,579.391,325.799z"/>
			<path opacity="0.4" fill="#385066" d="M588.905,325.403c2.726,2.521,2.091,6.031-0.429,8.754
				c-2.519,2.725-6.073,3.674-8.696,1.111c-2.84-2.774-0.06-1.58,2.928-1.776c0.996-0.063,2.065-0.673,2.889-1.117
				c0.931-0.5,1.908-1.944,2.267-3.216C588.496,326.921,588.146,324.7,588.905,325.403z"/>
		</g>
		<circle opacity="0.9" fill="#FFF9D9" cx="584.678" cy="326.287" r="1.955"/>
	</g>
	<g>
		<g>
			<path fill="#B2E85D" d="M593.024,303.79c2.147-2.32,5.768-2.461,8.088-0.315c2.321,2.148,1.781,5.139-0.365,7.459
				c-2.146,2.319-5.088,3.092-7.406,0.945C591.019,309.732,590.879,306.11,593.024,303.79z"/>
			<path opacity="0.4" fill="#385066" d="M601.128,303.454c2.324,2.145,1.781,5.137-0.365,7.458
				c-2.146,2.319-5.173,3.127-7.407,0.944c-2.418-2.362-0.049-1.345,2.495-1.512c0.849-0.055,1.758-0.572,2.462-0.951
				c0.793-0.428,1.623-1.656,1.93-2.74C600.781,304.746,600.481,302.854,601.128,303.454z"/>
		</g>
		<circle opacity="0.9" fill="#FFF9D9" cx="597.528" cy="304.206" r="1.665"/>
	</g>
	<g>
		<g>
			<path fill="#B2E85D" d="M613.642,288.522c2.407-0.362,4.649,1.3,5.012,3.707c0.359,2.408-1.407,3.946-3.816,4.304
				c-2.406,0.361-4.542-0.593-4.906-3.002C609.573,291.125,611.23,288.881,613.642,288.522z"/>
			<path opacity="0.4" fill="#385066" d="M618.674,292.225c0.361,2.408-1.407,3.944-3.815,4.305c-2.407,0.36-4.614-0.614-4.904-3
				c-0.315-2.587,0.616-0.834,2.227,0.293c0.536,0.376,1.334,0.502,1.935,0.614c0.685,0.123,1.775-0.213,2.482-0.717
				C617.84,292.833,618.573,291.553,618.674,292.225z"/>
		</g>
		<circle opacity="0.9" fill="#FFF9D9" cx="616.145" cy="290.941" r="1.282"/>
	</g>
	<path opacity="0.9" fill="#FFF9D9" d="M572.282,353.919c0.205-0.432,0.724-0.615,1.152-0.408c0.432,0.207,0.615,0.723,0.411,1.155
		c-0.208,0.432-0.727,0.616-1.156,0.408C572.26,354.867,572.074,354.352,572.282,353.919z"/>
	<circle opacity="0.9" fill="#FFF9D9" cx="581.502" cy="328.711" r="0.865"/>
</g>
<g>
	<g>
		<path fill="#EF95DE" d="M255.812,536.105c0.84-23.946,21.125-68.261,33.173-85.381c18.652-27.415,49.411-43.881,77.885-54.577
			c29.555-11.829,59.819-14.277,90.961-12.016c29.061,2.19,67.026,17.554,83.755,45.042c21.681,34.674,13.686,84.684-18.316,106.951
			c-14.881,8.834-17.366,20.442-27.175,32.965c-8.764,12.554-27.352,8.396-40.861,7.922c-43.658-1.53-87.436,0.444-131.131,0.082
			c-14.551-0.513-26.027,0.256-39.252-8.395C275.701,562.532,256.361,550.157,255.812,536.105"/>
	</g>
	<g opacity="0.7">
		<path fill="#D83FB8" d="M261.99,511.935c9.77,7.519,16.114,20.074,26.69,26.507c10.279,6.249,22.039,10.404,33.849,12.332
			c13.764,2.251,27.752,3.073,41.665,1.947c12.831-1.039,25.165-6.394,37.468-2.73c18.262,5.44,32.548-6.746,47.115-17.187
			c12.623-9.046,29-21.288,23.701-38.741c-3.074-10.117-22.094-29.656,1.896-27.984c9.812,0.686,15.539,5.791,26.029,3.141
			c7.55-1.909,14.1-6.186,18.923-12.441c2.612-3.382,15.363-29.316,18.149-29.911c16.588,2.8,17.153,47.192,15.552,58.726
			c-2.634,18.968-12.481,41.061-29.665,51.261c-14.878,8.835-17.364,20.442-27.171,32.967c-8.764,12.556-27.354,8.398-40.866,7.922
			c-43.653-1.529-87.432,0.441-131.129,0.081c-14.55-0.512-26.025,0.257-39.251-8.393c-9.151-6.17-28.488-18.542-29.038-32.594"/>
	</g>
	<circle fill="#E874D2" cx="420.145" cy="516.617" r="42.406"/>
	<path fill="#E8E2E7" d="M379.832,529.625c7.215,22.28,31.126,34.492,53.41,27.277c22.279-7.213,34.494-31.125,27.278-53.407"/>
	<path fill="#5B5B5B" d="M385.5,527.704c2.733,8.444,11.794,13.07,20.235,10.337c8.441-2.734,13.07-11.794,10.335-20.238"/>
	<g>
		<circle fill="#EF78D3" cx="301.835" cy="512.471" r="42.405"/>
		<path fill="#E8E2E7" d="M341.14,528.266c-8.761,21.723-33.468,32.231-55.189,23.475c-21.722-8.756-32.23-33.465-23.472-55.188"/>
		<path fill="#5B5B5B" d="M336.466,525.983c-3.319,8.232-12.681,12.212-20.911,8.896c-8.229-3.318-12.212-12.679-8.894-20.909"/>
	</g>
	<g>
		<path fill="#B2E85D" d="M484.255,385.254c5.289,4.555,5.89,12.536,1.335,17.831c-4.556,5.293-11.2,4.337-16.495-0.218
			c-5.292-4.553-7.225-10.983-2.673-16.274C470.978,381.297,478.959,380.699,484.255,385.254z"/>
		<path opacity="0.4" fill="#385066" d="M485.64,403.121c-4.555,5.293-11.198,4.338-16.493-0.216
			c-5.29-4.556-7.316-11.172-2.674-16.276c5.025-5.527,2.964-0.22,3.535,5.385c0.189,1.867,1.404,3.834,2.296,5.354
			c1.005,1.717,3.786,3.454,6.202,4.044C482.758,402.452,486.911,401.642,485.64,403.121z"/>
		<g opacity="0.9">
			<path fill="#FFF9D9" d="M481.379,386.012c-3.962-0.112-1.349,6.68,0.593,7.791c5.694,2.515,3.013-10.391-1.411-7.659"/>
		</g>
		<path opacity="0.9" fill="#FFF9D9" d="M485.773,396.528c0.055,0.807-0.553,1.508-1.36,1.564c-0.807,0.055-1.508-0.553-1.562-1.358
			c-0.06-0.808,0.549-1.507,1.356-1.566C485.015,395.112,485.716,395.72,485.773,396.528z"/>
	</g>
	<g>
		<path fill="#B2E85D" d="M515.979,414.416c4.772,4.285,5.169,11.623,0.884,16.396c-4.281,4.771-10.364,3.765-15.136-0.518
			c-4.771-4.282-6.426-10.22-2.144-14.989C503.867,410.529,511.208,410.135,515.979,414.416z"/>
		<path opacity="0.4" fill="#385066" d="M516.909,430.845c-4.282,4.771-10.365,3.769-15.139-0.515
			c-4.769-4.285-6.499-10.395-2.14-14.996c4.72-4.978,2.724-0.145,3.14,5.012c0.141,1.72,1.217,3.55,2.007,4.964
			c0.89,1.594,3.41,3.241,5.614,3.83C514.277,430.176,518.104,429.514,516.909,430.845z"/>
		<g opacity="0.9">
			<path fill="#FFF9D9" d="M513.326,415.053c-3.635-0.176-1.367,6.109,0.396,7.166c5.179,2.418,2.965-9.48-1.147-7.057"/>
		</g>
		<path opacity="0.9" fill="#FFF9D9" d="M517.156,424.793c0.038,0.742-0.534,1.374-1.276,1.41s-1.373-0.536-1.41-1.276
			c-0.035-0.744,0.537-1.375,1.278-1.412C516.491,423.481,517.12,424.052,517.156,424.793z"/>
	</g>
	<g>
		<path fill="#B2E85D" d="M423.979,380.578c5.592-0.723,10.714,3.225,11.436,8.821c0.722,5.591-3.437,9.07-9.03,9.792
			c-5.593,0.724-10.5-1.581-11.223-7.177C414.438,386.421,418.387,381.302,423.979,380.578z"/>
		<path opacity="0.4" fill="#385066" d="M435.463,389.385c0.724,5.593-3.438,9.073-9.03,9.794
			c-5.592,0.724-10.662-1.63-11.224-7.175c-0.609-6.004,1.47-1.9,5.145,0.782c1.223,0.894,3.064,1.227,4.457,1.512
			c1.572,0.32,4.118-0.411,5.776-1.545C433.504,390.756,435.261,387.825,435.463,389.385z"/>
		<g opacity="0.9">
			<path fill="#FFF9D9" d="M422.882,382.713c-2.204,2.321,3.286,4.418,5,3.847c4.587-2.061-4.617-7.417-5.361-3.282"/>
		</g>
		<circle opacity="0.9" fill="#FFF9D9" cx="430.845" cy="386.683" r="1.184"/>
	</g>
	<g>
		<path fill="#B2E85D" d="M453.29,412.946c4.01,0.949,6.488,4.966,5.54,8.977c-0.95,4.008-4.69,5.312-8.698,4.364
			c-4.007-0.948-6.768-3.793-5.82-7.801C445.263,414.478,449.281,411.998,453.29,412.946z"/>
		<path opacity="0.4" fill="#385066" d="M458.865,421.927c-0.949,4.009-4.689,5.315-8.697,4.363c-4.009-0.948-6.865-3.867-5.818-7.8
			c1.133-4.26,1.492-0.92,3.312,1.863c0.605,0.927,1.778,1.627,2.657,2.182c0.991,0.628,2.92,0.781,4.347,0.436
			C457.174,422.361,459.13,420.81,458.865,421.927z"/>
		<g opacity="0.9">
			<path fill="#FFF9D9" d="M451.989,414.122c-2.104,1.019,1.106,3.865,2.427,3.921c3.665-0.229-1.243-6.26-2.819-3.628"/>
		</g>
		<path opacity="0.9" fill="#FFF9D9" d="M457.145,418.437c0.249,0.41,0.121,0.94-0.285,1.19c-0.41,0.249-0.941,0.119-1.187-0.287
			c-0.254-0.406-0.122-0.94,0.283-1.188C456.365,417.902,456.898,418.031,457.145,418.437z"/>
	</g>
	<g>
		<path fill="#B2E85D" d="M488.392,438.981c5.111,3.303,6.578,10.123,3.273,15.232c-3.303,5.111-9.15,5.077-14.263,1.773
			c-5.108-3.299-7.545-8.619-4.244-13.73C476.461,437.146,483.28,435.681,488.392,438.981z"/>
		<path opacity="0.4" fill="#385066" d="M491.713,454.239c-3.301,5.111-9.153,5.077-14.264,1.773c-5.11-3.3-7.644-8.772-4.243-13.73
			c3.682-5.372,2.534-0.542,3.689,4.227c0.39,1.591,1.671,3.145,2.621,4.351c1.072,1.363,3.678,2.533,5.836,2.755
			C489.145,454.005,492.636,452.815,491.713,454.239z"/>
		<g opacity="0.9">
			<path fill="#FFF9D9" d="M485.998,439.977c-3.431,0.374-0.368,5.928,1.439,6.653c5.217,1.496,1.365-9.327-2.129-6.439"/>
		</g>
		<path opacity="0.9" fill="#FFF9D9" d="M491.044,448.531c0.145,0.69-0.299,1.367-0.988,1.514c-0.688,0.144-1.364-0.3-1.512-0.989
			c-0.141-0.689,0.3-1.366,0.987-1.51C490.223,447.402,490.9,447.842,491.044,448.531z"/>
	</g>
	<g>
		<path fill="#B2E85D" d="M530.308,445.711c2.602,3.01,2.271,7.558-0.733,10.16c-3.009,2.603-6.674,1.511-9.277-1.498
			c-2.601-3.007-3.156-6.792-0.146-9.396C523.157,442.377,527.704,442.703,530.308,445.711z"/>
		<path opacity="0.4" fill="#385066" d="M529.599,455.895c-3.007,2.603-6.674,1.509-9.274-1.498
			c-2.602-3.007-3.192-6.903-0.15-9.393c3.294-2.695,1.688,0.123,1.541,3.33c-0.047,1.066,0.473,2.275,0.85,3.21
			c0.422,1.047,1.846,2.26,3.155,2.794C528.029,455.278,530.437,455.17,529.599,455.895z"/>
		<g opacity="0.9">
			<path fill="#FFF9D9" d="M528.623,445.897c-2.221-0.393-1.316,3.649-0.314,4.44c2.998,1.894,2.564-5.603-0.158-4.434"/>
		</g>
		<path opacity="0.9" fill="#FFF9D9" d="M530.22,452.19c-0.031,0.46-0.435,0.804-0.894,0.769s-0.803-0.437-0.77-0.896
			c0.038-0.46,0.44-0.804,0.898-0.769C529.914,451.329,530.258,451.729,530.22,452.19z"/>
	</g>
	<g>
		<path fill="#B2E85D" d="M522.119,481.617c1.87,5.79-1.31,11.998-7.1,13.869c-5.791,1.87-10.301-1.855-12.17-7.646
			c-1.869-5.794-0.393-11.451,5.397-13.321S520.249,475.827,522.119,481.617z"/>
		<path opacity="0.4" fill="#385066" d="M515.039,495.538c-5.788,1.869-10.3-1.859-12.168-7.649
			c-1.871-5.79-0.373-11.63,5.396-13.319c6.248-1.832,2.305,1.18,0.187,5.608c-0.705,1.477-0.696,3.49-0.722,5.026
			c-0.033,1.733,1.247,4.288,2.776,5.823C513.201,493.729,516.657,495.016,515.039,495.538z"/>
		<g opacity="0.9">
			<path fill="#FFF9D9" d="M519.637,480.873c-2.894-1.881-4.034,4.358-3.093,6.068c3.091,4.454,6.956-6.363,2.426-6.34"/>
		</g>
		<path opacity="0.9" fill="#FFF9D9" d="M518.132,490.693c-0.322,0.624-1.094,0.868-1.722,0.545
			c-0.626-0.325-0.871-1.093-0.547-1.721c0.327-0.625,1.096-0.87,1.723-0.548C518.209,489.295,518.456,490.064,518.132,490.693z"/>
	</g>
	<g>
		<path fill="#B2E85D" d="M490.365,474.785c2.606,2.635,2.581,6.887-0.054,9.491c-2.636,2.607-6.11,1.819-8.718-0.815
			c-2.606-2.635-3.356-6.12-0.721-8.727C483.509,472.126,487.761,472.152,490.365,474.785z"/>
		<path opacity="0.4" fill="#385066" d="M490.337,484.297c-2.634,2.609-6.111,1.821-8.718-0.813
			c-2.607-2.639-3.396-6.224-0.723-8.727c2.896-2.713,1.578,0.01,1.644,2.999c0.021,0.996,0.579,2.088,0.985,2.933
			c0.457,0.947,1.857,1.989,3.109,2.403C488.842,483.822,491.072,483.57,490.337,484.297z"/>
		<g opacity="0.9">
			<path fill="#FFF9D9" d="M488.811,475.063c-2.091-0.226-0.997,3.479-0.016,4.148c2.906,1.573,2.035-5.37-0.423-4.112"/>
		</g>
		<path opacity="0.9" fill="#FFF9D9" d="M490.69,480.816c-0.007,0.429-0.359,0.773-0.786,0.77c-0.432-0.005-0.777-0.357-0.771-0.787
			c0.004-0.429,0.354-0.772,0.786-0.77C490.35,480.036,490.693,480.388,490.69,480.816z"/>
	</g>
	<g>
		<path fill="#B2E85D" d="M406.678,408.865c3.621-0.791,7.199,1.504,7.991,5.125c0.791,3.622-1.736,6.135-5.355,6.927
			c-3.625,0.791-6.966-0.439-7.76-4.06C400.764,413.234,403.057,409.658,406.678,408.865z"/>
		<path opacity="0.4" fill="#385066" d="M414.699,413.98c0.793,3.621-1.733,6.136-5.354,6.928c-3.622,0.79-7.074-0.461-7.759-4.062
			c-0.738-3.896,0.854-1.326,3.413,0.22c0.852,0.514,2.076,0.628,3.006,0.736c1.049,0.121,2.673-0.503,3.694-1.341
			C413.497,414.991,414.48,412.971,414.699,413.98z"/>
		<g opacity="0.9">
			<path fill="#FFF9D9" d="M406.082,410.328c-1.311,1.644,2.402,2.701,3.494,2.233c2.887-1.612-3.445-4.594-3.698-1.845"/>
		</g>
		<path opacity="0.9" fill="#FFF9D9" d="M411.944,411.819c0.361,0.235,0.464,0.715,0.23,1.079c-0.232,0.358-0.715,0.462-1.073,0.228
			c-0.361-0.233-0.463-0.714-0.23-1.074C411.102,411.688,411.585,411.587,411.944,411.819z"/>
	</g>
	<g>
		<path fill="#B2E85D" d="M387.83,386.165c3.436-1.391,7.348,0.268,8.738,3.703c1.39,3.439-0.678,6.343-4.112,7.732
			c-3.438,1.388-6.943,0.737-8.332-2.698C382.734,391.467,384.392,387.555,387.83,386.165z"/>
		<path opacity="0.4" fill="#385066" d="M396.596,389.854c1.39,3.436-0.679,6.341-4.113,7.729c-3.438,1.39-7.052,0.736-8.33-2.696
			c-1.387-3.717,0.616-1.451,3.399-0.359c0.928,0.366,2.152,0.27,3.086,0.22c1.054-0.056,2.55-0.947,3.417-1.943
			C395.581,391.05,396.209,388.896,396.596,389.854z"/>
		<g opacity="0.9">
			<path fill="#FFF9D9" d="M387.487,387.702c-1.015,1.843,2.825,2.264,3.82,1.618c2.573-2.074-4.169-3.948-3.956-1.197"/>
		</g>
		<circle opacity="0.9" fill="#FFF9D9" cx="393.211" cy="388.903" r="0.778"/>
	</g>
	<g>
		<path fill="#B2E85D" d="M558.289,452.63c2.604,3.007,2.273,7.555-0.734,10.156c-3.008,2.603-6.671,1.512-9.274-1.496
			c-2.604-3.01-3.158-6.793-0.148-9.394C551.138,449.293,555.685,449.622,558.289,452.63z"/>
		<path opacity="0.4" fill="#385066" d="M557.58,462.812c-3.006,2.603-6.673,1.51-9.275-1.499c-2.602-3.006-3.19-6.905-0.148-9.396
			c3.293-2.694,1.688,0.124,1.543,3.329c-0.052,1.069,0.471,2.28,0.848,3.21c0.422,1.049,1.845,2.263,3.155,2.796
			C556.012,462.195,558.421,462.086,557.58,462.812z"/>
		<g opacity="0.9">
			<path fill="#FFF9D9" d="M556.607,452.817c-2.224-0.396-1.316,3.65-0.316,4.438c2.997,1.891,2.562-5.604-0.154-4.435"/>
		</g>
		<path opacity="0.9" fill="#FFF9D9" d="M558.202,459.108c-0.033,0.459-0.435,0.802-0.892,0.768
			c-0.463-0.034-0.804-0.436-0.771-0.896c0.038-0.46,0.438-0.802,0.897-0.767C557.897,458.247,558.24,458.646,558.202,459.108z"/>
	</g>
	<g>
		<path fill="#B2E85D" d="M557.598,486.524c-0.751,3.908-4.521,6.466-8.427,5.718c-3.907-0.75-5.318-4.306-4.572-8.211
			c0.749-3.904,3.378-6.684,7.283-5.938C555.789,478.844,558.349,482.618,557.598,486.524z"/>
		<path opacity="0.4" fill="#385066" d="M549.164,492.276c-3.905-0.751-5.317-4.303-4.568-8.209
			c0.748-3.905,3.445-6.784,7.281-5.938c4.157,0.915,0.95,1.401-1.656,3.271c-0.871,0.625-1.498,1.784-1.995,2.655
			c-0.562,0.981-0.632,2.851-0.238,4.211C548.678,490.662,550.257,492.484,549.164,492.276z"/>
		<g opacity="0.9">
			<path fill="#FFF9D9" d="M556.41,485.317c-1.069-1.986-3.683,1.229-3.681,2.505c0.371,3.526,5.987-1.461,3.381-2.87"/>
		</g>
		<path opacity="0.9" fill="#FFF9D9" d="M552.463,490.472c-0.385,0.256-0.902,0.153-1.16-0.228c-0.256-0.385-0.154-0.899,0.228-1.16
			c0.383-0.256,0.9-0.155,1.159,0.229C552.946,489.696,552.842,490.213,552.463,490.472z"/>
	</g>
	<g>
		<path fill="#B2E85D" d="M541.216,512.136c-1.462,3.699-5.644,5.516-9.342,4.056c-3.701-1.46-4.43-5.212-2.973-8.913
			c1.46-3.701,4.559-5.945,8.257-4.484C540.857,504.252,542.676,508.435,541.216,512.136z"/>
		<path opacity="0.4" fill="#385066" d="M531.862,516.226c-3.699-1.461-4.431-5.213-2.971-8.914
			c1.461-3.697,4.642-6.026,8.257-4.484c3.913,1.669,0.674,1.553-2.235,2.909c-0.971,0.452-1.801,1.473-2.452,2.238
			c-0.733,0.86-1.15,2.684-1.015,4.094C531.685,514.55,532.895,516.632,531.862,516.226z"/>
		<g opacity="0.9">
			<path fill="#FFF9D9" d="M540.272,510.729c-0.683-2.151-3.846,0.525-4.084,1.777c-0.285,3.534,6.152-0.324,3.858-2.191"/>
		</g>
		<path opacity="0.9" fill="#FFF9D9" d="M535.436,515.06c-0.425,0.186-0.912-0.013-1.095-0.438
			c-0.185-0.422,0.012-0.912,0.437-1.094s0.915,0.014,1.096,0.439C536.053,514.39,535.859,514.881,535.436,515.06z"/>
	</g>
	<g>
		<path fill="#B2E85D" d="M540.252,415.938c3.377,2.099,4.412,6.54,2.314,9.915c-2.102,3.382-5.924,3.425-9.303,1.327
			c-3.378-2.098-5.033-5.547-2.933-8.927C532.429,414.875,536.869,413.839,540.252,415.938z"/>
		<path opacity="0.4" fill="#385066" d="M542.598,425.871c-2.098,3.378-5.925,3.425-9.301,1.323
			c-3.379-2.097-5.099-5.643-2.936-8.926c2.346-3.552,1.651-0.385,2.464,2.722c0.271,1.035,1.128,2.034,1.761,2.813
			c0.717,0.878,2.436,1.611,3.846,1.731C540.917,425.747,543.181,424.929,542.598,425.871z"/>
		<g opacity="0.9">
			<path fill="#FFF9D9" d="M538.699,416.617c-2.24,0.282-0.175,3.875,1.016,4.33c3.427,0.916,0.787-6.111-1.467-4.187"/>
		</g>
		<path opacity="0.9" fill="#FFF9D9" d="M542.093,422.147c0.105,0.45-0.176,0.895-0.628,1.001c-0.448,0.104-0.896-0.18-0.999-0.629
			c-0.103-0.45,0.179-0.894,0.63-1C541.543,421.416,541.99,421.7,542.093,422.147z"/>
	</g>
	<g opacity="0.6">
		<path fill="#FFFFFF" d="M317.347,452.168c4.152-14.147,13.491-24.46,27.634-29.614c4.719-1.829,14.785-4.47,16.199,2.562
			c1.167,4.696-0.04,10.638-3.156,14.185c-4.17,5.173-10.973,9.59-16.106,13.731c-3.412,2.538-8.166,5.366-12.529,6.538
			c-3.356,0.882-6.688,1.099-9.238-1.983c-1.282-1.374-3.478-5.11-2.08-7.055"/>
	</g>
	<g opacity="0.6">
		<path fill="#FFFFFF" d="M367.891,414.378c2.071-3.806,5.285-5.631,9.431-6.453c5.116-0.791,6.933,2.664,3.176,6.168
			c-2.753,2.565-6.167,3.175-9.321,3.308c-1.208-0.041-3.404,0.363-4.098-0.632c-0.674-1.476,0.855-3.6,2.09-4.285"/>
	</g>
	<path fill="#EF78D3" d="M340.901,523.216c-0.915,2.242-3.678,3.235-6.169,2.219l-72.701-29.668
		c-2.492-1.018-3.769-3.66-2.854-5.902l0.696-1.706c0.915-2.243,3.677-3.237,6.171-2.219l72.7,29.666
		c2.493,1.017,3.769,3.661,2.854,5.902L340.901,523.216z"/>
	<path fill="#E874D2" d="M380.958,524.135c0.754,2.3,3.442,3.483,6,2.646l74.598-24.505c2.558-0.841,4.02-3.389,3.264-5.688
		l-0.575-1.75c-0.757-2.303-3.442-3.485-6-2.646l-74.597,24.504c-2.561,0.84-4.021,3.387-3.266,5.688L380.958,524.135z"/>
</g>
<g>
	<g>
		<path fill="#EF78D3" d="M639.686,614.619c20.852-15.618,34.123-37.439,41.146-61.849c7.022-24.408-4.392-52.532-0.555-76.6
			c4.059-22.031,11.555-61.913,41.481-63.093c6.366-0.687,10.721-0.13,16.571,4.379c4.794,4.623,4.724,13.887,13.942,9.806
			c15.364-6.803,6.581-28.476-2.676-34.672c-20.856-14.198-53.706-0.366-68.191,14.566c-16.39,17.195-32.185,37.77-36.355,58.787
			c-5.116,22.146-4.48,51.012-15.235,70.684c-8.339,12.213-18.226,29.556-32.97,32.177c-10.321,2.382-27.758-2.746-35.556-9.703
			c-9.377-8.371-17.715-16.578-28.837-22.804c-6.541-3.663-14.326-6.149-21.331-8.875c-13.594-5.291-27.148-3.084-34.827,10.604
			c-6.568,11.704-6.076,23.31-0.337,34.825c3.738,7.499,8.533,11.859,13.663,18.36c5.27,6.682,9.929,11.015,15.17,16.174
			c10.604,10.438,22.334,18.868,36.363,23.115c8.988,2.722,17.297,5.181,26.441,5.055c7.95-0.107,16.498-1.589,24.446-3.248
			c4.922-1.025,10.324-3.064,15.22-4.562C617.84,624.494,630.498,621.02,639.686,614.619z"/>
	</g>
	<g>
		<path fill="#D83FB8" d="M639.716,614.848c20.854-15.621,34.122-37.438,41.144-61.848c7.023-24.409-4.392-52.534-0.554-76.6
			c4.059-22.032,11.557-61.913,41.484-63.094c6.361-0.689,10.716-0.131,16.571,4.382c4.792,4.621,5.654,13.39,13.938,9.801
			c5.566-2.413,0.991-1.045-1.876-3.032c-3.203-2.219-5.275-7.78-9.083-10.43c-20.705-14.414-37.111-9.468-51.601,5.464
			c-16.387,17.195-17.256,37.623-19.393,58.959c-1.13,11.312,0.034,27.005,0.271,42.797c0.234,15.794-2.15,30.629-7.264,41.285
			c-6.399,13.333-32.49,38.271-46.656,43.134c-4.807,1.652-15.729,7.35-27.428,9.893c-9.75,2.121-20.953,0.976-28.312,0.352
			c-6.287-0.539-16.871-1.574-27.131-6.2c-8.362-3.77-16.567-10.951-21.564-13.746c-6.541-3.66-16.811-15.205-25.937-26.545
			c-9.144-11.366-2.327-44.853-10.006-31.166c-6.566,11.706-6.08,23.312-0.338,34.824c3.738,7.504,8.537,11.865,13.663,18.364
			c5.271,6.68,9.932,11.016,15.169,16.173c10.605,10.436,22.336,18.864,36.366,23.115c8.988,2.725,17.296,5.182,26.435,5.056
			c7.96-0.108,17.034-0.652,24.983-2.307c4.918-1.027,9.667-2.594,14.561-4.094C617.741,626.137,630.528,621.25,639.716,614.848z"/>
	</g>
	<g opacity="0.6">
		<path fill="#FFFFFF" d="M535.774,592.886c-6.903,0.426-15.536-1.7-21.484-4.641c-4.462-2.206-27.675-23.789-11.704-25.86
			c9.126-1.184,16.673,14.078,23.771,18.727c4.008,2.264,10.277,0.522,12.753,5.306c1.385,3.536-0.997,6.627-5.163,6.702"/>
	</g>
	<g opacity="0.6">
		<path fill="#FFFFFF" d="M545.611,597.175c-3.67-3.233-1.977-8.095,3.042-8.747c4.564-0.59,9.438,4.809,5.348,9.052
			c-2.047,2.122-8.431,2.948-9.025-1.612"/>
	</g>
	<g opacity="0.6">
		<path fill="#FFFFFF" d="M615.576,595.89c-2.856,3.018-6.93,1.442-7.335-2.837c-0.372-3.891,4.354-7.869,7.833-4.274
			c1.736,1.797,2.257,7.243-1.631,7.612"/>
	</g>
	<g opacity="0.6">
		<path fill="#FFFFFF" d="M751.899,415.61c-1.529,1.614-3.708,0.77-3.926-1.521c-0.195-2.082,2.333-4.213,4.197-2.288
			c0.925,0.962,1.206,3.876-0.879,4.074"/>
	</g>
	<g opacity="0.6">
		<path fill="#FFFFFF" d="M620.569,588.383c-0.927-3.594,0.718-5.197,3.675-7.438c2.104-1.663,5.181-2.989,7.286-4.654
			c2.84-3.15,4.867-8.985,9.372-10.032c2.814,3.811-5.528,14.636-7.849,18.186c-2.441,2.638-12.966,10.964-13.176,2.174"/>
	</g>
	<g opacity="0.6">
		<path fill="#FFFFFF" d="M743.813,411.617c3.227-0.184-0.908-5.215-1.971-6.237c-3.181-3.071-7.634-3.423-11.938-2.63
			c1.725,2.563,6.486,1.711,8.895,4.184c1.348,1.449,2.534,5.239,4.986,4.456"/>
	</g>
	<g>
		<g>
			<path fill="#B2E85D" d="M533.953,526.265c9.963,1.452,16.861,10.705,15.408,20.667c-1.451,9.967-10.281,13.94-20.242,12.487
				c-9.963-1.452-17.29-7.782-15.837-17.748C514.733,531.71,523.987,524.811,533.953,526.265z"/>
			<path opacity="0.4" fill="#385066" d="M549.45,546.941c-1.453,9.961-10.278,13.936-20.242,12.482
				c-9.966-1.452-17.54-7.942-15.837-17.746c1.846-10.614,3.438-2.556,8.466,3.821c1.677,2.128,4.676,3.585,6.936,4.747
				c2.552,1.312,7.279,1.279,10.676,0.128C545.426,548.353,549.857,544.16,549.45,546.941z"/>
			<g opacity="0.9">
				<path fill="#FFF9D9" d="M531.041,529.405c-4.91,2.927,3.521,9.173,6.744,9.026c8.876-1.342-4.365-14.974-7.639-8.229"/>
			</g>
		</g>
		<path opacity="0.9" fill="#FFF9D9" d="M544.516,538.812c0.693,0.937,0.493,2.26-0.445,2.953c-0.939,0.691-2.261,0.493-2.955-0.444
			c-0.689-0.938-0.493-2.263,0.445-2.956C542.5,537.674,543.823,537.873,544.516,538.812z"/>
	</g>
	<g>
		<g>
			<path fill="#B2E85D" d="M570.178,554.679c8.004-2.695,16.681,1.61,19.377,9.619s-2.396,14.331-10.405,17.028
				c-8.008,2.697-15.894,0.74-18.591-7.265C557.864,566.056,562.168,557.374,570.178,554.679z"/>
			<path opacity="0.4" fill="#385066" d="M589.625,564.267c2.694,8.006-2.403,14.334-10.406,17.03
				c-8.009,2.697-16.142,0.718-18.591-7.266c-2.651-8.646,1.602-3.222,7.788-0.357c2.06,0.96,4.857,0.909,6.99,0.921
				c2.405,0.013,5.933-1.807,8.038-3.959C587.147,566.851,588.875,562.034,589.625,564.267z"/>
			<g opacity="0.9">
				<path fill="#FFF9D9" d="M569.189,558.137c-2.563,4.056,6.117,5.531,8.473,4.196c6.134-4.374-8.949-9.555-8.842-3.264"/>
			</g>
		</g>
		<path opacity="0.9" fill="#FFF9D9" d="M582.846,560.058c0.874,0.438,1.228,1.505,0.787,2.38c-0.439,0.876-1.503,1.229-2.376,0.788
			c-0.879-0.438-1.23-1.503-0.79-2.382C580.906,559.972,581.969,559.619,582.846,560.058z"/>
	</g>
	<g>
		<g>
			<path fill="#B2E85D" d="M608.598,544.818c5.185-5.084,13.516-5.004,18.602,0.183c5.086,5.188,3.512,11.993-1.678,17.079
				c-5.182,5.086-12.019,6.525-17.108,1.34C603.327,558.233,603.41,549.904,608.598,544.818z"/>
			<path opacity="0.4" fill="#385066" d="M627.24,544.951c5.085,5.188,3.51,11.992-1.674,17.079
				c-5.188,5.089-12.226,6.602-17.108,1.34c-5.29-5.693,0.032-3.089,5.893-3.189c1.954-0.033,4.098-1.118,5.755-1.909
				c1.868-0.891,3.912-3.621,4.737-6.077C626.294,547.882,625.821,543.507,627.24,544.951z"/>
			<g opacity="0.9">
				<path fill="#FFF9D9" d="M609.127,547.865c-0.463,4.1,6.808,1.986,8.131,0.07c3.105-5.682-10.509-4.038-8.064,0.788"/>
			</g>
		</g>
		<path opacity="0.9" fill="#FFF9D9" d="M620.417,544.236c0.84,0.01,1.515,0.703,1.501,1.545c-0.014,0.841-0.705,1.514-1.547,1.503
			c-0.841-0.014-1.512-0.706-1.499-1.548C618.881,544.895,619.575,544.225,620.417,544.236z"/>
	</g>
	<g>
		<g>
			<path fill="#B2E85D" d="M627.779,517.195c0.379-6.422,5.892-11.322,12.313-10.947c6.424,0.38,9.438,5.783,9.062,12.203
				c-0.377,6.423-4.004,11.438-10.429,11.061C632.301,529.133,627.4,523.621,627.779,517.195z"/>
			<path opacity="0.4" fill="#385066" d="M640.088,506.192c6.427,0.378,9.444,5.78,9.066,12.204
				c-0.377,6.423-4.093,11.604-10.43,11.058c-6.859-0.593-1.818-2.049,1.965-5.599c1.266-1.185,2.027-3.175,2.646-4.68
				c0.692-1.694,0.411-4.704-0.506-6.803C641.213,508.679,638.299,506.086,640.088,506.192z"/>
			<g opacity="0.9">
				<path fill="#FFF9D9" d="M629.939,518.877c2.134,2.967,5.649-2.742,5.375-4.788c-1.34-5.577-9.293,3.603-4.822,5.317"/>
			</g>
		</g>
		<path opacity="0.9" fill="#FFF9D9" d="M635.188,509.785c0.558-0.494,1.412-0.442,1.904,0.118c0.493,0.559,0.44,1.413-0.118,1.905
			c-0.563,0.491-1.417,0.436-1.907-0.12C634.571,511.131,634.629,510.276,635.188,509.785z"/>
	</g>
	<g>
		<g>
			<path fill="#B2E85D" d="M637.735,475.127c0.317-5.424,4.977-9.565,10.401-9.248c5.432,0.318,7.978,4.885,7.659,10.309
				c-0.319,5.43-3.384,9.662-8.812,9.346C641.558,485.212,637.418,480.556,637.735,475.127z"/>
			<path opacity="0.4" fill="#385066" d="M648.137,465.831c5.426,0.318,7.975,4.883,7.657,10.309
				c-0.316,5.428-3.457,9.805-8.81,9.343c-5.797-0.498-1.537-1.73,1.662-4.729c1.065-1.002,1.711-2.682,2.23-3.952
				c0.587-1.434,0.349-3.974-0.426-5.75C649.086,467.93,646.624,465.742,648.137,465.831z"/>
		</g>
		<circle opacity="0.9" fill="#FFF9D9" cx="644.172" cy="470.764" r="2.864"/>
	</g>
	<path opacity="0.9" fill="#FFF9D9" d="M640.145,473.717c0.431-0.386,1.096-0.342,1.481,0.094c0.377,0.431,0.336,1.098-0.098,1.479
		c-0.438,0.383-1.097,0.342-1.481-0.095C639.664,474.763,639.707,474.099,640.145,473.717z"/>
	<g>
		<g>
			<path fill="#B2E85D" d="M650.288,437.277c2.559-4.263,8.09-5.644,12.351-3.088c4.266,2.559,4.396,7.339,1.835,11.603
				c-2.557,4.263-6.833,6.396-11.097,3.839C649.111,447.07,647.729,441.543,650.288,437.277z"/>
			<path opacity="0.4" fill="#385066" d="M662.658,434.153c4.265,2.558,4.395,7.336,1.835,11.598
				c-2.559,4.264-6.958,6.483-11.099,3.839c-4.486-2.861-0.512-2.055,3.353-3.129c1.287-0.36,2.523-1.45,3.483-2.259
				c1.081-0.912,1.968-3.071,2.091-4.84C662.536,436.255,661.469,433.438,662.658,434.153z"/>
		</g>
		<path opacity="0.9" fill="#FFF9D9" d="M656.731,433.924c1.407-0.344,2.822,0.516,3.167,1.922c0.345,1.404-0.516,2.822-1.919,3.167
			c-1.407,0.346-2.825-0.517-3.168-1.92C654.468,435.688,655.326,434.27,656.731,433.924z"/>
	</g>
	<g>
		<g>
			<path fill="#B2E85D" d="M673.394,409.911c4.098-1.839,8.911-0.006,10.749,4.095c1.838,4.099-0.536,7.706-4.637,9.546
				c-4.1,1.836-8.372,1.205-10.21-2.892C667.461,416.558,669.294,411.748,673.394,409.911z"/>
			<path opacity="0.4" fill="#385066" d="M684.176,413.987c1.837,4.099-0.533,7.708-4.633,9.544
				c-4.102,1.836-8.508,1.207-10.209-2.893c-1.847-4.437,0.681-1.786,4.1-0.588c1.138,0.401,2.617,0.23,3.75,0.129
				c1.269-0.117,3.043-1.258,4.048-2.506C682.996,415.48,683.663,412.842,684.176,413.987z"/>
		</g>
		<path opacity="0.9" fill="#FFF9D9" d="M679.9,410.755c1.218,0.472,1.825,1.841,1.354,3.062c-0.468,1.217-1.841,1.823-3.059,1.354
			c-1.221-0.475-1.829-1.845-1.356-3.062C677.312,410.89,678.683,410.285,679.9,410.755z"/>
	</g>
	<g>
		<g>
			<path fill="#B2E85D" d="M699.02,391.878c3.492-1.566,7.592-0.002,9.153,3.488c1.565,3.49-0.454,6.567-3.945,8.131
				c-3.491,1.563-7.134,1.027-8.698-2.463C693.967,397.543,695.527,393.444,699.02,391.878z"/>
			<path opacity="0.4" fill="#385066" d="M708.202,395.351c1.569,3.49-0.454,6.563-3.946,8.131
				c-3.491,1.565-7.245,1.027-8.695-2.466c-1.572-3.778,0.583-1.52,3.496-0.5c0.971,0.341,2.226,0.199,3.189,0.108
				c1.085-0.096,2.596-1.073,3.449-2.132C707.201,396.626,707.767,394.375,708.202,395.351z"/>
		</g>
		<path opacity="0.9" fill="#FFF9D9" d="M704.561,392.598c1.039,0.4,1.557,1.568,1.154,2.608c-0.4,1.037-1.565,1.555-2.605,1.151
			c-1.037-0.4-1.554-1.566-1.154-2.602C702.358,392.713,703.523,392.195,704.561,392.598z"/>
	</g>
	<g>
		<g>
			<path fill="#B2E85D" d="M729.221,384.666c2.852,0.739,4.563,3.653,3.821,6.506c-0.742,2.852-3.438,3.726-6.289,2.982
				c-2.853-0.742-4.78-2.818-4.039-5.671C723.455,385.632,726.369,383.921,729.221,384.666z"/>
			<path opacity="0.4" fill="#385066" d="M733.066,391.175c-0.741,2.853-3.438,3.726-6.29,2.984
				c-2.851-0.744-4.847-2.876-4.038-5.672c0.877-3.029,1.083-0.633,2.342,1.385c0.42,0.672,1.247,1.191,1.863,1.603
				c0.7,0.461,2.078,0.604,3.104,0.38C731.851,391.458,733.272,390.38,733.066,391.175z"/>
		</g>
		<circle opacity="0.9" fill="#FFF9D9" cx="730.863" cy="388.547" r="1.552"/>
	</g>
	<path opacity="0.9" fill="#FFF9D9" d="M652.129,437.845c0.435-0.384,1.097-0.342,1.48,0.094c0.379,0.436,0.34,1.097-0.092,1.48
		c-0.438,0.383-1.102,0.341-1.483-0.096C651.654,438.89,651.694,438.228,652.129,437.845z"/>
	<path opacity="0.9" fill="#FFF9D9" d="M673.669,413.366c0.436-0.383,1.097-0.342,1.479,0.093c0.382,0.438,0.34,1.1-0.096,1.48
		c-0.432,0.384-1.095,0.342-1.479-0.092C673.191,414.41,673.231,413.748,673.669,413.366z"/>
</g>
<g>
	<path fill="#B2855D" d="M233.756,58.898c3.438,7.125-0.441,16.244-8.72,20.237l1.774,3.68c9.936-4.793,15.196-16.339,10.673-25.715
		L233.756,58.898z"/>
	<g>
		<circle fill="#474747" cx="162.23" cy="145.62" r="91.902"/>
		<path opacity="0.45" d="M235.637,200.673c-30.208,40.381-87.998,48.943-128.641,18.54C66.354,188.81,58.25,130.954,88.457,90.574
			c0,0,3.934,26.473,15.121,48.11c8.351,16.151,22.797,27.597,31.588,34.173c10.271,7.684,35.083,18.431,57.608,23.459
			C215.354,201.359,235.637,200.673,235.637,200.673z"/>
		<path opacity="0.45" fill="#FFFFFF" d="M215.072,108.689c-2.187-16.48-8.966-36.446-27.341-41.147
			c-11.406-2.918-22.811,6.871-15.88,18.347c4.965,8.222,19.191,14.243,26.412,21.229
			C202.029,110.764,214.071,120.004,215.072,108.689L215.072,108.689z"/>
		<circle opacity="0.45" fill="#FFFFFF" cx="219.675" cy="127.878" r="7.481"/>
	</g>
	<path opacity="0.8" fill="#F4CF31" d="M235.772,61.93c-7.45-1.635-12.442-7.113-13.717-14.542c1.497,1.409,3.352,2.629,5.306,3.276
		c-4.516-7.815-3.226-15.627-1.701-24.242c5.807,2.902,9.08,13.295,11.873,18.699c1.13-0.861,1.759-2.94,2.312-4.454
		c2.626,1.599,1.841,10.073,1.726,12.704c-0.067,1.5-3.987,12.029-6.019,7.334L235.772,61.93z"/>
	<path opacity="0.8" fill="#F28533" d="M236.5,62.176c-5.036-1.105-8.409-4.809-9.272-9.831c1.012,0.953,2.266,1.777,3.586,2.215
		c-3.051-5.283-2.18-10.563-1.149-16.387c3.925,1.962,6.137,8.987,8.025,12.64c0.764-0.582,1.188-1.987,1.564-3.01
		c1.775,1.081,1.245,6.809,1.167,8.586c-0.045,1.015-2.695,8.131-4.068,4.958L236.5,62.176z"/>
	<path opacity="0.8" fill="#EF5435" d="M236.888,61.784c-2.916-0.641-4.868-2.784-5.367-5.691c0.584,0.552,1.311,1.028,2.075,1.282
		c-1.767-3.058-1.262-6.115-0.666-9.486c2.272,1.136,3.554,5.203,4.646,7.316c0.442-0.336,0.688-1.15,0.906-1.742
		c1.026,0.625,0.719,3.941,0.675,4.971c-0.027,0.587-1.561,4.707-2.355,2.87L236.888,61.784z"/>
</g>
<g>
	<path fill="#B2855D" d="M635.562,177.493c-1.913,3.965,0.245,9.039,4.853,11.261l-0.987,2.048
		c-5.529-2.667-8.456-9.092-5.939-14.31L635.562,177.493z"/>
	<g>
		<circle fill="#474747" cx="675.364" cy="225.75" r="51.14"/>
		<path opacity="0.45" d="M634.516,256.387c16.81,22.47,48.968,27.234,71.584,10.316s27.125-49.114,10.316-71.583
			c0,0-2.189,14.731-8.414,26.771c-4.646,8.988-12.686,15.357-17.578,19.017c-5.716,4.275-19.521,10.256-32.057,13.054
			C645.802,256.768,634.516,256.387,634.516,256.387z"/>
		<path opacity="0.45" fill="#FFFFFF" d="M645.959,205.201c1.217-9.171,4.989-20.281,15.215-22.897
			c6.347-1.624,12.693,3.823,8.836,10.209c-2.763,4.575-10.679,7.926-14.697,11.813
			C653.217,206.354,646.517,211.497,645.959,205.201L645.959,205.201z"/>
		<circle opacity="0.45" fill="#FFFFFF" cx="643.397" cy="215.878" r="4.163"/>
	</g>
	<path opacity="0.8" fill="#F4CF31" d="M634.44,179.18c4.146-0.91,6.923-3.958,7.633-8.092c-0.833,0.784-1.865,1.463-2.952,1.823
		c2.513-4.349,1.795-8.696,0.946-13.49c-3.231,1.615-5.053,7.398-6.607,10.405c-0.628-0.479-0.979-1.636-1.286-2.479
		c-1.461,0.89-1.024,5.605-0.961,7.069c0.038,0.835,2.219,6.694,3.35,4.081L634.44,179.18z"/>
	<path opacity="0.8" fill="#F28533" d="M634.035,179.317c2.803-0.615,4.68-2.676,5.16-5.471c-0.563,0.53-1.262,0.989-1.996,1.233
		c1.698-2.94,1.213-5.878,0.64-9.119c-2.185,1.092-3.415,5.001-4.466,7.034c-0.426-0.324-0.662-1.106-0.87-1.675
		c-0.988,0.601-0.692,3.789-0.649,4.778c0.025,0.565,1.5,4.525,2.264,2.759L634.035,179.317z"/>
	<path opacity="0.8" fill="#EF5435" d="M633.819,179.099c1.623-0.356,2.709-1.549,2.986-3.167c-0.325,0.307-0.729,0.572-1.154,0.713
		c0.982-1.702,0.702-3.403,0.37-5.279c-1.265,0.632-1.978,2.895-2.585,4.071c-0.247-0.187-0.384-0.64-0.505-0.969
		c-0.57,0.348-0.399,2.193-0.376,2.766c0.016,0.326,0.868,2.619,1.312,1.597L633.819,179.099z"/>
</g>
<g>
	<path fill="#B2855D" d="M630.506,49.119c-4.147-1.478-8.961,1.211-10.677,6.029l-2.143-0.763c2.061-5.783,8.136-9.38,13.593-7.436
		L630.506,49.119z"/>
	<g>
		<circle fill="#474747" cx="586.784" cy="93.854" r="51.14"/>
		<path opacity="0.45" d="M551.953,56.519c-20.543,19.118-21.839,51.601-2.598,72.276c19.24,20.677,51.732,21.715,72.275,2.599
			c0,0-14.881-0.6-27.518-5.501c-9.434-3.658-16.626-10.97-20.789-15.443c-4.862-5.226-12.285-18.312-16.408-30.476
			C552.782,67.781,551.953,56.519,551.953,56.519z"/>
		<path opacity="0.45" fill="#FFFFFF" d="M604.069,62.419c9.249,0.229,20.699,2.791,24.394,12.678
			c2.294,6.137-2.442,13.03-9.206,9.877c-4.843-2.257-9.022-9.769-13.317-13.349C603.699,69.759,597.87,63.647,604.069,62.419
			L604.069,62.419z"/>
		<circle opacity="0.45" fill="#FFFFFF" cx="593.18" cy="61.015" r="4.163"/>
	</g>
	<path opacity="0.8" fill="#F4CF31" d="M628.709,48.183c1.348,4.024,4.675,6.46,8.862,6.723c-0.869-0.744-1.654-1.698-2.128-2.74
		c4.592,2.033,8.837,0.854,13.513-0.502c-1.951-3.04-7.896-4.232-11.053-5.456c0.41-0.676,1.523-1.148,2.327-1.543
		c-1.041-1.358-5.683-0.419-7.131-0.2c-0.827,0.127-6.418,2.922-3.699,3.767L628.709,48.183z"/>
	<path opacity="0.8" fill="#F28533" d="M628.529,47.795c0.91,2.721,3.16,4.366,5.991,4.545c-0.588-0.503-1.119-1.148-1.44-1.852
		c3.105,1.374,5.975,0.577,9.136-0.34c-1.319-2.055-5.338-2.86-7.472-3.687c0.277-0.458,1.029-0.777,1.574-1.045
		c-0.704-0.918-3.842-0.283-4.821-0.134c-0.56,0.086-4.338,1.976-2.5,2.546L628.529,47.795z"/>
	<path opacity="0.8" fill="#EF5435" d="M628.723,47.557c0.528,1.575,1.83,2.527,3.468,2.63c-0.341-0.29-0.647-0.664-0.833-1.071
		c1.798,0.794,3.459,0.334,5.288-0.197c-0.764-1.19-3.089-1.657-4.324-2.135c0.159-0.266,0.595-0.45,0.91-0.606
		c-0.408-0.529-2.224-0.163-2.791-0.078c-0.322,0.051-2.51,1.143-1.447,1.475L628.723,47.557z"/>
</g>
</svg>
