<?xml version="1.0" encoding="utf-8"?>
<!-- Generator: Adobe Illustrator 16.0.0, SVG Export Plug-In . SVG Version: 6.00 Build 0)  -->
<!DOCTYPE svg PUBLIC "-//W3C//DTD SVG 1.1//EN" "http://www.w3.org/Graphics/SVG/1.1/DTD/svg11.dtd">
<svg version="1.1" id="Layer_1" xmlns="http://www.w3.org/2000/svg" xmlns:xlink="http://www.w3.org/1999/xlink" x="0px" y="0px"
	 width="764.962px" height="800px" viewBox="0 0 764.962 800" enable-background="new 0 0 764.962 800" xml:space="preserve">
<g>
	<g>
		<path fill="#8BD685" d="M643.869,234.806c-6.036-9.894-1.878-22.098,2.812-31.616c2.29-4.649,4.95-8.95,7.778-13.253
			c4.039-6.146,5.452-14.314,5.304-21.558c-0.18-8.839-4.969-16.118-10.371-22.665c-0.692-0.839-1.567-1.777-2.544-2.701
			c-0.834-0.975-1.999-1.897-3.307-2.723c-1.266-0.886-2.565-1.604-3.788-1.996c-1.23-0.544-2.433-0.987-3.476-1.302
			c-8.125-2.454-16.69-4.057-24.912-0.807c-6.736,2.664-13.725,7.125-17.831,13.226c-2.878,4.271-5.815,8.386-9.217,12.296
			c-6.967,8.003-16.615,16.556-28.072,14.813c-4.895-1.014-18.658-12.411-17.346-1.828c0.162,5.336,12.086,12.522,17.279,14.482
			c-8.845-0.655-21.642-0.95-10.152,9.68c5.744,5.314,14.246,6.488,21.804,6.288c-5.628,1.483-16.629,6.863-10.287,14.069
			c5.699,6.779,17.001,2.345,21.687-0.513c-5.053,6.218-8.939,19.386-3.145,23.003c5.574,3.946,16.217-4.729,19.999-11.791
			c-0.824,5.425-0.545,17.562,7.908,20.198c9.099,3.064,9.808-9.161,9.001-14.926c2.736,7.047,7.102,14.434,14.226,17.677
			c14.245,6.488,9.027-5.198,5.005-13.103c3.814,4.032,15.05,12.252,20.034,10.339C662.527,247.218,646.695,238.928,643.869,234.806
			z"/>
	</g>
	<g>
		<path fill="#666666" d="M614.12,164.478c-1.466,2.203-4.441,2.801-6.644,1.337c-2.201-1.466-2.798-4.44-1.332-6.643
			c1.463-2.202,4.437-2.8,6.64-1.335C614.986,159.301,615.583,162.275,614.12,164.478z"/>
	</g>
	<path fill="none" stroke="#666666" stroke-width="4" stroke-miterlimit="10" d="M621.302,182.346
		c-1.477,2.219-4.472,2.821-6.69,1.345c-2.221-1.477-2.824-4.472-1.348-6.691"/>
	<g opacity="0.4">
		<path fill="#FFFFFF" d="M603.422,148.244c2.535-2.646,5.247-5.328,8.745-6.405c2.359-0.753,6.465-1.114,8.396,0.635
			c1.574,1.356,0.611,3.5-1.066,4.396c-1.429,0.751-3.249,0.467-4.822,0.504c-3.68,0.182-5.82,3.864-9.571,3.225
			C603.566,150.351,602.317,149.673,603.422,148.244"/>
	</g>
	<circle opacity="0.4" fill="#FFFFFF" cx="601.378" cy="153.617" r="1.927"/>
	<g>
		<circle fill="#666666" cx="636.085" cy="179.089" r="4.79"/>
	</g>
	<g opacity="0.12">
		<path d="M643.869,234.806c-6.036-9.894-1.878-22.098,2.812-31.616c2.29-4.649,4.95-8.95,7.778-13.253
			c2.105-3.204-20.863,13.724-44.866,18.569c-22.04,4.448-45.381-3.27-41.763-3.364c-5.628,1.483-16.629,6.863-10.287,14.069
			c5.699,6.779,17.001,2.345,21.687-0.513c-5.053,6.218-8.939,19.386-3.145,23.003c5.574,3.946,16.217-4.729,19.999-11.791
			c-0.824,5.425-0.545,17.562,7.908,20.198c9.099,3.064,9.808-9.161,9.001-14.926c2.736,7.047,7.102,14.434,14.226,17.677
			c14.245,6.488,9.027-5.198,5.005-13.103c3.814,4.032,15.05,12.252,20.034,10.339C662.527,247.218,646.695,238.928,643.869,234.806
			z"/>
	</g>
</g>
<g>
	<g>
		<path fill="#EFDA73" d="M679.634,308.999c-11.21-6.17-13.92-20.143-14.646-31.833c-0.354-5.711-0.167-11.291,0.185-16.964
			c0.497-8.104-2.628-16.707-6.742-23.565c-5.018-8.37-13.601-12.718-22.369-16.027c-1.123-0.423-2.474-0.841-3.919-1.192
			c-1.332-0.479-2.955-0.722-4.66-0.795c-1.7-0.155-3.34-0.132-4.723,0.164c-1.478,0.155-2.875,0.389-4.045,0.658
			c-9.132,2.105-18.218,5.267-24.311,12.89c-4.995,6.248-9.244,14.354-9.832,22.452c-0.413,5.669-0.97,11.223-2.087,16.836
			c-2.285,11.49-6.84,24.974-18.772,29.589c-5.247,1.712-24.684-1.658-17.622,7.762c3.082,5.023,18.449,5.369,24.498,4.398
			c-8.833,4.223-21.256,10.957-4.417,14.841c8.421,1.942,17.209-1.596,24.338-5.933c-4.576,4.508-12.168,15.696-2.14,19.123
			c9.181,3.369,17.576-7.077,20.499-12.386c-1.433,8.729,2.066,23.478,9.6,23.765c7.506,0.723,12.946-13.425,12.696-22.266
			c2.184,5.651,9.109,17.126,18.655,15.016c10.398-2.055,4.372-14.157,0.438-19.238c6.488,5.253,14.722,9.936,23.325,9.136
			c17.208-1.595,5.799-9.932-2.393-15.298c5.866,1.77,21.142,3.483,24.867-1.083C704.318,310.657,684.602,311.397,679.634,308.999z"
			/>
	</g>
	<g>
		<circle fill="#666666" cx="607.284" cy="257.579" r="5.289"/>
	</g>
	<path fill="none" stroke="#666666" stroke-width="4" stroke-miterlimit="10" d="M629.24,271.112
		c-0.198,2.936-2.737,5.157-5.673,4.958c-2.937-0.196-5.158-2.736-4.961-5.671"/>
	<g opacity="0.4">
		<path fill="#FFFFFF" d="M593.405,248.245c0.978-3.924,2.106-7.982,4.867-10.933c1.848-2.015,5.586-4.611,8.393-3.997
			c2.252,0.436,2.507,3.02,1.39,4.797c-0.957,1.504-2.858,2.23-4.344,3.128c-3.425,2.193-3.457,6.895-7.4,8.34
			C594.701,250.186,593.131,250.222,593.405,248.245"/>
	</g>
	<path opacity="0.4" fill="#FFFFFF" d="M596.517,254.659c-0.078,1.171-1.09,2.057-2.265,1.979c-1.171-0.079-2.059-1.094-1.979-2.265
		c0.078-1.173,1.094-2.058,2.266-1.981C595.713,252.472,596.598,253.486,596.517,254.659z"/>
	<g>
		<circle fill="#666666" cx="641.618" cy="259.885" r="5.288"/>
	</g>
	<g opacity="0.12">
		<path d="M679.634,308.999c-11.21-6.17-13.92-20.143-14.646-31.833c-0.354-5.711-0.167-11.291,0.185-16.964
			c0.259-4.226-12.462,24.59-32.805,42.397c-18.676,16.35-45.272,21.757-41.858,19.681c-4.576,4.508-12.168,15.696-2.14,19.123
			c9.181,3.369,17.576-7.077,20.499-12.386c-1.433,8.729,2.066,23.478,9.6,23.765c7.506,0.723,12.946-13.425,12.696-22.266
			c2.184,5.651,9.109,17.126,18.655,15.016c10.398-2.055,4.372-14.157,0.438-19.238c6.488,5.253,14.722,9.936,23.325,9.136
			c17.208-1.595,5.799-9.932-2.393-15.298c5.866,1.77,21.142,3.483,24.867-1.083C704.318,310.657,684.602,311.397,679.634,308.999z"
			/>
	</g>
</g>
<g>
	<g>
		<path fill="#EF9F6A" d="M674.228,478.662c-11.968-4.871-16.328-18.568-18.433-30.212c-1.028-5.685-1.492-11.304-1.809-17.035
			c-0.451-8.188-4.598-16.448-9.53-22.847c-6.02-7.805-15.137-11.159-24.32-13.444c-1.178-0.295-2.582-0.556-4.071-0.737
			c-1.394-0.323-3.049-0.378-4.769-0.25c-1.723,0.043-3.364,0.261-4.718,0.72c-1.466,0.329-2.838,0.727-3.979,1.137
			c-8.913,3.182-17.655,7.422-22.873,15.784c-4.276,6.854-7.584,15.485-7.224,23.678c0.252,5.734,0.346,11.373-0.115,17.132
			c-0.942,11.793-3.923,25.854-15.352,31.887c-5.061,2.333-24.952,1.237-16.763,9.855c3.682,4.678,19.135,3.215,25.09,1.533
			c-8.364,5.274-20.033,13.487-2.686,15.406c8.672,0.957,17.07-3.625,23.715-8.813c-4.062,5.061-10.361,17.177,0.101,19.434
			c9.603,2.301,16.796-9.163,19.104-14.831c-0.409,8.923,4.833,23.304,12.423,22.706c7.615-0.156,11.409-14.986,10.121-23.823
			c2.854,5.411,11.148,16.107,20.476,12.868c10.188-3.281,2.721-14.715-1.823-19.348c7.126,4.506,15.935,8.234,24.47,6.424
			c17.072-3.625,4.649-10.645-4.194-15.065c6.091,1.086,21.613,1.011,24.815-4.007C699.181,477.425,679.493,480.483,674.228,478.662
			z"/>
	</g>
	<g>
		<circle fill="#666666" cx="595.613" cy="435.586" r="5.341"/>
	</g>
	<path fill="none" stroke="#666666" stroke-width="4" stroke-miterlimit="10" d="M619.228,446.582
		c0.147,2.968-2.14,5.494-5.107,5.641c-2.968,0.147-5.494-2.141-5.642-5.108"/>
	<g opacity="0.4">
		<path fill="#FFFFFF" d="M580.597,427.854c0.518-4.052,1.172-8.254,3.598-11.538c1.614-2.236,5.059-5.282,7.947-4.994
			c2.31,0.172,2.869,2.732,1.957,4.647c-0.782,1.621-2.604,2.573-3.988,3.648c-3.179,2.602-2.657,7.322-6.445,9.235
			C582.124,429.647,580.553,429.869,580.597,427.854"/>
	</g>
	<circle opacity="0.4" fill="#FFFFFF" cx="582.326" cy="434.027" r="2.149"/>
	<g>
		<circle fill="#666666" cx="630.324" cy="433.866" r="5.341"/>
	</g>
	<g opacity="0.12">
		<path d="M674.228,478.662c-11.968-4.871-16.328-18.568-18.433-30.212c-1.028-5.685-1.492-11.304-1.809-17.035
			c-0.234-4.27-9.608,26.13-27.921,46.38c-16.813,18.595-42.853,27.145-39.673,24.66c-4.062,5.061-10.361,17.177,0.101,19.434
			c9.603,2.301,16.796-9.163,19.104-14.831c-0.409,8.923,4.833,23.304,12.423,22.706c7.615-0.156,11.409-14.986,10.121-23.823
			c2.854,5.411,11.148,16.107,20.476,12.868c10.188-3.281,2.721-14.715-1.823-19.348c7.126,4.506,15.935,8.234,24.47,6.424
			c17.072-3.625,4.649-10.645-4.194-15.065c6.091,1.086,21.613,1.011,24.815-4.007C699.181,477.425,679.493,480.483,674.228,478.662
			z"/>
	</g>
</g>
<g>
	<g>
		<path fill="#B9C1C0" d="M190.221,396.624c-14.413-1.642-23.271-15.13-29.069-27.08c-2.829-5.833-5.033-11.769-7.11-17.87
			c-2.968-8.712-9.948-16.388-17.217-21.811c-8.868-6.616-19.741-7.481-30.36-7.175c-1.361,0.042-2.959,0.182-4.624,0.436
			c-1.604,0.072-3.409,0.516-5.229,1.173c-1.851,0.57-3.56,1.3-4.885,2.208c-1.484,0.797-2.845,1.646-3.958,2.431
			c-8.67,6.14-16.836,13.368-19.946,23.987c-2.546,8.703-3.512,19.033-0.644,27.779c2.009,6.125,3.815,12.191,5.062,18.555
			c2.551,13.034,3.583,29.139-6.947,39.117c-4.763,4.053-26.599,8.889-15.138,15.727c5.397,3.941,21.66-2.314,27.586-5.938
			c-7.443,8.232-17.571,20.646,1.761,17.468c9.664-1.589,17.357-9.083,22.969-16.703c-2.86,6.701-6.005,21.702,5.989,20.977
			c11.076-0.418,15.384-14.989,16.163-21.813c2.258,9.77,12.278,23.73,20.304,20.785c8.183-2.472,7.794-19.652,3.727-28.816
			c4.725,4.985,16.926,14.039,26.03,7.714c10.02-6.632-1.512-16.729-7.826-20.362c9.066,2.714,19.718,4.077,28.397-0.465
			c17.358-9.082,1.802-12.911-9.097-15.015c6.915-0.667,23.671-5.447,25.613-11.842C216.822,387.735,196.465,397,190.221,396.624z"
			/>
	</g>
	<g>
		<circle fill="#666666" cx="92.202" cy="373.852" r="5.996"/>
	</g>
	<path fill="none" stroke="#666666" stroke-width="4" stroke-miterlimit="10" d="M121.056,378.591
		c1.058,3.164-0.648,6.587-3.813,7.645c-3.165,1.058-6.588-0.652-7.645-3.815"/>
	<g opacity="0.4">
		<path fill="#FFFFFF" d="M73.628,370.039c-0.665-4.537-1.229-9.277,0.399-13.562c1.067-2.907,3.868-7.243,7.081-7.806
			c2.548-0.51,3.925,2.087,3.52,4.434c-0.355,1.987-2.037,3.57-3.208,5.15c-2.648,3.775-0.655,8.72-4.17,11.933
			C75.823,371.515,74.191,372.231,73.628,370.039"/>
	</g>
	<circle opacity="0.4" fill="#FFFFFF" cx="77.366" cy="376.188" r="2.412"/>
	<g>
		<circle fill="#666666" cx="129.204" cy="361.486" r="5.995"/>
	</g>
	<g opacity="0.12">
		<path d="M190.221,396.624c-14.413-1.642-23.271-15.13-29.069-27.08c-2.829-5.833-5.033-11.769-7.11-17.87
			c-1.546-4.542-2.479,31.156-16.146,58.59c-12.549,25.189-38.111,42.312-35.424,38.664c-2.86,6.701-6.005,21.702,5.989,20.977
			c11.076-0.418,15.384-14.989,16.163-21.813c2.258,9.77,12.278,23.73,20.304,20.785c8.183-2.472,7.794-19.652,3.727-28.816
			c4.725,4.985,16.926,14.039,26.03,7.714c10.02-6.632-1.512-16.729-7.826-20.362c9.066,2.714,19.718,4.077,28.397-0.465
			c17.358-9.082,1.802-12.911-9.097-15.015c6.915-0.667,23.671-5.447,25.613-11.842C216.822,387.735,196.465,397,190.221,396.624z"
			/>
	</g>
</g>
<g>
	<g>
		<path fill="#A5805B" d="M256.64,446.451c0.271,4.436-0.952,8.118-3.262,8.259l0,0c-2.31,0.142-3.975-3.364-4.247-7.798
			l-16.575-270.264c-0.272-4.436,0.951-8.119,3.262-8.261l0,0c2.31-0.142,3.975,3.366,4.247,7.8L256.64,446.451z"/>
		<path fill="#A5805B" d="M295.514,314.542c0.092,1.521-1.064,2.826-2.583,2.921l-96.737,5.932c-1.52,0.092-2.827-1.064-2.921-2.583
			l-0.017-0.274c-0.091-1.52,1.064-2.828,2.583-2.92l96.738-5.933c1.519-0.094,2.826,1.063,2.92,2.584L295.514,314.542z"/>
		<g>
			<g>
				<path fill="#EFE0CA" d="M288.871,261.881l-18.382-3.193l-58.401-10.142l-17.217-2.991l-35.784-6.216
					c-2.543,14.648,7.262,28.561,21.898,31.102c5.46,0.948,10.821,0.179,15.528-1.918c5.315,16.232,19.193,29.069,37.194,32.194
					c17.776,3.09,34.96-4.093,45.475-17.263c3.606,3.191,8.112,5.452,13.204,6.338c14.637,2.541,28.56-7.249,31.104-21.898
					L288.871,261.881z"/>
				<path opacity="0.2" d="M212.087,248.545l-17.217-2.991l-35.784-6.216c-2.543,14.648,7.262,28.561,21.898,31.102
					c5.46,0.948,10.821,0.179,15.528-1.918c2.19,6.689,8.238,16.801,15.361,22.3c10.161,7.845,21.836,9.882,21.836,9.882
					L212.087,248.545z"/>
			</g>
			<g opacity="0.3">
				<path d="M288.871,261.881l-18.382-3.193l-58.401-10.142l-17.217-2.991l-35.784-6.216c-2.543,14.648,7.262,28.561,21.898,31.102
					c5.46,0.948,10.821,0.179,15.528-1.918c5.315,16.232,19.193,29.069,37.194,32.194c17.776,3.09,34.96-4.093,45.475-17.263
					c3.606,3.191,8.112,5.452,13.204,6.338c14.637,2.541,28.56-7.249,31.104-21.898L288.871,261.881z"/>
				<path opacity="0.2" d="M212.087,248.545l-17.217-2.991l-35.784-6.216c-2.543,14.648,7.262,28.561,21.898,31.102
					c5.46,0.948,10.821,0.179,15.528-1.918c2.19,6.689,8.238,16.801,15.361,22.3c10.161,7.845,21.836,9.882,21.836,9.882
					L212.087,248.545z"/>
			</g>
			<g>
				<path fill="#EFE0CA" d="M298.208,256.167l-18.381-3.192l-58.402-10.144l-17.216-2.991l-35.784-6.214
					c-2.544,14.647,7.261,28.561,21.898,31.102c5.458,0.947,10.819,0.178,15.527-1.921c5.313,16.235,19.193,29.071,37.193,32.196
					c17.776,3.088,34.96-4.093,45.475-17.264c3.606,3.192,8.113,5.455,13.204,6.34c14.636,2.541,28.558-7.25,31.104-21.899
					L298.208,256.167z"/>
				<path opacity="0.2" d="M221.425,242.831l-17.216-2.991l-35.784-6.214c-2.544,14.647,7.261,28.561,21.898,31.102
					c5.458,0.947,10.819,0.178,15.527-1.921c2.19,6.691,8.239,16.804,15.362,22.303c10.16,7.844,21.835,9.881,21.835,9.881
					L221.425,242.831z"/>
			</g>
		</g>
		<path fill="#A5805B" d="M376.113,465.904c0.433,7.083-1.235,12.949-3.546,13.092l0,0c-2.311,0.14-4.684-5.479-5.119-12.561
			l-26.47-431.594c-0.433-7.082,1.235-12.948,3.545-13.089l0,0c2.312-0.143,4.685,5.475,5.119,12.558L376.113,465.904z"/>
		<g>
			<g>
				<path fill="#EFE0CA" d="M290.573,315.371c0,0,52.731-9.5,70.533-10.368c13.719-0.666,54.878,2.676,54.878,2.676
					s5.98-34.838,5.211-47.388c-0.769-12.548-10.965-46.395-10.965-46.395s-42.838,8.478-56.971,9.785
					c-18.098,1.671-68.438-2.093-68.438-2.093s19.43,32.242,20.263,45.826C305.918,280.995,290.573,315.371,290.573,315.371z"/>
				<path opacity="0.2" d="M290.646,315.368c0,0,52.733-9.504,70.533-10.369c13.719-0.669,54.878,2.677,54.878,2.677
					s-62.834-13.975-80.354-25.719c-16.388-10.982-50.81-60.374-50.81-60.374s19.432,32.243,20.264,45.826
					C305.99,280.992,290.646,315.368,290.646,315.368z"/>
			</g>
			<g>
				<path fill="#EFE0CA" d="M293.563,428.682c0,0,52.731-9.505,70.534-10.371c13.72-0.665,54.877,2.677,54.877,2.677
					s5.982-34.837,5.213-47.387c-0.77-12.548-10.966-46.396-10.966-46.396s-42.838,8.48-56.971,9.783
					c-18.1,1.672-68.438-2.093-68.438-2.093s19.43,32.244,20.263,45.827C308.907,394.307,293.563,428.682,293.563,428.682z"/>
				<path opacity="0.2" d="M293.636,428.678c0,0,52.731-9.505,70.534-10.37c13.718-0.668,54.876,2.677,54.876,2.677
					s-62.834-13.975-80.354-25.717c-16.388-10.983-50.809-60.375-50.809-60.375s19.431,32.24,20.262,45.825
					C308.98,394.302,293.636,428.678,293.636,428.678z"/>
			</g>
			<g opacity="0.4">
				<path d="M290.573,315.371c0,0,52.731-9.5,70.533-10.368c13.719-0.666,54.878,2.676,54.878,2.676s5.98-34.838,5.211-47.388
					c-0.769-12.548-10.965-46.395-10.965-46.395s-42.838,8.478-56.971,9.785c-18.098,1.671-68.438-2.093-68.438-2.093
					s19.43,32.242,20.263,45.826C305.918,280.995,290.573,315.371,290.573,315.371z"/>
				<path opacity="0.2" d="M290.646,315.368c0,0,52.733-9.504,70.533-10.369c13.719-0.669,54.878,2.677,54.878,2.677
					s-62.834-13.975-80.354-25.719c-16.388-10.982-50.81-60.374-50.81-60.374s19.432,32.243,20.264,45.826
					C305.99,280.992,290.646,315.368,290.646,315.368z"/>
			</g>
			<g opacity="0.4">
				<path d="M293.563,428.682c0,0,52.731-9.505,70.534-10.371c13.72-0.665,54.877,2.677,54.877,2.677s5.982-34.837,5.213-47.387
					c-0.77-12.548-10.966-46.396-10.966-46.396s-42.838,8.48-56.971,9.783c-18.1,1.672-68.438-2.093-68.438-2.093
					s19.43,32.244,20.263,45.827C308.907,394.307,293.563,428.682,293.563,428.682z"/>
				<path opacity="0.2" d="M293.636,428.678c0,0,52.731-9.505,70.534-10.37c13.718-0.668,54.876,2.677,54.876,2.677
					s-62.834-13.975-80.354-25.717c-16.388-10.983-50.809-60.375-50.809-60.375s19.431,32.24,20.262,45.825
					C308.98,394.302,293.636,428.678,293.636,428.678z"/>
			</g>
			<g>
				<path fill="#EFE0CA" d="M304.079,304.865c0,0,52.731-9.502,70.532-10.367c13.719-0.669,54.878,2.676,54.878,2.676
					s5.98-34.839,5.212-47.388c-0.768-12.55-10.966-46.396-10.966-46.396s-42.838,8.48-56.969,9.784
					c-18.101,1.672-68.44-2.094-68.44-2.094s19.43,32.243,20.264,45.828C319.423,270.491,304.079,304.865,304.079,304.865z"/>
				<path opacity="0.2" d="M304.151,304.862c0,0,52.73-9.502,70.534-10.368c13.718-0.668,54.875,2.676,54.875,2.676
					s-62.832-13.975-80.353-25.717c-16.386-10.984-50.807-60.376-50.807-60.376s19.43,32.243,20.262,45.827
					C319.495,270.487,304.151,304.862,304.151,304.862z"/>
			</g>
			<g>
				<path fill="#EFE0CA" d="M307.068,418.173c0,0,52.731-9.502,70.531-10.366c13.723-0.668,54.878,2.677,54.878,2.677
					s5.984-34.838,5.215-47.389c-0.771-12.548-10.965-46.396-10.965-46.396s-42.84,8.479-56.972,9.785
					c-18.101,1.674-68.438-2.093-68.438-2.093s19.429,32.242,20.263,45.826C322.414,383.801,307.068,418.173,307.068,418.173z"/>
				<path opacity="0.2" d="M307.142,418.169c0,0,52.731-9.503,70.533-10.367c13.72-0.667,54.877,2.677,54.877,2.677
					s-62.833-13.975-80.354-25.718c-16.387-10.984-50.808-60.375-50.808-60.375s19.431,32.244,20.264,45.825
					C322.488,383.795,307.142,418.169,307.142,418.169z"/>
			</g>
		</g>
		<path fill="#A5805B" d="M509.056,421.359c0.347,5.659-1.104,10.353-3.416,10.494l0,0c-2.309,0.142-4.324-4.338-4.672-9.997
			l-21.148-344.85c-0.347-5.659,1.105-10.352,3.414-10.494l0,0c2.31-0.142,4.326,4.339,4.673,9.997L509.056,421.359z"/>
		<g>
			<g>
				<path fill="#EFE0CA" d="M547.32,322.115l-21.003,2.644l-66.735,8.394l-19.673,2.474l-40.889,5.145
					c2.105,16.738,17.366,28.575,34.092,26.471c6.237-0.785,11.798-3.4,16.21-7.241c11.158,15.848,30.479,25.163,51.05,22.575
					c20.311-2.556,36.568-16.054,43.604-33.836c4.972,2.264,10.61,3.221,16.433,2.489c16.72-2.103,28.575-17.35,26.468-34.089
					L547.32,322.115z"/>
				<path opacity="0.2" d="M459.582,333.153l-19.673,2.474l-40.889,5.145c2.105,16.738,17.366,28.575,34.092,26.471
					c6.237-0.785,11.798-3.4,16.21-7.241c4.599,6.531,14.519,15.494,24.072,19.093c13.632,5.134,26.974,3.467,26.974,3.467
					L459.582,333.153z"/>
			</g>
			<g opacity="0.3">
				<path d="M547.32,322.115l-21.003,2.644l-66.735,8.394l-19.673,2.474l-40.889,5.145c2.105,16.738,17.366,28.575,34.092,26.471
					c6.237-0.785,11.798-3.4,16.21-7.241c11.158,15.848,30.479,25.163,51.05,22.575c20.311-2.556,36.568-16.054,43.604-33.836
					c4.972,2.264,10.61,3.221,16.433,2.489c16.72-2.103,28.575-17.35,26.468-34.089L547.32,322.115z"/>
				<path opacity="0.2" d="M459.582,333.153l-19.673,2.474l-40.889,5.145c2.105,16.738,17.366,28.575,34.092,26.471
					c6.237-0.785,11.798-3.4,16.21-7.241c4.599,6.531,14.519,15.494,24.072,19.093c13.632,5.134,26.974,3.467,26.974,3.467
					L459.582,333.153z"/>
			</g>
			<g>
				<path fill="#EFE0CA" d="M555.554,312.815l-21.004,2.643l-66.732,8.395l-19.675,2.476l-40.888,5.142
					c2.105,16.74,17.365,28.575,34.091,26.473c6.24-0.785,11.799-3.402,16.211-7.241c11.156,15.847,30.48,25.162,51.05,22.576
					c20.31-2.555,36.568-16.055,43.603-33.836c4.972,2.264,10.613,3.219,16.432,2.49c16.725-2.105,28.577-17.352,26.471-34.091
					L555.554,312.815z"/>
				<path opacity="0.2" d="M467.817,323.853l-19.675,2.476l-40.888,5.142c2.105,16.74,17.365,28.575,34.091,26.473
					c6.24-0.785,11.799-3.402,16.211-7.241c4.598,6.529,14.518,15.492,24.073,19.092c13.631,5.135,26.973,3.469,26.973,3.469
					L467.817,323.853z"/>
			</g>
		</g>
		<path fill="#BA874A" d="M225.078,553.68c29.4,25.015,133.642,27.832,178.406,25.714s97.816-11.856,125.2-39.559
			c20.451-20.687,41.895-68.586,48.748-111.302c3.326-20.724,61.555-49.281,83.067-64.303c7.384-5.157-3.428-11.787-3.428-11.787
			s-82.373,33.048-140.766,44.349c-13.347,2.584-26.765,4.848-40.22,6.883c-11.367,1.718-27.036,1.23-37.626,5.232
			c-16.876,6.378-7.466,23.638-7.988,35.778c-0.958,22.401-18.706,21.5-40.143,22.859c-19.412,1.231-55.113,7.21-69.527-6.99
			c-11.82-11.649-2.443-30.064-13.56-41.855c-11.217-11.896-43.792-7.485-60.116-9.167c-33.081-3.41-67.237-2.972-88.641-9.006
			c-5.931-1.671-12.508-21.017-16.379-24.808c-3.871-3.792-8.273,3.224-4.149,11.475C160.82,432.936,188.815,522.827,225.078,553.68
			z"/>
		<path opacity="0.3" d="M223.289,553.79c29.402,25.014,133.642,27.833,178.407,25.715c44.764-2.118,66.209-9.053,66.209-9.053
			s-72.688-102.879-94.122-101.521c-19.41,1.23-40.354,5.935-54.768-8.267c-11.821-11.649-2.443-30.068-13.558-41.854
			c-11.218-11.897-127.356-12.141-148.758-18.174c-5.93-1.67-12.511-21.015-16.381-24.809c-3.87-3.793-8.273,3.224-4.149,11.476
			C159.034,433.046,187.027,522.937,223.289,553.79z"/>
		<path d="M387.29,322.376c0,0,76.743-20.619,102.941-24.119c20.189-2.696,81.433-2.885,81.433-2.885s4.495-52.231,1.793-70.681
			c-2.701-18.449-21.987-67.197-21.987-67.197s-62.253,17.872-82.974,21.563c-26.539,4.727-101.4,5.439-101.4,5.439
			s32.735,45.225,35.66,65.195C405.681,269.661,387.29,322.376,387.29,322.376z"/>
		<g>
			<g>
				<path fill="#898989" d="M387.255,321.811c0,0,76.742-20.617,102.942-24.117c20.19-2.697,81.432-2.887,81.432-2.887
					s4.495-52.231,1.796-70.681c-2.704-18.447-21.989-67.196-21.989-67.196s-62.252,17.873-82.973,21.563
					c-26.541,4.728-101.401,5.44-101.401,5.44s32.735,45.226,35.659,65.195C405.646,269.097,387.255,321.811,387.255,321.811z"/>
				<path opacity="0.2" d="M387.362,321.795c0,0,76.745-20.618,102.942-24.118c20.192-2.697,81.431-2.887,81.431-2.887
					s-94.598-12.816-121.954-27.985c-25.585-14.188-82.612-82.888-82.612-82.888s32.736,45.225,35.659,65.195
					C405.752,269.083,387.362,321.795,387.362,321.795z"/>
			</g>
			<g opacity="0.4">
				<path fill="#5D5D5D" d="M386.632,322.416c0,0,76.743-20.618,102.94-24.117c20.192-2.697,81.435-2.887,81.435-2.887
					s4.494-52.232,1.793-70.681c-2.703-18.45-21.988-67.197-21.988-67.197s-62.252,17.873-82.975,21.562
					c-26.539,4.728-101.4,5.44-101.4,5.44s32.735,45.226,35.66,65.194C405.022,269.702,386.632,322.416,386.632,322.416z"/>
				<path opacity="0.2" d="M387.362,321.795c0,0,76.745-20.618,102.942-24.118c20.192-2.697,81.431-2.887,81.431-2.887
					s-94.598-12.816-121.954-27.985c-25.585-14.188-82.612-82.888-82.612-82.888s32.736,45.225,35.659,65.195
					C405.752,269.083,387.362,321.795,387.362,321.795z"/>
			</g>
			<g>
				<path fill="#3A3A3A" d="M405.905,304.601c0,0,76.741-20.618,102.941-24.117c20.19-2.698,81.432-2.888,81.432-2.888
					s4.495-52.23,1.793-70.679c-2.701-18.45-21.987-67.197-21.987-67.197s-62.252,17.872-82.974,21.564
					c-26.54,4.728-101.399,5.438-101.399,5.438s32.731,45.224,35.656,65.195C424.294,251.888,405.905,304.601,405.905,304.601z"/>
			</g>
		</g>
		<g>
			<g>
				<g>
					<path fill="#EAEAEA" d="M536.937,233.674c-8.252-2.583-11.921-11.477-13.972-19.125c-1.002-3.736-1.623-7.457-2.154-11.262
						c-0.757-5.437-3.979-10.715-7.628-14.708c-4.447-4.87-10.714-6.602-16.967-7.616c-0.801-0.129-1.753-0.226-2.756-0.265
						c-0.948-0.138-2.056-0.082-3.191,0.098c-1.149,0.127-2.232,0.362-3.11,0.743c-0.959,0.301-1.852,0.644-2.592,0.98
						c-5.766,2.618-11.36,5.931-14.375,11.797c-2.473,4.811-4.197,10.75-3.504,16.193c0.487,3.812,0.863,7.566,0.877,11.433
						c0.027,7.918-1.179,17.463-8.466,22.122c-3.245,1.838-16.575,2.211-10.635,7.504c2.716,2.917,12.941,1.083,16.82-0.372
						c-5.284,3.982-12.612,10.111-0.935,10.425c5.838,0.158,11.184-3.365,15.326-7.196c-2.427,3.602-5.955,12.031,1.148,12.956
						c6.531,1.001,10.693-7.046,11.917-10.954c0.222,5.974,4.518,15.274,9.548,14.456c5.07-0.528,6.776-10.63,5.426-16.453
						c2.204,3.449,8.331,10.124,14.371,7.445c6.613-2.757,0.999-9.966-2.289-12.803c5.001,2.609,11.084,4.606,16.677,2.923
						c11.186-3.366,2.508-7.358-3.637-9.815c4.124,0.385,14.472-0.527,16.329-4.052
						C553.512,231.462,540.551,234.596,536.937,233.674z"/>
				</g>
				<g>
					<circle fill="#3A3A3A" cx="482.108" cy="209.315" r="3.575"/>
				</g>
				<g>
					<circle fill="#6B6B6B" cx="505.165" cy="206.237" r="3.574"/>
				</g>
			</g>
			<path fill="#3A3A3A" d="M508.956,218.115c0.253,1.888-1.071,3.624-2.962,3.875l-19.789,2.641
				c-1.888,0.251-3.624-1.076-3.875-2.963l-0.022-0.168c-0.251-1.889,1.075-3.624,2.962-3.877l19.789-2.641
				c1.889-0.252,3.623,1.073,3.875,2.962L508.956,218.115z"/>
			
				<rect x="481.364" y="219.439" transform="matrix(0.9912 -0.1323 0.1323 0.9912 -24.728 67.5418)" fill="#EAEAEA" width="29.124" height="0.847"/>
		</g>
		<path fill="#F2714E" d="M541.93,63.103c0,0-41.629-5.23-45.316,2.84c-1.052,2.304,4.092,5.987,2.767,8.166
			c-2.853,4.687-20.679,2.292-20.679,2.292l1.069,17.457c0,0,34.459,6.472,39.226-2.736c1.284-2.483-3.492-6.264-2.539-8.872
			c1.516-4.151,26.584-1.485,26.584-1.485L528.209,72.4L541.93,63.103z"/>
		<path fill="#F2714E" d="M297.297,160.059c0,0-42.885-5.535-46.67,2.927c-1.082,2.415,4.32,6.276,2.958,8.56
			c-2.932,4.915-21.198,2.375-21.198,2.375l1.123,18.312c0,0,35.403,6.834,40.301-2.819c1.321-2.603-3.655-6.571-2.677-9.306
			c1.558-4.351,27.354-1.524,27.354-1.524l-15.298-8.791L297.297,160.059z"/>
		<path opacity="0.4" d="M406.41,304.938c0,0,76.741-20.618,102.939-24.117c20.194-2.697,81.436-2.887,81.436-2.887
			s-94.599-12.817-121.955-27.987c-25.588-14.189-82.613-82.889-82.613-82.889s32.735,45.226,35.658,65.195
			C424.8,252.227,406.41,304.938,406.41,304.938z"/>
		<g>
			<circle fill="#3A3A3A" cx="505.166" cy="205.762" r="7.353"/>
			
				<rect x="470.369" y="200.806" transform="matrix(0.9079 0.4192 -0.4192 0.9079 130.3533 -190.4701)" fill="#3A3A3A" width="56.531" height="1.214"/>
		</g>
		<g>
			
				<rect x="484.239" y="216.747" transform="matrix(0.9905 -0.1377 0.1377 0.9905 -25.9712 68.8579)" fill="#EAEAEA" width="1.234" height="10.906"/>
			
				<rect x="488.52" y="216.147" transform="matrix(0.9903 -0.139 0.139 0.9903 -26.0598 70.1601)" fill="#EAEAEA" width="1.233" height="10.908"/>
			
				<rect x="492.903" y="215.547" transform="matrix(0.9902 -0.1394 0.1394 0.9902 -25.9944 70.9555)" fill="#EAEAEA" width="1.03" height="10.908"/>
			
				<rect x="496.826" y="214.985" transform="matrix(0.9905 -0.1372 0.1372 0.9905 -25.5338 70.3122)" fill="#EAEAEA" width="1.235" height="10.908"/>
			
				<rect x="501.107" y="214.385" transform="matrix(0.9904 -0.1383 0.1383 0.9904 -25.5858 71.5129)" fill="#EAEAEA" width="1.236" height="10.909"/>
			
				<rect x="505.489" y="213.788" transform="matrix(0.9905 -0.1376 0.1376 0.9905 -25.3497 71.6946)" fill="#EAEAEA" width="1.029" height="10.908"/>
		</g>
		<path fill="#3A3A3A" d="M474.098,99.575c-1.692-0.204-3.538-1.069-5.252-1.809c-20.544-8.856-45.407-3.038-64.021,9.257
			c-10.325,6.82-21.812,5.832-33.265,4.037c-4.952-0.776-10.064-2.299-14.625-4.703c-2.834-1.491-11.561-4.056-12.852-6.242
			c-1.068-1.811-0.164-7.876-0.299-10.08c-0.533-8.685-1.065-17.37-1.598-26.054c-0.724-11.806-1.447-23.61-2.171-35.417
			c0.005,0.097,12.506,7.939,13.816,8.544c7.082,3.27,12.939,4.452,20.519,5.583c14.521,2.166,27.314-0.615,39.936-8.274
			c17.801-10.801,39.992-19.423,61.169-16.088c-1.118,1.427-3.291,2.157-4.662,3.679c-1.638,1.819-2.839,4-4.355,5.913
			c-4.92,6.207-9.295,12.791-13.912,19.244c-0.859,1.204-14.049,19.884-14.163,19.8c5.09,3.739,9.78,8.59,14.581,12.803
			c4.025,3.537,8.053,7.072,12.076,10.609C467.549,92.599,473.406,96.122,474.098,99.575z"/>
		<g>
			<g>
				<g>
					<g>
						<path fill="#EAEAEA" d="M419.196,78.985c-4.462-1.755-6.137-6.818-6.971-11.128c-0.405-2.104-0.601-4.188-0.741-6.312
							c-0.205-3.034-1.779-6.082-3.637-8.434c-2.268-2.869-5.663-4.073-9.08-4.881c-0.439-0.104-0.96-0.195-1.514-0.256
							c-0.517-0.113-1.132-0.126-1.77-0.071c-0.638,0.023-1.246,0.111-1.748,0.286c-0.541,0.13-1.048,0.284-1.47,0.44
							c-3.294,1.219-6.518,2.83-8.417,5.955c-1.557,2.562-2.746,5.777-2.576,8.815c0.117,2.126,0.176,4.218,0.03,6.356
							c-0.297,4.379-1.344,9.61-5.557,11.896c-1.865,0.889-9.252,0.568-6.173,3.731c1.384,1.718,7.111,1.109,9.313,0.458
							c-3.08,1.993-7.374,5.092-0.93,5.727c3.22,0.318,6.318-1.418,8.759-3.372c-1.485,1.895-3.769,6.417,0.123,7.208
							c3.572,0.812,6.191-3.471,7.024-5.584c-0.116,3.311,1.892,8.624,4.707,8.37c2.825-0.092,4.165-5.61,3.65-8.883
							c1.083,1.995,4.204,5.928,7.653,4.685c3.763-1.262,0.943-5.469-0.762-7.169c2.663,1.641,5.945,2.987,9.106,2.276
							c6.316-1.417,1.677-3.969-1.623-5.569c2.265,0.376,8.022,0.28,9.188-1.594C428.448,78.417,421.16,79.637,419.196,78.985z"/>
					</g>
					<g>
						<circle fill="#3A3A3A" cx="389.845" cy="63.345" r="1.982"/>
					</g>
					<g>
						<circle fill="#3A3A3A" cx="402.716" cy="62.557" r="1.981"/>
					</g>
				</g>
				<path fill="#3A3A3A" d="M403.97,69.282c0.066,1.052-0.734,1.956-1.787,2.02l-10.632,0.652c-1.052,0.064-1.956-0.734-2.022-1.786
					l-0.015-0.237c-0.063-1.052,0.735-1.956,1.787-2.021l10.634-0.651c1.054-0.065,1.956,0.735,2.021,1.786L403.97,69.282z"/>
				
					<rect x="389.525" y="69.86" transform="matrix(0.9981 -0.0612 0.0612 0.9981 -3.53 24.4423)" fill="#EAEAEA" width="15.625" height="0"/>
			</g>
			<g>
				
					<rect x="390.117" y="67.391" transform="matrix(0.9981 -0.0616 0.0616 0.9981 -3.5877 24.1787)" fill="#EAEAEA" width="0.579" height="5.787"/>
				<rect x="393.005" y="67.122" fill="#EAEAEA" width="0" height="5.993"/>
				
					<rect x="395.317" y="67.072" transform="matrix(0.9981 -0.0616 0.0616 0.9981 -3.5605 24.5191)" fill="#EAEAEA" width="0.578" height="5.786"/>
				
					<rect x="397.626" y="66.929" transform="matrix(0.9981 -0.0619 0.0619 0.9981 -3.5568 24.745)" fill="#EAEAEA" width="0.576" height="5.788"/>
				
					<rect x="399.936" y="66.789" transform="matrix(0.9982 -0.0602 0.0602 0.9982 -3.4673 24.2047)" fill="#EAEAEA" width="0.576" height="5.786"/>
				
					<rect x="402.248" y="66.647" transform="matrix(0.998 -0.0626 0.0626 0.998 -3.5632 25.3307)" fill="#EAEAEA" width="0.577" height="5.787"/>
			</g>
		</g>
		<g>
			<circle fill="#3A3A3A" cx="402.568" cy="62.321" r="4.125"/>
			
				<rect x="383.489" y="58.98" transform="matrix(0.8282 0.5604 -0.5604 0.8282 101.8576 -213.621)" fill="#3A3A3A" width="31.717" height="0.681"/>
		</g>
		<path opacity="0.4" d="M474.38,99.558c-1.693-0.203-3.538-1.069-5.251-1.808c-20.547-8.857-45.408-3.039-64.021,9.255
			c-10.326,6.821-21.813,5.832-33.267,4.038c-4.952-0.776-10.062-2.299-14.625-4.703c-2.833-1.493-11.412-4.065-12.702-6.25
			c-1.068-1.813-0.017-7.887-0.152-10.09c-0.534-8.686-1.065-17.37-1.598-26.055c-0.724-11.805-1.449-23.61-2.172-35.417
			c0.006,0.097,20.931,37.087,48.649,50.155c25.044,11.808,74.368,9.984,76.278,11.663C468.05,92.568,473.689,96.104,474.38,99.558z
			"/>
		<path fill="#A5805B" d="M281.724,326.053c0.094,1.52-0.698,2.576-1.788,2.642l-69.436,4.258c-1.088,0.066-2.042-0.879-2.135-2.399
			l-0.054-0.895c-0.095-1.518,0.709-2.991,1.799-3.059l69.436-4.258c1.089-0.067,2.029,1.3,2.124,2.819L281.724,326.053z"/>
		<path fill="#A5805B" d="M513.582,117.023c0.095,1.519-0.55,2.561-1.332,2.61l-49.852,3.058c-0.783,0.047-1.864-0.889-1.959-2.409
			l-0.054-0.894c-0.093-1.519,0.842-3.003,1.623-3.052l49.851-3.056c0.782-0.049,1.575,1.329,1.67,2.849L513.582,117.023z"/>
		<path fill="#A5805B" d="M524.038,126.77c0.091,1.519-0.607,3.193-1.692,3.26l-69.258,4.247c-1.087,0.067-1.739-1.525-1.832-3.045
			l-0.055-0.893c-0.093-1.52,0.372-2.927,1.461-2.994l69.259-4.248c1.085-0.065,1.968,1.258,2.061,2.778L524.038,126.77z"/>
		<polygon fill="#CE9659" points="373.052,165.857 333.345,168.292 313.209,134.16 392.088,129.323 		"/>
		<path fill="#775D45" d="M395.943,127.448c0.091,1.52-1.053,2.861-2.339,2.941l-82.014,5.03c-1.288,0.079-1.622-1.172-1.716-2.691
			l-0.055-0.894c-0.093-1.52,0.093-2.69,1.38-2.768l82.015-5.032c1.286-0.078,2.579,1.001,2.673,2.521L395.943,127.448z"/>
		<path fill="#775D45" d="M375.705,166.179c0.093,1.52-0.805,3.044-1.469,3.084l-42.28,2.593c-0.664,0.04-1.214-1.395-1.306-2.914
			l-0.056-0.895c-0.093-1.52,0.308-2.504,0.971-2.545l42.281-2.592c0.664-0.042,1.71,0.854,1.803,2.375L375.705,166.179z"/>
	</g>
	<circle fill="#FFE966" cx="325.841" cy="140.317" r="2.968"/>
	<circle fill="#FFE966" cx="377.49" cy="137.149" r="2.969"/>
	<circle fill="#FFE966" cx="351.807" cy="138.725" r="2.969"/>
	<circle fill="#FFE966" cx="339.294" cy="139.492" r="2.969"/>
	<circle fill="#FFE966" cx="364.32" cy="137.958" r="2.969"/>
	<circle fill="#FFE966" cx="337.699" cy="161.088" r="1.771"/>
	<circle fill="#FFE966" cx="368.522" cy="159.198" r="1.771"/>
	<circle fill="#FFE966" cx="353.195" cy="160.138" r="1.771"/>
	<circle fill="#FFE966" cx="345.729" cy="160.595" r="1.772"/>
	<circle fill="#FFE966" cx="360.661" cy="159.679" r="1.772"/>
	<g>
		<circle fill="#FFE966" cx="175.394" cy="418.844" r="5.53"/>
		<circle fill="#FFE966" cx="271.513" cy="426.058" r="5.53"/>
		<circle fill="#FFE966" cx="223.715" cy="422.47" r="5.531"/>
		<circle fill="#FFE966" cx="200.43" cy="420.724" r="5.53"/>
		<circle fill="#FFE966" cx="247.002" cy="424.218" r="5.53"/>
	</g>
	<g>
		<circle fill="#FFE966" cx="554.332" cy="403.973" r="5.531"/>
		<path fill="#FFE966" d="M453.691,420.088c0.485,3.016,3.323,5.071,6.338,4.589c3.016-0.485,5.069-3.321,4.586-6.338
			c-0.482-3.017-3.319-5.068-6.337-4.586C455.266,414.236,453.21,417.072,453.691,420.088z"/>
		<circle fill="#FFE966" cx="506.483" cy="411.634" r="5.53"/>
		<circle fill="#FFE966" cx="529.541" cy="407.942" r="5.531"/>
		<circle fill="#FFE966" cx="483.425" cy="415.327" r="5.531"/>
	</g>
	<path fill="none" d="M548.9,511.255"/>
	<path fill="none" d="M207.342,533.414"/>
	<g>
		<path fill="#8C8C8C" d="M524.897,450.452c9.684,3.749,14.497,14.639,10.749,24.324c-3.748,9.683-14.639,14.496-24.321,10.748
			c-9.685-3.751-14.499-14.639-10.751-24.323C504.324,451.52,515.213,446.707,524.897,450.452z"/>
		<path fill="#5B5B5B" d="M579.139,467.249l-55.066-12.986c-7.359-2.334-15.36,1.433-18.185,8.732
			c-2.938,7.59,0.835,16.124,8.422,19.059c2.191,0.85,4.464,1.138,6.654,0.937l56.144-1.06c1.447-0.516,2.714-1.016,3.596-1.782
			C586.885,474.757,583.077,467.936,579.139,467.249z"/>
		<circle fill="#191919" cx="576.33" cy="474.186" r="6.884"/>
		<path opacity="0.7" fill="#212121" d="M506.414,463.197c-2.938,7.59,0.833,16.124,8.422,19.062
			c2.19,0.847,4.462,1.136,6.654,0.932l54.338-1.237c0.695-0.696-25.313,0.949-44.282-6.827
			C514.877,468.29,507.733,459.784,506.414,463.197z"/>
		<path opacity="0.4" fill="#FFFFFF" d="M553.922,462.445c0.59,0.124,0.931,0.868,0.763,1.655l0,0
			c-0.169,0.787-0.784,1.324-1.373,1.197l-31.088-6.661c-0.59-0.129-0.929-0.869-0.763-1.658l0,0
			c0.17-0.788,0.784-1.324,1.372-1.197L553.922,462.445z"/>
		<path opacity="0.4" fill="#FFFFFF" d="M558.568,463.312c0.822,0.317,1.23,1.237,0.911,2.061c-0.317,0.819-1.24,1.228-2.06,0.91
			c-0.821-0.319-1.229-1.239-0.907-2.062C556.826,463.4,557.749,462.993,558.568,463.312z"/>
	</g>
	<g>
		<path fill="#8C8C8C" d="M246.042,477.677c1.836,10.219-4.963,19.993-15.183,21.831c-10.22,1.833-19.994-4.963-21.832-15.181
			c-1.835-10.224,4.961-19.997,15.182-21.833C234.431,460.659,244.205,467.453,246.042,477.677z"/>
		<path fill="#5B5B5B" d="M259.909,532.739l-17.551-53.785c-1.834-7.501-9.213-12.372-16.917-10.99
			c-8.01,1.438-13.336,9.101-11.897,17.107c0.417,2.314,1.351,4.401,2.662,6.168l30.107,47.401c1.193,0.967,2.279,1.791,3.392,2.143
			C257.524,543.261,261.373,536.458,259.909,532.739z"/>
		<circle fill="#191919" cx="252.522" cy="533.948" r="6.885"/>
		<path opacity="0.7" fill="#212121" d="M225.541,468.52c-8.009,1.439-13.335,9.099-11.896,17.105
			c0.415,2.316,1.35,4.402,2.662,6.171l29.322,45.766c0.956,0.229-13.978-21.128-17.201-41.374
			C225.595,478.397,229.145,467.872,225.541,468.52z"/>
		<path opacity="0.4" fill="#FFFFFF" d="M250.897,508.703c0.199,0.57-0.256,1.248-1.017,1.513l0,0
			c-0.762,0.267-1.541,0.019-1.739-0.55l-10.479-30.017c-0.199-0.571,0.258-1.246,1.02-1.513l0,0c0.76-0.267,1.539-0.02,1.738,0.549
			L250.897,508.703z"/>
		<circle opacity="0.4" fill="#FFFFFF" cx="251.006" cy="513.404" r="1.593"/>
	</g>
	<g>
		<circle fill="#8C8C8C" cx="305.775" cy="499.66" r="18.804"/>
		<path fill="#5B5B5B" d="M346.895,544.762l-26.904-49.771c-3.146-7.05-11.282-10.522-18.611-7.782
			c-7.622,2.852-11.49,11.341-8.64,18.964c0.822,2.2,2.117,4.09,3.723,5.595l38.115,41.236c1.345,0.738,2.561,1.354,3.719,1.502
			C346.436,555.541,349.002,548.158,346.895,544.762z"/>
		<path fill="#191919" d="M346.292,544.864c1.332,3.56-0.476,7.527-4.036,8.86c-3.561,1.329-7.528-0.476-8.859-4.037
			c-1.333-3.562,0.474-7.529,4.036-8.858C340.993,539.496,344.959,541.304,346.292,544.864z"/>
		<path opacity="0.7" fill="#212121" d="M301.577,487.737c-7.622,2.851-11.491,11.343-8.638,18.964
			c0.823,2.202,2.116,4.089,3.723,5.592l37.048,39.771c0.981,0.057-17.537-18.283-24.335-37.62
			C303.401,497.447,305.006,486.457,301.577,487.737z"/>
		<path opacity="0.4" fill="#FFFFFF" d="M333.722,522.729c0.299,0.526-0.028,1.273-0.729,1.673l0,0
			c-0.702,0.396-1.511,0.294-1.809-0.231l-15.686-27.652c-0.3-0.526,0.028-1.274,0.729-1.671l0,0
			c0.701-0.398,1.511-0.294,1.809,0.229L333.722,522.729z"/>
		<path opacity="0.4" fill="#FFFFFF" d="M336.165,526.779c0.307,0.821-0.111,1.74-0.934,2.049c-0.824,0.308-1.742-0.109-2.051-0.937
			c-0.309-0.82,0.111-1.739,0.935-2.049C334.938,525.535,335.855,525.954,336.165,526.779z"/>
	</g>
	<g>
		<circle fill="#8C8C8C" cx="383.155" cy="509.684" r="18.802"/>
		<path fill="#5B5B5B" d="M436.041,540.146l-40.763-39.232c-5.143-5.758-13.946-6.596-20.096-1.754
			c-6.395,5.033-7.498,14.298-2.464,20.693c1.452,1.847,3.261,3.25,5.249,4.196l48.849,27.694c1.504,0.294,2.851,0.511,3.999,0.301
			C438.881,550.554,439.081,542.741,436.041,540.146z"/>
		<circle fill="#191919" cx="430.09" cy="544.684" r="6.885"/>
		<path opacity="0.7" fill="#212121" d="M375.531,499.602c-6.395,5.034-7.498,14.3-2.464,20.693c1.454,1.847,3.26,3.25,5.248,4.196
			l47.386,26.622c0.953-0.248-22.264-12.086-34.622-28.44C380.22,508.297,378.408,497.339,375.531,499.602z"/>
		<path opacity="0.4" fill="#FFFFFF" d="M416.795,523.162c0.443,0.408,0.361,1.223-0.188,1.813l0,0
			c-0.548,0.594-1.35,0.741-1.794,0.332l-23.352-21.573c-0.444-0.41-0.359-1.222,0.189-1.813l0,0
			c0.546-0.593,1.35-0.741,1.793-0.333L416.795,523.162z"/>
		<path opacity="0.4" fill="#FFFFFF" d="M420.353,526.275c0.544,0.691,0.421,1.695-0.269,2.239
			c-0.691,0.543-1.693,0.424-2.235-0.269c-0.546-0.692-0.425-1.691,0.267-2.236S419.807,525.584,420.353,526.275z"/>
	</g>
	<g>
		<circle fill="#8C8C8C" cx="455.054" cy="500.259" r="18.802"/>
		<path fill="#5B5B5B" d="M514.152,515.498l-49.758-26.929c-6.491-4.177-15.199-2.632-19.834,3.674
			c-4.818,6.56-3.409,15.779,3.147,20.599c1.894,1.391,4.011,2.265,6.178,2.644l54.469,13.653c1.53-0.119,2.885-0.27,3.934-0.779
			C519.668,524.772,517.773,517.189,514.152,515.498z"/>
		<circle fill="#191919" cx="509.627" cy="521.461" r="6.884"/>
		<path opacity="0.7" fill="#212121" d="M445.015,492.576c-4.818,6.559-3.409,15.78,3.147,20.599
			c1.894,1.392,4.011,2.265,6.179,2.646l52.773,13.008c0.852-0.492-24.684-5.703-40.957-18.167
			C451.853,499.706,447.184,489.627,445.015,492.576z"/>
		<path opacity="0.4" fill="#FFFFFF" d="M491.068,504.268c0.537,0.278,0.672,1.084,0.304,1.801l0,0
			c-0.369,0.717-1.103,1.072-1.641,0.797l-28.264-14.561c-0.536-0.275-0.671-1.08-0.304-1.797l0,0
			c0.37-0.716,1.107-1.074,1.643-0.796L491.068,504.268z"/>
		<path opacity="0.4" fill="#FFFFFF" d="M495.327,506.32c0.71,0.52,0.862,1.52,0.342,2.229c-0.522,0.705-1.519,0.858-2.228,0.337
			c-0.709-0.52-0.861-1.517-0.341-2.224C493.622,505.952,494.618,505.801,495.327,506.32z"/>
	</g>
</g>
<g>
	<g>
		<path fill="#EA7878" d="M634.415,583.559c-12.799-4.705-17.891-18.995-20.529-31.2c-1.287-5.958-1.98-11.866-2.521-17.9
			c-0.771-8.617-5.44-17.183-10.874-23.752c-6.627-8.016-16.367-11.225-26.134-13.306c-1.253-0.266-2.744-0.492-4.321-0.63
			c-1.481-0.292-3.229-0.288-5.037-0.093c-1.815,0.109-3.539,0.396-4.951,0.931c-1.532,0.397-2.967,0.868-4.155,1.34
			c-9.285,3.679-18.352,8.466-23.553,17.475c-4.265,7.38-7.442,16.603-6.769,25.228c0.473,6.041,0.773,11.981,0.498,18.074
			c-0.57,12.475-3.21,27.409-15.046,34.182c-5.254,2.645-26.273,2.203-17.325,10.999c4.052,4.801,20.295,2.703,26.519,0.714
			c-8.633,5.862-20.643,14.948-2.281,16.345c9.183,0.701,17.877-4.437,24.696-10.146c-4.101,5.48-10.31,18.486,0.806,20.492
			c10.211,2.079,17.386-10.27,19.615-16.331c-0.109,9.425,5.936,24.405,13.921,23.502c8.024-0.439,11.492-16.219,9.812-25.493
			c3.208,5.607,12.339,16.589,22.062,12.836c10.627-3.827,2.34-15.615-2.619-20.341c7.679,4.496,17.104,8.113,26.04,5.893
			c17.873-4.435,4.521-11.393-4.968-15.737c6.464,0.927,22.834,0.291,26.029-5.12C660.685,581.355,640.034,585.292,634.415,583.559z
			"/>
	</g>
	<g>
		<path fill="#666666" d="M555.564,540.487c0.263,3.103-2.044,5.829-5.146,6.088c-3.099,0.261-5.824-2.043-6.086-5.146
			c-0.26-3.099,2.045-5.824,5.146-6.086C552.581,535.082,555.306,537.387,555.564,540.487z"/>
	</g>
	<path fill="none" stroke="#666666" stroke-width="4" stroke-miterlimit="10" d="M575.251,551.707
		c0.264,3.124-2.058,5.868-5.182,6.132c-3.129,0.263-5.873-2.06-6.136-5.186"/>
	<g opacity="0.4">
		<path fill="#FFFFFF" d="M533.833,533.345c0.4-4.291,0.942-8.748,3.378-12.299c1.623-2.417,5.148-5.752,8.204-5.553
			c2.442,0.1,3.124,2.778,2.231,4.83c-0.767,1.738-2.655,2.81-4.077,3.991c-3.257,2.859-2.538,7.818-6.463,9.973
			C535.508,535.182,533.859,535.472,533.833,533.345"/>
	</g>
	<circle opacity="0.4" fill="#FFFFFF" cx="535.88" cy="539.793" r="2.267"/>
	<g>
		<path fill="#666666" d="M592.115,537.424c0.258,3.103-2.045,5.828-5.147,6.088c-3.102,0.26-5.826-2.044-6.087-5.148
			c-0.261-3.1,2.043-5.825,5.145-6.084C589.128,532.018,591.854,534.323,592.115,537.424z"/>
	</g>
	<g opacity="0.12">
		<path d="M634.415,583.559c-12.799-4.705-17.891-18.995-20.529-31.2c-1.287-5.958-1.98-11.866-2.521-17.9
			c-0.401-4.496-9.194,27.904-27.775,49.922c-17.064,20.218-44.221,30.17-40.958,27.438c-4.101,5.48-10.31,18.486,0.806,20.492
			c10.211,2.079,17.386-10.27,19.615-16.331c-0.109,9.425,5.936,24.405,13.921,23.502c8.024-0.439,11.492-16.219,9.812-25.493
			c3.208,5.607,12.339,16.589,22.062,12.836c10.627-3.827,2.34-15.615-2.619-20.341c7.679,4.496,17.104,8.113,26.04,5.893
			c17.873-4.435,4.521-11.393-4.968-15.737c6.464,0.927,22.834,0.291,26.029-5.12C660.685,581.355,640.034,585.292,634.415,583.559z
			"/>
	</g>
</g>
<g>
	<g>
		<path fill="#EF97E3" d="M219.071,532.112c-13.436-5.467-18.331-20.844-20.691-33.913c-1.154-6.383-1.675-12.69-2.031-19.125
			c-0.508-9.192-5.162-18.463-10.699-25.646c-6.756-8.761-16.992-12.526-27.301-15.093c-1.322-0.329-2.899-0.624-4.571-0.827
			c-1.564-0.363-3.423-0.423-5.353-0.28c-1.934,0.049-3.777,0.293-5.299,0.809c-1.643,0.369-3.183,0.816-4.465,1.275
			c-10.005,3.574-19.817,8.332-25.675,17.72c-4.799,7.695-8.512,17.381-8.108,26.577c0.282,6.438,0.387,12.768-0.128,19.232
			c-1.057,13.24-4.407,29.024-17.234,35.795c-5.681,2.62-28.012,1.389-18.817,11.064c4.133,5.25,21.481,3.61,28.165,1.721
			c-9.39,5.92-22.489,15.143-3.016,17.294c9.738,1.076,19.164-4.066,26.622-9.892c-4.558,5.681-11.632,19.28,0.115,21.815
			c10.778,2.583,18.855-10.286,21.444-16.65c-0.459,10.017,5.426,26.161,13.948,25.491c8.546-0.176,12.805-16.824,11.357-26.745
			c3.206,6.076,12.516,18.082,22.987,14.445c11.436-3.685,3.054-16.516-2.045-21.719c7.997,5.059,17.888,9.245,27.47,7.211
			c19.163-4.068,5.217-11.949-4.712-16.912c6.838,1.22,24.263,1.135,27.857-4.498C247.082,530.725,224.982,534.157,219.071,532.112z
			"/>
	</g>
	<g>
		<circle fill="#666666" cx="130.819" cy="483.758" r="5.995"/>
	</g>
	<path fill="none" stroke="#666666" stroke-width="4" stroke-miterlimit="10" d="M157.329,496.1
		c0.166,3.333-2.402,6.168-5.733,6.332c-3.333,0.166-6.169-2.401-6.334-5.733"/>
	<g opacity="0.4">
		<path fill="#FFFFFF" d="M113.963,475.078c0.581-4.549,1.315-9.267,4.04-12.951c1.811-2.513,5.677-5.932,8.921-5.608
			c2.592,0.194,3.219,3.067,2.196,5.218c-0.878,1.819-2.923,2.889-4.477,4.096c-3.568,2.921-2.983,8.219-7.235,10.366
			C115.677,477.092,113.914,477.34,113.963,475.078"/>
	</g>
	<circle opacity="0.4" fill="#FFFFFF" cx="115.904" cy="482.007" r="2.412"/>
	<g>
		<circle fill="#666666" cx="169.786" cy="481.826" r="5.995"/>
	</g>
	<g opacity="0.12">
		<path d="M219.071,532.112c-13.436-5.467-18.331-20.844-20.691-33.913c-1.154-6.383-1.675-12.69-2.031-19.125
			c-0.265-4.792-10.788,29.332-31.342,52.066c-18.875,20.873-48.109,30.47-44.539,27.683c-4.558,5.681-11.632,19.28,0.115,21.815
			c10.778,2.583,18.855-10.286,21.444-16.65c-0.459,10.017,5.426,26.161,13.948,25.491c8.546-0.176,12.805-16.824,11.357-26.745
			c3.206,6.076,12.516,18.082,22.987,14.445c11.436-3.685,3.054-16.516-2.045-21.719c7.997,5.059,17.888,9.245,27.47,7.211
			c19.163-4.068,5.217-11.949-4.712-16.912c6.838,1.22,24.263,1.135,27.857-4.498C247.082,530.725,224.982,534.157,219.071,532.112z
			"/>
	</g>
</g>
<g>
	<g>
		<path fill="#96E2DB" d="M272.291,649.611c-11.364-9.012-11.755-25.144-10.361-38.353c0.68-6.448,1.948-12.652,3.409-18.929
			c2.088-8.963,0.217-19.169-3.085-27.615c-4.032-10.303-12.803-16.785-21.979-22.138c-1.177-0.685-2.608-1.409-4.156-2.074
			c-1.4-0.787-3.167-1.364-5.06-1.769c-1.871-0.494-3.708-0.778-5.312-0.707c-1.681-0.107-3.285-0.107-4.645-0.029
			c-10.605,0.63-21.36,2.448-29.61,9.818c-6.764,6.042-13.042,14.302-15.232,23.241c-1.532,6.261-3.204,12.365-5.51,18.427
			c-4.724,12.413-12.362,26.629-26.574,29.534c-6.187,0.922-27.279-6.516-21.163,5.349c2.497,6.198,19.608,9.483,26.556,9.542
			c-10.673,3.054-25.83,8.236-7.741,15.758c9.045,3.76,19.537,1.464,28.327-2.038c-5.968,4.177-16.567,15.248-6.002,20.974
			c9.624,5.499,20.982-4.593,25.251-9.976c-3.247,9.487-2.122,26.635,6.248,28.379c8.254,2.225,17.005-12.563,18.396-22.493
			c1.375,6.729,6.948,20.865,18.019,20.308c12.011-0.333,7.559-15,4.122-21.423c6.259,7.097,14.581,13.885,24.348,14.616
			c19.537,1.467,8.356-10.008,0.215-17.554c6.224,3.087,22.975,7.889,28.004,3.487C299.57,656.127,277.393,653.232,272.291,649.611z
			"/>
	</g>
	<g>
		<circle fill="#666666" cx="201.122" cy="578.469" r="5.995"/>
	</g>
	<path fill="none" stroke="#666666" stroke-width="4" stroke-miterlimit="10" d="M223.111,597.745
		c-0.775,3.242-4.034,5.247-7.279,4.472c-3.244-0.773-5.247-4.034-4.472-7.279"/>
	<g opacity="0.4">
		<path fill="#FFFFFF" d="M187.372,565.413c1.833-4.202,3.859-8.523,7.506-11.299c2.443-1.904,7.112-4.104,10.136-2.885
			c2.434,0.914,2.231,3.847,0.646,5.624c-1.354,1.501-3.617,1.955-5.447,2.678c-4.243,1.803-5.165,7.055-9.848,7.924
			C188.454,567.828,186.692,567.572,187.372,565.413"/>
	</g>
	<circle opacity="0.4" fill="#FFFFFF" cx="187.293" cy="572.61" r="2.412"/>
	<g>
		<circle fill="#666666" cx="239.068" cy="587.531" r="5.994"/>
	</g>
	<g opacity="0.12">
		<path d="M272.291,649.611c-11.364-9.012-11.755-25.144-10.361-38.353c0.68-6.448,1.948-12.652,3.409-18.929
			c1.088-4.673-18.574,25.138-44.675,41.202c-23.966,14.748-54.717,15.771-50.509,14.097c-5.968,4.177-16.567,15.248-6.002,20.974
			c9.624,5.499,20.982-4.593,25.251-9.976c-3.247,9.487-2.122,26.635,6.248,28.379c8.254,2.225,17.005-12.563,18.396-22.493
			c1.375,6.729,6.948,20.865,18.019,20.308c12.011-0.333,7.559-15,4.122-21.423c6.259,7.097,14.581,13.885,24.348,14.616
			c19.537,1.467,8.356-10.008,0.215-17.554c6.224,3.087,22.975,7.889,28.004,3.487C299.57,656.127,277.393,653.232,272.291,649.611z
			"/>
	</g>
</g>
<g>
	<g>
		<g>
			<path fill="#B996E2" d="M455.944,666.2c-0.009,1.447,0.002,2.898,0.034,4.356c0.431,18.766,3.886,41.307,21.44,51.891
				c7.804,4.151,39.41,4.212,25.659,17.122c-6.255,7.076-30.598,3.367-39.878,0.163c12.771,9.107,30.511,23.172,2.865,24.644
				c-13.824,0.734-26.714-7.28-36.766-16.099c5.976,8.383,14.86,28.138-1.914,30.77c-15.417,2.778-25.774-16.03-28.916-25.215
				c-0.161,14.168-9.76,36.474-21.73,34.844c-12.046-0.936-16.714-24.768-13.875-38.648c-5.012,8.312-19.115,24.507-33.594,18.535
				c-15.84-6.119-2.982-23.553,4.633-30.482c-11.691,6.495-25.982,11.605-39.339,7.965c-26.709-7.277-6.398-17.278,8.009-23.48
				c-9.748,1.17-34.325-0.352-38.941-8.588c-10.711-15.526,20.196-8.904,28.698-11.313c19.396-6.633,27.538-27.935,31.921-46.186
				c2.141-8.912,3.383-17.77,4.402-26.82c1.456-12.927,8.768-25.637,17.159-35.321c10.236-11.818,24.983-16.31,39.73-19.1
				c1.893-0.358,4.141-0.646,6.517-0.801c2.236-0.385,4.863-0.32,7.575,0.035c2.722,0.225,5.305,0.717,7.41,1.566
				c2.288,0.652,4.425,1.41,6.196,2.157c13.828,5.848,27.292,13.352,34.8,27.069c6.152,11.238,10.615,25.207,9.306,38.149
				c-1.039,10.261-5.715,30.897,10.428,31.346c3.646,0.101,9.438-5.043,11.542-1.986c6.4,9.308-17.082,18.948-21.999,14.237"/>
		</g>
		<g>
			<path fill="#666666" d="M412.308,640.634c-0.497,4.653,2.87,8.829,7.524,9.327c4.653,0.497,8.826-2.872,9.324-7.525
				c0.496-4.65-2.87-8.827-7.522-9.323C416.979,632.614,412.808,635.983,412.308,640.634z"/>
		</g>
		<path fill="none" stroke="#666666" stroke-width="3" stroke-miterlimit="10" d="M382.336,656.818
			c-0.499,4.687,2.895,8.896,7.583,9.396c4.688,0.499,8.894-2.893,9.394-7.583"/>
		<g opacity="0.4">
			<path fill="#FFFFFF" d="M445.213,630.645c-0.454-6.464-1.112-13.178-4.656-18.597c-2.355-3.688-7.534-8.826-12.137-8.629
				c-3.673,0.064-4.791,4.069-3.52,7.184c1.093,2.637,3.894,4.312,5.989,6.141c4.799,4.407,3.547,11.833,9.373,15.207
				C442.634,633.349,445.102,633.842,445.213,630.645"/>
		</g>
		<path opacity="0.4" fill="#FFFFFF" d="M438.528,639.901c-0.203,1.874,1.154,3.552,3.026,3.754
			c1.873,0.199,3.552-1.154,3.752-3.028c0.201-1.874-1.154-3.551-3.031-3.751C440.406,636.676,438.727,638.03,438.528,639.901z"/>
		<g>
			<circle fill="#666666" cx="365.911" cy="635.676" r="8.472"/>
		</g>
		<g opacity="0.12">
			<path d="M292.331,702.663c19.396-6.633,27.538-27.935,31.921-46.186c2.141-8.912,3.383-17.77,4.402-26.82
				c0.759-6.739,12.862,42.254,40.035,75.981c24.951,30.969,65.424,46.859,60.611,42.639c5.976,8.383,14.86,28.138-1.914,30.77
				c-15.417,2.778-25.774-16.03-28.916-25.215c-0.161,14.168-9.76,36.474-21.73,34.844c-12.046-0.936-16.714-24.768-13.875-38.648
				c-5.012,8.312-19.115,24.507-33.594,18.535c-15.84-6.119-2.982-23.553,4.633-30.482c-11.691,6.495-25.982,11.605-39.339,7.965
				c-26.709-7.277-6.398-17.278,8.009-23.48c-9.748,1.17-34.325-0.352-38.941-8.588C252.922,698.45,283.829,705.072,292.331,702.663
				z"/>
		</g>
	</g>
	<g>
		<g>
			<path fill="#DD5050" d="M338.091,614.614c-6.557-15.823-23.271-18.068-37.688-11.818c5.357,5.614,11.977,12.277,19.582,14.007
				c7.155,1.681,13.027-1.815,19.514-2.497"/>
		</g>
		<g>
			<g>
				<g>
					<path fill="#DD5050" d="M336.743,614.635c-14.894-8.46-29.461,0.035-37.002,13.82c7.676,1.139,16.994,2.333,24.06-0.972
						c6.676-3.067,9.161-9.434,13.864-13.957"/>
				</g>
				<g opacity="0.3">
					<path d="M336.743,614.635c-14.894-8.46-29.461,0.035-37.002,13.82c7.676,1.139,16.994,2.333,24.06-0.972
						c6.676-3.067,9.161-9.434,13.864-13.957"/>
				</g>
			</g>
			<path fill="#DD5050" d="M454.763,615.977c-6.015-31.793-39.461-52.424-74.648-45.77c-35.19,6.655-58.793,38.072-52.782,69.866
				c0,0,18.305-13.312,25.176-16.56c8.382-3.962,35.579-11.133,35.579-11.133s23.994-2.027,31.951-1.637
				C428.856,611.174,454.763,615.977,454.763,615.977z"/>
			<path opacity="0.3" d="M341.891,591.336c-12.016,13.281-17.921,30.952-14.559,48.737c0,0,18.305-13.312,25.176-16.56
				c8.382-3.962,35.579-11.133,35.579-11.133s23.994-2.027,31.951-1.637C428.856,611.174,351.356,580.877,341.891,591.336z"/>
		</g>
	</g>
	<g>
		<path fill="#333333" d="M322.889,658.9c0.78,1.146,2.454,1.362,3.743,0.487l108.051-73.499c1.288-0.874,1.7-2.513,0.921-3.656l0,0
			c-0.776-1.145-2.453-1.362-3.741-0.487l-108.051,73.5C322.522,656.119,322.111,657.756,322.889,658.9L322.889,658.9z"/>
		<circle fill="#333333" cx="365.702" cy="634.374" r="18.682"/>
		<path opacity="0.3" fill="#FFFFFF" d="M378.921,647.411c7.254-7.336,7.188-19.164-0.147-26.421
			c-7.338-7.252-19.166-7.188-26.418,0.148"/>
	</g>
	<g>
		<g>
			<g>
				<polygon fill="#CCCCCC" points="500.368,667.767 503.361,674.744 610.896,647.897 641.136,607.386 				"/>
				<path fill="#B57959" d="M468.175,681.515c1.419,3.314,5.219,4.763,8.534,3.34l20.521-8.801l-2.515-5.862L468.175,681.515z"/>
				<path fill="#D38F62" d="M492.41,671.179l5.84,13.61c0.942,2.197,3.487,3.215,5.684,2.27l0,0
					c2.197-0.939,3.213-3.484,2.273-5.682l-5.839-13.61L492.41,671.179z"/>
			</g>
			<g>
				<g>
					<polygon fill="#CCCCCC" points="500.368,667.767 497.36,660.754 590.934,601.36 641.136,607.386 					"/>
					<path fill="#B57959" d="M468.21,681.601c-1.422-3.311,0.153-7.049,3.47-8.469l20.521-8.804l2.499,5.829L468.21,681.601z"/>
					<path fill="#D38F62" d="M492.41,671.179l-5.85-13.643c-0.941-2.197,0.073-4.741,2.271-5.684l0,0
						c2.198-0.942,4.743,0.074,5.684,2.27l5.853,13.645L492.41,671.179z"/>
				</g>
				<g opacity="0.3">
					<polygon points="500.159,667.856 497.062,660.635 590.783,601.302 641.136,607.386 					"/>
					<path d="M468.062,681.544c-1.419-3.313,0.302-6.992,3.618-8.412l20.312-8.714l2.411,5.621L468.062,681.544z"/>
					<path d="M492.201,671.27l-5.94-13.852c-0.942-2.199,0.075-4.743,2.271-5.686l0,0c2.198-0.942,4.742,0.073,5.683,2.271
						l5.944,13.854L492.201,671.27z"/>
				</g>
			</g>
		</g>
		<path opacity="0.7" fill="#FFFFFF" d="M589.377,643.345c0,0,15.221-6.749,20.044-4.921c5.07,1.929,12.328,17.857,12.328,17.857
			s-7.748-15.786-5.909-20.608c1.93-5.05,18.845-11.758,18.845-11.758s-16.83,6.757-21.955,4.5
			c-4.646-2.049-10.413-17.44-10.413-17.44s6.161,16.189,4.069,21.148C604.409,636.818,589.377,643.345,589.377,643.345z"/>
	</g>
</g>
</svg>
