<?xml version="1.0" encoding="utf-8"?>
<!-- Generator: Adobe Illustrator 16.0.0, SVG Export Plug-In . SVG Version: 6.00 Build 0)  -->
<!DOCTYPE svg PUBLIC "-//W3C//DTD SVG 1.1//EN" "http://www.w3.org/Graphics/SVG/1.1/DTD/svg11.dtd">
<svg version="1.1" id="Layer_1" xmlns="http://www.w3.org/2000/svg" xmlns:xlink="http://www.w3.org/1999/xlink" x="0px" y="0px"
	 width="1280px" height="800px" viewBox="0 0 1280 800" enable-background="new 0 0 1280 800" xml:space="preserve">
<g opacity="0.3">
	<g>
		<path fill="#7CD6E5" d="M-12.245,474.826c0,0.008,0.011,0.03,0.029,0.062v-0.06L-12.245,474.826z"/>
		<path fill="#7CD6E5" d="M1207.079,474.764L1207.079,474.764c-41.638-47.715-77.062-0.505-77.062,0.001v-0.001
			c-41.017,47.717-75.816,0.506-75.816,0v0.001c-41.639-47.716-76.438-0.506-76.438,0v-0.001c-42.261,47.717-76.439,0.506-76.439,0
			v0.001c-41.639-47.716-77.062-0.506-77.062,0v-0.001c-41.017,47.717-75.815,0.506-75.815,0v0.001
			c-42.262-47.716-76.445-0.506-76.445,0l-0.025,0.062c-13.429,15.332-26.115,20.854-37.155,21.286
			c-21.242-1.459-35.523-21.024-35.523-21.35v0.001c-41.638-47.716-77.061-0.506-77.061,0v-0.001
			c-41.018,47.717-75.819,0.506-75.819,0v0.001c-41.637-47.716-76.439-0.506-76.439,0v-0.001c-42.257,47.717-76.438,0.506-76.438,0
			v0.001c-41.638-47.716-77.061-0.506-77.061,0v-0.001c-41.017,47.717-75.818,0.506-75.818,0v0.001
			c-42.258-47.716-76.444-0.506-76.444,0l0.082,0.062C23.187,521.771-10,476.837-12,474.888v352.937V828h607.567h78.594h607.784
			l1.641-353.207C1241.854,522.51,1207.079,475.27,1207.079,474.764z"/>
	</g>
	<g>
		<path fill="#46BCE0" d="M-94.277,532.621c0,0.01,0.011,0.03,0.028,0.062v-0.061L-94.277,532.621z"/>
		<path fill="#46BCE0" d="M2340.613,532.559L2340.613,532.559c-41.637-47.716-77.062-0.505-77.062,0.001v-0.001
			c-41.016,47.717-75.815,0.508-75.815,0v0.001c-41.639-47.717-76.439-0.506-76.439,0v-0.001c-42.26,47.717-76.438,0.508-76.438,0
			v0.001c-41.638-47.717-77.062-0.506-77.062,0v-0.001c-41.018,47.717-75.818,0.508-75.818,0v0.001
			c-42.258-47.717-76.442-0.506-76.442,0l-0.024,0.062c-13.429,15.333-26.116,20.854-37.156,21.284
			c-21.242-1.454-35.524-21.022-35.524-21.348v0.001c-41.637-47.717-77.062-0.506-77.062,0v-0.001
			c-41.016,47.717-75.816,0.508-75.816,0v0.001c-41.637-47.717-76.439-0.506-76.439,0v-0.001c-42.258,47.717-76.438,0.508-76.438,0
			v0.001c-41.639-47.717-77.061-0.506-77.061,0v-0.001c-41.016,47.717-75.816,0.508-75.816,0v0.001
			c-42.259-47.717-76.443-0.506-76.443,0l-0.027,0.062c-13.402,15.307-26.07,20.842-37.099,21.286
			c-21.271-1.424-35.58-21.023-35.58-21.35v0.001c-41.639-47.717-77.062-0.506-77.062,0v-0.001
			c-41.016,47.717-75.816,0.508-75.816,0v0.001c-41.638-47.717-76.439-0.506-76.439,0v-0.001c-42.258,47.717-76.438,0.508-76.438,0
			v0.001c-41.637-47.717-77.06-0.506-77.06,0v-0.001c-41.017,47.717-75.817,0.508-75.817,0v0.001
			c-42.259-47.717-76.444-0.506-76.444,0l-0.025,0.062c-13.428,15.333-26.115,20.854-37.156,21.284
			c-21.243-1.454-35.522-21.022-35.522-21.348v0.001c-41.639-47.717-77.062-0.506-77.062,0v-0.001
			c-41.017,47.717-75.819,0.508-75.819,0v0.001c-41.636-47.717-76.438-0.506-76.438,0v-0.001c-42.258,47.717-76.439,0.508-76.439,0
			v0.001c-41.638-47.717-77.06-0.506-77.06,0v-0.001c-41.017,47.717-75.818,0.508-75.818,0v0.001
			c-42.259-47.717-76.445-0.506-76.445,0l-0.4,0.062C-59.33,579.567-94,534.631-95,532.684V885.62V886h608.534h78.595h529.189
			h78.593H1729.1h78.597h607.782l1.643-353.308C2375.389,580.407,2340.613,533.065,2340.613,532.559z"/>
	</g>
	<g>
		<path fill="#5692CC" d="M-164.5,603.468c0,0.008,0.008,0.028,0.027,0.062v-0.061L-164.5,603.468z"/>
		<path fill="#5692CC" d="M2270.389,603.405L2270.389,603.405c-41.638-47.716-77.061-0.506-77.061,0.001v-0.001
			c-41.018,47.717-75.818,0.505-75.818,0v0.001c-41.636-47.717-76.438-0.507-76.438,0v-0.001c-42.26,47.717-76.439,0.505-76.439,0
			v0.001c-41.639-47.717-77.061-0.507-77.061,0v-0.001c-41.018,47.717-75.817,0.505-75.817,0v0.001
			c-42.261-47.717-76.443-0.507-76.443,0l-0.025,0.062c-13.43,15.332-26.114,20.854-37.156,21.284
			c-21.243-1.456-35.523-21.021-35.523-21.347v0.001c-41.638-47.717-77.061-0.507-77.061,0v-0.001
			c-41.017,47.717-75.816,0.505-75.816,0v0.001c-41.639-47.717-76.439-0.507-76.439,0v-0.001c-42.259,47.717-76.438,0.505-76.438,0
			v0.001c-41.638-47.717-77.061-0.507-77.061,0v-0.001c-41.017,47.717-75.818,0.505-75.818,0v0.001
			c-42.26-47.717-76.443-0.507-76.443,0l-0.024,0.062c-13.405,15.307-26.072,20.84-37.101,21.288
			c-21.271-1.428-35.579-21.024-35.579-21.351v0.001c-41.64-47.717-77.061-0.507-77.061,0v-0.001
			c-41.018,47.717-75.819,0.505-75.819,0v0.001c-41.637-47.717-76.438-0.507-76.438,0v-0.001c-42.26,47.717-76.439,0.505-76.439,0
			v0.001c-41.639-47.717-77.062-0.507-77.062,0v-0.001c-41.014,47.717-75.816,0.505-75.816,0v0.001
			c-42.258-47.717-76.443-0.507-76.443,0l-0.025,0.062c-13.427,15.332-26.115,20.854-37.157,21.284
			c-21.24-1.456-35.522-21.021-35.522-21.347v0.001c-41.638-47.717-77.061-0.507-77.061,0v-0.001
			c-41.015,47.717-75.816,0.505-75.816,0v0.001c-41.639-47.717-76.439-0.507-76.439,0v-0.001c-42.26,47.717-76.44,0.505-76.44,0
			v0.001c-41.637-47.717-77.06-0.507-77.06,0v-0.001c-41.017,47.717-75.817,0.505-75.817,0v0.001
			c-42.26-47.717-76.444-0.507-76.444,0l0.21,0.062c-41.112,46.945-75.171,2.011-76.171,0.062v352.936V957h607.309h78.597h529.188
			h78.594h529.189h78.595h607.784l1.64-353.387C2305.164,651.331,2270.389,603.91,2270.389,603.405z"/>
	</g>
</g>
<path opacity="0.3" fill="#1C6CAF" d="M2047,675.494v0.002c-43-47.717-78-0.507-78,0v-0.002c-41,47.717-76,0.506-76,0v0.002
	c-42-47.717-75-0.507-75,0v-0.002c-44,47.717-78,0.506-78,0v0.002c-41-47.717-77-0.507-77,0v-0.002c-41,47.717-75,0.506-75,0v0.002
	c-43-47.717-76.74-0.507-76.74,0l-0.173,0.062c-13.428,15.332-26.319,20.855-37.36,21.282c-21.24-1.456-35.727-21.021-35.727-21.346
	v0.002c-41-47.717-77-0.507-77,0v-0.002c-41,47.717-77,0.506-77,0v0.002c-40-47.717-74-0.507-74,0v-0.002c-43,47.717-77,0.506-77,0
	v0.002c-42-47.717-77-0.507-77,0v-0.002c-43,47.717-76,0.506-76,0v0.002c-43-47.717-76.63-0.507-76.63,0l-0.118,0.062
	c-13.406,15.304-26.356,20.84-37.386,21.285C844.593,695.418,830,675.819,830,675.494v0.002c-41-47.717-77-0.507-77,0v-0.002
	c-41,47.717-75,0.506-75,0v0.002c-43-47.717-77-0.507-77,0v-0.002c-41,47.717-76,0.506-76,0v0.002c-41-47.717-78-0.507-78,0v-0.002
	c-40,47.717-76,0.506-76,0v0.002c-41-47.717-76.023-0.507-76.023,0l0.186,0.062c-13.428,15.332-25.856,20.855-36.898,21.282
	C237.022,695.384,223,675.819,223,675.494v0.002c-42-47.717-77-0.507-77,0v-0.002c-41,47.717-75,0.506-75,0v0.002
	c-43-47.717-77-0.507-77,0v-0.002c-42,47.717-78,0.506-78,0v0.002c-41-47.717-76-0.507-76,0v-0.002c-42,47.717-75,0.506-75,0v0.002
	c-44-47.717-76.914-0.507-76.914,0l-0.353,0.062c-41.112,46.943-75.733,2.01-76.733,0.062v352.936V1029h607.964h78.595h529.189
	h78.594h529.188h78.596h607.782l2.122-353.344C2081.298,723.375,2047,676,2047,675.494z"/>
</svg>
