<?xml version="1.0" encoding="utf-8"?>
<!-- Generator: Adobe Illustrator 16.0.0, SVG Export Plug-In . SVG Version: 6.00 Build 0)  -->
<!DOCTYPE svg PUBLIC "-//W3C//DTD SVG 1.1//EN" "http://www.w3.org/Graphics/SVG/1.1/DTD/svg11.dtd">
<svg version="1.1" id="Layer_1" xmlns="http://www.w3.org/2000/svg" xmlns:xlink="http://www.w3.org/1999/xlink" x="0px" y="0px"
	 width="1000px" height="996.864px" viewBox="0 0 1000 996.864" enable-background="new 0 0 1000 996.864" xml:space="preserve">
<rect x="0" fill="#020202" width="1000" height="996.864"/>
<text transform="matrix(0.9317 -0.3632 0.3632 0.9317 322.1387 -113.8608)"><tspan x="0" y="0" fill="#FFFFFF" font-family="'Futura-CondensedMedium'" font-size="24.0094">Ka </tspan><tspan x="24.549" y="0" fill="#FFFFFF" font-family="'Futura-CondensedLight'" font-size="24.0094">(3150–3100 B.C.)</tspan></text>
<text transform="matrix(0.9219 -0.3875 0.3875 0.9219 300.0142 -70.5923)"><tspan x="0" y="0" fill="#FFFFFF" font-family="'Futura-CondensedMedium'" font-size="24.0095">Narmer </tspan><tspan x="62.017" y="0" fill="#FFFFFF" font-family="'Futura-CondensedLight'" font-size="24.0095">(3100–3050 B.C.)</tspan></text>
<text transform="matrix(0.9114 -0.4115 0.4115 0.9114 310.6738 -40.041)"><tspan x="0" y="0" fill="#FFFFFF" font-family="'Futura-CondensedMedium'" font-size="24.0094">Hor-Aha</tspan><tspan x="60.152" y="0" fill="#FFFFFF" font-family="'Futura-CondensedLight'" font-size="24.0094"> (3050–3049 B.C.)</tspan></text>
<text transform="matrix(0.9003 -0.4352 0.4352 0.9003 351.1338 -23.7441)"><tspan x="0" y="0" fill="#FFFFFF" font-family="'Futura-CondensedMedium'" font-size="24.0094">Djer</tspan><tspan x="31.207" y="0" fill="#FFFFFF" font-family="'Futura-CondensedLight'" font-size="24.0094"> (3049–3008 B.C.)</tspan></text>
<text transform="matrix(0.8886 -0.4586 0.4586 0.8886 366.8486 3.7378)"><tspan x="0" y="0" fill="#FFFFFF" font-family="'Futura-CondensedMedium'" font-size="24.0095">Djet</tspan><tspan x="30.129" y="0" fill="#FFFFFF" font-family="'Futura-CondensedLight'" font-size="24.0095"> (3008–2970 B.C.)</tspan></text>
<text transform="matrix(0.8763 -0.4817 0.4817 0.8763 369.0264 38.4961)"><tspan x="0" y="0" fill="#FFFFFF" font-family="'Futura-CondensedMedium'" font-size="24.0096">Merneith </tspan><tspan x="72.322" y="0" fill="#FFFFFF" font-family="'Futura-CondensedLight'" font-size="24.0096">(c.a. 2970 B.C.)</tspan></text>
<text transform="matrix(0.8634 -0.5045 0.5045 0.8634 398.9766 57.9702)"><tspan x="0" y="0" fill="#FFFFFF" font-family="'Futura-CondensedMedium'" font-size="24.0096">Den </tspan><tspan x="34.713" y="0" fill="#FFFFFF" font-family="'Futura-CondensedLight'" font-size="24.0096">(2970–2930 B.C.)</tspan></text>
<text transform="matrix(0.8499 -0.5269 0.5269 0.8499 392.7959 98.812)"><tspan x="0" y="0" fill="#FFFFFF" font-family="'Futura-CondensedMedium'" font-size="24.0095">Anedjib </tspan><tspan x="61.818" y="0" fill="#FFFFFF" font-family="'Futura-CondensedLight'" font-size="24.0095">(2930–2920 B.C.)</tspan></text>
<text transform="matrix(0.8358 -0.549 0.549 0.8358 390.4912 138.8379)"><tspan x="0" y="0" fill="#FFFFFF" font-family="'Futura-CondensedMedium'" font-size="24.0094">Semerkhet</tspan><tspan x="81.032" y="0" fill="#FFFFFF" font-family="'Futura-CondensedLight'" font-size="24.0094"> (2920–2910 B.C.)</tspan></text>
<text transform="matrix(0.8212 -0.5707 0.5707 0.8212 446.5459 139.9736)"><tspan x="0" y="0" fill="#FFFFFF" font-family="'Futura-CondensedMedium'" font-size="24.0095">Qa’a </tspan><tspan x="40.938" y="0" fill="#FFFFFF" font-family="'Futura-CondensedLight'" font-size="24.0095">(2910–2890 B.C.)</tspan></text>
<text transform="matrix(0.806 -0.592 0.592 0.806 394.811 217.2461)"><tspan x="0" y="0" fill="#FFFFFF" font-family="'Futura-CondensedMedium'" font-size="24.0094">Hotepsekhemwy </tspan><tspan x="128.687" y="0" fill="#FFFFFF" font-family="'Futura-CondensedLight'" font-size="24.0094">(2890–2840 B.C.)</tspan></text>
<text transform="matrix(0.7902 -0.6129 0.6129 0.7902 468.1538 203.4326)"><tspan x="0" y="0" fill="#FFFFFF" font-family="'Futura-CondensedMedium'" font-size="24.0095">Raneb </tspan><tspan x="52.603" y="0" fill="#FFFFFF" font-family="'Futura-CondensedLight'" font-size="24.0095">(2840 – 2825 B.C.)</tspan></text>
<text transform="matrix(0.7739 -0.6333 0.6333 0.7739 483.8447 232.2544)"><tspan x="0" y="0" fill="#FFFFFF" font-family="'Futura-CondensedMedium'" font-size="24.0094">Nynetjer </tspan><tspan x="68.991" y="0" fill="#FFFFFF" font-family="'Futura-CondensedLight'" font-size="24.0094">(2825–2775 B.C.)</tspan></text>
<text transform="matrix(0.757 -0.6534 0.6534 0.757 498.9648 262.1011)"><tspan x="0" y="0" fill="#FFFFFF" font-family="'Futura-CondensedMedium'" font-size="24.0096">Wadjenes</tspan><tspan x="72.427" y="0" fill="#FFFFFF" font-family="'Futura-CondensedLight'" font-size="24.0096"> (2775–2773 B.C.)</tspan></text>
<text transform="matrix(0.7397 -0.673 0.673 0.7397 537.2441 271.3848)"><tspan x="0" y="0" fill="#FFFFFF" font-family="'Futura-CondensedMedium'" font-size="24.0095">Senedj </tspan><tspan x="55.592" y="0" fill="#FFFFFF" font-family="'Futura-CondensedLight'" font-size="24.0095">(2773–2753 B.C.)</tspan></text>
<text transform="matrix(0.7218 -0.6921 0.6921 0.7218 549.6377 303.9033)"><tspan x="0" y="0" fill="#FFFFFF" font-family="'Futura-CondensedMedium'" font-size="24.0096">Peribsen </tspan><tspan x="69.626" y="0" fill="#FFFFFF" font-family="'Futura-CondensedLight'" font-size="24.0096">(2740–2710 B.C.)</tspan></text>
<text transform="matrix(0.7034 -0.7108 0.7108 0.7034 541.7842 357.9595)"><tspan x="0" y="0" fill="#FFFFFF" font-family="'Futura-CondensedMedium'" font-size="24.0096">Khasekhemwy</tspan><tspan x="108.864" y="0" fill="#FFFFFF" font-family="'Futura-CondensedLight'" font-size="24.0096"> (2710–2686 B.C.)</tspan></text>
<text transform="matrix(0.6846 -0.7289 0.7289 0.6846 608.4844 336.0166)"><tspan x="0" y="0" fill="#FFFFFF" font-family="'Futura-CondensedMedium'" font-size="24.0096">Djoser </tspan><tspan x="52.486" y="0" fill="#FFFFFF" font-family="'Futura-CondensedLight'" font-size="24.0096">(2686–2649 B.C.)</tspan></text>
<text transform="matrix(0.6653 -0.7466 0.7466 0.6653 601.7373 391.5605)"><tspan x="0" y="0" fill="#FFFFFF" font-family="'Futura-CondensedMedium'" font-size="24.0093">Sekhemkhet </tspan><tspan x="98.698" y="0" fill="#FFFFFF" font-family="'Futura-CondensedLight'" font-size="24.0093">(2649–2643 B.C.)</tspan></text>
<text transform="matrix(0.6455 -0.7638 0.7638 0.6455 656.7803 377.9629)"><tspan x="0" y="0" fill="#FFFFFF" font-family="'Futura-CondensedMedium'" font-size="24.0096">Khaba </tspan><tspan x="53.213" y="0" fill="#FFFFFF" font-family="'Futura-CondensedLight'" font-size="24.0096">(2643–2637 B.C.)</tspan></text>
<text transform="matrix(0.6253 -0.7804 0.7804 0.6253 689.8438 387.7476)"><tspan x="0" y="0" fill="#FFFFFF" font-family="'Futura-CondensedMedium'" font-size="24.0094">Huni </tspan><tspan x="40.457" y="0" fill="#FFFFFF" font-family="'Futura-CondensedLight'" font-size="24.0094">(2637–2613 B.C.)</tspan></text>
<text transform="matrix(0.6046 -0.7965 0.7965 0.6046 701.4482 425.0483)"><tspan x="0" y="0" fill="#FFFFFF" font-family="'Futura-CondensedMedium'" font-size="24.0095">Sneferu </tspan><tspan x="63.4" y="0" fill="#FFFFFF" font-family="'Futura-CondensedLight'" font-size="24.0095">(2613–2589 B.C.)</tspan></text>
<text transform="matrix(0.5836 -0.8121 0.8121 0.5836 735.5889 432.7466)"><tspan x="0" y="0" fill="#FFFFFF" font-family="'Futura-CondensedMedium'" font-size="24.0096">Khufu </tspan><tspan x="50.188" y="0" fill="#FFFFFF" font-family="'Futura-CondensedLight'" font-size="24.0096">(2589–2566 B.C.)</tspan></text>
<text transform="matrix(0.5621 -0.8271 0.8271 0.5621 751.0293 466.6953)"><tspan x="0" y="0" fill="#FFFFFF" font-family="'Futura-CondensedMedium'" font-size="24.0094">Djedefra </tspan><tspan x="69.86" y="0" fill="#FFFFFF" font-family="'Futura-CondensedLight'" font-size="24.0094">(2566–2558 B.C.)</tspan></text>
<text transform="matrix(0.5403 -0.8415 0.8415 0.5403 786.2871 471.8506)"><tspan x="0" y="0" fill="#FFFFFF" font-family="'Futura-CondensedMedium'" font-size="24.0093">Khafre </tspan><tspan x="55.416" y="0" fill="#FFFFFF" font-family="'Futura-CondensedLight'" font-size="24.0093">(2558–2532 B.C.)</tspan></text>
<text transform="matrix(0.5181 -0.8553 0.8553 0.5181 800.6973 510.1055)"><tspan x="0" y="0" fill="#FFFFFF" font-family="'Futura-CondensedMedium'" font-size="24.0096">Menkaure </tspan><tspan x="81.115" y="0" fill="#FFFFFF" font-family="'Futura-CondensedLight'" font-size="24.0096">(2532–2503 B.C.)</tspan></text>
<text transform="matrix(0.4955 -0.8686 0.8686 0.4955 827.4092 529.1606)"><tspan x="0" y="0" fill="#FFFFFF" font-family="'Futura-CondensedMedium'" font-size="24.0094">Shepseskaf</tspan><tspan x="84.713" y="0" fill="#FFFFFF" font-family="'Futura-CondensedLight'" font-size="24.0094">(2503–2498 B.C.)</tspan></text>
<text transform="matrix(0.4726 -0.8813 0.8813 0.4726 869.0918 521.0664)"><tspan x="0" y="0" fill="#FFFFFF" font-family="'Futura-CondensedMedium'" font-size="24.0095">Userkaf</tspan><tspan x="58.182" y="0" fill="#FFFFFF" font-family="'Futura-CondensedLight'" font-size="24.0095">(2498–2491 B.C.)</tspan></text>
<text transform="matrix(0.4494 -0.8933 0.8933 0.4494 898.0215 535.2881)"><tspan x="0" y="0" fill="#FFFFFF" font-family="'Futura-CondensedMedium'" font-size="24.0096">Sahure </tspan><tspan x="58.136" y="0" fill="#FFFFFF" font-family="'Futura-CondensedLight'" font-size="24.0096">(2491–2477 B.C.)</tspan></text>
<text transform="matrix(0.4258 -0.9048 0.9048 0.4258 913.0264 578.835)"><tspan x="0" y="0" fill="#FFFFFF" font-family="'Futura-CondensedMedium'" font-size="24.0096">Neferirkare </tspan><tspan x="91.513" y="0.001" fill="#FFFFFF" font-family="'Futura-CondensedLight'" font-size="24.0096">(2477–2467 B.C.)</tspan></text>
<text transform="matrix(0.402 -0.9156 0.9156 0.402 940.3203 598.6826)"><tspan x="0" y="0" fill="#FFFFFF" font-family="'Futura-CondensedMedium'" font-size="24.0096">Shepseskare</tspan><tspan x="94.092" y="0" fill="#FFFFFF" font-family="'Futura-CondensedLight'" font-size="24.0096"> (2467–2460 B.C.)</tspan></text>
<text transform="matrix(0.3779 -0.9259 0.9259 0.3779 979.7188 589.7412)"><tspan x="0" y="0" fill="#FFFFFF" font-family="'Futura-CondensedMedium'" font-size="24.0094">Neferefre</tspan><tspan x="71.231" y="0.001" fill="#FFFFFF" font-family="'Futura-CondensedLight'" font-size="24.0094"> (2460–2425 B.C.)</tspan></text>
<text transform="matrix(0.3535 -0.9354 0.9354 0.3535 1003.0254 620.4414)"><tspan x="0" y="0" fill="#FFFFFF" font-family="'Futura-CondensedMedium'" font-size="24.0096">Nyuserre Ini </tspan><tspan x="97.081" y="-0.001" fill="#FFFFFF" font-family="'Futura-CondensedLight'" font-size="24.0096">(2425–2422 B.C.)</tspan></text>
<text transform="matrix(0.3289 -0.9444 0.9444 0.3289 1036.3359 625.6055)"><tspan x="0" y="0" fill="#FFFFFF" font-family="'Futura-CondensedMedium'" font-size="24.0095">Menkauhor </tspan><tspan x="91.231" y="-0.001" fill="#FFFFFF" font-family="'Futura-CondensedLight'" font-size="24.0095">(2422–2414 B.C.)</tspan></text>
<text transform="matrix(0.3041 -0.9526 0.9526 0.3041 1073.3828 618.3252)"><tspan x="0" y="0" fill="#FFFFFF" font-family="'Futura-CondensedMedium'" font-size="24.0096">Djedkare </tspan><tspan x="73.366" y="0" fill="#FFFFFF" font-family="'Futura-CondensedLight'" font-size="24.0096">(2414–2375 B.C.)</tspan></text>
<text transform="matrix(0.279 -0.9603 0.9603 0.279 1113.3018 597.3359)"><tspan x="0" y="0" fill="#FFFFFF" font-family="'Futura-CondensedMedium'" font-size="24.0094">Unas </tspan><tspan x="42.333" y="0" fill="#FFFFFF" font-family="'Futura-CondensedLight'" font-size="24.0094">(2375–2345 B.C.)</tspan></text>
<path fill="none" stroke="#FFFFFF" stroke-width="0.5" stroke-miterlimit="10" d="M2661.812-1027.842
	c250.697,682.846-99.628,1439.63-782.476,1690.326C1196.494,913.179,439.708,562.854,189.012-119.992
	c-250.695-682.845,99.631-1439.629,782.476-1690.325C1655.341-2061.383,2410.932-1711.193,2661.812-1027.842z"/>
<line fill="none" stroke="#FFFFFF" stroke-width="0.5" stroke-miterlimit="10" x1="198.511" y1="-94.117" x2="-84.312" y2="135.25"/>
<line fill="none" stroke="#FFFFFF" stroke-width="0.5" stroke-miterlimit="10" x1="-16.806" y1="264.051" x2="210.4" y2="-61.735"/>
<line fill="none" stroke="#FFFFFF" stroke-width="0.5" stroke-miterlimit="10" x1="224.113" y1="-30.062" x2="61.669" y2="386.477"/>
<line fill="none" stroke="#FFFFFF" stroke-width="0.5" stroke-miterlimit="10" x1="240.114" y1="0.575" x2="61.669" y2="386.477"/>
<line fill="none" stroke="#FFFFFF" stroke-width="0.5" stroke-miterlimit="10" x1="254.57" y1="29.579" x2="139.37" y2="485.724"/>
<line fill="none" stroke="#FFFFFF" stroke-width="0.5" stroke-miterlimit="10" x1="271.732" y1="61.876" x2="205.184" y2="563.106"/>
<line fill="none" stroke="#FFFFFF" stroke-width="0.5" stroke-miterlimit="10" x1="288.143" y1="90.867" x2="205.184" y2="563.106"/>
<line fill="none" stroke="#FFFFFF" stroke-width="0.5" stroke-miterlimit="10" x1="305.778" y1="121.775" x2="283.566" y2="641.7"/>
<line fill="none" stroke="#FFFFFF" stroke-width="0.5" stroke-miterlimit="10" x1="325.072" y1="150.477" x2="309.606" y2="663.666"/>
<line fill="none" stroke="#FFFFFF" stroke-width="0.5" stroke-miterlimit="10" x1="343.993" y1="178.476" x2="339.049" y2="691.438"/>
<line fill="none" stroke="#FFFFFF" stroke-width="0.5" stroke-miterlimit="10" x1="364.367" y1="206.731" x2="379.885" y2="725.318"/>
<line fill="none" stroke="#FFFFFF" stroke-width="0.5" stroke-miterlimit="10" x1="384.686" y1="233.89" x2="497.213" y2="811.404"/>
<line fill="none" stroke="#FFFFFF" stroke-width="0.5" stroke-miterlimit="10" x1="405.769" y1="262.368" x2="532.148" y2="834.141"/>
<line fill="none" stroke="#FFFFFF" stroke-width="0.5" stroke-miterlimit="10" x1="653.994" y1="902.39" x2="451.679" y2="313.374"/>
<line fill="none" stroke="#FFFFFF" stroke-width="0.5" stroke-miterlimit="10" x1="476.562" y1="340.013" x2="715.14" y2="934.629"/>
<line fill="none" stroke="#FFFFFF" stroke-width="0.5" stroke-miterlimit="10" x1="483.035" y1="346.69" x2="746.946" y2="949.192"/>
<line fill="none" stroke="#FFFFFF" stroke-width="0.5" stroke-miterlimit="10" x1="885.525" y1="1003.675" x2="525.23" y2="387.933"/>
<line fill="none" stroke="#FFFFFF" stroke-width="0.5" stroke-miterlimit="10" x1="550.366" y1="410.319" x2="997.514" y2="1037.881"/>
<line fill="none" stroke="#FFFFFF" stroke-width="0.5" stroke-miterlimit="10" x1="1025.979" y1="1045.045" x2="576.212" y2="433.149"/>
<line fill="none" stroke="#FFFFFF" stroke-width="0.5" stroke-miterlimit="10" x1="603.629" y1="455.604" x2="1039.969" y2="1048.126"/>
<line fill="none" stroke="#FFFFFF" stroke-width="0.5" stroke-miterlimit="10" x1="630.134" y1="476.174" x2="1109.592" y2="1063.479"/>
<line fill="none" stroke="#FFFFFF" stroke-width="0.5" stroke-miterlimit="10" x1="657.923" y1="496.611" x2="1165.261" y2="1073.283"/>
<line fill="none" stroke="#FFFFFF" stroke-width="0.5" stroke-miterlimit="10" x1="1235.782" y1="1082.932" x2="687.217" y2="516.98"/>
<line fill="none" stroke="#FFFFFF" stroke-width="0.5" stroke-miterlimit="10" x1="714.908" y1="535.49" x2="1266.475" y2="1086.174"/>
<line fill="none" stroke="#FFFFFF" stroke-width="0.5" stroke-miterlimit="10" x1="743.567" y1="552.996" x2="1317.139" y2="1090.268"/>
<line fill="none" stroke="#FFFFFF" stroke-width="0.5" stroke-miterlimit="10" x1="774.119" y1="570.906" x2="1416.592" y2="1093.775"/>
<line fill="none" stroke="#FFFFFF" stroke-width="0.5" stroke-miterlimit="10" x1="804.327" y1="587.556" x2="1434.311" y2="1093.775"/>
<line fill="none" stroke="#FFFFFF" stroke-width="0.5" stroke-miterlimit="10" x1="834.962" y1="603.411" x2="1437.376" y2="1093.754"/>
<line fill="none" stroke="#FFFFFF" stroke-width="0.5" stroke-miterlimit="10" x1="864.028" y1="617.542" x2="1485.593" y2="1092.693"/>
<line fill="none" stroke="#FFFFFF" stroke-width="0.5" stroke-miterlimit="10" x1="896.957" y1="633.69" x2="1518.292" y2="1091.178"/>
<line fill="none" stroke="#FFFFFF" stroke-width="0.5" stroke-miterlimit="10" x1="927.297" y1="645.354" x2="1553.227" y2="1088.829"/>
<line fill="none" stroke="#FFFFFF" stroke-width="0.5" stroke-miterlimit="10" x1="961.143" y1="659.13" x2="1642.59" y2="1079.451"/>
<line fill="none" stroke="#FFFFFF" stroke-width="0.5" stroke-miterlimit="10" x1="993.558" y1="670.966" x2="1657.979" y2="1077.203"/>
<line fill="none" stroke="#FFFFFF" stroke-width="0.5" stroke-miterlimit="10" x1="1029.182" y1="682.225" x2="1675.274" y2="1074.783"/>
<line fill="none" stroke="#FFFFFF" stroke-width="0.5" stroke-miterlimit="10" x1="1060.799" y1="691.794" x2="1786.536" y2="1053.874"/>
<line fill="none" stroke="#FFFFFF" stroke-width="0.5" stroke-miterlimit="10" x1="1089.034" y1="699.61" x2="1876.337" y2="1031.179"/>
<line fill="none" stroke="#FFFFFF" stroke-width="0.5" stroke-miterlimit="10" x1="1909.776" y1="1021.441" x2="1125.25" y2="708.347"/>
<g>
	
		<text transform="matrix(0.9387 -0.3446 0.3446 0.9387 -230.7246 33.6689)" fill="#FFFFFF" font-family="'Futura-CondensedLight'" font-size="54.8789">3200</text>
	
		<text transform="matrix(0.9051 -0.4252 0.4252 0.9051 -171.4551 175.6182)" fill="#FFFFFF" font-family="'Futura-CondensedLight'" font-size="54.8786">3150</text>
	
		<text transform="matrix(0.8646 -0.5024 0.5024 0.8646 -99.9541 311.998)" fill="#FFFFFF" font-family="'Futura-CondensedLight'" font-size="54.879">3100</text>
	
		<text transform="matrix(0.8175 -0.5759 0.5759 0.8175 -16.8887 441.5854)" fill="#FFFFFF" font-family="'Futura-CondensedLight'" font-size="54.8791">3050</text>
	
		<text transform="matrix(0.7642 -0.6449 0.6449 0.7642 77.0654 563.3926)" fill="#FFFFFF" font-family="'Futura-CondensedLight'" font-size="54.8787">3000</text>
	
		<text transform="matrix(0.7051 -0.7091 0.7091 0.7051 181.4136 676.5781)" fill="#FFFFFF" font-family="'Futura-CondensedLight'" font-size="54.879">2950</text>
	
		<text transform="matrix(0.6406 -0.7678 0.7678 0.6406 295.1846 780.2695)" fill="#FFFFFF" font-family="'Futura-CondensedLight'" font-size="54.8791">2900</text>
	
		<text transform="matrix(0.5713 -0.8208 0.8208 0.5713 417.4971 873.541)" fill="#FFFFFF" font-family="'Futura-CondensedLight'" font-size="54.8789">2850</text>
	
		<text transform="matrix(0.4976 -0.8674 0.8674 0.4976 547.4932 955.8613)" fill="#FFFFFF" font-family="'Futura-CondensedLight'" font-size="54.8788">2800</text>
	
		<text transform="matrix(0.4201 -0.9075 0.9075 0.4201 684.29 1026.5859)" fill="#FFFFFF" font-family="'Futura-CondensedLight'" font-size="54.8791">2750</text>
	
		<text transform="matrix(0.3394 -0.9406 0.9406 0.3394 826.584 1085.1582)" fill="#FFFFFF" font-family="'Futura-CondensedLight'" font-size="54.8788">2700</text>
	
		<text transform="matrix(0.2561 -0.9666 0.9666 0.2561 973.5146 1131.0098)" fill="#FFFFFF" font-family="'Futura-CondensedLight'" font-size="54.8789">2650</text>
	
		<text transform="matrix(0.1709 -0.9853 0.9853 0.1709 1123.8633 1163.8135)" fill="#FFFFFF" font-family="'Futura-CondensedLight'" font-size="54.8791">2600</text>
	
		<text transform="matrix(0.9459 0.3245 -0.3245 0.9459 -233.4243 -1174.1514)" fill="#FFFFFF" font-family="'Futura-CondensedLight'" font-size="54.8791">0</text>
	
		<text transform="matrix(0.914 0.4057 -0.4057 0.914 -174.8076 -1316.5303)" fill="#FFFFFF" font-family="'Futura-CondensedLight'" font-size="54.879">50</text>
	
		<text transform="matrix(0.8752 0.4838 -0.4838 0.8752 -103.9243 -1453.2661)" fill="#FFFFFF" font-family="'Futura-CondensedLight'" font-size="54.8788">100</text>
	
		<text transform="matrix(0.8297 0.5583 -0.5583 0.8297 -21.4795 -1583.3252)" fill="#FFFFFF" font-family="'Futura-CondensedLight'" font-size="54.8786">150</text>
	
		<text transform="matrix(0.7778 0.6285 -0.6285 0.7778 72.0874 -1705.5713)" fill="#FFFFFF" font-family="'Futura-CondensedLight'" font-size="54.8789">200</text>
	
		<text transform="matrix(0.7201 0.6939 -0.6939 0.7201 175.8438 -1819.2715)" fill="#FFFFFF" font-family="'Futura-CondensedLight'" font-size="54.8789">250</text>
	
		<text transform="matrix(0.6569 0.754 -0.754 0.6569 289.1909 -1923.5073)" fill="#FFFFFF" font-family="'Futura-CondensedLight'" font-size="54.8788">300</text>
	
		<text transform="matrix(0.5887 0.8084 -0.8084 0.5887 411.1401 -2017.501)" fill="#FFFFFF" font-family="'Futura-CondensedLight'" font-size="54.8787">350</text>
	
		<text transform="matrix(0.516 0.8566 -0.8566 0.516 540.8164 -2100.375)" fill="#FFFFFF" font-family="'Futura-CondensedLight'" font-size="54.8791">400</text>
	
		<text transform="matrix(0.4394 0.8983 -0.8983 0.4394 677.2666 -2171.6992)" fill="#FFFFFF" font-family="'Futura-CondensedLight'" font-size="54.8791">450</text>
	
		<text transform="matrix(0.3594 0.9332 -0.9332 0.3594 819.3398 -2230.9082)" fill="#FFFFFF" font-family="'Futura-CondensedLight'" font-size="54.8791">500</text>
	
		<text transform="matrix(0.2767 0.961 -0.961 0.2767 966.1348 -2277.4414)" fill="#FFFFFF" font-family="'Futura-CondensedLight'" font-size="54.8791">550</text>
	
		<text transform="matrix(0.1919 0.9814 -0.9814 0.1919 1116.4502 -2311.127)" fill="#FFFFFF" font-family="'Futura-CondensedLight'" font-size="54.8786">600</text>
	
		<text transform="matrix(0.1056 0.9944 -0.9944 0.1056 1268.9922 -2331.4531)" fill="#FFFFFF" font-family="'Futura-CondensedLight'" font-size="54.879">650</text>
	
		<text transform="matrix(0.0186 0.9998 -0.9998 0.0186 1422.7549 -2338.5122)" fill="#FFFFFF" font-family="'Futura-CondensedLight'" font-size="54.8789">700</text>
	
		<text transform="matrix(-0.0686 0.9976 -0.9976 -0.0686 1576.6318 -2332.0596)" fill="#FFFFFF" font-family="'Futura-CondensedLight'" font-size="54.8788">750</text>
	
		<text transform="matrix(-0.1553 0.9879 -0.9879 -0.1553 1729.3018 -2312.2939)" fill="#FFFFFF" font-family="'Futura-CondensedLight'" font-size="54.8787">800</text>
	
		<text transform="matrix(0.2566 -0.9665 0.9665 0.2566 1898.6641 -2178.7363)" fill="#FFFFFF" font-family="'Futura-CondensedLight'" font-size="54.879">  850</text>
	
		<text transform="matrix(0.3399 -0.9405 0.9405 0.3399 2036.6289 -2131.3311)" fill="#FFFFFF" font-family="'Futura-CondensedLight'" font-size="54.8786">  900</text>
	
		<text transform="matrix(0.4206 -0.9073 0.9073 0.4206 2170.0371 -2072.1309)" fill="#FFFFFF" font-family="'Futura-CondensedLight'" font-size="54.8787">  950</text>
	
		<text transform="matrix(0.498 -0.8672 0.8672 0.498 2297.7109 -2001.5503)" fill="#FFFFFF" font-family="'Futura-CondensedLight'" font-size="54.8786">1000</text>
	
		<text transform="matrix(0.5717 -0.8204 0.8204 0.5717 2418.8691 -1920.0161)" fill="#FFFFFF" font-family="'Futura-CondensedLight'" font-size="54.879">1050</text>
	
		<text transform="matrix(0.6411 -0.7675 0.7675 0.6411 2532.3389 -1828.3457)" fill="#FFFFFF" font-family="'Futura-CondensedLight'" font-size="54.8788">1100</text>
	
		<text transform="matrix(0.7055 -0.7087 0.7087 0.7055 2637.4277 -1727.1313)" fill="#FFFFFF" font-family="'Futura-CondensedLight'" font-size="54.8789">1150</text>
	
		<text transform="matrix(0.7646 -0.6445 0.6445 0.7646 2733.2354 -1617.0693)" fill="#FFFFFF" font-family="'Futura-CondensedLight'" font-size="54.8786">1200</text>
	
		<text transform="matrix(0.8179 -0.5754 0.5754 0.8179 2819.1807 -1499.1533)" fill="#FFFFFF" font-family="'Futura-CondensedLight'" font-size="54.8788">1250</text>
	
		<text transform="matrix(0.8649 -0.502 0.502 0.8649 2894.5127 -1374.1426)" fill="#FFFFFF" font-family="'Futura-CondensedLight'" font-size="54.8789">1300</text>
	
		<text transform="matrix(0.9053 -0.4247 0.4247 0.9053 2958.6074 -1243.0391)" fill="#FFFFFF" font-family="'Futura-CondensedLight'" font-size="54.8789">1350</text>
	
		<text transform="matrix(0.9389 -0.3441 0.3441 0.9389 3011.0459 -1106.835)" fill="#FFFFFF" font-family="'Futura-CondensedLight'" font-size="54.8789">1400</text>
	
		<text transform="matrix(0.9653 -0.261 0.261 0.9653 3051.4629 -966.6338)" fill="#FFFFFF" font-family="'Futura-CondensedLight'" font-size="54.8789">1450</text>
	
		<text transform="matrix(0.9844 -0.1759 0.1759 0.9844 3079.4521 -823.3789)" fill="#FFFFFF" font-family="'Futura-CondensedLight'" font-size="54.879">1500</text>
	
		<text transform="matrix(0.996 -0.0894 0.0894 0.996 3094.8564 -678.2773)" fill="#FFFFFF" font-family="'Futura-CondensedLight'" font-size="54.8789">1550</text>
	
		<text transform="matrix(1 -0.0023 0.0023 1 3097.5674 -532.3247)" fill="#FFFFFF" font-family="'Futura-CondensedLight'" font-size="54.879">1600</text>
	
		<text transform="matrix(0.9964 0.0849 -0.0849 0.9964 3087.4756 -386.7998)" fill="#FFFFFF" font-family="'Futura-CondensedLight'" font-size="54.8787">1650</text>
	
		<text transform="matrix(0.9852 0.1714 -0.1714 0.9852 3064.8438 -242.627)" fill="#FFFFFF" font-family="'Futura-CondensedLight'" font-size="54.8789">1700</text>
	
		<text transform="matrix(0.9665 0.2566 -0.2566 0.9665 3029.7305 -100.998)" fill="#FFFFFF" font-family="'Futura-CondensedLight'" font-size="54.879">1750</text>
	
		<text transform="matrix(0.9405 0.3399 -0.3399 0.9405 2982.3311 36.9668)" fill="#FFFFFF" font-family="'Futura-CondensedLight'" font-size="54.8786">1800</text>
	
		<text transform="matrix(0.9073 0.4206 -0.4206 0.9073 2923.1309 170.375)" fill="#FFFFFF" font-family="'Futura-CondensedLight'" font-size="54.8787">1850</text>
	
		<text transform="matrix(0.8672 0.498 -0.498 0.8672 2852.5479 298.0479)" fill="#FFFFFF" font-family="'Futura-CondensedLight'" font-size="54.8786">1900</text>
	
		<text transform="matrix(0.8204 0.5717 -0.5717 0.8204 2771.0156 419.208)" fill="#FFFFFF" font-family="'Futura-CondensedLight'" font-size="54.879">1950</text>
	
		<text transform="matrix(0.7675 0.6411 -0.6411 0.7675 2679.3438 532.6758)" fill="#FFFFFF" font-family="'Futura-CondensedLight'" font-size="54.8788">2000</text>
	
		<text transform="matrix(0.7087 0.7055 -0.7055 0.7087 2578.1318 637.7656)" fill="#FFFFFF" font-family="'Futura-CondensedLight'" font-size="54.8789">2050</text>
	
		<text transform="matrix(0.6445 0.7646 -0.7646 0.6445 2468.0684 733.5723)" fill="#FFFFFF" font-family="'Futura-CondensedLight'" font-size="54.8786">2100</text>
	
		<text transform="matrix(0.5754 0.8179 -0.8179 0.5754 2350.1543 819.5176)" fill="#FFFFFF" font-family="'Futura-CondensedLight'" font-size="54.8788">2150</text>
	
		<text transform="matrix(0.502 0.8649 -0.8649 0.502 2225.1406 894.8506)" fill="#FFFFFF" font-family="'Futura-CondensedLight'" font-size="54.8789">2200</text>
	
		<text transform="matrix(0.4247 0.9053 -0.9053 0.4247 2094.0449 958.9463)" fill="#FFFFFF" font-family="'Futura-CondensedLight'" font-size="54.8789">2250</text>
	
		<text transform="matrix(0.3441 0.9389 -0.9389 0.3441 1957.8389 1011.3857)" fill="#FFFFFF" font-family="'Futura-CondensedLight'" font-size="54.8789">2300</text>
	
		<text transform="matrix(-0.2645 -0.9644 0.9644 -0.2645 1881.2646 1128.6748)" fill="#FFFFFF" font-family="'Futura-CondensedLight'" font-size="54.879">2350</text>
	
		<text transform="matrix(-0.1532 -0.9882 0.9882 -0.1532 1730.6387 1161.8955)" fill="#FFFFFF" font-family="'Futura-CondensedLight'" font-size="54.879">2400</text>
	
		<text transform="matrix(-0.0869 -0.9962 0.9962 -0.0869 1580.3398 1180.4023)" fill="#FFFFFF" font-family="'Futura-CondensedLight'" font-size="54.8787">2450</text>
	
		<text transform="matrix(0.0077 -1 1 0.0077 1426.3467 1188.1055)" fill="#FFFFFF" font-family="'Futura-CondensedLight'" font-size="54.8789">2500</text>
	
		<text transform="matrix(0.0739 -0.9973 0.9973 0.0739 1271.9932 1181.5469)" fill="#FFFFFF" font-family="'Futura-CondensedLight'" font-size="54.8788">2550</text>
</g>
<g>
	<circle fill="none" stroke="#FFFFFF" stroke-miterlimit="10" cx="1424.339" cy="-573.833" r="1769.844"/>
	<circle fill="none" stroke="#FFFFFF" stroke-miterlimit="10" cx="1425.04" cy="-573.599" r="1666.946"/>
</g>
<g>
	<path fill="none" stroke="#FFFFFF" stroke-miterlimit="10" d="M-184.016-137.73"/>
	<path fill="none" stroke="#FFFFFF" stroke-miterlimit="10" d="M-283.932-110.659"/>
	<line fill="none" stroke="#FFFFFF" stroke-miterlimit="10" x1="-236.931" y1="36.519" x2="-140.337" y2="1.056"/>
	<line fill="none" stroke="#FFFFFF" stroke-miterlimit="10" x1="-177.45" y1="178.997" x2="-84.312" y2="135.25"/>
	<line fill="none" stroke="#FFFFFF" stroke-miterlimit="10" x1="-105.776" y1="315.748" x2="-16.806" y2="264.051"/>
	<line fill="none" stroke="#FFFFFF" stroke-miterlimit="10" x1="-22.457" y1="445.733" x2="61.669" y2="386.477"/>
	<line fill="none" stroke="#FFFFFF" stroke-miterlimit="10" x1="71.875" y1="567.96" x2="150.515" y2="501.599"/>
	<line fill="none" stroke="#FFFFFF" stroke-miterlimit="10" x1="176.5" y1="681.5" x2="249.059" y2="608.54"/>
	<line fill="none" stroke="#FFFFFF" stroke-miterlimit="10" x1="290.623" y1="785.492" x2="356.547" y2="706.483"/>
	<line fill="none" stroke="#FFFFFF" stroke-miterlimit="10" x1="413.376" y1="879.141" x2="472.16" y2="794.687"/>
	<line fill="none" stroke="#FFFFFF" stroke-miterlimit="10" x1="543.821" y1="961.735" x2="595.023" y2="872.477"/>
	<line fill="none" stroke="#FFFFFF" stroke-miterlimit="10" x1="680.971" y1="1032.644" x2="724.198" y2="939.263"/>
	<line fill="none" stroke="#FFFFFF" stroke-miterlimit="10" x1="823.777" y1="1091.33" x2="858.701" y2="994.538"/>
	<line fill="none" stroke="#FFFFFF" stroke-miterlimit="10" x1="971.158" y1="1137.348" x2="997.514" y2="1037.881"/>
	<line fill="none" stroke="#FFFFFF" stroke-miterlimit="10" x1="1121.984" y1="1170.346" x2="1139.571" y2="1068.961"/>
	<line fill="none" stroke="#FFFFFF" stroke-miterlimit="10" x1="1275.116" y1="1190.072" x2="1283.799" y2="1087.538"/>
	<line fill="none" stroke="#FFFFFF" stroke-miterlimit="10" x1="1429.385" y1="1196.375" x2="1429.096" y2="1093.475"/>
	<line fill="none" stroke="#FFFFFF" stroke-miterlimit="10" x1="1583.614" y1="1189.211" x2="1574.359" y2="1086.727"/>
	<line fill="none" stroke="#FFFFFF" stroke-miterlimit="10" x1="1736.633" y1="1168.633" x2="1718.48" y2="1067.343"/>
	<line fill="none" stroke="#FFFFFF" stroke-miterlimit="10" x1="1887.277" y1="1134.793" x2="1860.364" y2="1035.473"/>
	<line fill="none" stroke="#FFFFFF" stroke-miterlimit="10" x1="2033.71" y1="1087.633" x2="1998.248" y2="991.038"/>
	<line fill="none" stroke="#FFFFFF" stroke-miterlimit="10" x1="2176.162" y1="1028.21" x2="2132.416" y2="935.074"/>
	<line fill="none" stroke="#FFFFFF" stroke-miterlimit="10" x1="2312.893" y1="956.599" x2="2261.196" y2="867.632"/>
	<line fill="none" stroke="#FFFFFF" stroke-miterlimit="10" x1="2442.864" y1="873.343" x2="2383.609" y2="789.222"/>
	<line fill="none" stroke="#FFFFFF" stroke-miterlimit="10" x1="2565.083" y1="779.078" x2="2498.725" y2="700.438"/>
	<line fill="none" stroke="#FFFFFF" stroke-miterlimit="10" x1="2678.62" y1="674.521" x2="2605.662" y2="601.963"/>
	<line fill="none" stroke="#FFFFFF" stroke-miterlimit="10" x1="2782.612" y1="560.462" x2="2703.607" y2="494.541"/>
	<line fill="none" stroke="#FFFFFF" stroke-miterlimit="10" x1="2876.27" y1="437.775" x2="2791.819" y2="378.991"/>
	<line fill="none" stroke="#FFFFFF" stroke-miterlimit="10" x1="2958.877" y1="307.393" x2="2869.625" y2="256.192"/>
	<line fill="none" stroke="#FFFFFF" stroke-miterlimit="10" x1="3029.806" y1="170.308" x2="2936.432" y2="127.08"/>
	<line fill="none" stroke="#FFFFFF" stroke-miterlimit="10" x1="3088.518" y1="27.562" x2="2991.731" y2="-7.364"/>
	<line fill="none" stroke="#FFFFFF" stroke-miterlimit="10" x1="3134.564" y1="-119.759" x2="3035.104" y2="-146.116"/>
	<line fill="none" stroke="#FFFFFF" stroke-miterlimit="10" x1="3167.596" y1="-270.53" x2="3066.217" y2="-288.119"/>
	<line fill="none" stroke="#FFFFFF" stroke-miterlimit="10" x1="3187.362" y1="-423.609" x2="3084.836" y2="-432.294"/>
	<line fill="none" stroke="#FFFFFF" stroke-miterlimit="10" x1="3193.711" y1="-577.828" x2="3090.816" y2="-577.543"/>
	<line fill="none" stroke="#FFFFFF" stroke-miterlimit="10" x1="3186.596" y1="-732.012" x2="3084.117" y2="-722.761"/>
	<line fill="none" stroke="#FFFFFF" stroke-miterlimit="10" x1="3166.068" y1="-884.99" x2="3064.787" y2="-866.842"/>
	<line fill="none" stroke="#FFFFFF" stroke-miterlimit="10" x1="3132.287" y1="-1035.597" x2="3032.971" y2="-1008.69"/>
	<line fill="none" stroke="#FFFFFF" stroke-miterlimit="10" x1="3085.508" y1="-1182.685" x2="2988.916" y2="-1147.225"/>
	<line fill="none" stroke="#FFFFFF" stroke-miterlimit="10" x1="3026.086" y1="-1325.138" x2="2932.953" y2="-1281.395"/>
	<line fill="none" stroke="#FFFFFF" stroke-miterlimit="10" x1="2954.476" y1="-1461.87" x2="2865.507" y2="-1410.176"/>
	<line fill="none" stroke="#FFFFFF" stroke-miterlimit="10" x1="2871.22" y1="-1591.84" x2="2787.096" y2="-1532.588"/>
	<line fill="none" stroke="#FFFFFF" stroke-miterlimit="10" x1="2776.954" y1="-1714.059" x2="2698.313" y2="-1647.7"/>
	<line fill="none" stroke="#FFFFFF" stroke-miterlimit="10" x1="2672.395" y1="-1827.597" x2="2599.84" y2="-1754.638"/>
	<line fill="none" stroke="#FFFFFF" stroke-miterlimit="10" x1="2558.336" y1="-1931.591" x2="2492.416" y2="-1852.584"/>
	<line fill="none" stroke="#FFFFFF" stroke-miterlimit="10" x1="2435.651" y1="-2025.247" x2="2376.867" y2="-1940.798"/>
	<line fill="none" stroke="#FFFFFF" stroke-miterlimit="10" x1="2305.268" y1="-2107.854" x2="2254.068" y2="-2018.603"/>
	<line fill="none" stroke="#FFFFFF" stroke-miterlimit="10" x1="2168.185" y1="-2178.784" x2="2124.956" y2="-2085.409"/>
	<line fill="none" stroke="#FFFFFF" stroke-miterlimit="10" x1="2025.439" y1="-2237.497" x2="1990.512" y2="-2140.709"/>
	<line fill="none" stroke="#FFFFFF" stroke-miterlimit="10" x1="1878.117" y1="-2283.544" x2="1851.76" y2="-2184.08"/>
	<line fill="none" stroke="#FFFFFF" stroke-miterlimit="10" x1="1727.345" y1="-2316.576" x2="1709.756" y2="-2215.194"/>
	<line fill="none" stroke="#FFFFFF" stroke-miterlimit="10" x1="1574.266" y1="-2336.343" x2="1565.582" y2="-2233.813"/>
	<line fill="none" stroke="#FFFFFF" stroke-miterlimit="10" x1="1420.048" y1="-2342.692" x2="1420.334" y2="-2239.794"/>
	<line fill="none" stroke="#FFFFFF" stroke-miterlimit="10" x1="1265.863" y1="-2335.575" x2="1275.113" y2="-2233.096"/>
	<line fill="none" stroke="#FFFFFF" stroke-miterlimit="10" x1="1112.885" y1="-2315.049" x2="1131.031" y2="-2213.766"/>
	<line fill="none" stroke="#FFFFFF" stroke-miterlimit="10" x1="962.277" y1="-2281.268" x2="989.185" y2="-2181.951"/>
	<line fill="none" stroke="#FFFFFF" stroke-miterlimit="10" x1="815.188" y1="-2234.488" x2="850.647" y2="-2137.893"/>
	<line fill="none" stroke="#FFFFFF" stroke-miterlimit="10" x1="672.736" y1="-2175.067" x2="716.479" y2="-2081.93"/>
	<line fill="none" stroke="#FFFFFF" stroke-miterlimit="10" x1="536.005" y1="-2103.456" x2="587.698" y2="-2014.485"/>
	<line fill="none" stroke="#FFFFFF" stroke-miterlimit="10" x1="406.034" y1="-2020.201" x2="465.285" y2="-1936.075"/>
	<line fill="none" stroke="#FFFFFF" stroke-miterlimit="10" x1="283.816" y1="-1925.935" x2="350.172" y2="-1847.292"/>
	<line fill="none" stroke="#FFFFFF" stroke-miterlimit="10" x1="170.277" y1="-1821.375" x2="243.235" y2="-1748.815"/>
	<line fill="none" stroke="#FFFFFF" stroke-miterlimit="10" x1="66.282" y1="-1707.319" x2="145.288" y2="-1641.394"/>
	<line fill="none" stroke="#FFFFFF" stroke-miterlimit="10" x1="-27.374" y1="-1584.631" x2="57.076" y2="-1525.843"/>
	<line fill="none" stroke="#FFFFFF" stroke-miterlimit="10" x1="-109.983" y1="-1454.25" x2="-20.729" y2="-1403.044"/>
	<line fill="none" stroke="#FFFFFF" stroke-miterlimit="10" x1="-180.912" y1="-1317.163" x2="-87.536" y2="-1273.931"/>
	<line fill="none" stroke="#FFFFFF" stroke-miterlimit="10" x1="-239.623" y1="-1174.417" x2="-142.836" y2="-1139.489"/>
	<line fill="none" stroke="#FFFFFF" stroke-miterlimit="10" x1="-285.671" y1="-1027.095" x2="-186.208" y2="-1000.737"/>
	<line fill="none" stroke="#FFFFFF" stroke-miterlimit="10" x1="-318.704" y1="-876.323" x2="-217.322" y2="-858.732"/>
	<path fill="none" stroke="#FFFFFF" stroke-miterlimit="10" d="M-235.939-714.557"/>
	<path fill="none" stroke="#FFFFFF" stroke-miterlimit="10" d="M-338.47-723.244"/>
	<path fill="none" stroke="#FFFFFF" stroke-miterlimit="10" d="M-241.922-569.307"/>
	<path fill="none" stroke="#FFFFFF" stroke-miterlimit="10" d="M-344.819-569.025"/>
	<path fill="none" stroke="#FFFFFF" stroke-miterlimit="10" d="M-235.222-424.089"/>
	<path fill="none" stroke="#FFFFFF" stroke-miterlimit="10" d="M-337.704-414.841"/>
	<path fill="none" stroke="#FFFFFF" stroke-miterlimit="10" d="M-215.892-280.007"/>
	<path fill="none" stroke="#FFFFFF" stroke-miterlimit="10" d="M-317.177-261.862"/>
</g>
<line opacity="0.5" fill="none" stroke="#FFFFFF" stroke-width="0.5" stroke-miterlimit="10" x1="-1434.328" y1="591.45" x2="478.32" y2="-168.136"/>
<line opacity="0.5" fill="none" stroke="#FFFFFF" stroke-width="0.5" stroke-miterlimit="10" x1="-1402.821" y1="665.896" x2="489.288" y2="-143.496"/>
<line opacity="0.5" fill="none" stroke="#FFFFFF" stroke-width="0.5" stroke-miterlimit="10" x1="-1369.376" y1="739.492" x2="500.898" y2="-119.151"/>
<line opacity="0.5" fill="none" stroke="#FFFFFF" stroke-width="0.5" stroke-miterlimit="10" x1="-1334.016" y1="812.189" x2="513.139" y2="-95.117"/>
<line opacity="0.5" fill="none" stroke="#FFFFFF" stroke-width="0.5" stroke-miterlimit="10" x1="-1296.765" y1="883.934" x2="526.006" y2="-71.414"/>
<line opacity="0.5" fill="none" stroke="#FFFFFF" stroke-width="0.5" stroke-miterlimit="10" x1="-1257.649" y1="954.681" x2="539.491" y2="-48.054"/>
<line opacity="0.5" fill="none" stroke="#FFFFFF" stroke-width="0.5" stroke-miterlimit="10" x1="-1216.694" y1="1024.38" x2="553.58" y2="-25.056"/>
<line opacity="0.5" fill="none" stroke="#FFFFFF" stroke-width="0.5" stroke-miterlimit="10" x1="-1173.93" y1="1092.983" x2="568.27" y2="-2.433"/>
<line opacity="0.5" fill="none" stroke="#FFFFFF" stroke-width="0.5" stroke-miterlimit="10" x1="-1129.383" y1="1160.441" x2="583.544" y2="19.797"/>
<line opacity="0.5" fill="none" stroke="#FFFFFF" stroke-width="0.5" stroke-miterlimit="10" x1="-1083.085" y1="1226.709" x2="599.394" y2="41.619"/>
<line opacity="0.5" fill="none" stroke="#FFFFFF" stroke-width="0.5" stroke-miterlimit="10" x1="-1035.071" y1="1291.746" x2="615.814" y2="63.019"/>
<line opacity="0.5" fill="none" stroke="#FFFFFF" stroke-width="0.5" stroke-miterlimit="10" x1="-985.37" y1="1355.503" x2="632.785" y2="83.981"/>
<line opacity="0.5" fill="none" stroke="#FFFFFF" stroke-width="0.5" stroke-miterlimit="10" x1="-934.015" y1="1417.936" x2="650.3" y2="104.493"/>
<line opacity="0.5" fill="none" stroke="#FFFFFF" stroke-width="0.5" stroke-miterlimit="10" x1="-881.044" y1="1479.001" x2="668.348" y2="124.539"/>
<line opacity="0.5" fill="none" stroke="#FFFFFF" stroke-width="0.5" stroke-miterlimit="10" x1="-826.494" y1="1538.662" x2="686.911" y2="144.106"/>
<line opacity="0.5" fill="none" stroke="#FFFFFF" stroke-width="0.5" stroke-miterlimit="10" x1="-770.4" y1="1596.877" x2="705.981" y2="163.181"/>
<line opacity="0.5" fill="none" stroke="#FFFFFF" stroke-width="0.5" stroke-miterlimit="10" x1="-712.801" y1="1653.599" x2="725.543" y2="181.749"/>
<line opacity="0.5" fill="none" stroke="#FFFFFF" stroke-width="0.5" stroke-miterlimit="10" x1="-653.736" y1="1708.796" x2="745.586" y2="199.797"/>
<line opacity="0.5" fill="none" stroke="#FFFFFF" stroke-width="0.5" stroke-miterlimit="10" x1="-593.248" y1="1762.431" x2="766.096" y2="217.316"/>
<line opacity="0.5" fill="none" stroke="#FFFFFF" stroke-width="0.5" stroke-miterlimit="10" x1="-531.376" y1="1814.459" x2="787.055" y2="234.292"/>
<line opacity="0.5" fill="none" stroke="#FFFFFF" stroke-width="0.5" stroke-miterlimit="10" x1="-468.164" y1="1864.851" x2="808.45" y2="250.711"/>
<line opacity="0.5" fill="none" stroke="#FFFFFF" stroke-width="0.5" stroke-miterlimit="10" x1="-403.654" y1="1913.57" x2="830.27" y2="266.567"/>
<line opacity="0.5" fill="none" stroke="#FFFFFF" stroke-width="0.5" stroke-miterlimit="10" x1="-337.892" y1="1960.584" x2="852.496" y2="281.848"/>
<line opacity="0.5" fill="none" stroke="#FFFFFF" stroke-width="0.5" stroke-miterlimit="10" x1="-270.92" y1="2005.861" x2="875.116" y2="296.539"/>
<line opacity="0.5" fill="none" stroke="#FFFFFF" stroke-width="0.5" stroke-miterlimit="10" x1="-202.787" y1="2049.371" x2="898.111" y2="310.632"/>
<line opacity="0.5" fill="none" stroke="#FFFFFF" stroke-width="0.5" stroke-miterlimit="10" x1="-133.539" y1="2091.08" x2="921.468" y2="324.12"/>
<line opacity="0.5" fill="none" stroke="#FFFFFF" stroke-width="0.5" stroke-miterlimit="10" x1="-63.222" y1="2130.964" x2="945.169" y2="336.992"/>
<line opacity="0.5" fill="none" stroke="#FFFFFF" stroke-width="0.5" stroke-miterlimit="10" x1="8.115" y1="2168.991" x2="969.201" y2="349.238"/>
<line opacity="0.5" fill="none" stroke="#FFFFFF" stroke-width="0.5" stroke-miterlimit="10" x1="80.424" y1="2205.141" x2="993.543" y2="360.852"/>
<line opacity="0.5" fill="none" stroke="#FFFFFF" stroke-width="0.5" stroke-miterlimit="10" x1="153.653" y1="2239.383" x2="1018.181" y2="371.823"/>
<line opacity="0.5" fill="none" stroke="#FFFFFF" stroke-width="0.5" stroke-miterlimit="10" x1="227.755" y1="2271.697" x2="1043.098" y2="382.148"/>
<line opacity="0.5" fill="none" stroke="#FFFFFF" stroke-width="0.5" stroke-miterlimit="10" x1="302.674" y1="2302.061" x2="1068.279" y2="391.817"/>
<line opacity="0.5" fill="none" stroke="#FFFFFF" stroke-width="0.5" stroke-miterlimit="10" x1="378.365" y1="2330.455" x2="1093.702" y2="400.823"/>
<line opacity="0.5" fill="none" stroke="#FFFFFF" stroke-width="0.5" stroke-miterlimit="10" x1="454.774" y1="2356.854" x2="1119.354" y2="409.161"/>
<line opacity="0.5" fill="none" stroke="#FFFFFF" stroke-width="0.5" stroke-miterlimit="10" x1="531.847" y1="2381.247" x2="1145.214" y2="416.825"/>
<line opacity="0.5" fill="none" stroke="#FFFFFF" stroke-width="0.5" stroke-miterlimit="10" x1="609.53" y1="2403.612" x2="1171.265" y2="423.807"/>
<line opacity="0.5" fill="none" stroke="#FFFFFF" stroke-width="0.5" stroke-miterlimit="10" x1="687.773" y1="2423.936" x2="1197.49" y2="430.105"/>
<line opacity="0.5" fill="none" stroke="#FFFFFF" stroke-width="0.5" stroke-miterlimit="10" x1="766.522" y1="2442.205" x2="1223.871" y2="435.714"/>
<line opacity="0.5" fill="none" stroke="#FFFFFF" stroke-width="0.5" stroke-miterlimit="10" x1="845.724" y1="2458.406" x2="1250.39" y2="440.631"/>
<line opacity="0.5" fill="none" stroke="#FFFFFF" stroke-width="0.5" stroke-miterlimit="10" x1="925.319" y1="2472.529" x2="1277.029" y2="444.853"/>
<line opacity="0.5" fill="none" stroke="#FFFFFF" stroke-width="0.5" stroke-miterlimit="10" x1="1005.261" y1="2484.563" x2="1303.771" y2="448.376"/>
</svg>
