<?xml version="1.0" encoding="utf-8"?>
<!-- Generator: Adobe Illustrator 16.0.0, SVG Export Plug-In . SVG Version: 6.00 Build 0)  -->
<!DOCTYPE svg PUBLIC "-//W3C//DTD SVG 1.1//EN" "http://www.w3.org/Graphics/SVG/1.1/DTD/svg11.dtd">
<svg version="1.1" id="Layer_1" xmlns="http://www.w3.org/2000/svg" xmlns:xlink="http://www.w3.org/1999/xlink" x="0px" y="0px"
	 width="1000px" height="996.864px" viewBox="0 0 1000 996.864" enable-background="new 0 0 1000 996.864" xml:space="preserve">
<rect x="0.024" y="-0.031" transform="matrix(-1 -2.303918e-05 2.303918e-05 -1 1000.0374 996.8147)" fill="#020202" width="1000" height="996.864"/>
<text transform="matrix(0.9213 0.3889 -0.3889 0.9213 448.71 -473.0547)"><tspan x="0" y="0" fill="#FFFFFF" font-family="'Futura-CondensedMedium'" font-size="44.7742">Amenmesse</tspan><tspan x="166.918" y="0" fill="#FFFFFF" font-family="'Futura-CondensedLight'" font-size="44.7742"> (1203–1200 B.C.)</tspan></text>
<text transform="matrix(0.9108 0.4129 -0.4129 0.9108 427.8594 -427.4165)"><tspan x="0" y="0" fill="#FFFFFF" font-family="'Futura-CondensedMedium'" font-size="44.7741">Merenptah</tspan><tspan x="152.03" y="0" fill="#FFFFFF" font-family="'Futura-CondensedLight'" font-size="44.7741"> (1213–1203 B.C.)</tspan></text>
<text transform="matrix(0.8997 0.4366 -0.4366 0.8997 405.9448 -382.1904)"><tspan x="0" y="0" fill="#FFFFFF" font-family="'Futura-CondensedMedium'" font-size="44.7743">Ramesses II </tspan><tspan x="174.419" y="0" fill="#FFFFFF" font-family="'Futura-CondensedLight'" font-size="44.7743">(1279–1213 B.C.)</tspan></text>
<text transform="matrix(0.8879 0.46 -0.46 0.8879 382.4951 -337.707)"><tspan x="0" y="0" fill="#FFFFFF" font-family="'Futura-CondensedMedium'" font-size="44.774">Seti I</tspan><tspan x="71.075" y="0" fill="#FFFFFF" font-family="'Futura-CondensedLight'" font-size="44.774"> (1290–1279 B.C.)</tspan></text>
<text transform="matrix(0.8756 0.4831 -0.4831 0.8756 358.1509 -293.7402)"><tspan x="0" y="0" fill="#FFFFFF" font-family="'Futura-CondensedMedium'" font-size="44.7741">Ramesses I </tspan><tspan x="164.667" y="0.001" fill="#FFFFFF" font-family="'Futura-CondensedLight'" font-size="44.7741">(1292–1290 B.C.)</tspan></text>
<text transform="matrix(0.8626 0.5058 -0.5058 0.8626 332.3379 -250.377)"><tspan x="0" y="0" fill="#FFFFFF" font-family="'Futura-CondensedMedium'" font-size="44.7742">Horemheb</tspan><tspan x="146.325" y="0" fill="#FFFFFF" font-family="'Futura-CondensedLight'" font-size="44.7742"> (1319–1292 B.C.)</tspan></text>
<text transform="matrix(0.8491 0.5282 -0.5282 0.8491 305.7944 -207.6904)"><tspan x="0" y="0" fill="#FFFFFF" font-family="'Futura-CondensedMedium'" font-size="44.7744">Ay </tspan><tspan x="44.032" y="0" fill="#FFFFFF" font-family="'Futura-CondensedLight'" font-size="44.7744">(1323–1319 B.C.)</tspan></text>
<text transform="matrix(0.835 0.5503 -0.5503 0.835 278.0674 -165.9678)"><tspan x="0" y="0" fill="#FFFFFF" font-family="'Futura-CondensedMedium'" font-size="44.7741">Tutankhamun </tspan><tspan x="204.785" y="0" fill="#FFFFFF" font-family="'Futura-CondensedLight'" font-size="44.7741">(1334–1323 B.C.)</tspan></text>
<text transform="matrix(0.8203 0.5719 -0.5719 0.8203 249.1489 -124.9424)"><tspan x="0" y="0" fill="#FFFFFF" font-family="'Futura-CondensedMedium'" font-size="44.7739">Smenkhkare </tspan><tspan x="187.228" y="0" fill="#FFFFFF" font-family="'Futura-CondensedLight'" font-size="44.7739">(1335–1334 B.C.)</tspan></text>
<text transform="matrix(0.805 0.5932 -0.5932 0.805 219.3652 -84.4512)"><tspan x="0" y="0" fill="#FFFFFF" font-family="'Futura-CondensedMedium'" font-size="44.7741">Amenhotep IV </tspan><tspan x="204.567" y="0" fill="#FFFFFF" font-family="'Futura-CondensedLight'" font-size="44.7741">(1353–1336 B.C.)</tspan></text>
<text transform="matrix(0.7892 0.6141 -0.6141 0.7892 188.2485 -44.8066)"><tspan x="0" y="0" fill="#FFFFFF" font-family="'Futura-CondensedMedium'" font-size="44.7743">Amenhotep III </tspan><tspan x="207.519" y="0" fill="#FFFFFF" font-family="'Futura-CondensedLight'" font-size="44.7743">(1391–1353 B.C.)</tspan></text>
<text transform="matrix(0.7729 0.6345 -0.6345 0.7729 156.2324 -6.0474)"><tspan x="0" y="0" fill="#FFFFFF" font-family="'Futura-CondensedMedium'" font-size="44.7743">Thutmose IV </tspan><tspan x="179.993" y="0" fill="#FFFFFF" font-family="'Futura-CondensedLight'" font-size="44.7743">(1401–1391 B.C.)</tspan></text>
<text transform="matrix(0.756 0.6545 -0.6545 0.756 123.2368 31.7314)"><tspan x="0" y="0" fill="#FFFFFF" font-family="'Futura-CondensedMedium'" font-size="44.774">Amenhotep II </tspan><tspan x="197.767" y="0" fill="#FFFFFF" font-family="'Futura-CondensedLight'" font-size="44.774">(1425–1401 B.C.)</tspan></text>
<text transform="matrix(0.7386 0.6741 -0.6741 0.7386 89.1602 68.9263)"><tspan x="0" y="0" fill="#FFFFFF" font-family="'Futura-CondensedMedium'" font-size="44.7744">Thutmose III </tspan><tspan x="182.945" y="0" fill="#FFFFFF" font-family="'Futura-CondensedLight'" font-size="44.7744">(1458–1425 B.C.)</tspan></text>
<text transform="matrix(0.7207 0.6932 -0.6932 0.7207 54.1582 105.0269)"><tspan x="0" y="0" fill="#FFFFFF" font-family="'Futura-CondensedMedium'" font-size="44.7743">Hatshepsut </tspan><tspan x="164.603" y="0" fill="#FFFFFF" font-family="'Futura-CondensedLight'" font-size="44.7743">(1479–1458 B.C.)</tspan></text>
<text transform="matrix(0.7023 0.7118 -0.7118 0.7023 18.2349 140.2285)"><tspan x="0" y="0" fill="#FFFFFF" font-family="'Futura-CondensedMedium'" font-size="44.7744">Thutmose II </tspan><tspan x="173.194" y="0" fill="#FFFFFF" font-family="'Futura-CondensedLight'" font-size="44.7744">(1493–1479 B.C.)</tspan></text>
<text transform="matrix(0.6835 0.73 -0.73 0.6835 -18.6816 174.397)"><tspan x="0" y="0" fill="#FFFFFF" font-family="'Futura-CondensedMedium'" font-size="44.7743">Thutmose I </tspan><tspan x="163.443" y="0" fill="#FFFFFF" font-family="'Futura-CondensedLight'" font-size="44.7743">(1506–1493 B.C.)</tspan></text>
<text transform="matrix(0.6641 0.7476 -0.7476 0.6641 -56.2622 207.6123)"><tspan x="0" y="0" fill="#FFFFFF" font-family="'Futura-CondensedMedium'" font-size="44.7742">Amenhotep I </tspan><tspan x="188.017" y="0" fill="#FFFFFF" font-family="'Futura-CondensedLight'" font-size="44.7742">(unknown reign)</tspan></text>
<text transform="matrix(0.6443 0.7648 -0.7648 0.6443 -94.8838 239.8057)"><tspan x="0" y="0" fill="#FFFFFF" font-family="'Futura-CondensedMedium'" font-size="44.774">Ahmose I </tspan><tspan x="138.935" y="0" fill="#FFFFFF" font-family="'Futura-CondensedLight'" font-size="44.774">(1550–1525 B.C.)</tspan></text>
<text transform="matrix(0.6241 0.7814 -0.7814 0.6241 -134.0322 271.1528)"><tspan x="0" y="0" fill="#FFFFFF" font-family="'Futura-CondensedMedium'" font-size="44.7742">Kamose </tspan><tspan x="120.046" y="0" fill="#FFFFFF" font-family="'Futura-CondensedLight'" font-size="44.7742">(1555–1550 B.C.)</tspan></text>
<text transform="matrix(0.6034 0.7974 -0.7974 0.6034 -174.1548 301.2524)"><tspan x="0" y="0" fill="#FFFFFF" font-family="'Futura-CondensedMedium'" font-size="44.7739">Seqenenre Tao </tspan><tspan x="216.678" y="0" fill="#FFFFFF" font-family="'Futura-CondensedLight'" font-size="44.7739">(1558–1555 B.C.)</tspan></text>
<text transform="matrix(0.5823 0.8129 -0.8129 0.5823 -215.1616 330.5439)"><tspan x="0" y="0" fill="#FFFFFF" font-family="'Futura-CondensedMedium'" font-size="44.7742">Heruhirmaat </tspan><tspan x="188.498" y="0" fill="#FFFFFF" font-family="'Futura-CondensedLight'" font-size="44.7742">(1560–1558 B.C.)</tspan></text>
<text transform="matrix(0.5609 0.8279 -0.8279 0.5609 -256.8726 358.4312)"><tspan x="0" y="0" fill="#FFFFFF" font-family="'Futura-CondensedMedium'" font-size="44.7739">Nubkheperre </tspan><tspan x="192.802" y="0" fill="#FFFFFF" font-family="'Futura-CondensedLight'" font-size="44.7739">(1571–1560 B.C.)</tspan></text>
<path fill="#508FFF" d="M122.848,923.345c3.563-2.289,8.32-1.221,10.601,2.333c2.29,3.577,1.258,8.336-2.337,10.597
	c-3.537,2.296-8.301,1.258-10.586-2.312C118.255,930.378,119.301,925.645,122.848,923.345z"/>
<path fill="#508FFF" d="M179.435,885.33c3.504-2.38,8.29-1.439,10.658,2.056c2.382,3.518,1.479,8.298-2.059,10.652
	c-3.476,2.388-8.262,1.471-10.642-2.031C175.029,892.48,175.946,887.724,179.435,885.33z"/>
<path fill="#508FFF" d="M235.007,845.848c3.441-2.469,8.247-1.654,10.714,1.772c2.473,3.454,1.689,8.262-1.782,10.701
	c-3.416,2.48-8.227,1.694-10.696-1.752C230.789,853.109,231.584,848.33,235.007,845.848z"/>
<path fill="#508FFF" d="M289.529,804.924c3.374-2.559,8.203-1.872,10.756,1.488c2.56,3.39,1.907,8.213-1.504,10.748
	c-3.351,2.567-8.174,1.907-10.733-1.47C285.504,812.292,286.17,807.495,289.529,804.924z"/>
<path fill="#508FFF" d="M342.961,762.585c3.307-2.646,8.152-2.088,10.79,1.213c2.647,3.316,2.122,8.154-1.224,10.775
	c-3.274,2.66-8.119,2.12-10.764-1.188C339.126,770.058,339.671,765.245,342.961,762.585z"/>
<path fill="#508FFF" d="M395.267,718.867c3.231-2.735,8.095-2.302,10.815,0.924c2.737,3.251,2.337,8.097-0.934,10.807
	c-3.208,2.739-8.065,2.337-10.798-0.906C391.629,726.436,392.047,721.606,395.267,718.867z"/>
<path fill="#508FFF" d="M446.41,673.788c3.162-2.814,8.027-2.509,10.837,0.644c2.818,3.178,2.546,8.034-0.658,10.83
	c-3.13,2.822-7.996,2.546-10.814-0.627C442.972,681.448,443.264,676.616,446.41,673.788z"/>
<path fill="#508FFF" d="M496.354,627.385c3.087-2.894,7.959-2.713,10.852,0.363c2.902,3.103,2.758,7.964-0.373,10.844
	c-3.059,2.9-7.93,2.752-10.827-0.346C493.119,635.138,493.281,630.297,496.354,627.385z"/>
<path fill="#FF7DCA" d="M544.366,577.682c3.009-2.975,7.889-2.925,10.858,0.076c2.986,3.029,2.962,7.891-0.09,10.849
	c-2.983,2.985-7.851,2.96-10.831-0.059C541.335,585.515,541.374,580.673,544.366,577.682z"/>
<path fill="#508FFF" d="M591.816,528.729c2.932-3.052,7.811-3.127,10.85-0.204c3.066,2.949,3.174,7.812,0.201,10.847
	c-2.904,3.062-7.773,3.164-10.827,0.221C588.988,536.642,588.898,531.798,591.816,528.729z"/>
<path fill="#508FFF" d="M637.967,478.559c2.852-3.132,7.724-3.337,10.844-0.493c3.139,2.867,3.375,7.726,0.478,10.837
	c-2.82,3.134-7.684,3.366-10.818,0.507C635.347,486.539,635.13,481.697,637.967,478.559z"/>
<path fill="#508FFF" d="M680.771,427.89c2.769-3.205,7.637-3.533,10.829-0.779c3.213,2.787,3.578,7.639,0.761,10.822
	c-2.738,3.207-7.594,3.565-10.797,0.79C678.364,435.937,678.021,431.103,680.771,427.89z"/>
<path fill="#508FFF" d="M724.932,377.384c2.686-3.28,7.539-3.733,10.804-1.063c3.285,2.7,3.775,7.542,1.044,10.8
	c-2.65,3.279-7.496,3.763-10.776,1.071C722.736,385.489,722.266,380.667,724.932,377.384z"/>
<path fill="#508FFF" d="M768.318,321.032c2.599-3.35,7.44-3.929,10.773-1.346c3.355,2.612,3.976,7.44,1.325,10.768
	c-2.563,3.349-7.393,3.959-10.743,1.352C766.337,329.19,765.738,324.382,768.318,321.032z"/>
<path fill="#508FFF" d="M808.969,266.305c2.512-3.415,7.338-4.119,10.737-1.625c3.421,2.522,4.167,7.333,1.608,10.729
	c-2.477,3.413-7.295,4.15-10.709,1.636C807.202,274.514,806.481,269.725,808.969,266.305z"/>
<path fill="#508FFF" d="M846.164,211.234c2.418-3.48,7.227-4.31,10.686-1.907c3.488,2.434,4.357,7.223,1.891,10.682
	c-2.389,3.477-7.18,4.34-10.657,1.919C844.609,219.485,843.764,214.721,846.164,211.234z"/>
<path fill="#508FFF" d="M879.948,162.599c2.323-3.546,7.112-4.502,10.633-2.188c3.549,2.336,4.545,7.105,2.167,10.629
	c-2.294,3.537-7.062,4.525-10.604,2.196C878.611,170.885,877.642,166.139,879.948,162.599z"/>
<path fill="#508FFF" d="M916.182,104.848c2.23-3.601,6.99-4.677,10.572-2.461c3.609,2.243,4.728,6.986,2.444,10.567
	c-2.2,3.599-6.939,4.712-10.542,2.472C915.061,113.174,913.966,108.456,916.182,104.848z"/>
<path fill="#508FFF" d="M950.889,46.177c2.139-3.66,6.865-4.863,10.506-2.737c3.667,2.144,4.913,6.857,2.724,10.497
	c-2.105,3.655-6.817,4.895-10.478,2.749C949.989,54.527,948.773,49.84,950.889,46.177z"/>
<path opacity="0" fill="none" stroke="#FFFFFF" stroke-miterlimit="10" d="M221.518,903.752
	c-18.024,6.246-37.701-3.303-43.948-21.328c-6.249-18.021,3.302-37.698,21.327-43.945c18.026-6.246,37.698,3.3,43.944,21.327
	C249.085,877.826,239.541,897.505,221.518,903.752z"/>
<line opacity="0" fill="none" stroke="#FFFFFF" stroke-miterlimit="10" x1="342.961" y1="762.585" x2="289.529" y2="804.924"/>
<line opacity="0" fill="none" stroke="#FFFFFF" stroke-miterlimit="10" x1="352.527" y1="774.574" x2="298.781" y2="817.161"/>
<path opacity="0" fill="none" stroke="#FFFFFF" stroke-miterlimit="10" d="M317.739,876.724
	c-36.05,12.491-75.399-6.604-87.894-42.649c-12.491-36.05,6.606-75.399,42.651-87.896c36.053-12.49,75.4,6.604,87.895,42.653
	C372.885,824.88,353.787,864.229,317.739,876.724z"/>
<path opacity="0" fill="none" stroke="#FFFFFF" stroke-miterlimit="10" d="M387.927,778.385
	c-18.027,6.247-37.705-3.302-43.951-21.322c-6.245-18.027,3.303-37.7,21.331-43.949c18.023-6.246,37.698,3.303,43.94,21.329
	C415.497,752.463,405.95,772.14,387.927,778.385z"/>
<path opacity="0" fill="none" stroke="#FFFFFF" stroke-miterlimit="10" d="M439.984,733.268
	c-18.023,6.247-37.703-3.303-43.95-21.324c-6.246-18.027,3.304-37.702,21.33-43.949c18.026-6.25,37.695,3.303,43.942,21.328
	C467.555,707.342,458.01,727.025,439.984,733.268z"/>
<path opacity="0" fill="none" stroke="#FFFFFF" stroke-miterlimit="10" d="M490.029,688.843c-18.025,6.251-37.7-3.299-43.949-21.322
	c-6.25-18.024,3.303-37.698,21.327-43.946c18.024-6.249,37.701,3.302,43.945,21.326
	C517.597,662.923,508.056,682.601,490.029,688.843z"/>
<path opacity="0" fill="none" stroke="#FFFFFF" stroke-miterlimit="10" d="M526.673,698.257c-36.052,12.496-75.4-6.6-87.893-42.646
	c-12.493-36.05,6.601-75.397,42.651-87.895c36.049-12.49,75.398,6.604,87.889,42.654
	C581.815,646.418,562.722,685.767,526.673,698.257z"/>
<line opacity="0" fill="none" stroke="#FFFFFF" stroke-miterlimit="10" x1="544.366" y1="577.682" x2="496.354" y2="627.385"/>
<line opacity="0" fill="none" stroke="#FFFFFF" stroke-miterlimit="10" x1="555.135" y1="588.607" x2="506.832" y2="638.592"/>
<line opacity="0" fill="none" stroke="#FFFFFF" stroke-miterlimit="10" x1="544.366" y1="577.682" x2="506.832" y2="638.592"/>
<line opacity="0" fill="none" stroke="#FFFFFF" stroke-miterlimit="10" x1="552.612" y1="591.356" x2="496.354" y2="627.385"/>
<path opacity="0" fill="none" stroke="#FFFFFF" stroke-miterlimit="10" d="M572.606,648.494
	c-36.051,12.497-75.399-6.604-87.892-42.647c-12.493-36.051,6.603-75.402,42.652-87.893c36.051-12.496,75.398,6.602,87.89,42.649
	C627.753,596.651,608.654,636.001,572.606,648.494z"/>
<path opacity="0" fill="none" stroke="#FFFFFF" stroke-miterlimit="10" d="M629.848,538.848
	c-18.023,6.246-37.705-3.304-43.945-21.325c-6.248-18.024,3.299-37.697,21.326-43.946c18.024-6.249,37.698,3.301,43.941,21.327
	C657.417,512.925,647.873,532.604,629.848,538.848z"/>
<path opacity="0" fill="none" stroke="#FFFFFF" stroke-miterlimit="10" d="M678.494,490.399c-18.022,6.246-37.7-3.305-43.949-21.325
	c-6.244-18.024,3.305-37.699,21.329-43.949c18.025-6.245,37.699,3.304,43.943,21.328
	C706.065,464.476,696.521,484.152,678.494,490.399z"/>
<path opacity="0" fill="none" stroke="#FFFFFF" stroke-miterlimit="10" d="M721.716,439.314
	c-18.023,6.247-37.701-3.304-43.945-21.324c-6.247-18.024,3.304-37.701,21.325-43.948c18.024-6.246,37.699,3.305,43.947,21.326
	C749.287,413.393,739.745,433.069,721.716,439.314z"/>
<path opacity="0" fill="none" stroke="#FFFFFF" stroke-miterlimit="10" d="M766.955,387.536
	c-18.023,6.243-37.701-3.305-43.948-21.326c-6.247-18.024,3.302-37.703,21.329-43.948c18.023-6.246,37.696,3.3,43.942,21.328
	C794.524,361.61,784.979,381.287,766.955,387.536z"/>
<circle opacity="0" fill="none" stroke="#FFFFFF" stroke-miterlimit="10" cx="794.758" cy="298.47" r="34.54"/>
<circle opacity="0" fill="none" stroke="#FFFFFF" stroke-miterlimit="10" cx="813.968" cy="270.601" r="69.079"/>
<path opacity="0" fill="none" stroke="#FFFFFF" stroke-miterlimit="10" d="M951.131,111.593c-18.022,6.249-37.701-3.3-43.945-21.322
	c-6.247-18.026,3.3-37.702,21.327-43.948c18.023-6.248,37.697,3.303,43.939,21.325C978.701,85.671,969.156,105.348,951.131,111.593z
	"/>
<line opacity="0" fill="none" stroke="#FFFFFF" stroke-miterlimit="10" x1="846.164" y1="211.234" x2="808.969" y2="266.305"/>
<line opacity="0" fill="none" stroke="#FFFFFF" stroke-miterlimit="10" x1="858.74" y1="220.009" x2="821.314" y2="275.409"/>
<line fill="none" stroke="#FFFFFF" stroke-width="0.5" stroke-miterlimit="10" x1="1744.577" y1="3634.684" x2="-259.605" y2="361.825"/>
<line fill="none" stroke="#FFFFFF" stroke-width="0.5" stroke-miterlimit="10" x1="1871.355" y1="3553.149" x2="-217.815" y2="333.875"/>
<line fill="none" stroke="#FFFFFF" stroke-width="0.5" stroke-miterlimit="10" x1="1995.959" y1="3468.331" x2="-176.771" y2="304.845"/>
<line fill="none" stroke="#FFFFFF" stroke-width="0.5" stroke-miterlimit="10" x1="2118.297" y1="3380.275" x2="-136.498" y2="274.745"/>
<line fill="none" stroke="#FFFFFF" stroke-width="0.5" stroke-miterlimit="10" x1="2238.287" y1="3289.045" x2="-97.026" y2="243.607"/>
<line fill="none" stroke="#FFFFFF" stroke-width="0.5" stroke-miterlimit="10" x1="2355.852" y1="3194.708" x2="-58.384" y2="211.444"/>
<line fill="none" stroke="#FFFFFF" stroke-width="0.5" stroke-miterlimit="10" x1="2470.904" y1="3097.329" x2="-20.601" y2="178.286"/>
<line fill="none" stroke="#FFFFFF" stroke-width="0.5" stroke-miterlimit="10" x1="2583.367" y1="2996.965" x2="16.311" y2="144.145"/>
<line fill="none" stroke="#FFFFFF" stroke-width="0.5" stroke-miterlimit="10" x1="2693.16" y1="2893.697" x2="52.309" y2="109.05"/>
<line fill="none" stroke="#FFFFFF" stroke-width="0.5" stroke-miterlimit="10" x1="2800.224" y1="2787.591" x2="87.377" y2="73.023"/>
<line fill="none" stroke="#FFFFFF" stroke-width="0.5" stroke-miterlimit="10" x1="2904.463" y1="2678.713" x2="121.488" y2="36.096"/>
<line fill="none" stroke="#FFFFFF" stroke-width="0.5" stroke-miterlimit="10" x1="3005.821" y1="2567.145" x2="154.626" y2="-1.719"/>
<line fill="none" stroke="#FFFFFF" stroke-width="0.5" stroke-miterlimit="10" x1="3104.223" y1="2452.961" x2="186.76" y2="-40.383"/>
<line fill="none" stroke="#FFFFFF" stroke-width="0.5" stroke-miterlimit="10" x1="3199.602" y1="2336.244" x2="217.869" y2="-79.875"/>
<line fill="none" stroke="#FFFFFF" stroke-width="0.5" stroke-miterlimit="10" x1="3291.893" y1="2217.068" x2="247.938" y2="-120.172"/>
<line fill="none" stroke="#FFFFFF" stroke-width="0.5" stroke-miterlimit="10" x1="3381.039" y1="2095.521" x2="276.937" y2="-161.238"/>
<line fill="none" stroke="#FFFFFF" stroke-width="0.5" stroke-miterlimit="10" x1="3466.963" y1="1971.678" x2="304.855" y2="-203.053"/>
<line fill="none" stroke="#FFFFFF" stroke-width="0.5" stroke-miterlimit="10" x1="3549.621" y1="1845.628" x2="331.669" y2="-245.582"/>
<line fill="none" stroke="#FFFFFF" stroke-width="0.5" stroke-miterlimit="10" x1="3628.947" y1="1717.459" x2="357.355" y2="-288.8"/>
<line fill="none" stroke="#FFFFFF" stroke-width="0.5" stroke-miterlimit="10" x1="3704.895" y1="1587.26" x2="381.905" y2="-332.672"/>
<line fill="none" stroke="#FFFFFF" stroke-width="0.5" stroke-miterlimit="10" x1="3777.406" y1="1455.114" x2="405.296" y2="-377.173"/>
<line fill="none" stroke="#FFFFFF" stroke-width="0.5" stroke-miterlimit="10" x1="3846.438" y1="1321.118" x2="427.517" y2="-422.272"/>
<line fill="none" stroke="#FFFFFF" stroke-width="0.5" stroke-miterlimit="10" x1="3911.932" y1="1185.358" x2="448.55" y2="-467.938"/>
</svg>
