<?xml version="1.0" encoding="utf-8"?>
<!-- Generator: Adobe Illustrator 16.0.0, SVG Export Plug-In . SVG Version: 6.00 Build 0)  -->
<!DOCTYPE svg PUBLIC "-//W3C//DTD SVG 1.1//EN" "http://www.w3.org/Graphics/SVG/1.1/DTD/svg11.dtd">
<svg version="1.1" id="Layer_1" xmlns="http://www.w3.org/2000/svg" xmlns:xlink="http://www.w3.org/1999/xlink" x="0px" y="0px"
	 width="2381px" height="1014.102px" viewBox="0 0 2381 1014.102" enable-background="new 0 0 2381 1014.102" xml:space="preserve">
<rect width="2381" height="1014.102"/>
<circle fill="#508FFF" cx="806.843" cy="745.577" r="13.149"/>
<text transform="matrix(1 0 0 1 832.2158 754.6309)" fill="#508FFF" font-family="'Futura-CondensedLight'" font-size="29.2199">Male Pharaoh</text>
<circle fill="#FF7DCA" cx="806.843" cy="791.841" r="13.149"/>
<text transform="matrix(1 0 0 1 832.2158 800.8945)" fill="#FF7DCA" font-family="'Futura-CondensedLight'" font-size="29.2199">Female Pharaoh</text>
<circle fill="none" stroke="#FFFFFF" stroke-width="1.5" stroke-miterlimit="10" cx="377.397" cy="741.388" r="43.83"/>
<circle fill="#FFFFFF" cx="377.331" cy="697.07" r="4.383"/>
<circle fill="#FFFFFF" cx="377.331" cy="784.73" r="4.383"/>
<text transform="matrix(1 0 0 1 327.6992 821.334)" fill="#FFFFFF" font-family="'Futura-CondensedLight'" font-size="29.2199">Parent-Child</text>
<circle fill="#FFFFFF" cx="478.601" cy="697.939" r="4.383"/>
<circle fill="#FFFFFF" cx="478.601" cy="785.599" r="4.383"/>
<line fill="none" stroke="#FFFFFF" stroke-miterlimit="10" x1="482.5" y1="701.224" x2="482.5" y2="786.224"/>
<line fill="none" stroke="#FFFFFF" stroke-miterlimit="10" x1="474.5" y1="698.224" x2="474.5" y2="784.224"/>
<text transform="matrix(1 0 0 1 448.4346 821.334)" fill="#FFFFFF" font-family="'Futura-CondensedLight'" font-size="29.2199">Siblings</text>
<circle fill="#FFFFFF" cx="567.26" cy="698.811" r="4.383"/>
<circle fill="#FFFFFF" cx="567.26" cy="786.469" r="4.383"/>
<line fill="none" stroke="#FFFFFF" stroke-miterlimit="10" x1="562.877" y1="698.811" x2="571.644" y2="786.469"/>
<line fill="none" stroke="#FFFFFF" stroke-miterlimit="10" x1="571.644" y1="698.811" x2="562.877" y2="786.469"/>
<text transform="matrix(1 0 0 1 535.6875 821.334)" fill="#FFFFFF" font-family="'Futura-CondensedLight'" font-size="29.2199">Married</text>
<text transform="matrix(1 0 0 1 637.4902 319.332)" fill="#FFFFFF" font-family="'Futura-CondensedLight'" font-size="28.4314">Name (Reign) </text>
<circle fill="#FFFFFF" cx="778.171" cy="310.802" r="12.795"/>
<text transform="matrix(0.9985 -0.0551 0.0551 0.9985 638.1006 359.0737)" fill="#FFFFFF" font-family="'Futura-CondensedLight'" font-size="28.4313">Name (Reign) </text>
<circle fill="#FFFFFF" cx="778.119" cy="342.821" r="12.794"/>
<text transform="matrix(0.9939 -0.1103 0.1103 0.9939 642.5605 398.8203)" fill="#FFFFFF" font-family="'Futura-CondensedLight'" font-size="28.4315">Name (Reign) </text>
<circle fill="#FFFFFF" cx="781.423" cy="374.823" r="12.794"/>
<path fill="#FFFFFF" d="M1151.861,336.423c0,14.131-11.458,25.59-25.589,25.59c-14.132,0-25.588-11.458-25.588-25.59
	c0-14.13,11.456-25.588,25.588-25.588C1140.403,310.835,1151.861,322.293,1151.861,336.423z"/>
<path fill="none" stroke="#FFFFFF" stroke-width="1.5" stroke-miterlimit="10" d="M778.172,310.802
	c0,14.163,155.692,25.621,348.101,25.621"/>
<path fill="none" stroke="#FFFFFF" stroke-width="1.5" stroke-miterlimit="10" d="M778.118,342.822
	c0-3.538,155.717-6.396,348.154-6.396"/>
<path fill="none" stroke="#FFFFFF" stroke-width="1.5" stroke-miterlimit="10" d="M781.422,374.823
	c0-21.225,154.24-38.399,344.851-38.399"/>
<circle fill="#FFFFFF" cx="581.338" cy="309.38" r="4.266"/>
<circle fill="#FFFFFF" cx="586.075" cy="352.027" r="4.265"/>
<circle fill="#FFFFFF" cx="590.815" cy="395.859" r="4.265"/>
<ellipse fill="none" stroke="#FFFFFF" stroke-width="1.5" stroke-miterlimit="10" cx="583.218" cy="330.507" rx="21.941" ry="21.52"/>
<line fill="none" stroke="#FFFFFF" stroke-width="1.5" stroke-miterlimit="10" x1="581.811" y1="352.027" x2="586.55" y2="395.859"/>
<line fill="none" stroke="#FFFFFF" stroke-width="1.5" stroke-miterlimit="10" x1="590.34" y1="352.027" x2="595.08" y2="395.859"/>
<ellipse fill="none" stroke="#FFFFFF" stroke-width="1.5" stroke-miterlimit="10" cx="586.415" cy="352.184" rx="41.005" ry="43.517"/>
<path fill="none" stroke="#FFFFFF" stroke-width="1.5" stroke-miterlimit="10" d="M503.238,156.55
	c-86.678,158.651-49.146,368.487,57.567,415.797"/>
<path fill="none" stroke="#FFFFFF" stroke-width="1.5" stroke-miterlimit="10" d="M774.524,277.873
	c-30.99,56.722-17.571,131.744,20.582,148.661"/>
<line fill="none" stroke="#FFFFFF" stroke-width="2" stroke-miterlimit="10" x1="633" y1="325.224" x2="757" y2="325.224"/>
<line fill="none" stroke="#FFFFFF" stroke-width="1.5" stroke-miterlimit="10" x1="632.75" y1="364.449" x2="757.902" y2="359.081"/>
<line fill="none" stroke="#FFFFFF" stroke-width="1.5" stroke-miterlimit="10" x1="641.751" y1="409.762" x2="765.376" y2="393.728"/>
<path fill="none" stroke="#FFFFFF" stroke-width="1.5" stroke-miterlimit="10" d="M661.092,227.146
	c-53.237,96.286-26.326,225.744,42.576,256.292"/>
<line fill="none" stroke="#FFFFFF" stroke-width="1.5" stroke-miterlimit="10" x1="632.75" y1="323.478" x2="456.66" y2="382.217"/>
<line fill="none" stroke="#FFFFFF" stroke-width="1.5" stroke-miterlimit="10" x1="632.75" y1="364.449" x2="515.943" y2="538.949"/>
<line fill="none" stroke="#FFFFFF" stroke-width="1.5" stroke-miterlimit="10" x1="641.751" y1="409.762" x2="560.806" y2="572.347"/>
<line fill="none" stroke="#FFFFFF" stroke-width="1.5" stroke-miterlimit="10" x1="641.751" y1="286.298" x2="765.589" y2="298.008"/>
<line fill="none" stroke="#FFFFFF" stroke-width="1.5" stroke-miterlimit="10" x1="641.751" y1="286.298" x2="455.214" y2="374.823"/>
<text transform="matrix(0.9951 -0.0984 0.0984 0.9951 416.1821 385.73)" fill="#FFFFFF" font-family="'Futura-CondensedLight'" font-size="28.4314">Year</text>
<text transform="matrix(0.9429 -0.3329 0.3329 0.9429 439.6074 489.2686)" fill="#FFFFFF" font-family="'Futura-CondensedLight'" font-size="28.4315">Year</text>
<text transform="matrix(0.9939 0.1106 -0.1106 0.9939 424.1426 275.8896)" fill="#FFFFFF" font-family="'Futura-CondensedLight'" font-size="28.4314">Year</text>
<line fill="none" stroke="#FFFFFF" stroke-width="1.5" stroke-miterlimit="10" x1="560.806" y1="572.347" x2="795.106" y2="426.534"/>
<line fill="none" stroke="#FFFFFF" stroke-width="1.5" stroke-miterlimit="10" x1="503.238" y1="156.55" x2="774.524" y2="277.873"/>
<path fill="none" d="M511.175,156.548C424.496,315.2,462.03,525.036,568.74,572.347"/>
<text transform="matrix(-0.3417 0.9398 -0.9398 -0.3417 488.5947 206.0991)"><tspan x="0" y="0" fill="#FFFFFF" font-family="'Futura-CondensedLight'" font-size="28.4314"> </tspan><tspan x="6.084" y="-0.002" fill="#FFFFFF" font-family="'Futura-CondensedLight'" font-size="28.4314" rotate="-0.885"> </tspan><tspan x="12.221" y="-0.099" fill="#FFFFFF" font-family="'Futura-CondensedLight'" font-size="28.4314" rotate="-1.773"> </tspan><tspan x="18.313" y="-0.288" fill="#FFFFFF" font-family="'Futura-CondensedLight'" font-size="28.4314" rotate="-2.649"> </tspan><tspan x="24.423" y="-0.573" fill="#FFFFFF" font-family="'Futura-CondensedLight'" font-size="28.4314" rotate="-3.523"> </tspan><tspan x="30.514" y="-0.95" fill="#FFFFFF" font-family="'Futura-CondensedLight'" font-size="28.4314" rotate="-4.391"> </tspan><tspan x="36.587" y="-1.417" fill="#FFFFFF" font-family="'Futura-CondensedLight'" font-size="28.4314" rotate="-5.253"> </tspan><tspan x="42.671" y="-1.978" fill="#FFFFFF" font-family="'Futura-CondensedLight'" font-size="28.4314" rotate="-6.114"> </tspan><tspan x="48.734" y="-2.628" fill="#FFFFFF" font-family="'Futura-CondensedLight'" font-size="28.4314" rotate="-6.969"> </tspan><tspan x="54.804" y="-3.372" fill="#FFFFFF" font-family="'Futura-CondensedLight'" font-size="28.4314" rotate="-7.823"> </tspan><tspan x="60.848" y="-4.204" fill="#FFFFFF" font-family="'Futura-CondensedLight'" font-size="28.4314" rotate="-8.673"> </tspan><tspan x="66.864" y="-5.122" fill="#FFFFFF" font-family="'Futura-CondensedLight'" font-size="28.4314" rotate="-9.518"> </tspan><tspan x="72.882" y="-6.133" fill="#FFFFFF" font-family="'Futura-CondensedLight'" font-size="28.4314" rotate="-10.364"> </tspan><tspan x="78.868" y="-7.229" fill="#FFFFFF" font-family="'Futura-CondensedLight'" font-size="28.4314" rotate="-11.206"> </tspan><tspan x="84.852" y="-8.416" fill="#FFFFFF" font-family="'Futura-CondensedLight'" font-size="28.4314" rotate="-12.049"> </tspan><tspan x="90.831" y="-9.694" fill="#FFFFFF" font-family="'Futura-CondensedLight'" font-size="28.4314" rotate="-12.893"> </tspan><tspan x="96.772" y="-11.055" fill="#FFFFFF" font-family="'Futura-CondensedLight'" font-size="28.4314" rotate="-13.736"> </tspan><tspan x="102.705" y="-12.506" fill="#FFFFFF" font-family="'Futura-CondensedLight'" font-size="28.4314" rotate="-14.58"> </tspan><tspan x="108.594" y="-14.04" fill="#FFFFFF" font-family="'Futura-CondensedLight'" font-size="28.4314" rotate="-15.423"> </tspan><tspan x="114.471" y="-15.663" fill="#FFFFFF" font-family="'Futura-CondensedLight'" font-size="28.4314" rotate="-16.27"> </tspan><tspan x="120.332" y="-17.375" fill="#FFFFFF" font-family="'Futura-CondensedLight'" font-size="28.4314" rotate="-17.12"> </tspan><tspan x="126.173" y="-19.175" fill="#FFFFFF" font-family="'Futura-CondensedLight'" font-size="28.4314" rotate="-17.975"> </tspan><tspan x="131.964" y="-21.056" fill="#FFFFFF" font-family="'Futura-CondensedLight'" font-size="28.4314" rotate="-18.83"> </tspan><tspan x="137.732" y="-23.024" fill="#FFFFFF" font-family="'Futura-CondensedLight'" font-size="28.4314" rotate="-19.691"> </tspan><tspan x="143.5" y="-25.09" fill="#FFFFFF" font-family="'Futura-CondensedLight'" font-size="28.4314" rotate="-20.563"> </tspan><tspan x="149.211" y="-27.235" fill="#FFFFFF" font-family="'Futura-CondensedLight'" font-size="28.4314" rotate="-21.437"> </tspan><tspan x="154.89" y="-29.465" fill="#FFFFFF" font-family="'Futura-CondensedLight'" font-size="28.4314" rotate="-22.318"> </tspan><tspan x="160.534" y="-31.783" fill="#FFFFFF" font-family="'Futura-CondensedLight'" font-size="28.4314" rotate="-23.208"> </tspan><tspan x="166.167" y="-34.2" fill="#FFFFFF" font-family="'Futura-CondensedLight'" font-size="28.4314" rotate="-24.111"> </tspan><tspan x="171.729" y="-36.691" fill="#FFFFFF" font-family="'Futura-CondensedLight'" font-size="28.4314" rotate="-25.019"> </tspan><tspan x="177.276" y="-39.281" fill="#FFFFFF" font-family="'Futura-CondensedLight'" font-size="28.4314" rotate="-25.943"> </tspan><tspan x="182.8" y="-41.971" fill="#FFFFFF" font-family="'Futura-CondensedLight'" font-size="28.4314" rotate="-26.883"> </tspan><tspan x="188.245" y="-44.733" fill="#FFFFFF" font-family="'Futura-CondensedLight'" font-size="28.4314" rotate="-27.832"> </tspan><tspan x="193.661" y="-47.594" fill="#FFFFFF" font-family="'Futura-CondensedLight'" font-size="28.4314" rotate="-28.798"> </tspan><tspan x="199.108" y="-50.565" fill="#FFFFFF" font-family="'Futura-CondensedLight'" font-size="28.4314" rotate="-30.12">p</tspan><tspan x="208.004" y="-55.734" fill="#FFFFFF" font-family="'Futura-CondensedLight'" font-size="28.4314" rotate="-31.812">e</tspan><tspan x="216.555" y="-61.07" fill="#FFFFFF" font-family="'Futura-CondensedLight'" font-size="28.4314" rotate="-33.2">r</tspan><tspan x="221.587" y="-64.371" fill="#FFFFFF" font-family="'Futura-CondensedLight'" font-size="28.4314" rotate="-34.131">i</tspan><tspan x="225.513" y="-66.996" fill="#FFFFFF" font-family="'Futura-CondensedLight'" font-size="28.4314" rotate="-35.492">o</tspan><tspan x="234.066" y="-73.103" fill="#FFFFFF" font-family="'Futura-CondensedLight'" font-size="28.4314" rotate="-37.442">d</tspan><tspan x="242.215" y="-79.385" fill="#FFFFFF" font-family="'Futura-CondensedLight'" font-size="28.4314" rotate="-39.059"> </tspan><tspan x="247.015" y="-83.284" fill="#FFFFFF" font-family="'Futura-CondensedLight'" font-size="28.4314" rotate="-40.302">r</tspan><tspan x="251.76" y="-87.273" fill="#FFFFFF" font-family="'Futura-CondensedLight'" font-size="28.4314" rotate="-42.037">u</tspan><tspan x="259.397" y="-94.219" fill="#FFFFFF" font-family="'Futura-CondensedLight'" font-size="28.4314" rotate="-43.695">l</tspan><tspan x="262.881" y="-97.5" fill="#FFFFFF" font-family="'Futura-CondensedLight'" font-size="28.4314" rotate="-45.406">e</tspan><tspan x="270.119" y="-104.852" fill="#FFFFFF" font-family="'Futura-CondensedLight'" font-size="28.4314" rotate="-47.928">d</tspan><tspan x="277.046" y="-112.593" fill="#FFFFFF" font-family="'Futura-CondensedLight'" font-size="28.4314" rotate="-50.089"> </tspan><tspan x="281.088" y="-117.433" fill="#FFFFFF" font-family="'Futura-CondensedLight'" font-size="28.4314" rotate="-51.797"> </tspan><tspan x="284.982" y="-122.39" fill="#FFFFFF" font-family="'Futura-CondensedLight'" font-size="28.4314" rotate="-53.582"> </tspan><tspan x="288.73" y="-127.481" fill="#FFFFFF" font-family="'Futura-CondensedLight'" font-size="28.4314" rotate="-55.455"> </tspan><tspan x="292.32" y="-132.706" fill="#FFFFFF" font-family="'Futura-CondensedLight'" font-size="28.4314" rotate="-57.423"> </tspan><tspan x="295.747" y="-138.085" fill="#FFFFFF" font-family="'Futura-CondensedLight'" font-size="28.4314" rotate="-59.5"> </tspan><tspan x="298.987" y="-143.598" fill="#FFFFFF" font-family="'Futura-CondensedLight'" font-size="28.4314" rotate="-61.683"> </tspan><tspan x="302.028" y="-149.265" fill="#FFFFFF" font-family="'Futura-CondensedLight'" font-size="28.4314" rotate="-63.987"> </tspan><tspan x="304.847" y="-155.062" fill="#FFFFFF" font-family="'Futura-CondensedLight'" font-size="28.4314" rotate="-66.409"> </tspan><tspan x="307.433" y="-161.013" fill="#FFFFFF" font-family="'Futura-CondensedLight'" font-size="28.4314" rotate="-68.964"> </tspan><tspan x="309.757" y="-167.093" fill="#FFFFFF" font-family="'Futura-CondensedLight'" font-size="28.4314" rotate="-71.647"> </tspan><tspan x="311.801" y="-173.301" fill="#FFFFFF" font-family="'Futura-CondensedLight'" font-size="28.4314" rotate="-74.46"> </tspan></text>
<g>
	<g>
		
			<line fill="none" stroke="#FFFFFF" stroke-width="1.5" stroke-miterlimit="10" x1="472.283" y1="399.015" x2="471.622" y2="393.922"/>
		<g>
			<path fill="#FFFFFF" d="M470.455,384.945c2.116,4.021,5.472,8.914,8.726,11.795l-7.407-1.64l-6.74,3.478
				C467.445,394.961,469.438,389.373,470.455,384.945z"/>
		</g>
	</g>
</g>
<g>
	<g>
		
			<line fill="none" stroke="#FFFFFF" stroke-width="1.5" stroke-miterlimit="10" x1="507.236" y1="508.166" x2="511.577" y2="515.343"/>
		<g>
			<path fill="#FFFFFF" d="M516.262,523.089c-3.557-2.827-8.6-5.954-12.739-7.279l7.439-1.483l4.768-5.899
				C514.98,512.709,515.408,518.627,516.262,523.089z"/>
		</g>
	</g>
</g>
<line fill="none" stroke="#FFFFFF" stroke-width="2" stroke-miterlimit="10" x1="602" y1="613.224" x2="602" y2="387.224"/>
<line fill="none" stroke="#FFFFFF" stroke-width="2" stroke-miterlimit="10" x1="779" y1="619.224" x2="779" y2="379.224"/>
<line fill="none" stroke="#FFFFFF" stroke-width="2" stroke-miterlimit="10" x1="1123" y1="625.224" x2="1123" y2="339.224"/>
<text transform="matrix(1 0 0 1 605.1611 626.1533)"><tspan x="0" y="0" fill="#FFFFFF" font-family="'Futura-CondensedLight'" font-size="16.585">Relationship to </tspan><tspan x="0" y="19.902" fill="#FFFFFF" font-family="'Futura-CondensedLight'" font-size="16.585">predecessor/successor</tspan></text>
<text transform="matrix(1 0 0 1 781.4238 635.6289)" fill="#FFFFFF" font-family="'Futura-CondensedLight'" font-size="16.585">Burial spot</text>
<text transform="matrix(1 0 0 1 1126.2744 646.291)" fill="#FFFFFF" font-family="'Futura-CondensedLight'" font-size="16.585">Tomb location</text>
<circle fill="#395AFF" cx="1336.947" cy="321.895" r="18.456"/>
<text transform="matrix(1 0 0 1 1366.7188 336.2329)"><tspan x="0" y="0" fill="#395AFF" font-family="'Futura-CondensedLight'" font-size="41.668">Umm el-Qa’ab, Abydos</tspan><tspan x="0" y="50.001" fill="#F906A2" font-family="'Futura-CondensedLight'" font-size="41.668">Saqqara</tspan><tspan x="0" y="100.003" fill="#A000F4" font-family="'Futura-CondensedLight'" font-size="41.668">Giza</tspan><tspan x="0" y="150.005" fill="#6300FF" font-family="'Futura-CondensedLight'" font-size="41.668">Abu Sir</tspan><tspan x="0" y="200.006" fill="#FC0606" font-family="'Futura-CondensedLight'" font-size="41.668">El-Tarif</tspan><tspan x="0" y="250.008" fill="#F3FF00" font-family="'Futura-CondensedLight'" font-size="41.668">Deir-el-Bahri</tspan><tspan x="0" y="300.01" fill="#7C0000" font-family="'Futura-CondensedLight'" font-size="41.668">El-Lisht</tspan></text>
<circle fill="#F906A2" cx="1336.947" cy="371.666" r="18.456"/>
<circle fill="#A000F4" cx="1336.947" cy="421.436" r="18.456"/>
<circle fill="#6300FF" cx="1336.947" cy="472.362" r="18.456"/>
<circle fill="#FC0606" cx="1336.947" cy="522.133" r="18.456"/>
<circle fill="#F3FF00" cx="1336.947" cy="571.903" r="18.456"/>
<circle fill="#7C0000" cx="1336.947" cy="622.83" r="18.456"/>
<text transform="matrix(1 0 0 1 1769.5088 337.8462)"><tspan x="0" y="0" fill="#F46B2F" font-family="'Futura-CondensedLight'" font-size="41.668">Dahshur</tspan><tspan x="0" y="50.001" fill="#AA438D" font-family="'Futura-CondensedLight'" font-size="41.668">El-Lahun</tspan><tspan x="0" y="100.003" fill="#A5007A" font-family="'Futura-CondensedLight'" font-size="41.668">Hawara</tspan><tspan x="0" y="150.005" fill="#FFB600" font-family="'Futura-CondensedLight'" font-size="41.668">Valley of The Kings</tspan><tspan x="0" y="200.006" fill="#2CFF00" font-family="'Futura-CondensedLight'" font-size="41.668">Tanis</tspan><tspan x="0" y="250.008" fill="#01723C" font-family="'Futura-CondensedLight'" font-size="41.668">Sais</tspan><tspan x="0" y="300.01" fill="#64478E" font-family="'Futura-CondensedLight'" font-size="41.668">Kharga Oasis</tspan></text>
<circle fill="#F46B2F" cx="1739.738" cy="321.895" r="18.455"/>
<circle fill="#AA438D" cx="1739.738" cy="371.666" r="18.455"/>
<circle fill="#A5007A" cx="1739.738" cy="421.436" r="18.455"/>
<circle fill="#FFB600" cx="1739.738" cy="472.362" r="18.455"/>
<circle fill="#2CFF00" cx="1739.738" cy="522.133" r="18.455"/>
<circle fill="#01723C" cx="1739.738" cy="571.903" r="18.455"/>
<circle fill="#64478E" cx="1739.738" cy="622.83" r="18.455"/>
<text transform="matrix(1 0 0 1 2163.0615 340.3525)"><tspan x="0" y="0" fill="#00FF85" font-family="'Futura-CondensedLight'" font-size="41.668">Mendes</tspan><tspan x="0" y="50.001" fill="#009668" font-family="'Futura-CondensedLight'" font-size="41.668">Memphis</tspan><tspan x="0" y="100.004" fill="#00E1FF" font-family="'Futura-CondensedLight'" font-size="41.668">Alexandria</tspan><tspan x="0" y="150.005" fill="#A5A5A5" font-family="'Futura-CondensedLight'" font-size="41.668">Greece</tspan><tspan x="0" y="200.007" fill="#727272" font-family="'Futura-CondensedLight'" font-size="41.668">Persia</tspan><tspan x="0" y="250.008" fill="#4C4C4C" font-family="'Futura-CondensedLight'" font-size="41.668">Iran</tspan><tspan x="0" y="300.01" fill="#FFFFFF" font-family="'Futura-CondensedLight'" font-size="41.668">Unknown</tspan></text>
<circle fill="#00FF85" cx="2130.955" cy="321.895" r="18.455"/>
<circle fill="#009668" cx="2130.955" cy="371.666" r="18.455"/>
<circle fill="#00E1FF" cx="2130.955" cy="421.436" r="18.455"/>
<circle fill="#A5A5A5" cx="2130.955" cy="472.362" r="18.455"/>
<circle fill="#727272" cx="2130.955" cy="522.133" r="18.455"/>
<circle fill="#4C4C4C" cx="2130.955" cy="571.903" r="18.455"/>
<circle fill="#FFFFFF" cx="2130.955" cy="622.83" r="18.455"/>
<circle fill="none" stroke="#FFFFFF" stroke-width="1.5" stroke-miterlimit="10" cx="198.77" cy="324.514" r="18.201"/>
<circle fill="none" stroke="#FFFFFF" stroke-width="1.5" stroke-miterlimit="10" cx="198.77" cy="324.617" r="36.403"/>
<circle fill="none" stroke="#FFFFFF" stroke-width="1.5" stroke-miterlimit="10" cx="198.77" cy="324.49" r="54.605"/>
<circle fill="none" stroke="#FFFFFF" stroke-width="1.5" stroke-miterlimit="10" cx="198.77" cy="324.617" r="9.101"/>
<circle fill="none" stroke="#FFFFFF" stroke-width="1.5" stroke-miterlimit="10" cx="198.77" cy="324.617" r="27.303"/>
<circle fill="none" stroke="#FFFFFF" stroke-width="1.5" stroke-miterlimit="10" cx="198.77" cy="324.617" r="45.504"/>
<circle fill="none" stroke="#FFFFFF" stroke-width="1.5" stroke-miterlimit="10" cx="198.77" cy="324.617" r="63.705"/>
<line fill="none" stroke="#FFFFFF" stroke-width="1.5" stroke-miterlimit="10" x1="756.951" y1="323.353" x2="198.77" y2="324.514"/>
<line fill="none" stroke="#FFFFFF" stroke-width="2" stroke-miterlimit="10" x1="196" y1="325.224" x2="196" y2="619.224"/>
<text transform="matrix(1 0 0 1 198.7715 619.8877)" fill="#FFFFFF" font-family="'Futura-CondensedLight'" font-size="18.2016">1 ring = 10 years</text>
<text transform="matrix(1 0 0 1 835.5957 841.5039)" fill="#FFFFFF" font-family="'Futura-CondensedLight'" font-size="29.2199">Unknown Pharaoh</text>
<circle fill="#FFFFFF" cx="806.843" cy="832.087" r="13.149"/>
</svg>
