<?xml version="1.0" encoding="utf-8"?>
<!-- Generator: Adobe Illustrator 16.0.0, SVG Export Plug-In . SVG Version: 6.00 Build 0)  -->
<!DOCTYPE svg PUBLIC "-//W3C//DTD SVG 1.1//EN" "http://www.w3.org/Graphics/SVG/1.1/DTD/svg11.dtd">
<svg version="1.1" id="Layer_1" xmlns="http://www.w3.org/2000/svg" xmlns:xlink="http://www.w3.org/1999/xlink" x="0px" y="0px"
	 width="1000px" height="996.864px" viewBox="0 0 1000 996.864" enable-background="new 0 0 1000 996.864" xml:space="preserve">
<rect x="0.025" y="-0.03" fill="#020202" width="1000" height="996.864"/>
<g>
	<g>
		<g>
			<path fill="#FFFFFF" d="M294.867,237.616c-8.719,5.338-12.911,13.381-12.492,23.565c0.446,10.829,8.413,21.274,4.659,31.91
				c-1.917,5.431-5.77,10.205-8.591,15.179c-2.882,5.083-3.573,9.116-3.573,14.859c0,2.641,1.758,4.901,2.463,7.452
				c0.946,3.422,0.931,7.133,1.075,10.658c0.249,6.101,1.304,11.9,3.565,17.591c1.898,4.777,4.708,9.002,5.902,14.066
				c0.59,2.505,0.251,4.88,0.202,7.391c-0.025,1.284-0.051,2.568-0.076,3.853c-0.129,6.513-0.258,13.026-0.387,19.539
				c-1.129,57.089-2.258,114.178-3.387,171.268c-0.995,50.317-1.99,100.635-2.985,150.952c-0.054,2.708-0.107,5.417-0.161,8.126
				c-0.016,0.801,0.694,1.522,1.5,1.5c99.993-2.738,200.091,2.734,300.028-2.746c0.835-0.046,1.475-0.648,1.5-1.5
				c0.129-4.35,5.91-1.452,6.168,1.834c0.063,0.813,0.634,1.501,1.5,1.5c15.642-0.022,31.275-0.554,46.915-0.755
				c7.539-0.097,15.079-0.079,22.617,0.094c3.717,0.085,7.432,0.244,11.146,0.438c5.834,0.305,6.528,5.136,9.361,9.011
				c5.216,7.132,14.379,6.955,21.678,3.551c3.849-1.795,7.462-4.939,9.895-8.397c1.88-2.672,3.562-5.454,5.069-8.351
				c1.724-3.315,2.312-7.347,5.473-9.632c4.305-3.113,11.101-2.085,16.109-3.372c4.423-1.136,8.312-4.02,10.556-7.964
				c1.974-3.47,2.149-7.847,2.382-11.728c0.161-2.709,0.295-5.399,0.724-8.085c0.181-1.132,0.346-2.844,1.353-3.608
				c1.828-1.388,4.342,2.49,5.259,3.291c2.192,1.916,6.133,3.346,8.567,1.059c3.927-3.688,8.898-6.039,12.666-9.914
				c7.028-7.229-0.961-21.098-2.604-29.056c-0.572-2.771-0.444-5.462,0.174-8.204c0.521-2.316,1.334-2.352,1.101-4.287
				c-0.121-1.012-0.51-2.04-0.964-2.948c-0.534-1.07-2.598-3.183-2.591-4.38c0.037-6.121,5.671,0.091,8.373,1.604
				c1.48,0.829,4.102,1.262,5.45-0.136c3.14-3.256,1.817-8.708-1.736-11.051c-3.701-2.44-8.283-3.772-12.084-6.232
				c-4.659-3.016-8.562-6.997-11.674-11.568c-1.081-1.589-3.682-0.09-2.59,1.514c3.156,4.638,6.97,8.448,11.482,11.771
				c2.461,1.812,5.159,3.287,7.876,4.67c3.319,1.69,8.079,2.616,7.39,7.386c-0.539,3.729-7.025-1.954-8.101-2.686
				c-1.1-0.748-3.098-1.758-4.457-1.34c-2.707,0.832-3.576,4.819-2.881,7.348c0.717,2.606,4.639,4.317,3.156,7.679
				c-0.942,2.139-1.195,4.452-1.3,6.759c-0.285,6.258,2.681,12.504,4.337,18.402c0.816,2.904,1.672,6.723,1.162,9.777
				c-0.465,2.784-3.869,4.978-5.934,6.463c-1.85,1.331-3.788,2.536-5.588,3.938c-1.847,1.438-3.309,3.346-6.366,1.788
				c-1.938-0.987-2.816-3.049-4.21-4.604c-1.743-1.945-6.053,0.014-7.111,1.822c-2.17,3.703-1.704,9.899-1.95,14.017
				c-0.357,5.981-1.699,11.019-7.21,14.169c-5.39,3.08-11.879,1.986-17.638,3.842c-5.479,1.765-6.444,5.877-8.529,10.603
				c-2.741,6.215-6.708,12.103-12.437,15.868c-4.619,3.038-10.622,4.296-15.765,1.901c-5.626-2.62-6.029-9.522-10.653-13.047
				c-1.588-1.211-5.244-0.644-7.066-0.738c-3.721-0.194-7.445-0.3-11.17-0.385c-7.545-0.174-15.095-0.123-22.641-0.026
				c-15.008,0.193-30.01,0.709-45.021,0.73c0.5,0.5,1,1,1.5,1.5c-0.565-7.208-11.902-10.77-12.168-1.834c0.5-0.5,1-1,1.5-1.5
				c-99.937,5.48-200.035,0.008-300.028,2.746c0.5,0.5,1,1,1.5,1.5c0.742-37.496,1.483-74.992,2.225-112.488
				c1.233-62.326,2.465-124.652,3.698-186.978c0.335-16.961,0.671-33.922,1.006-50.883c0.023-1.168,0.046-2.337,0.069-3.506
				c0.165-8.333-2.373-13.932-5.86-21.343c-2.829-6.013-3.609-12.621-3.876-19.177c-0.114-2.794-0.348-5.551-0.788-8.312
				c-0.512-3.213-2.686-6.255-2.686-9.463c0-12.227,10.511-20.117,13.12-31.649c1.757-7.763-3.221-15.779-4.827-23.236
				c-2.348-10.907,0.386-20.76,10.218-26.78C298.028,239.199,296.521,236.603,294.867,237.616L294.867,237.616z"/>
		</g>
	</g>
	<g>
		<g>
			<path fill="#FFFFFF" d="M294.788,238.613c-0.231,0.386-0.394,0.742-0.553,1.161c0.964,0,1.929,0,2.893,0
				c-0.001-0.287-0.002-0.575-0.004-0.862c-0.5,0.5-1,1-1.5,1.5c2.072-0.193,1.644,3.141,2.215,4.392
				c0.876,1.917,2.301,3.09,4.119,4.097c4.331,2.398,9.482,2.442,14.098,1.144c3.165-0.89,6.138-2.366,9.309-3.268
				c4.196-1.193,9.14-1.15,13.414-0.459c6.785,1.097,13.149,3.911,19.577,6.218c5.621,2.018,11.404,3.261,17.379,3.429
				c3.891,0.109,7.865-0.519,11.717,0.284c3.478,0.726,6.411,3.35,8.974,5.629c4.765,4.238,13.512,11.924,20.356,7.842
				c0.704-0.419,4.895-3.976,5.476-1.241c0.287,1.353,0.532,3.04,1.893,3.818c1.521,0.87,2.598,0.841,4.324,0.547
				c3.774-0.642,5.142,2.098,8.403,2.541c1.161,0.158,2.373-0.232,3.293-0.944c2.753-2.13,4.341-0.645,6.801,0.301
				c2.836,1.09,6.882-2.062,9.195,0.982c1.307,1.721,2.925,3.327,4.698,4.568c8.623,6.036,19.796,5.827,28.69,0.423
				c4.931-2.996,10.178-7.283,13.952-11.614c3.461-3.972,6.662-9.94,12.112-11.322c-0.633-0.482-1.266-0.964-1.898-1.446
				c0.008,3.211-0.059,10.006,4.555,10.33c1.691,0.119,4.227-0.271,5.189-1.916c1.34-2.288-0.951-4.354-1.242-6.58
				c-0.5,0.5-1,1-1.5,1.5c2.653,0,5.141-0.371,6.619-2.797c0.634-1.041,0.593-2.57,0.825-3.733c0.802-4.006,2.113,0.064,2.899,0.847
				c1.58,1.575,4.039,2.858,6.124,1.543c1.976-1.246,0.62-4.357-0.045-5.912c-0.299,0.734-0.598,1.469-0.896,2.203
				c1.681-0.532,3.259,1.421,5.102,1.429c2.618,0.012,4.757-3.08,7.275-3.721c-0.633-0.482-1.266-0.964-1.898-1.446
				c0.001,1.949-3.602,6.203-0.828,7.575c1.061,0.525,3.503,0.239,4.461-0.322c1.226-0.718,0.358-1.937,0.995-2.829
				c-0.564,0.229-1.129,0.459-1.693,0.689c1.351,0.367,1.802,2.092,3.209,2.291c1.219,0.172,2.282,0.376,3.491,0.116
				c1.964-0.422,5.55-4.001,6.034-6.011c0.439-1.82-0.309-3.035-1.836-4.009c-0.867-0.553-1.441-0.809-1.645-0.567
				c2.513-3,7.328,1.443,8.881,3.209c1.279,1.456,3.393-0.674,2.121-2.121c-2.639-3.002-12.119-8.785-14.065-1.71
				c-0.455,1.652,0.997,2.663,2.265,3.299c2.28,1.145,0.801,1.988-0.864,3.454c-2.528,2.226-4.332-0.176-6.794-0.844
				c-0.694-0.189-1.297,0.133-1.693,0.689c-0.308,0.431-0.594,0.761-0.599,1.309c0.243,0.862-0.056,1.059-0.896,0.59
				c0.405,1.11,0.748,1.208,1.028,0.294c0.94-1.625,1.43-3.225,1.429-5.103c-0.001-0.99-0.955-1.686-1.898-1.446
				c-1.688,0.429-5.953,4.089-7.333,3.505c-2.131-0.901-2.537-2.008-5.044-1.214c-1.007,0.318-1.283,1.3-0.896,2.203
				c-0.553,0.101-1.106,0.202-1.659,0.303c-0.293-0.488-0.571-0.984-0.835-1.488c-0.289-0.533-0.612-0.926-1.005-1.378
				c-0.634-0.73-1.591-0.653-2.427-0.519c-5.235,0.84-1.284,8.621-7.907,8.621c-0.737,0-1.606,0.687-1.5,1.5
				c0.123,0.945,1.79,4.967,0.642,5.429c-3.423,1.377-3.14-5.906-3.144-7.263c-0.003-0.99-0.954-1.686-1.898-1.446
				c-3.987,1.01-6.759,4.012-9.348,7.045c-3.898,4.566-7.62,8.44-12.248,12.329c-5.583,4.69-11.407,7.561-18.782,7.596
				c-7.581,0.036-11.91-4.23-16.844-9.165c-1.004-1.005-2.648-1.101-3.947-1.271c-3.322-0.435-5.299,0.974-8.548-1.188
				c-3.624-2.412-6.615,3.589-10.375,0.993c-1.03-0.711-2.986-1.879-4.322-1.725c-2.938,0.339-4.771,0.475-5.481-2.871
				c-0.71-3.347-4.06-2.742-6.279-1.623c-1.389,0.7-3.643,2.563-5.158,2.761c-2.681,0.349-5.69-1.354-7.953-2.57
				c-4.426-2.378-7.682-6.377-11.756-9.271c-4.434-3.148-9.303-3.129-14.527-3.008c-7.632,0.176-14.551-1.286-21.7-3.852
				c-12.036-4.32-23.461-8.524-36.192-4.184c-6.401,2.183-13.5,5.199-19.632,0.302c-2.829-2.26-1.021-8.249-6.104-7.775
				c-0.81,0.075-1.506,0.625-1.5,1.5c0.003,0.549-0.059,1.126,0.111,1.659c0.474,1.487,2.373,1.365,2.893,0
				c0.083-0.148,0.167-0.296,0.251-0.444C298.374,238.462,295.779,236.954,294.788,238.613L294.788,238.613z"/>
		</g>
	</g>
	<g>
		<g>
			<path fill="#FFFFFF" d="M567.999,249.985c3.941,1.055,7.727,1.074,11.721,1.669c2.991,0.445,5.111,0.491,7.667-1.205
				c1.901-1.262,3.531-3.45,6.134-2.292c1.369,0.609,2.531,1.673,3.606,2.686c0.466,0.438,3.616,4.383,0.737,2.933
				c-1.245-0.627-1.949-1.167-3.335-1.237c-4.101-0.209-4.227,6.446-1.675,8.298c0.979,0.71,1.698,1.229,2.947,1.325
				c3.175,0.244,3.956,2.999,4.296,5.563c0.269,2.02,1.555,3.024,3.347,3.755c3.825,1.56,8.497-2.072,9.475-5.564
				c0.494-1.762-0.5-3.373-1.745-4.489c-2.395-2.147,2.443-2.008,3.852-1.797c2.577,0.385,4.601,1.713,6.694,3.159
				c2.772,1.915,5.523,4.717,8.847,5.663c3.054,0.869,3.878-0.192,6.537-1.046c2.853-0.916,5.58,1.414,8.211,0.627
				c1.055-0.315,2.188-0.665,2.994-1.471c1.306-1.305,1.974-3.655,3.924-4.2c-0.633-0.482-1.266-0.964-1.898-1.446
				c0.28,2.994,0.364,8.979,4.658,8.979c1.829,0,3.677-1.258,4.859-2.543c0.38-0.413,0.598-1.066,0.617-1.622
				c0.059-1.729,2.107,1.043,2.802,1.466c1.335,0.813,2.946,1.241,4.449,0.518c1.301-0.626,2.075-1.218,2.996-2.355
				c2.348-2.897,3.926-2.66,6.791-2.392c6.443,0.601,9.196-5.262,13.592-8.548c10.594-7.919,20.356,33.671,25.689,38.732
				c0.101-0.785,0.202-1.57,0.304-2.356c-2.099,1.447-7.878,9.696-2.785,11.058c0.897,0.24,2.96-0.373,3.489,0.219
				c2.324,2.599,4.068,5.724,5.705,8.78c3.163,5.907,5.777,12.317,8.202,18.56c2.566,6.607-0.906,14.298-3.367,20.397
				c-2.529,6.27-4.024,12.389-4.81,19.094c-0.923,7.876-2.205,14.899-4.973,22.341c-2.219,5.966-3.389,12.44-5.817,18.268
				c-0.744,1.786,2.16,2.556,2.893,0.798c1.753-4.207,2.435-8.87,3.939-13.19c1.77-5.082,3.832-10.027,5.229-15.234
				c1.265-4.717,1.37-9.918,1.937-14.748c0.753-6.426,2.734-12.166,5.139-18.125c3.645-9.033,4.617-16.176,0.715-25.18
				c-3.806-8.781-7.208-17.776-13.678-25.01c-0.321-0.359-0.999-0.572-1.459-0.386c-3.894,1.57-0.146-4.155,1.155-5.052
				c0.771-0.532,1.047-1.651,0.304-2.356c-2.454-2.329-3.7-6.024-4.924-9.083c-1.71-4.276-3.223-8.628-4.913-12.911
				c-2.35-5.95-5.602-15.58-12.323-17.988c-2.909-1.042-5.721-0.298-8.143,1.512c-1.975,1.476-3.434,3.58-5.193,5.291
				c-3.385,3.292-6.868,0.626-10.432,2.005c-2.433,0.94-3.451,2.227-5.06,4.212c-2.135,2.635-4.423-1.561-6.461-1.442
				c-1.373,0.08-2.927,0.051-3.713,1.393c-0.742,1.267,0.405,1.126-1.526,2.409c-2.629,1.745-2.833-4.924-2.888-5.511
				c-0.09-0.954-0.892-1.728-1.898-1.446c-2.285,0.638-3.27,1.775-4.332,3.844c-1.55,3.017-6.885,0.402-9.48,0.803
				c-1.076,0.166-2.248,0.625-3.169,1.21c-2.101,1.333-4.574-0.446-6.296-1.546c-3.372-2.153-6.23-4.861-9.951-6.452
				c-3.068-1.312-10.223-1.963-11.435,2.441c-0.362,1.317,0.248,2.381,1.325,3.129c3.312,2.301,0.503,4.869-1.821,5.64
				c-3.166,1.049-3.312-2.144-3.564-4.242c-0.23-1.923-1.181-3.752-3.13-4.451c-0.503-0.273-1.032-0.434-1.59-0.48
				c-1.84,0.128-2.703-1.063-2.591-3.572c1.183,0.57,1.982,1.161,3.28,1.413c3.878,0.751,3.832-3.815,2.615-5.98
				c-1.545-2.749-5.993-6.907-9.46-6.424c-3.469,0.482-5.446,3.895-8.813,4.2c-4.308,0.39-10.157-0.819-14.228-1.909
				C566.925,246.591,566.132,249.485,567.999,249.985L567.999,249.985z"/>
		</g>
	</g>
	<g>
		<g>
			<path fill="#FFFFFF" d="M712.429,411.125c0.107,0.275,0.243,0.536,0.407,0.781c0.299-0.734,0.598-1.469,0.896-2.204
				c-0.136,0.045-0.271,0.09-0.407,0.136c-0.639,0.212-1.102,0.752-1.102,1.446c0,2.833,0.124,5.599,0.326,8.422
				c0.185,2.581-1.189,4.409-2.279,6.604c-0.805,1.619-1.011,3.585-1.503,5.313c-0.68,2.382-8.865-1.034-10.372-1.348
				c-3.118-0.651-6.148-0.974-8.99-2.535c-3.312-1.818-5.112-6.034-6.479-9.333c-1.839-4.437-3.198-8.834-7.496-11.467
				c-1.793-1.098-3.993-1.657-5.894-2.526c-3.917-1.79-3.153-4.29-4.946-7.182c-1.902-3.068-3.985-6.074-5.369-9.431
				c-1.234-2.993-0.013-6.174,0.336-9.198c0.527-4.555,0.035-7.883-3.648-10.818c-4.397-3.504-9.195-5.682-13.062-9.979
				c-4.249-4.724-4.518-11.299-6.264-17.111c-1.414-4.702-4.301-9.521-7.838-12.924c-2.272-2.187-5.025-2.249-7.098,0.057
				c-1.118,1.244-1.396,2.917-1.536,4.503c-0.106,1.193,0.084,2.468,0.095,3.667c0.016,1.706-1.785,4.599-2.453,6.4
				c-4.486,12.092,12.875,13.384,13.449,23.316c0.253,4.389-1.136,8.751-0.3,13.11c1.03,5.372,7.424,7.013,10.011,11.212
				c1.301,2.112,1.403,4.72,2.749,6.876c1.272,2.041,3.043,3.68,4.846,5.241c4.776,4.137,7.822,7.6,10.161,13.555
				c1.188,3.023,2.545,6.792,5.35,8.718c1.634,1.122,3.039,1.513,5.009,1.355c4.607-0.369,5.217,3.801,2.598,5.336
				c-2.201,1.29-1.79,3.871-0.165,5.41c3.82,3.616,3.604,10.236,5.906,14.954c0.871,1.786,2.123,3.34,3.424,4.824
				c1.937,2.208,4.794,3.347,5.814,6.265c0.706,2.019-0.159,3.642,1.531,5.332c1.712,1.712,3.655,2.721,5.174,4.8
				c1.382,1.891,2.38,4.159,3.633,6.153c2.441,3.884,0.397,7.053,0.103,10.937c-0.417,5.49,3.135,9.832,5.857,14.312
				c1.658,2.729,3.157,5.457,4.331,8.437c1.009,2.562,1.375,5.332,2.569,7.842c2.891,6.077,8.493,10.504,12.559,15.792
				c2.897,3.771,6.111,7.012,9.237,10.584c2.46,2.811,3.73,6.623,5.302,9.952c1.659,3.514,3.394,6.992,5.131,10.468
				c3.368,6.736,6.59,13.601,10.446,20.074c3.525,5.917,7.47,11.526,10.38,17.793c0.813,1.754,3.399,0.229,2.59-1.514
				c-2.903-6.255-6.786-11.929-10.379-17.793c-4.267-6.962-7.668-14.517-11.316-21.814c-2.929-5.858-5.131-13.036-9.182-18.203
				c-1.647-2.101-3.532-3.931-5.42-5.81c-2.501-2.49-4.369-5.549-6.589-8.285c-2.165-2.669-4.567-5.152-6.861-7.709
				c-2.794-3.114-3.992-6.709-5.128-10.647c-1.769-6.13-5.548-11.536-8.867-16.915c-3.689-5.975,1.404-11.753-1.459-17.783
				c-2.028-4.272-4.972-9.434-8.917-12.224c-1.965-1.389-1.314-4.245-2.448-6.263c-0.97-1.727-2.447-2.697-3.895-4.017
				c-2.705-2.468-4.629-4.948-6.061-8.346c-1.261-2.992-1.34-6.17-2.334-9.211c-0.432-1.32-1.297-3.096-2.547-3.867
				c-1.579-0.974,1.078-1.63,1.548-2.432c1.475-2.518,0.681-7.409-1.913-8.929c-2.4-1.406-4.874,0.261-7.321-0.881
				c-2.535-1.183-3.839-5.118-4.797-7.492c-1.945-4.824-3.825-8.694-7.775-12.242c-2.036-1.828-4.206-3.445-6.111-5.42
				c-2.409-2.496-2.784-5.734-4.172-8.727c-2.493-5.38-9.869-5.992-9.911-12.895c-0.049-7.949,2.372-14.479-5.021-19.792
				c-1.978-1.421-4.039-2.69-5.855-4.327c-3.891-3.505-2.27-8.096-0.438-12.179c0.896-1.998,0.964-3.586,0.857-5.75
				c-0.141-2.837,2.011-5.108,4.346-2.862c1.114,1.072,1.95,2.471,2.769,3.771c5.589,8.878,4.638,19.602,12.283,27.356
				c3.153,3.198,6.839,5.296,10.607,7.642c6.145,3.824,2.4,10.446,2.587,16.197c0.173,5.349,4.761,9.318,6.646,14.008
				c1.678,4.174,2.312,5.788,6.727,7.805c1.589,0.726,3.252,1.25,4.817,2.034c3.176,1.593,4.376,5.285,5.589,8.349
				c1.689,4.267,3.532,8.822,7.332,11.664c3.97,2.969,8.973,3.108,13.631,4.287c2.945,0.746,8.073,3.864,10.425,0.217
				c0.711-1.102,0.985-2.363,1.298-3.625c0.59-2.389,1.719-4.278,2.69-6.511c1.614-3.713,0.343-8.722,0.343-12.627
				c-0.367,0.482-0.734,0.964-1.102,1.446c0.136-0.045,0.271-0.09,0.407-0.135c0.904-0.301,1.416-1.337,0.896-2.204
				c-0.164-0.246-0.3-0.506-0.407-0.782C714.21,407.855,711.625,409.381,712.429,411.125L712.429,411.125z"/>
		</g>
	</g>
	<g>
		<g>
			<path fill="#FFFFFF" d="M684.021,445.879c0.566-0.727,1.115-1.854,2.094-1.069c0.716,0.574,1.692,2.264,0.969,3.142
				c-0.616,0.748-1.837,0.646-2.657,0.406c-0.231-0.055-0.451-0.139-0.661-0.251c-0.202-0.1-0.171-0.218-0.151-0.016
				c-0.045-0.46,0.279-1.039,0.462-1.449c0.782-1.75-1.803-3.277-2.59-1.514c-0.953,2.132-1.446,4.473,1.057,5.713
				c2.183,1.081,5.227,0.974,6.862-1.011c1.772-2.149,0.652-5.413-1.169-7.142c-1.041-0.988-2.303-1.343-3.697-1.096
				c-1.165,0.206-1.967,1.302-2.639,2.165C680.727,445.265,682.833,447.404,684.021,445.879L684.021,445.879z"/>
		</g>
	</g>
	<g>
		<g>
			<path fill="#FFFFFF" d="M695.089,448.064c0.375-1.161,4.255-0.738,4.608,0.334c0.386,1.168-2.196,2.758-2.996,3.037
				c-2.077,0.723-2.084-2.537-2.092-3.77c-0.013-1.934-3.013-1.935-3,0c0.02,3.015,0.927,6.986,4.729,6.867
				c3.029-0.095,6.104-3.125,6.356-6.096c0.214-2.519-2.859-3.739-4.856-3.937c-2.228-0.22-4.877,0.397-5.642,2.767
				C691.601,449.113,694.498,449.897,695.089,448.064L695.089,448.064z"/>
		</g>
	</g>
	<g>
		<g>
			<path fill="#FFFFFF" d="M530.374,254.5c0.397,4.947,3.161,8.868,5.707,12.981c3.106,5.02,8.468,8.497,10.518,14.147
				c2.31,6.368,0.856,13.438,3.193,19.877c2.137,5.887,7.698,10.561,11.35,15.486c0.842,1.136,2.794,0.852,2.795-0.757
				c0.003-3.159-0.06-6.301,0.631-9.402c0.716-3.212,2.61-5.943,3.748-8.986c2.648-7.085,0.854-16.713,5.614-22.709
				c3.384-4.263,8.641-6.46,11.855-10.949c1.264-1.765,1.285-3.843,2.148-5.74c1.189-2.616,6.495-2.645,8.88-3.877
				c1.72-0.888,0.202-3.477-1.514-2.591c-2.834,1.464-6.185,1.109-8.627,3.417c-1.458,1.378-1.854,2.811-2.322,4.711
				c-1.611,6.555-10.018,8.845-13.538,14.169c-4.623,6.993-2.529,16.477-6.002,24.083c-2.82,6.177-3.868,11.061-3.874,17.872
				c0.932-0.252,1.863-0.505,2.795-0.757c-3.373-4.551-7.421-8.607-10.391-13.447c-3.503-5.711-2.054-13.469-3.516-19.813
				c-2.46-10.68-15.522-16.167-16.451-27.718C533.22,252.585,530.219,252.57,530.374,254.5L530.374,254.5z"/>
		</g>
	</g>
	<g>
		<g>
			<path fill="#FFFFFF" d="M560.531,316.992c2.964,5.448,5.662,10.937,6.911,17.05c1.373,6.722-0.263,13.35-0.974,20.025
				c-0.758,7.11-0.818,13.186-4.717,19.434c-3.497,5.604-8.251,10.627-10.175,17.057c-1.688,5.641-1.698,11.752-2.582,17.54
				c-0.937,6.134-0.438,11.712,0.984,17.75c1.598,6.775,2.806,12.74,2.809,19.754c0.003,6.408,0.701,11.777,4.006,17.36
				c2.809,4.746,7.111,8.56,11.308,12.039c5.836,4.838,11.064,10.499,16.221,16.037c4.363,4.686,8.438,9.863,13.413,13.915
				c2.71,2.207,4.13,4.621,3.463,8.32c-0.444,2.456-0.823,3.761,0.287,6.045c1.63,3.354,6.739,3.689,9.857,4.188
				c5.731,0.917,10.227,4.299,16.199,2.217c2.972-1.035,4.392-2.843,7.923-2.277c2.978,0.477,7.06,1.404,7.064,5.083
				c0.006,4.3-1.243,7.391,0.086,11.7c-0.193,1.645-1.091,2.751-2.693,3.32c-1.613,1.052-0.111,3.65,1.514,2.59
				c2.6-1.695,4.738-3.39,4.072-6.707c-0.488-2.435-1.005-4.166-0.614-6.746c0.266-1.759,0.837-3.588,0.581-5.381
				c-0.494-3.467-3.518-5.308-6.671-6.216c-1.946-0.561-4.053-0.85-6.073-0.972c-2.451-0.148-4.944,2.35-7.12,3.108
				c-3.566,1.243-7.89-0.842-11.225-1.998c-2.12-0.735-4.359-0.901-6.546-1.362c-2.309-0.486-4.613-1.571-4.071-4.573
				c0.162-0.898,0.661-1.909,0.597-2.844c-0.163-2.346-0.268-4.358-1.399-6.462c-0.87-1.616-2.646-2.777-4.024-3.9
				c-2.457-2.001-4.51-4.494-6.65-6.817c-5.069-5.503-10.11-11.023-15.449-16.27c-4.599-4.519-9.779-8.412-14.142-13.165
				c-5.908-6.438-6.909-13.446-6.913-21.868c-0.003-6.154-0.887-11.468-2.518-17.374c-1.989-7.201-1.904-13.523-0.941-20.821
				c0.883-6.682,0.941-13.502,4.413-19.472c3.37-5.796,8.213-10.798,10.678-17.098c2.126-5.434,1.573-11.912,2.342-17.603
				c0.771-5.713,1.743-11.277,0.789-17.055c-1.134-6.867-4.129-13.003-7.429-19.066
				C562.196,313.778,559.606,315.292,560.531,316.992L560.531,316.992z"/>
		</g>
	</g>
	<g>
		<g>
			<path fill="#FFFFFF" d="M608.749,268.63c3.537,1.77,2.771,6.115,2.781,9.42c0.009,2.847,0.648,5.621,1.482,8.323
				c1.199,3.886,2.602,7.276,1.695,11.424c-0.612,2.805-3.179,4.273-3.934,6.925c-1.039,3.651,4.037,6.758,6.812,7.612
				c6.531,2.011,0.761,14.41,5.44,18.917c0.993,0.956,2.461,0.22,2.561-1.061c0.021-0.267-0.056-0.46,0.034-0.719
				c0.637-1.833-2.262-2.613-2.893-0.798c-0.216,0.621-0.095,0.923-0.142,1.517c0.854-0.354,1.708-0.707,2.562-1.061
				c-2.981-2.87-1.045-9.519-1.505-13.243c-0.26-2.106-1.283-4.003-2.917-5.329c-2.293-1.86-4.593-1.623-6.611-4.305
				c-0.604-0.802,3.518-7.807,3.807-9.131c1.388-6.349-3.158-12.755-3.392-19.072c-0.169-4.576,0.509-9.62-4.268-12.011
				C608.538,265.176,607.019,267.764,608.749,268.63L608.749,268.63z"/>
		</g>
	</g>
	<g>
		<g>
			<path fill="#FFFFFF" d="M620.578,311.811c-1.916-4.281-4.757-8.421-2.443-13.156c0.846-1.731-1.741-3.252-2.59-1.515
				c-2.89,5.913,0.002,10.732,2.443,16.185C618.777,315.088,621.361,313.561,620.578,311.811L620.578,311.811z"/>
		</g>
	</g>
	<g>
		<g>
			<path fill="#FFFFFF" d="M639.232,544.443c-1.115,4.323-6.889,5.426-7.542,10.04c-0.426,3.012,1.412,6.329,2.696,8.924
				c2.078,4.2,8.356,16.495,14.708,14.975c2.199-0.526,2.971-2.463,4.194,0.48c1.54,3.706-1.472,8.15-1.888,11.826
				c-0.407,3.599-0.421,7.245-0.31,10.86c0.125,4.018,0.249,15.707,6.702,15.09c-0.482-0.367-0.964-0.734-1.446-1.102
				c1.169,5.156-0.929,10.301-2.255,15.229c-1.386,5.145-0.446,11.001-4.593,15.06c-3.563,3.488-7.414,6.753-3.215,11.663
				c1.688,1.975,3.79,3.513,5.556,5.413c1.374,1.479,1.36,2.958,0.379,4.659c-0.656,1.135-3.993,0.813-5.217,1.146
				c-1.351,0.365-3.684,0.59-4.145,2.266c-0.222,0.807,0.012,1.706,0.08,2.516c0.21,2.483-0.688,5.241-1.274,7.644
				c-1.16,4.755-3.769,7.621-6.384,11.531c-1.024,1.53-2.098,3.019-3.247,4.458c-1.862,2.33-2.888,2.054-5.421,0.694
				c-3.215-1.725-5.856-2.541-9.558-2.455c-5.035,0.117-7.105,3.688-11.416,5.253c-3.967,1.441-11.612,2.826-7.515,8.652
				c2.185,3.106-5.568,6.552-7.28,8.071c-2.036,1.807-2.964,4.324-4.554,6.473c0.564-0.229,1.13-0.46,1.694-0.689
				c-0.028-0.004-0.057-0.009-0.086-0.013c-1.892-0.284-2.705,2.606-0.797,2.893c0.028,0.004,0.057,0.009,0.085,0.013
				c0.736,0.111,1.249-0.088,1.694-0.689c1.899-2.567,2.804-5.032,5.576-6.902c2.513-1.694,5.72-3.428,6.892-6.418
				c0.771-1.966-1.17-6.487,0.799-6.908c2.64-0.564,6.856-2.193,8.952-4.006c4.775-4.129,10.033-2.811,15.075-0.104
				c1.821,0.977,3.96,1.962,5.772,0.47c2.978-2.449,4.595-5.987,7.189-8.765c2.796-2.992,4.336-6.882,5.42-10.761
				c0.877-3.133,1.662-6.519,1.243-9.78c-0.143-1.112,5.476-0.028,6.993-1.049c4.686-3.15,3.47-8.124,0-11.518
				c-1.95-1.907-5.11-3.722-5.391-6.708c-0.198-2.12,3.858-4.573,5.167-5.854c1.276-1.25,1.832-2.896,2.439-4.523
				c1.812-4.848,1.787-10.339,3.212-15.367c1.166-4.112,1.979-8.161,1.02-12.388c-0.137-0.602-0.812-1.162-1.446-1.102
				c-4.632,0.443-3.788-16.048-3.685-18.935c0.167-4.636,6.174-18.068-0.646-20.553c-2.876-1.048-4.743,2.502-7.741,0.006
				c-2.998-2.495-5.185-6.083-7.167-9.387c-1.547-2.579-4.355-6.782-3.905-9.963c0.527-3.727,6.42-5.48,7.475-9.567
				C642.609,543.366,639.715,542.571,639.232,544.443L639.232,544.443z"/>
		</g>
	</g>
	<g>
		<g>
			<path fill="#FFFFFF" d="M653.85,634.698c-0.244,2.322-0.744,3.86-0.231,6.15c0.797,3.568,2.682,6.136,1.661,10.022
				c-0.879,3.346-2.099,6.877,0.495,9.887c1.3,1.509,2.823,2.774,4.241,4.168c4.048,3.977-0.986,4.525-2.388,6.258
				c-2.562,3.169,0.691,6.601,0.5,9.972c0.367-0.482,0.734-0.964,1.102-1.446c-2.884,0.874-3.999,2.624-3.945,5.597
				c0.062,3.367-3.311-1.305-3.842-1.927c-0.703-0.823-1.604-1.292-2.71-0.987c-4.975,1.368-2.785,7.384-5.958,9.67
				c-5.03,3.625-9.63,8.019-16.217,7.704c-4.759-0.227-9.72-2.431-13.815,0.853c-2.36,1.894-1.222,9.511-3,10.014
				c-5.859,1.655-8.369,9.179-14.587,10.96c-4.12,1.18-7.443,1.481-8.492,6.23c-0.417,1.885,2.476,2.686,2.893,0.797
				c0.786-3.558,3.581-3.501,6.397-4.135c2.13-0.479,4.074-1.854,5.747-3.203c2.354-1.897,4.452-4.02,6.558-6.184
				c1.3-1.336,4.01-1.471,5.035-3.005c0.604-0.904,1.235-2.073,0.64-3.177c-1.806-3.343,2.023-7.153,5.217-7.086
				c5.103,0.108,9.964,2.145,14.897-0.265c3.985-1.946,7.543-4.968,11.134-7.557c1.273-0.917,1.732-1.821,2.313-3.224
				c0.28-0.679,0.717-7.158,2.303-4.392c1.379,2.405,3.99,3.785,6.747,3.052c3.335-0.887,0.1-5.818,3.482-6.844
				c0.669-0.202,1.062-0.761,1.102-1.446c0.085-1.486-0.046-2.719-0.646-4.11c-1.396-3.233-0.427-3.486,1.582-5.298
				c2.39-2.155,2.765-5.087,1.04-7.791c-0.904-1.416-2.402-2.521-3.629-3.638c-3.291-2.998-1.936-6.242-0.979-9.885
				c0.558-2.125-0.033-4.528-0.638-6.565c-0.968-3.266-1.374-5.693-1.009-9.17C657.052,632.775,654.05,632.794,653.85,634.698
				L653.85,634.698z"/>
		</g>
	</g>
</g>
<circle fill="#395AFF" cx="34.143" cy="498.366" r="3.805"/>
<circle fill="#395AFF" cx="34.47" cy="510.626" r="3.805"/>
<circle fill="#395AFF" cx="35.118" cy="522.873" r="3.805"/>
<circle fill="#395AFF" cx="36.087" cy="535.099" r="3.805"/>
<circle fill="#395AFF" cx="37.375" cy="547.295" r="3.805"/>
<path fill="#395AFF" d="M42.755,558.958c0.274,2.08-1.192,3.992-3.276,4.268c-2.083,0.274-3.995-1.191-4.268-3.276
	c-0.274-2.083,1.192-3.995,3.276-4.269C40.57,555.408,42.481,556.873,42.755,558.958z"/>
<circle fill="#395AFF" cx="40.908" cy="571.567" r="3.805"/>
<path fill="#395AFF" d="M46.89,582.932c0.382,2.062-0.982,4.049-3.048,4.433s-4.052-0.982-4.435-3.048
	c-0.383-2.066,0.982-4.053,3.048-4.436C44.522,579.5,46.507,580.863,46.89,582.932z"/>
<path fill="#395AFF" d="M49.427,594.83c0.435,2.052-0.875,4.073-2.931,4.512c-2.055,0.436-4.077-0.878-4.513-2.932
	c-0.437-2.056,0.875-4.077,2.931-4.514C46.969,591.46,48.989,592.772,49.427,594.83z"/>
<path fill="#395AFF" d="M52.274,606.656c0.489,2.04-0.769,4.096-2.812,4.587c-2.043,0.49-4.098-0.77-4.588-2.812
	c-0.49-2.044,0.768-4.099,2.812-4.589C49.729,603.353,51.784,604.61,52.274,606.656z"/>
<path fill="#395AFF" d="M55.431,618.404c0.542,2.025-0.661,4.114-2.69,4.66c-2.03,0.541-4.117-0.663-4.66-2.692
	c-0.545-2.03,0.66-4.117,2.69-4.661C52.8,615.169,54.885,616.372,55.431,618.404z"/>
<circle fill="#FF00B1" cx="55.245" cy="631.145" r="3.804"/>
<path fill="#FF00B1" d="M62.659,641.631c0.648,1.996-0.445,4.143-2.443,4.794c-1.999,0.647-4.146-0.446-4.795-2.442
	c-0.649-2.001,0.445-4.147,2.443-4.797C59.863,638.54,62.009,639.63,62.659,641.631z"/>
<path fill="#FF00B1" d="M66.727,653.096c0.7,1.979-0.336,4.152-2.316,4.856c-1.981,0.699-4.157-0.338-4.856-2.316
	c-0.702-1.984,0.335-4.157,2.316-4.859C63.852,650.079,66.024,651.113,66.727,653.096z"/>
<path fill="#FF00B1" d="M71.094,664.45c0.751,1.961-0.228,4.159-2.189,4.914c-1.961,0.752-4.163-0.227-4.915-2.188
	c-0.754-1.964,0.227-4.165,2.188-4.917C68.139,661.508,70.34,662.485,71.094,664.45z"/>
<circle fill="#FF00B1" cx="72.241" cy="677.141" r="3.806"/>
<path fill="#395AFF" d="M80.712,686.795c0.852,1.919-0.01,4.165-1.929,5.022c-1.92,0.854-4.17-0.01-5.024-1.927
	c-0.855-1.923,0.009-4.173,1.928-5.027C77.607,684.011,79.855,684.872,80.712,686.795z"/>
<path fill="#395AFF" d="M85.956,697.771c0.903,1.896,0.099,4.165-1.797,5.071c-1.897,0.903-4.169,0.101-5.072-1.794
	c-0.906-1.899-0.1-4.172,1.796-5.076C82.779,695.07,85.049,695.871,85.956,697.771z"/>
<path fill="#FF00B1" d="M91.485,708.605c0.952,1.873,0.209,4.162-1.663,5.117c-1.874,0.954-4.165,0.21-5.119-1.66
	c-0.954-1.876-0.209-4.167,1.664-5.122C88.239,705.99,90.529,706.73,91.485,708.605z"/>
<path fill="#FF00B1" d="M97.296,719.292c1.001,1.846,0.317,4.154-1.529,5.157c-1.847,1.003-4.158,0.319-5.16-1.524
	c-1.003-1.851-0.318-4.16,1.529-5.163C93.982,716.761,96.292,717.442,97.296,719.292z"/>
<path fill="#A000F4" d="M103.386,729.824c1.048,1.818,0.426,4.145-1.394,5.196c-1.82,1.049-4.148,0.427-5.197-1.39
	c-1.052-1.824-0.427-4.151,1.393-5.201C100.007,727.381,102.333,728,103.386,729.824z"/>
<path fill="#A000F4" d="M109.748,740.192c1.096,1.791,0.535,4.131-1.256,5.23c-1.792,1.097-4.136,0.535-5.232-1.253
	c-1.099-1.796-0.536-4.14,1.255-5.236C106.306,737.838,108.647,738.396,109.748,740.192z"/>
<path fill="#A000F4" d="M116.379,750.39c1.143,1.763,0.642,4.115-1.119,5.261c-1.763,1.143-4.12,0.644-5.263-1.114
	c-1.145-1.768-0.644-4.125,1.118-5.27C112.878,748.127,115.233,748.623,116.379,750.39z"/>
<path fill="#A000F4" d="M123.276,760.41c1.188,1.733,0.75,4.099-0.981,5.29c-1.732,1.188-4.101,0.751-5.29-0.977
	c-1.192-1.736-0.753-4.106,0.979-5.298C119.716,758.24,122.083,758.674,123.276,760.41z"/>
<path fill="#A000F4" d="M130.433,770.247c1.233,1.701,0.856,4.077-0.843,5.313c-1.701,1.232-4.081,0.858-5.313-0.837
	c-1.237-1.704-0.86-4.084,0.84-5.321C126.817,768.17,129.194,768.542,130.433,770.247z"/>
<path fill="#A000F4" d="M137.844,779.892c1.278,1.669,0.963,4.055-0.704,5.334c-1.667,1.277-4.056,0.964-5.333-0.698
	c-1.281-1.671-0.967-4.06,0.701-5.34C134.176,777.912,136.562,778.22,137.844,779.892z"/>
<path fill="#A000F4" d="M145.505,789.339c1.321,1.638,1.069,4.03-0.564,5.352s-4.029,1.071-5.35-0.558
	c-1.324-1.637-1.073-4.033,0.562-5.357C141.787,787.458,144.18,787.703,145.505,789.339z"/>
<path fill="#FF00B1" d="M153.412,798.584c1.363,1.602,1.174,4.001-0.423,5.364c-1.599,1.362-4.001,1.177-5.364-0.418
	c-1.366-1.601-1.178-4.004,0.422-5.368C149.644,796.8,152.043,796.983,153.412,798.584z"/>
<path fill="#FF00B1" d="M161.557,807.62c1.405,1.566,1.279,3.969-0.283,5.372c-1.563,1.405-3.968,1.281-5.372-0.276
	c-1.408-1.564-1.283-3.971,0.28-5.378C157.745,805.935,160.147,806.053,161.557,807.62z"/>
<path fill="#6300FF" d="M169.937,816.438c1.444,1.527,1.381,3.934-0.143,5.378c-1.526,1.444-3.934,1.384-5.377-0.137
	c-1.449-1.526-1.386-3.935,0.139-5.382C166.081,814.854,168.487,814.909,169.937,816.438z"/>
<path fill="#6300FF" d="M178.543,825.036c1.485,1.488,1.485,3.896,0,5.378c-1.488,1.484-3.897,1.486-5.381,0.005
	c-1.487-1.487-1.487-3.898-0.001-5.385C174.648,823.552,177.055,823.545,178.543,825.036z"/>
<path fill="#6300FF" d="M187.373,833.403c1.523,1.449,1.585,3.854,0.14,5.376c-1.449,1.523-3.856,1.589-5.378,0.146
	c-1.526-1.447-1.589-3.857-0.142-5.382C183.44,832.023,185.845,831.953,187.373,833.403z"/>
<path fill="#6300FF" d="M196.418,841.536c1.56,1.41,1.686,3.813,0.28,5.372c-1.408,1.561-3.813,1.69-5.373,0.287
	c-1.563-1.408-1.689-3.814-0.282-5.377C192.45,840.26,194.853,840.127,196.418,841.536z"/>
<path fill="#6300FF" d="M205.672,849.43c1.596,1.367,1.786,3.767,0.421,5.361c-1.367,1.6-3.768,1.79-5.363,0.431
	c-1.601-1.368-1.789-3.771-0.423-5.369C201.673,848.26,204.071,848.063,205.672,849.43z"/>
<path fill="#FF00B1" d="M215.131,857.081c1.632,1.324,1.884,3.717,0.561,5.349c-1.324,1.634-3.719,1.888-5.35,0.569
	c-1.636-1.324-1.887-3.722-0.564-5.355C211.103,856.014,213.494,855.755,215.131,857.081z"/>
<path fill="#FF00B1" d="M224.787,864.48c1.666,1.281,1.98,3.668,0.702,5.332c-1.282,1.668-3.669,1.983-5.334,0.709
	c-1.669-1.281-1.984-3.673-0.703-5.339C220.731,863.519,223.116,863.198,224.787,864.48z"/>
<path fill="#FF00B1" d="M234.633,871.623c1.698,1.239,2.075,3.616,0.841,5.313c-1.237,1.701-3.616,2.079-5.313,0.849
	c-1.703-1.238-2.08-3.619-0.843-5.319C230.553,870.769,232.929,870.385,234.633,871.623z"/>
<path fill="#FF00B1" d="M244.662,878.505c1.731,1.195,2.169,3.562,0.98,5.291c-1.192,1.732-3.56,2.173-5.289,0.987
	c-1.735-1.193-2.173-3.565-0.982-5.297C240.562,877.76,242.926,877.315,244.662,878.505z"/>
<path fill="#FF00B1" d="M254.868,885.125c1.761,1.149,2.262,3.502,1.118,5.263c-1.147,1.764-3.502,2.264-5.262,1.125
	c-1.766-1.147-2.266-3.507-1.121-5.269C250.75,884.487,253.103,883.979,254.868,885.125z"/>
<path fill="#FF00B1" d="M265.244,891.474c1.791,1.103,2.353,3.442,1.255,5.23c-1.099,1.795-3.441,2.356-5.229,1.265
	c-1.794-1.103-2.357-3.446-1.258-5.236C261.11,890.944,263.449,890.375,265.244,891.474z"/>
<path fill="#FF00B1" d="M275.784,897.549c1.818,1.056,2.441,3.38,1.391,5.197c-1.053,1.821-3.378,2.445-5.196,1.4
	c-1.822-1.055-2.447-3.384-1.395-5.201C271.637,897.126,273.959,896.498,275.784,897.549z"/>
<path fill="#FF00B1" d="M286.478,903.347c1.846,1.006,2.529,3.313,1.526,5.159c-1.003,1.848-3.313,2.532-5.156,1.535
	c-1.85-1.007-2.535-3.318-1.531-5.164C282.322,903.034,284.626,902.342,286.478,903.347z"/>
<path fill="#FF00B1" d="M297.32,908.863c1.871,0.959,2.614,3.248,1.661,5.116c-0.956,1.875-3.246,2.619-5.116,1.67
	c-1.875-0.956-2.62-3.25-1.664-5.121C293.157,908.658,295.443,907.907,297.32,908.863z"/>
<path fill="#FFFFFF" d="M308.303,914.092c1.896,0.909,2.699,3.178,1.794,5.071c-0.907,1.899-3.176,2.704-5.069,1.805
	c-1.9-0.908-2.706-3.181-1.798-5.077C304.136,913.996,306.401,913.186,308.303,914.092z"/>
<path fill="#FFFFFF" d="M319.418,919.034c1.919,0.858,2.781,3.105,1.926,5.022c-0.855,1.923-3.103,2.786-5.021,1.935
	c-1.923-0.856-2.787-3.108-1.93-5.027C315.251,919.046,317.495,918.177,319.418,919.034z"/>
<path fill="#FFFFFF" d="M330.661,923.682c1.94,0.807,2.861,3.031,2.056,4.97c-0.804,1.944-3.029,2.866-4.967,2.065
	c-1.945-0.807-2.868-3.034-2.062-4.974C326.494,923.803,328.714,922.875,330.661,923.682z"/>
<path fill="#FFFFFF" d="M342.02,928.034c1.961,0.756,2.939,2.955,2.187,4.914c-0.753,1.965-2.954,2.945-4.913,2.195
	c-1.964-0.754-2.946-2.958-2.19-4.918C337.858,928.264,340.053,927.278,342.02,928.034z"/>
<path fill="#FFFFFF" d="M353.489,932.087c1.98,0.704,3.016,2.878,2.315,4.855c-0.703,1.984-2.876,3.021-4.854,2.322
	c-1.985-0.703-3.022-2.878-2.319-4.859C349.335,932.426,351.503,931.383,353.489,932.087z"/>
<path fill="#FFFFFF" d="M365.06,935.838c1.999,0.653,3.09,2.799,2.441,4.795c-0.65,2.001-2.795,3.095-4.791,2.449
	c-2.002-0.652-3.097-2.801-2.445-4.799C360.917,936.287,363.057,935.187,365.06,935.838z"/>
<path fill="#FFFFFF" d="M376.725,939.286c2.016,0.6,3.163,2.717,2.567,4.729c-0.598,2.018-2.714,3.167-4.726,2.574
	c-2.017-0.601-3.168-2.719-2.569-4.732C372.596,939.841,374.707,938.688,376.725,939.286z"/>
<path fill="#FFFFFF" d="M388.478,942.426c2.03,0.548,3.233,2.634,2.689,4.661c-0.545,2.033-2.63,3.236-4.657,2.695
	c-2.033-0.546-3.238-2.633-2.693-4.663C384.364,943.091,386.443,941.88,388.478,942.426z"/>
<path fill="#FFFFFF" d="M400.308,945.258c2.043,0.495,3.3,2.548,2.81,4.589c-0.491,2.047-2.544,3.305-4.583,2.816
	c-2.047-0.492-3.308-2.546-2.814-4.591C396.212,946.031,398.261,944.766,400.308,945.258z"/>
<path fill="#FFFFFF" d="M412.208,947.781c2.056,0.44,3.366,2.46,2.929,4.514c-0.438,2.058-2.458,3.37-4.508,2.934
	c-2.059-0.438-3.373-2.458-2.934-4.515C408.134,948.66,410.147,947.341,412.208,947.781z"/>
<path fill="#FFFFFF" d="M424.17,949.99c2.068,0.388,3.43,2.371,3.047,4.436c-0.383,2.069-2.368,3.433-4.43,3.052
	c-2.07-0.386-3.436-2.37-3.05-4.438C420.121,950.976,422.1,949.606,424.17,949.99z"/>
<path fill="#FFFFFF" d="M436.187,951.884c2.076,0.333,3.49,2.281,3.162,4.354c-0.329,2.079-2.277,3.495-4.348,3.167
	c-2.08-0.332-3.498-2.278-3.166-4.355C432.164,952.977,434.106,951.555,436.187,951.884z"/>
<path fill="#FF00B1" d="M448.248,953.464c2.085,0.279,3.549,2.189,3.275,4.271c-0.275,2.087-2.186,3.554-4.264,3.28
	c-2.088-0.278-3.557-2.187-3.279-4.272C444.255,954.664,446.16,953.19,448.248,953.464z"/>
<path fill="#FFFFFF" d="M460.346,954.729c2.092,0.223,3.605,2.095,3.386,4.183c-0.22,2.093-2.091,3.608-4.177,3.391
	c-2.094-0.224-3.612-2.093-3.389-4.186C456.387,956.03,458.252,954.508,460.346,954.729z"/>
<path fill="#FFFFFF" d="M472.474,955.675c2.096,0.169,3.658,2,3.494,4.093c-0.165,2.099-1.997,3.663-4.087,3.499
	c-2.099-0.168-3.666-1.999-3.498-4.097C468.55,957.081,470.375,955.511,472.474,955.675z"/>
<path fill="#FFFFFF" d="M484.623,956.304c2.099,0.113,3.708,1.903,3.599,3.999c-0.109,2.104-1.899,3.716-3.994,3.606
	c-2.103-0.114-3.717-1.902-3.604-4.003C480.736,957.812,482.519,956.196,484.623,956.304z"/>
<path fill="#FFFFFF" d="M497.312,956.615c2.103,0.059,3.757,1.806,3.703,3.904c-0.056,2.104-1.802,3.764-3.899,3.709
	c-2.104-0.059-3.764-1.806-3.706-3.908C493.465,958.223,495.207,956.561,497.312,956.615z"/>
<path fill="#FFFFFF" d="M509.477,956.606c2.103,0.004,3.803,1.707,3.804,3.807c0,2.106-1.703,3.811-3.801,3.811
	c-2.104-0.004-3.811-1.707-3.808-3.81C505.674,958.315,507.369,956.609,509.477,956.606z"/>
<path fill="#FFFFFF" d="M522.164,956.281c2.103-0.052,3.846,1.605,3.902,3.704c0.056,2.106-1.602,3.854-3.698,3.909
	c-2.105,0.051-3.854-1.605-3.907-3.709C518.407,958.088,520.059,956.337,522.164,956.281z"/>
<path fill="#FFFFFF" d="M534.312,955.636c2.101-0.106,3.887,1.505,3.998,3.601c0.11,2.105-1.501,3.895-3.595,4.005
	c-2.104,0.106-3.895-1.505-4.002-3.605C530.604,957.542,532.209,955.749,534.312,955.636z"/>
<path fill="#FFFFFF" d="M545.383,954.674c2.096-0.161,3.924,1.402,4.09,3.494c0.165,2.103-1.398,3.934-3.49,4.098
	c-2.099,0.162-3.933-1.402-4.095-3.5C541.725,956.675,543.282,954.84,545.383,954.674z"/>
<path fill="#FFFFFF" d="M557.479,953.395c2.091-0.215,3.96,1.3,4.18,3.386c0.221,2.098-1.294,3.969-3.382,4.188
	c-2.094,0.217-3.967-1.298-4.185-3.39C553.875,955.492,555.384,953.617,557.479,953.395z"/>
<path fill="#FFFFFF" d="M569.539,951.8c2.084-0.271,3.992,1.196,4.268,3.274c0.275,2.092-1.189,4.002-3.271,4.275
	c-2.088,0.271-4-1.195-4.272-3.28C565.99,953.991,567.45,952.075,569.539,951.8z"/>
<path fill="#FFFFFF" d="M581.551,949.889c2.078-0.325,4.023,1.091,4.354,3.163c0.329,2.083-1.085,4.03-3.158,4.359
	c-2.079,0.324-4.031-1.091-4.355-3.168C578.062,952.171,579.471,950.219,581.551,949.889z"/>
<path fill="#FF00B1" d="M593.512,947.665c2.067-0.38,4.05,0.985,4.433,3.049c0.384,2.071-0.979,4.059-3.043,4.438
	c-2.069,0.38-4.058-0.984-4.437-3.051C590.083,950.037,591.44,948.051,593.512,947.665z"/>
<path fill="#FFFFFF" d="M605.408,945.128c2.058-0.434,4.074,0.878,4.513,2.931c0.437,2.061-0.873,4.083-2.925,4.518
	c-2.061,0.434-4.084-0.877-4.517-2.935C602.044,947.589,603.348,945.568,605.408,945.128z"/>
<path fill="#FFFFFF" d="M617.235,942.28c2.045-0.487,4.096,0.772,4.588,2.812c0.49,2.049-0.767,4.105-2.807,4.593
	c-2.05,0.488-4.105-0.769-4.591-2.815C613.936,944.83,615.187,942.775,617.235,942.28z"/>
<path fill="#FF0000" d="M628.983,939.124c2.031-0.539,4.114,0.666,4.659,2.692c0.544,2.035-0.659,4.123-2.685,4.664
	c-2.035,0.542-4.124-0.661-4.663-2.693C625.752,941.759,626.949,939.671,628.983,939.124z"/>
<path fill="#FF0000" d="M640.645,935.661c2.016-0.592,4.131,0.559,4.729,2.569c0.598,2.021-0.552,4.141-2.562,4.733
	c-2.021,0.595-4.14-0.554-4.732-2.571C637.482,938.379,638.626,936.262,640.645,935.661z"/>
<path fill="#FF0000" d="M652.211,931.895c2-0.646,4.145,0.449,4.795,2.443c0.649,2.005-0.443,4.153-2.437,4.8
	c-2.006,0.648-4.153-0.445-4.799-2.446C649.121,934.695,650.209,932.548,652.211,931.895z"/>
<path fill="#F3FF00" d="M664.732,927.298c1.982-0.698,4.154,0.342,4.855,2.317c0.703,1.987-0.333,4.165-2.309,4.862
	c-1.988,0.7-4.163-0.336-4.861-2.321C661.717,930.178,662.748,928.004,664.732,927.298z"/>
<path fill="#F3FF00" d="M676.086,922.933c1.965-0.751,4.162,0.231,4.916,2.188c0.753,1.969-0.225,4.173-2.183,4.922
	c-1.968,0.751-4.17-0.228-4.92-2.194C673.147,925.889,674.12,923.689,676.086,922.933z"/>
<path fill="#FFFFFF" d="M687.321,918.27c1.944-0.802,4.166,0.123,4.972,2.06c0.805,1.947-0.116,4.175-2.054,4.977
	c-1.947,0.802-4.174-0.118-4.976-2.063C684.461,921.304,685.376,919.079,687.321,918.27z"/>
<path fill="#7C0000" d="M698.432,913.315c1.922-0.853,4.167,0.015,5.023,1.929c0.855,1.926-0.007,4.178-1.923,5.029
	c-1.926,0.852-4.176-0.01-5.028-1.934C695.65,916.422,696.509,914.174,698.432,913.315z"/>
<path fill="#7C0000" d="M709.407,908.073c1.899-0.905,4.167-0.097,5.073,1.795c0.904,1.902,0.103,4.176-1.789,5.076
	c-1.904,0.903-4.178,0.101-5.078-1.8C706.71,911.25,707.507,908.981,709.407,908.073z"/>
<path fill="#F46B2F" d="M720.242,902.542c1.875-0.953,4.163-0.205,5.118,1.662c0.954,1.879,0.213,4.172-1.656,5.121
	c-1.878,0.953-4.173,0.21-5.124-1.665C717.629,905.79,718.367,903.5,720.242,902.542z"/>
<path fill="#AA438D" d="M730.929,896.732c1.849-1.002,4.157-0.315,5.159,1.527c1.004,1.853,0.322,4.164-1.521,5.163
	c-1.854,1.002-4.164,0.318-5.165-1.532C728.401,900.046,729.08,897.739,730.929,896.732z"/>
<path fill="#F46B2F" d="M741.46,890.643c1.823-1.051,4.146-0.424,5.199,1.392c1.05,1.826,0.429,4.154-1.387,5.2
	c-1.827,1.051-4.155,0.429-5.203-1.395C739.021,894.022,739.637,891.697,741.46,890.643z"/>
<path fill="#A5007A" d="M751.829,884.282c1.793-1.099,4.133-0.534,5.232,1.253c1.098,1.8,0.537,4.143-1.25,5.237
	c-1.799,1.097-4.144,0.535-5.238-1.26C749.478,887.724,750.033,885.381,751.829,884.282z"/>
<path fill="#FFFFFF" d="M762.026,877.65c1.765-1.145,4.118-0.642,5.264,1.116c1.145,1.769,0.646,4.127-1.113,5.267
	c-1.769,1.145-4.127,0.646-5.27-1.121C759.767,881.151,760.261,878.796,762.026,877.65z"/>
<path fill="#FFFFFF" d="M772.047,870.753c1.733-1.19,4.1-0.75,5.291,0.979c1.191,1.738,0.754,4.108-0.974,5.294
	c-1.738,1.19-4.11,0.753-5.298-0.984C769.879,874.313,770.312,871.946,772.047,870.753z"/>
<path fill="#FFFFFF" d="M781.884,863.598c1.702-1.237,4.079-0.857,5.315,0.839c1.235,1.706,0.861,4.087-0.836,5.317
	c-1.707,1.235-4.088,0.859-5.321-0.845C779.811,867.211,780.181,864.834,781.884,863.598z"/>
<path fill="#FFFFFF" d="M790.473,856.715c1.669-1.281,4.055-0.964,5.335,0.699c1.28,1.673,0.969,4.062-0.695,5.338
	c-1.674,1.28-4.064,0.966-5.342-0.705C788.495,860.381,788.803,857.995,790.473,856.715z"/>
<path fill="#FFFFFF" d="M799.922,849.053c1.634-1.323,4.027-1.069,5.351,0.559c1.324,1.641,1.075,4.038-0.556,5.355
	c-1.639,1.323-4.037,1.071-5.358-0.564C798.04,852.77,798.285,850.376,799.922,849.053z"/>
<path fill="#FFFFFF" d="M809.167,841.147c1.6-1.366,3.999-1.174,5.364,0.421c1.365,1.603,1.18,4.006-0.416,5.367
	c-1.604,1.364-4.008,1.177-5.371-0.427C807.383,844.913,807.566,842.513,809.167,841.147z"/>
<path fill="#FFFFFF" d="M818.202,833.001c1.562-1.407,3.966-1.278,5.373,0.28c1.407,1.565,1.284,3.975-0.275,5.376
	c-1.568,1.406-3.976,1.281-5.38-0.284C816.517,836.811,816.637,834.408,818.202,833.001z"/>
<path fill="#FFFFFF" d="M827.02,824.623c1.525-1.447,3.932-1.381,5.38,0.138c1.448,1.53,1.388,3.94-0.136,5.384
	c-1.53,1.446-3.939,1.384-5.384-0.145C825.436,828.475,825.493,826.069,827.02,824.623z"/>
<path fill="#FFFFFF" d="M835.614,816.015c1.488-1.486,3.896-1.482,5.384-0.002c1.487,1.49,1.489,3.902,0.005,5.384
	c-1.492,1.487-3.902,1.487-5.387-0.002C834.133,819.909,834.128,817.501,835.614,816.015z"/>
<path fill="#FFFFFF" d="M843.984,807.186c1.447-1.524,3.854-1.584,5.379-0.143c1.525,1.45,1.591,3.862,0.146,5.381
	c-1.452,1.526-3.862,1.59-5.385,0.14C842.604,811.117,842.535,808.71,843.984,807.186z"/>
<path fill="#FFFFFF" d="M852.117,798.142c1.407-1.562,3.812-1.687,5.374-0.284c1.564,1.409,1.693,3.817,0.288,5.375
	c-1.413,1.563-3.819,1.689-5.379,0.28C850.842,802.106,850.71,799.702,852.117,798.142z"/>
<path fill="#FFFFFF" d="M860.012,788.887c1.366-1.599,3.767-1.785,5.365-0.426c1.599,1.369,1.791,3.772,0.428,5.366
	c-1.371,1.601-3.773,1.788-5.369,0.42C858.84,792.882,858.646,790.484,860.012,788.887z"/>
<path fill="#FFFFFF" d="M867.661,779.427c1.324-1.633,3.718-1.882,5.353-0.564c1.634,1.326,1.889,3.726,0.568,5.354
	c-1.328,1.634-3.726,1.886-5.357,0.56C866.594,783.454,866.338,781.061,867.661,779.427z"/>
<path fill="#FFFFFF" d="M875.062,769.772c1.28-1.668,3.666-1.978,5.334-0.704c1.669,1.282,1.986,3.674,0.709,5.336
	c-1.285,1.67-3.676,1.984-5.342,0.701C874.099,773.825,873.78,771.439,875.062,769.772z"/>
<path fill="#FFFFFF" d="M882.206,759.926c1.235-1.7,3.613-2.073,5.313-0.845c1.701,1.239,2.083,3.621,0.849,5.317
	c-1.241,1.702-3.622,2.08-5.32,0.84C881.349,764.002,880.968,761.626,882.206,759.926z"/>
<path fill="#FFFFFF" d="M889.09,749.897c1.19-1.732,3.558-2.168,5.289-0.983c1.734,1.193,2.177,3.565,0.987,5.293
	c-1.196,1.733-3.565,2.174-5.297,0.979C888.34,753.994,887.896,751.628,889.09,749.897z"/>
<path fill="#FFFFFF" d="M896.235,738.634c1.146-1.764,3.501-2.261,5.264-1.12c1.765,1.147,2.269,3.505,1.125,5.263
	c-1.15,1.766-3.508,2.269-5.27,1.118C895.595,742.749,895.09,740.397,896.235,738.634z"/>
<path fill="#FFFFFF" d="M902.585,728.258c1.099-1.793,3.44-2.352,5.231-1.258c1.795,1.1,2.36,3.444,1.264,5.231
	c-1.104,1.796-3.448,2.358-5.239,1.256C902.052,732.387,901.486,730.051,902.585,728.258z"/>
<path fill="#FFFFFF" d="M908.662,717.718c1.051-1.819,3.376-2.439,5.195-1.395c1.822,1.056,2.449,3.383,1.399,5.199
	c-1.055,1.823-3.384,2.447-5.204,1.392C908.235,721.861,907.609,719.541,908.662,717.718z"/>
<path fill="#FFFFFF" d="M914.459,707.024c1.003-1.846,3.312-2.527,5.157-1.529c1.851,1.006,2.538,3.316,1.536,5.161
	c-1.009,1.85-3.319,2.534-5.166,1.526C914.141,711.177,913.455,708.873,914.459,707.024z"/>
<path fill="#FFFFFF" d="M919.976,696.182c0.953-1.872,3.244-2.614,5.114-1.663c1.876,0.957,2.625,3.247,1.67,5.118
	c-0.959,1.875-3.251,2.619-5.122,1.66C919.766,700.342,919.02,698.056,919.976,696.182z"/>
<path fill="#FFFFFF" d="M925.205,685.199c0.904-1.896,3.175-2.697,5.07-1.797c1.899,0.907,2.708,3.18,1.804,5.074
	c-0.91,1.9-3.182,2.703-5.079,1.793C925.104,689.363,924.299,687.098,925.205,685.199z"/>
<path fill="#FFFFFF" d="M930.146,674.083c0.854-1.919,3.104-2.78,5.021-1.93c1.922,0.856,2.79,3.107,1.936,5.024
	c-0.86,1.924-3.11,2.787-5.029,1.926C930.155,678.249,929.289,676.004,930.146,674.083z"/>
<path fill="#FFFFFF" d="M934.794,662.841c0.804-1.939,3.029-2.859,4.969-2.061c1.945,0.808,2.87,3.035,2.066,4.973
	c-0.81,1.945-3.035,2.867-4.978,2.057C934.911,667.004,933.988,664.786,934.794,662.841z"/>
<path fill="#FFFFFF" d="M939.146,651.483c0.753-1.961,2.954-2.938,4.913-2.191c1.966,0.758,2.949,2.958,2.197,4.918
	c-0.758,1.966-2.96,2.945-4.922,2.186C939.372,655.64,938.392,653.447,939.146,651.483z"/>
<path fill="#FFFFFF" d="M943.199,640.013c0.701-1.979,2.875-3.015,4.854-2.317c1.984,0.705,3.025,2.878,2.324,4.857
	c-0.707,1.984-2.882,3.021-4.863,2.314C943.535,644.164,942.496,641.997,943.199,640.013z"/>
<path fill="#FFFFFF" d="M946.951,628.441c0.648-1.997,2.796-3.088,4.792-2.443c2.002,0.651,3.099,2.799,2.451,4.795
	c-0.655,2.002-2.803,3.096-4.803,2.442C947.395,632.583,946.301,630.442,946.951,628.441z"/>
<path fill="#FFFFFF" d="M950.399,616.777c0.597-2.015,2.712-3.162,4.726-2.569c2.02,0.6,3.171,2.715,2.574,4.729
	c-0.601,2.019-2.719,3.168-4.734,2.567C950.95,620.903,949.8,618.792,950.399,616.777z"/>
<path fill="#FFFFFF" d="M953.539,605.024c0.545-2.028,2.63-3.231,4.658-2.691c2.033,0.547,3.241,2.631,2.698,4.659
	c-0.55,2.034-2.636,3.238-4.667,2.69C954.199,609.135,952.994,607.055,953.539,605.024z"/>
<path fill="#FFFFFF" d="M956.372,593.193c0.49-2.041,2.544-3.298,4.586-2.812c2.046,0.493,3.309,2.545,2.819,4.587
	c-0.498,2.047-2.552,3.307-4.596,2.811C957.139,597.286,955.879,595.239,956.372,593.193z"/>
<path fill="#FFFFFF" d="M958.893,581.293c0.438-2.054,2.457-3.365,4.511-2.933c2.06,0.44,3.376,2.458,2.939,4.513
	c-0.443,2.061-2.463,3.373-4.521,2.93C959.768,585.365,958.455,583.351,958.893,581.293z"/>
<path fill="#FFFFFF" d="M961.103,569.332c0.384-2.064,2.368-3.429,4.433-3.049c2.068,0.386,3.438,2.368,3.055,4.433
	c-0.389,2.072-2.373,3.437-4.441,3.048C962.084,573.378,960.719,571.399,961.103,569.332z"/>
<path fill="#FFFFFF" d="M962.998,557.315c0.329-2.073,2.277-3.489,4.351-3.164c2.079,0.333,3.499,2.276,3.171,4.352
	c-0.335,2.082-2.283,3.498-4.361,3.164C964.084,561.334,962.668,559.393,962.998,557.315z"/>
<path fill="#FFFFFF" d="M964.578,545.253c0.274-2.082,2.186-3.549,4.268-3.277c2.086,0.279,3.556,2.186,3.283,4.268
	c-0.28,2.09-2.191,3.558-4.277,3.277C965.769,549.243,964.303,547.339,964.578,545.253z"/>
<path fill="#FFFFFF" d="M965.843,533.155c0.219-2.089,2.092-3.604,4.179-3.388c2.093,0.225,3.613,2.091,3.394,4.18
	c-0.225,2.098-2.097,3.613-4.189,3.388C967.137,537.111,965.621,535.248,965.843,533.155z"/>
<path fill="#FFFFFF" d="M966.789,521.027c0.165-2.094,1.996-3.658,4.089-3.496c2.099,0.169,3.667,1.996,3.502,4.089
	c-0.169,2.104-2.002,3.669-4.1,3.498C968.187,524.948,966.623,523.125,966.789,521.027z"/>
<path fill="#FFFFFF" d="M967.418,508.879c0.11-2.099,1.9-3.71,3.996-3.603c2.102,0.113,3.718,1.899,3.608,3.997
	c-0.116,2.105-1.906,3.718-4.007,3.602C968.918,512.761,967.308,510.981,967.418,508.879z"/>
<path fill="#FFFFFF" d="M967.729,496.717c0.056-2.1,1.802-3.758,3.9-3.705c2.104,0.059,3.767,1.801,3.712,3.902
	c-0.061,2.106-1.808,3.766-3.911,3.705C969.33,500.56,967.673,498.822,967.729,496.717z"/>
<path fill="#FFFFFF" d="M967.721,484.553c0-2.101,1.703-3.803,3.802-3.807c2.106,0.004,3.813,1.703,3.814,3.803
	c-0.007,2.109-1.709,3.812-3.814,3.807C969.422,488.353,967.721,486.659,967.721,484.553z"/>
<path fill="#FFFFFF" d="M967.396,472.392c-0.056-2.099,1.602-3.846,3.7-3.903c2.106-0.052,3.855,1.602,3.911,3.701
	c0.05,2.108-1.607,3.856-3.711,3.906C969.194,476.146,967.449,474.498,967.396,472.392z"/>
<path fill="#FFFFFF" d="M966.752,460.244c-0.111-2.097,1.5-3.886,3.596-3.999c2.104-0.107,3.896,1.5,4.007,3.598
	c0.104,2.106-1.506,3.897-3.608,4.001C968.647,463.951,966.859,462.349,966.752,460.244z"/>
<path fill="#FFFFFF" d="M965.788,448.118c-0.165-2.093,1.399-3.925,3.492-4.092c2.1-0.161,3.934,1.398,4.099,3.491
	c0.16,2.103-1.403,3.935-3.502,4.095C967.781,451.773,965.952,450.219,965.788,448.118z"/>
<path fill="#FFFFFF" d="M964.51,436.021c-0.221-2.089,1.296-3.96,3.384-4.182c2.094-0.217,3.969,1.294,4.188,3.382
	c0.216,2.098-1.299,3.971-3.394,4.186C966.597,439.623,964.729,438.116,964.51,436.021z"/>
<path fill="#FFFFFF" d="M962.915,423.962c-0.275-2.083,1.19-3.993,3.271-4.27c2.089-0.271,4.002,1.19,4.276,3.272
	c0.27,2.091-1.195,4.003-3.283,4.272C965.096,427.507,963.188,426.05,962.915,423.962z"/>
<path fill="#FFFFFF" d="M961.004,411.948c-0.33-2.074,1.086-4.022,3.159-4.354c2.081-0.326,4.031,1.085,4.36,3.159
	c0.324,2.083-1.09,4.034-3.169,4.357C963.277,415.435,961.331,414.029,961.004,411.948z"/>
<path fill="#FFFFFF" d="M958.78,399.989c-0.384-2.064,0.98-4.049,3.044-4.435c2.07-0.381,4.058,0.979,4.441,3.043
	c0.379,2.075-0.984,4.06-3.056,4.438C961.143,403.416,959.16,402.06,958.78,399.989z"/>
<path fill="#FFFFFF" d="M956.243,388.092c-0.437-2.054,0.875-4.074,2.927-4.513c2.061-0.435,4.083,0.873,4.52,2.927
	c0.433,2.064-0.877,4.084-2.938,4.516C958.695,391.456,956.679,390.153,956.243,388.092z"/>
<path fill="#F3FF00" d="M953.396,376.265c-0.491-2.042,0.768-4.095,2.808-4.588c2.049-0.489,4.104,0.765,4.595,2.807
	c0.487,2.052-0.769,4.106-2.818,4.592C955.935,379.563,953.885,378.313,953.396,376.265z"/>
<path fill="#F3FF00" d="M950.239,364.517c-0.544-2.028,0.66-4.113,2.688-4.659c2.035-0.542,4.122,0.657,4.667,2.686
	c0.54,2.038-0.662,4.125-2.697,4.665C952.864,367.747,950.782,366.552,950.239,364.517z"/>
<path fill="#F3FF00" d="M946.777,352.855c-0.599-2.014,0.551-4.13,2.563-4.729c2.021-0.595,4.139,0.548,4.736,2.562
	c0.593,2.024-0.554,4.141-2.575,4.733C949.485,356.016,947.373,354.875,946.777,352.855z"/>
<path fill="#F3FF00" d="M942.482,342.345c-0.649-1.997,0.443-4.143,2.439-4.793c2.004-0.648,4.152,0.44,4.801,2.438
	c0.646,2.007-0.444,4.153-2.45,4.799C945.272,345.434,943.131,344.349,942.482,342.345z"/>
<path fill="#395AFF" d="M938.414,330.882c-0.701-1.979,0.335-4.154,2.313-4.856c1.986-0.701,4.162,0.331,4.863,2.311
	c0.698,1.99-0.336,4.164-2.322,4.861C941.284,333.896,939.115,332.867,938.414,330.882z"/>
<path fill="#FFB600" d="M934.048,319.528c-0.753-1.961,0.227-4.161,2.186-4.916c1.968-0.751,4.168,0.223,4.921,2.184
	c0.751,1.971-0.226,4.171-2.194,4.92C936.995,322.466,934.8,321.495,934.048,319.528z"/>
<path fill="#FFB600" d="M929.385,308.292c-0.804-1.94,0.118-4.165,2.057-4.971c1.948-0.803,4.173,0.113,4.977,2.054
	c0.803,1.95-0.117,4.175-2.065,4.976C932.408,311.152,930.189,310.238,929.385,308.292z"/>
<path fill="#FFB600" d="M924.431,297.182c-0.855-1.918,0.007-4.166,1.925-5.023c1.927-0.854,4.174,0.003,5.029,1.922
	c0.853,1.929-0.008,4.177-1.936,5.029C927.527,299.962,925.284,299.106,924.431,297.182z"/>
<path fill="#FFB600" d="M919.187,286.207c-0.904-1.896-0.102-4.166,1.792-5.072c1.904-0.905,4.175-0.106,5.079,1.79
	c0.902,1.906,0.101,4.176-1.803,5.077C922.354,288.904,920.091,288.107,919.187,286.207z"/>
<path fill="#FFB600" d="M913.658,275.371c-0.956-1.872-0.212-4.162,1.658-5.117c1.879-0.954,4.168-0.215,5.124,1.658
	c0.951,1.881,0.21,4.171-1.671,5.122C916.896,277.985,914.61,277.248,913.658,275.371z"/>
<path fill="#FFB600" d="M907.848,264.684c-1.005-1.845-0.321-4.155,1.523-5.158c1.854-1.002,4.16-0.324,5.165,1.522
	c1.001,1.855,0.318,4.165-1.535,5.165C911.151,267.213,908.849,266.535,907.848,264.684z"/>
<path fill="#FFB600" d="M901.758,254.153c-1.052-1.819-0.429-4.145,1.389-5.197c1.827-1.051,4.151-0.433,5.202,1.387
	c1.051,1.829,0.429,4.155-1.399,5.203C905.127,256.594,902.808,255.978,901.758,254.153z"/>
<path fill="#FFB600" d="M895.396,243.785c-1.099-1.791-0.537-4.133,1.252-5.231c1.799-1.098,4.139-0.542,5.236,1.25
	c1.099,1.8,0.538,4.143-1.262,5.238C898.828,246.137,896.492,245.581,895.396,243.785z"/>
<path fill="#FFB600" d="M888.764,233.587c-1.146-1.761-0.646-4.117,1.113-5.262c1.77-1.145,4.125-0.65,5.27,1.112
	c1.145,1.771,0.645,4.127-1.125,5.27C892.257,235.848,889.907,235.354,888.764,233.587z"/>
<path fill="#FFB600" d="M881.867,223.566c-1.191-1.73-0.753-4.099,0.976-5.289c1.739-1.191,4.105-0.758,5.296,0.974
	c1.191,1.74,0.753,4.109-0.986,5.297C885.418,225.735,883.057,225.302,881.867,223.566z"/>
<path fill="#FFB600" d="M874.71,213.729c-1.235-1.699-0.859-4.078,0.838-5.313c1.707-1.236,4.085-0.864,5.319,0.835
	c1.236,1.708,0.861,4.087-0.847,5.32C878.317,215.804,875.945,215.434,874.71,213.729z"/>
<path fill="#FFB600" d="M867.3,204.083c-1.28-1.666-0.968-4.054,0.696-5.334c1.674-1.28,4.062-0.971,5.34,0.696
	c1.28,1.675,0.967,4.063-0.707,5.34C870.958,206.063,868.578,205.754,867.3,204.083z"/>
<path fill="#FFB600" d="M859.638,194.634c-1.323-1.632-1.073-4.027,0.558-5.35c1.64-1.324,4.033-1.077,5.356,0.556
	c1.324,1.641,1.073,4.037-0.568,5.357C863.348,196.519,860.96,196.271,859.638,194.634z"/>
<path fill="#FFB600" d="M851.731,185.389c-1.365-1.597-1.179-3.997,0.418-5.362c1.604-1.366,4.004-1.183,5.368,0.415
	c1.367,1.606,1.179,4.007-0.428,5.371C855.489,187.175,853.097,186.992,851.731,185.389z"/>
<path fill="#FFB600" d="M843.587,176.354c-1.406-1.56-1.284-3.965,0.275-5.372c1.569-1.408,3.974-1.287,5.379,0.275
	c1.408,1.57,1.282,3.976-0.286,5.38C847.39,178.041,844.993,177.92,843.587,176.354z"/>
<path fill="#FFB600" d="M834.151,167.536c-1.448-1.523-1.387-3.93,0.136-5.377c1.529-1.448,3.937-1.39,5.383,0.134
	c1.448,1.533,1.386,3.941-0.146,5.386C837.997,169.123,835.598,169.064,834.151,167.536z"/>
<path fill="#FFB600" d="M825.543,158.939c-1.486-1.484-1.488-3.892-0.005-5.378c1.492-1.488,3.9-1.493,5.386-0.007
	c1.487,1.494,1.488,3.903-0.005,5.388C829.43,160.425,827.03,160.43,825.543,158.939z"/>
<path fill="#FFB600" d="M816.715,150.571c-1.525-1.445-1.591-3.853-0.146-5.377c1.453-1.526,3.859-1.595,5.384-0.148
	c1.525,1.455,1.589,3.862,0.136,5.386C820.638,151.955,818.239,152.022,816.715,150.571z"/>
<path fill="#FFB600" d="M807.669,142.437c-1.562-1.405-1.69-3.809-0.286-5.371c1.412-1.564,3.816-1.694,5.377-0.289
	c1.563,1.415,1.691,3.819,0.275,5.38C811.627,143.718,809.232,143.848,807.669,142.437z"/>
<path fill="#FFB600" d="M798.414,134.542c-1.599-1.363-1.789-3.764-0.427-5.361c1.37-1.6,3.771-1.794,5.367-0.43
	c1.601,1.373,1.79,3.774,0.418,5.371C802.405,135.719,800.014,135.912,798.414,134.542z"/>
<path fill="#FFB600" d="M788.956,126.893c-1.634-1.321-1.887-3.715-0.567-5.349c1.328-1.636,3.723-1.893,5.354-0.569
	c1.636,1.331,1.888,3.726,0.557,5.358C792.975,127.965,790.59,128.22,788.956,126.893z"/>
<path fill="#FFB600" d="M779.301,119.494c-1.668-1.277-1.985-3.665-0.708-5.332c1.285-1.67,3.672-1.989,5.338-0.709
	c1.67,1.287,1.984,3.674,0.697,5.342C783.347,120.46,780.969,120.777,779.301,119.494z"/>
<path fill="#FFB600" d="M769.454,112.35c-1.7-1.234-2.078-3.611-0.847-5.311c1.241-1.704,3.619-2.085,5.317-0.849
	c1.703,1.243,2.08,3.622,0.838,5.322C773.524,113.209,771.155,113.589,769.454,112.35z"/>
<path fill="#FFB600" d="M759.425,105.466c-1.732-1.189-2.173-3.556-0.985-5.287c1.195-1.736,3.563-2.18,5.293-0.989
	c1.734,1.198,2.175,3.566,0.977,5.298C763.516,106.219,761.159,106.66,759.425,105.466z"/>
<path fill="#FFB600" d="M749.219,98.847c-1.764-1.143-2.266-3.498-1.125-5.26c1.15-1.766,3.506-2.271,5.266-1.126
	c1.767,1.152,2.268,3.508,1.115,5.271C753.327,99.493,750.983,99.996,749.219,98.847z"/>
<path fill="#FFB600" d="M738.842,92.498c-1.791-1.097-2.355-3.437-1.261-5.229c1.104-1.795,3.445-2.362,5.234-1.264
	c1.795,1.106,2.358,3.447,1.252,5.24C742.967,93.035,740.636,93.6,738.842,92.498z"/>
<path fill="#FFB600" d="M728.304,86.422c-1.82-1.049-2.444-3.375-1.397-5.195c1.056-1.823,3.382-2.451,5.199-1.399
	c1.824,1.059,2.447,3.385,1.389,5.205C732.441,86.851,730.125,87.477,728.304,86.422z"/>
<path fill="#FFB600" d="M717.608,80.625c-1.847-1.002-2.531-3.31-1.532-5.156c1.009-1.85,3.316-2.539,5.161-1.536
	c1.852,1.01,2.534,3.319,1.525,5.167C721.758,80.945,719.459,81.63,717.608,80.625z"/>
<path fill="#FFB600" d="M706.767,75.108c-1.872-0.952-2.616-3.241-1.667-5.114c0.96-1.876,3.248-2.625,5.119-1.67
	c1.877,0.961,2.62,3.252,1.659,5.125C710.922,75.321,708.642,76.066,706.767,75.108z"/>
<path fill="#FFB600" d="M695.784,69.879c-1.896-0.904-2.702-3.172-1.802-5.069c0.91-1.9,3.179-2.709,5.074-1.804
	c1.902,0.912,2.706,3.182,1.793,5.08C699.943,69.982,697.683,70.787,695.784,69.879z"/>
<path fill="#FFB600" d="M684.668,64.938c-1.919-0.853-2.784-3.1-1.934-5.021c0.861-1.923,3.106-2.79,5.026-1.935
	c1.925,0.861,2.787,3.11,1.925,5.031C688.828,64.932,686.59,65.796,684.668,64.938z"/>
<path fill="#FFFFFF" d="M673.427,60.29c-1.941-0.802-2.864-3.027-2.064-4.968c0.811-1.945,3.033-2.871,4.974-2.066
	c1.946,0.811,2.867,3.036,2.056,4.979C677.586,60.175,675.369,61.097,673.427,60.29z"/>
<path fill="#FFFFFF" d="M662.067,55.938c-1.962-0.752-2.942-2.951-2.194-4.912c0.76-1.966,2.958-2.95,4.917-2.196
	c1.968,0.76,2.947,2.96,2.187,4.924C666.222,55.713,664.03,56.694,662.067,55.938z"/>
<path fill="#2CFF00" d="M650.597,51.884c-1.979-0.7-3.017-2.873-2.321-4.853c0.708-1.985,2.88-3.027,4.858-2.324
	c1.986,0.708,3.023,2.882,2.314,4.865C654.745,51.551,652.58,52.589,650.597,51.884z"/>
<path fill="#FFFFFF" d="M640.082,48.132c-1.997-0.648-3.092-2.793-2.447-4.79c0.656-2.003,2.8-3.101,4.796-2.451
	c2.005,0.656,3.097,2.802,2.441,4.803C644.22,47.691,642.084,48.785,640.082,48.132z"/>
<path fill="#FFFFFF" d="M627.359,44.685c-2.014-0.596-3.163-2.711-2.572-4.725c0.604-2.02,2.719-3.173,4.73-2.575
	c2.021,0.602,3.169,2.719,2.565,4.737C631.484,44.135,629.377,45.285,627.359,44.685z"/>
<path fill="#FFFFFF" d="M615.608,41.543c-2.029-0.542-3.235-2.627-2.696-4.655c0.552-2.034,2.634-3.243,4.662-2.698
	c2.036,0.549,3.239,2.636,2.688,4.668C619.717,40.887,617.641,42.091,615.608,41.543z"/>
<path fill="#FFFFFF" d="M603.777,38.711c-2.042-0.489-3.303-2.541-2.817-4.583c0.498-2.048,2.549-3.311,4.59-2.819
	c2.051,0.496,3.308,2.55,2.81,4.597C607.867,37.947,605.822,39.205,603.777,38.711z"/>
<path fill="#FFFFFF" d="M591.877,36.19c-2.055-0.436-3.367-2.454-2.936-4.509c0.445-2.06,2.46-3.376,4.513-2.938
	c2.063,0.442,3.374,2.462,2.931,4.521C595.946,35.318,593.936,36.63,591.877,36.19z"/>
<path fill="#FFFFFF" d="M579.915,33.98c-2.066-0.381-3.433-2.365-3.053-4.43c0.391-2.071,2.37-3.439,4.435-3.055
	c2.074,0.388,3.437,2.373,3.047,4.443C583.959,33.003,581.984,34.367,579.915,33.98z"/>
<path fill="#FFFFFF" d="M567.898,32.085c-2.075-0.328-3.492-2.274-3.168-4.349c0.336-2.081,2.281-3.5,4.354-3.17
	c2.085,0.334,3.499,2.282,3.162,4.361C571.916,31.002,569.977,32.417,567.898,32.085z"/>
<path fill="#FFFFFF" d="M555.837,30.505c-2.083-0.272-3.55-2.182-3.28-4.264c0.282-2.088,2.188-3.559,4.269-3.282
	c2.092,0.279,3.558,2.189,3.275,4.277C559.824,29.317,557.923,30.782,555.837,30.505z"/>
<path fill="#2CFF00" d="M543.738,29.241c-2.09-0.218-3.606-2.088-3.391-4.177c0.227-2.096,2.094-3.615,4.182-3.394
	c2.099,0.224,3.612,2.096,3.385,4.19C547.693,27.949,545.831,29.463,543.738,29.241z"/>
<path fill="#2CFF00" d="M531.61,28.294c-2.095-0.164-3.66-1.993-3.499-4.087c0.173-2.101,1.998-3.668,4.092-3.501
	c2.104,0.169,3.666,2,3.493,4.1C535.53,26.9,533.708,28.461,531.61,28.294z"/>
<path fill="#FFFFFF" d="M519.462,27.666c-2.098-0.109-3.712-1.896-3.604-3.994c0.116-2.104,1.901-3.719,3.998-3.607
	c2.107,0.114,3.718,1.904,3.601,4.007C523.345,26.168,521.563,27.778,519.462,27.666z"/>
<path fill="#FFFFFF" d="M507.301,27.355c-2.1-0.054-3.759-1.799-3.709-3.898c0.062-2.107,1.805-3.768,3.903-3.711
	c2.11,0.059,3.767,1.807,3.704,3.911C511.142,25.756,509.406,27.412,507.301,27.355z"/>
<path fill="#FFFFFF" d="M495.136,27.362c-2.101,0.001-3.805-1.7-3.81-3.799c0.007-2.107,1.705-3.813,3.806-3.812
	c2.112,0.003,3.811,1.707,3.803,3.812C498.936,25.665,497.242,27.364,495.136,27.362z"/>
<path fill="#FFFFFF" d="M484.033,27.689c-2.1,0.056-3.849-1.601-3.908-3.699c-0.048-2.106,1.604-3.857,3.704-3.91
	c2.111-0.052,3.854,1.607,3.902,3.712C487.785,25.891,486.138,27.635,484.033,27.689z"/>
<path fill="#FFFFFF" d="M471.885,28.333c-2.097,0.111-3.889-1.499-4.003-3.595c-0.103-2.105,1.503-3.898,3.6-4.005
	c2.109-0.107,3.896,1.505,3.999,3.607C475.589,26.438,473.988,28.225,471.885,28.333z"/>
<path fill="#FFFFFF" d="M459.759,29.295c-2.096,0.166-3.928-1.397-4.096-3.49c-0.158-2.101,1.4-3.936,3.493-4.098
	c2.105-0.162,3.935,1.403,4.093,3.502C463.413,27.304,461.858,29.132,459.759,29.295z"/>
<path fill="#FFFFFF" d="M447.663,30.574c-2.09,0.221-3.963-1.293-4.186-3.381c-0.215-2.097,1.296-3.971,3.385-4.188
	c2.1-0.218,3.97,1.299,4.183,3.394C451.262,28.488,449.756,30.356,447.663,30.574z"/>
<path fill="#FFFFFF" d="M435.603,32.169c-2.084,0.275-3.996-1.189-4.273-3.27c-0.268-2.09,1.192-4.004,3.275-4.275
	c2.093-0.272,4.001,1.196,4.27,3.284C439.146,29.991,437.69,31.897,435.603,32.169z"/>
<path fill="#FFFFFF" d="M423.588,34.081c-2.075,0.33-4.025-1.084-4.357-3.158c-0.322-2.082,1.087-4.033,3.163-4.36
	c2.085-0.327,4.031,1.09,4.354,3.171C427.075,31.809,425.669,33.753,423.588,34.081z"/>
<path fill="#FFFFFF" d="M411.629,36.305c-2.067,0.383-4.052-0.979-4.439-3.043c-0.376-2.073,0.981-4.061,3.047-4.44
	c2.076-0.383,4.059,0.984,4.436,3.055C415.054,33.943,413.7,35.923,411.629,36.305z"/>
<path fill="#FFFFFF" d="M399.732,38.841c-2.055,0.438-4.076-0.872-4.517-2.925c-0.431-2.063,0.875-4.085,2.929-4.519
	c2.065-0.436,4.083,0.877,4.515,2.938C403.094,36.391,401.792,38.406,399.732,38.841z"/>
<path fill="#FFFFFF" d="M387.905,41.688c-2.043,0.492-4.098-0.765-4.592-2.806c-0.484-2.051,0.767-4.106,2.81-4.594
	c2.055-0.49,4.104,0.77,4.59,2.819C391.202,39.15,389.953,41.199,387.905,41.688z"/>
<path fill="#FFFFFF" d="M376.157,44.844c-2.029,0.545-4.115-0.657-4.663-2.684c-0.539-2.038,0.66-4.125,2.688-4.666
	c2.04-0.544,4.123,0.663,4.663,2.698C379.386,42.221,378.191,44.302,376.157,44.844z"/>
<path fill="#FFFFFF" d="M364.496,48.307c-2.015,0.597-4.132-0.549-4.732-2.562c-0.591-2.022,0.551-4.141,2.565-4.735
	c2.026-0.597,4.139,0.556,4.731,2.575C367.654,45.6,366.515,47.711,364.496,48.307z"/>
<path fill="#FFFFFF" d="M352.929,52.073c-1.999,0.65-4.145-0.441-4.798-2.437c-0.644-2.006,0.443-4.154,2.44-4.8
	c2.01-0.651,4.153,0.446,4.798,2.449C356.016,49.285,354.931,51.425,352.929,52.073z"/>
<path fill="#FFFFFF" d="M341.464,56.141c-1.98,0.702-4.155-0.332-4.86-2.311c-0.696-1.989,0.334-4.164,2.315-4.862
	c1.991-0.702,4.162,0.337,4.859,2.324C344.477,53.272,343.45,55.44,341.464,56.141z"/>
<path fill="#FFFFFF" d="M330.111,60.507c-1.962,0.754-4.163-0.223-4.919-2.182c-0.747-1.971,0.225-4.172,2.187-4.921
	c1.973-0.754,4.169,0.228,4.919,2.195C333.047,57.561,332.077,59.755,330.111,60.507z"/>
<path fill="#FFFFFF" d="M318.875,65.17c-1.942,0.805-4.167-0.115-4.975-2.053c-0.799-1.95,0.116-4.176,2.057-4.977
	c1.952-0.806,4.174,0.118,4.975,2.066C321.733,62.147,320.82,64.367,318.875,65.17z"/>
<path fill="#FFFFFF" d="M307.766,70.125c-1.921,0.856-4.17-0.005-5.027-1.921c-0.85-1.929,0.007-4.178,1.926-5.029
	c1.93-0.856,4.176,0.009,5.027,1.935C310.544,67.029,309.688,69.271,307.766,70.125z"/>
<path fill="#01723C" d="M296.789,75.369c-1.896,0.905-4.167,0.104-5.076-1.789c-0.899-1.906-0.103-4.177,1.795-5.079
	c1.907-0.906,4.173-0.1,5.075,1.803C299.485,72.201,298.689,74.465,296.789,75.369z"/>
<path fill="#FFFFFF" d="M285.954,80.898c-1.874,0.955-4.163,0.213-5.121-1.656c-0.95-1.882-0.212-4.173,1.661-5.124
	c1.882-0.956,4.17-0.208,5.121,1.67C288.566,77.661,287.83,79.945,285.954,80.898z"/>
<path fill="#FFFFFF" d="M275.267,86.709c-1.848,1.004-4.156,0.323-5.163-1.521c-0.999-1.855-0.321-4.166,1.526-5.165
	c1.857-1.005,4.164-0.318,5.164,1.535C277.794,83.405,277.118,85.707,275.267,86.709z"/>
<path fill="#64478E" d="M264.736,92.798c-1.82,1.052-4.147,0.431-5.201-1.386c-1.047-1.829-0.429-4.155,1.391-5.203
	c1.83-1.053,4.154-0.427,5.202,1.399C267.175,89.429,266.559,91.748,264.736,92.798z"/>
<path fill="#FFFFFF" d="M254.369,99.161c-1.793,1.1-4.135,0.54-5.236-1.249c-1.095-1.801-0.539-4.144,1.254-5.238
	c1.8-1.101,4.141-0.536,5.236,1.262C256.718,95.729,256.163,98.063,254.369,99.161z"/>
<path fill="#FFFFFF" d="M244.171,105.792c-1.764,1.146-4.12,0.647-5.267-1.111c-1.141-1.771-0.647-4.127,1.116-5.269
	c1.771-1.147,4.125-0.644,5.268,1.125C246.43,102.3,245.936,104.648,244.171,105.792z"/>
<path fill="#727272" d="M234.15,112.688c-1.733,1.192-4.102,0.755-5.294-0.973c-1.188-1.741-0.754-4.109,0.978-5.296
	c1.741-1.193,4.107-0.751,5.296,0.987C236.316,109.139,235.884,111.499,234.15,112.688z"/>
<path fill="#727272" d="M224.312,119.845c-1.701,1.236-4.08,0.862-5.317-0.834c-1.232-1.71-0.862-4.088,0.839-5.32
	c1.71-1.238,4.087-0.859,5.32,0.849C226.385,116.239,226.016,118.61,224.312,119.845z"/>
<path fill="#727272" d="M214.667,127.257c-1.668,1.281-4.056,0.969-5.337-0.695c-1.276-1.677-0.969-4.064,0.699-5.34
	c1.677-1.283,4.063-0.966,5.34,0.709C216.645,123.598,216.336,125.978,214.667,127.257z"/>
<path fill="#727272" d="M205.217,134.918c-1.634,1.324-4.028,1.074-5.354-0.556c-1.319-1.643-1.075-4.037,0.561-5.356
	c1.642-1.326,4.035-1.071,5.356,0.569C207.1,131.208,206.854,133.596,205.217,134.918z"/>
<path fill="#727272" d="M195.972,142.824c-1.598,1.367-3.998,1.18-5.366-0.415c-1.363-1.607-1.18-4.007,0.419-5.369
	c1.607-1.368,4.007-1.176,5.37,0.428C197.757,139.067,197.573,141.459,195.972,142.824z"/>
<path fill="#727272" d="M186.938,150.969c-1.563,1.409-3.967,1.284-5.375-0.273c-1.405-1.571-1.284-3.975,0.278-5.379
	c1.571-1.41,3.975-1.281,5.379,0.288C188.622,147.167,188.502,149.563,186.938,150.969z"/>
<path fill="#00FF85" d="M178.118,159.349c-1.524,1.448-3.932,1.388-5.381-0.134c-1.444-1.534-1.388-3.94,0.138-5.384
	c1.534-1.451,3.939-1.385,5.385,0.147C179.704,155.503,179.646,157.902,178.118,159.349z"/>
<path fill="#FFFFFF" d="M169.522,167.956c-1.487,1.488-3.894,1.49-5.382,0.007c-1.485-1.496-1.491-3.902-0.003-5.386
	c1.495-1.49,3.901-1.487,5.386,0.006C171.007,164.07,171.012,166.47,169.522,167.956z"/>
<path fill="#FFFFFF" d="M161.154,176.786c-1.447,1.525-3.854,1.591-5.381,0.148c-1.523-1.456-1.591-3.863-0.144-5.383
	c1.456-1.529,3.86-1.59,5.385-0.136C162.536,172.862,162.604,175.261,161.154,176.786z"/>
<path fill="#FFFFFF" d="M153.019,185.831c-1.406,1.563-3.809,1.691-5.374,0.289c-1.561-1.416-1.693-3.819-0.286-5.378
	c1.415-1.567,3.819-1.689,5.381-0.276C154.299,181.873,154.43,184.269,153.019,185.831z"/>
<path fill="#FFFFFF" d="M145.125,195.085c-1.365,1.6-3.765,1.791-5.365,0.429c-1.597-1.375-1.791-3.774-0.425-5.368
	c1.374-1.603,3.772-1.789,5.371-0.417C146.3,191.095,146.494,193.487,145.125,195.085z"/>
<path fill="#FFFFFF" d="M137.476,204.544c-1.323,1.635-3.717,1.888-5.352,0.569c-1.632-1.332-1.889-3.726-0.566-5.355
	c1.332-1.639,3.725-1.887,5.358-0.557C138.546,200.524,138.802,202.91,137.476,204.544z"/>
<path fill="#FFFFFF" d="M130.077,214.2c-1.279,1.669-3.666,1.985-5.336,0.709c-1.666-1.289-1.986-3.674-0.705-5.339
	c1.288-1.673,3.673-1.983,5.341-0.697C131.041,210.154,131.36,212.532,130.077,214.2z"/>
<path fill="#4C4C4C" d="M122.933,224.046c-1.236,1.701-3.613,2.08-5.315,0.848c-1.699-1.244-2.081-3.62-0.845-5.318
	c1.245-1.707,3.62-2.079,5.322-0.836C123.791,219.975,124.172,222.344,122.933,224.046z"/>
<path fill="#FFFFFF" d="M116.049,234.075c-1.19,1.734-3.557,2.174-5.291,0.988c-1.731-1.199-2.177-3.565-0.984-5.294
	c1.199-1.738,3.564-2.173,5.297-0.975C116.8,229.984,117.244,232.342,116.049,234.075z"/>
<path fill="#FFFFFF" d="M109.43,244.282c-1.145,1.765-3.499,2.267-5.263,1.126c-1.763-1.154-2.269-3.507-1.123-5.268
	c1.153-1.769,3.506-2.265,5.27-1.113C110.074,240.172,110.578,242.518,109.43,244.282z"/>
<path fill="#009668" d="M103.081,254.658c-1.098,1.794-3.439,2.357-5.233,1.263c-1.792-1.107-2.359-3.447-1.26-5.236
	c1.107-1.799,3.446-2.357,5.239-1.251C103.616,250.533,104.183,252.865,103.081,254.658z"/>
<path fill="#A5A5A5" d="M97.005,265.196c-1.05,1.823-3.375,2.447-5.197,1.4c-1.821-1.06-2.449-3.384-1.397-5.202
	c1.06-1.826,3.383-2.445,5.204-1.387C97.433,261.059,98.06,263.376,97.005,265.196z"/>
<path fill="#A5A5A5" d="M91.207,275.891c-1.002,1.849-3.311,2.534-5.159,1.535c-1.848-1.011-2.537-3.319-1.533-5.163
	c1.011-1.854,3.318-2.534,5.167-1.524C91.526,271.744,92.213,274.042,91.207,275.891z"/>
<path fill="#00E1FF" d="M85.691,286.733c-0.955,1.875-3.243,2.62-5.117,1.67c-1.873-0.963-2.623-3.251-1.667-5.121
	c0.962-1.88,3.251-2.62,5.125-1.659C85.902,282.579,86.649,284.859,85.691,286.733z"/>
<path fill="#00E1FF" d="M80.461,297.716c-0.905,1.899-3.173,2.704-5.072,1.802c-1.897-0.913-2.706-3.181-1.8-5.075
	c0.913-1.904,3.182-2.704,5.081-1.792C80.563,293.558,81.37,295.817,80.461,297.716z"/>
<path fill="#00E1FF" d="M75.52,308.832c-0.854,1.923-3.102,2.786-5.022,1.936c-1.92-0.864-2.789-3.11-1.932-5.027
	c0.862-1.927,3.109-2.787,5.03-1.924C75.513,304.672,76.379,306.911,75.52,308.832z"/>
<path fill="#00E1FF" d="M70.872,320.074c-0.804,1.944-3.028,2.866-4.97,2.066c-1.942-0.813-2.869-3.035-2.064-4.975
	c0.812-1.949,3.036-2.867,4.98-2.055C70.757,315.916,71.681,318.131,70.872,320.074z"/>
<path fill="#00E1FF" d="M66.52,331.433c-0.752,1.965-2.951,2.945-4.914,2.195c-1.963-0.761-2.948-2.958-2.194-4.918
	c0.761-1.97,2.959-2.946,4.925-2.185C66.295,327.279,67.277,329.47,66.52,331.433z"/>
<path fill="#00E1FF" d="M62.466,342.902c-0.701,1.984-2.873,3.021-4.855,2.324c-1.982-0.71-3.024-2.881-2.322-4.86
	c0.709-1.989,2.882-3.021,4.866-2.312C62.133,338.756,63.172,340.92,62.466,342.902z"/>
<path fill="#00E1FF" d="M58.714,354.473c-0.648,2.002-2.792,3.096-4.792,2.451c-2.001-0.658-3.098-2.8-2.448-4.798
	c0.657-2.006,2.8-3.096,4.803-2.438C58.273,350.337,59.368,352.474,58.714,354.473z"/>
<path fill="#00E1FF" d="M55.267,366.14c-0.597,2.018-2.711,3.167-4.727,2.575c-2.017-0.605-3.17-2.718-2.573-4.731
	c0.604-2.023,2.72-3.168,4.737-2.564C54.717,362.017,55.867,364.124,55.267,366.14z"/>
<path fill="#00E1FF" d="M52.125,377.892c-0.543,2.033-2.627,3.237-4.657,2.699c-2.033-0.553-3.241-2.635-2.695-4.663
	c0.55-2.039,2.635-3.24,4.668-2.687C51.469,373.785,52.673,375.861,52.125,377.892z"/>
<path fill="#00E1FF" d="M49.293,389.722c-0.489,2.047-2.541,3.305-4.585,2.819c-2.046-0.499-3.309-2.549-2.816-4.591
	c0.497-2.051,2.549-3.306,4.597-2.808C48.529,385.634,49.788,387.678,49.293,389.722z"/>
<path fill="#00E1FF" d="M46.772,401.623c-0.436,2.059-2.454,3.37-4.511,2.938c-2.058-0.445-3.374-2.461-2.935-4.516
	c0.443-2.064,2.461-3.372,4.521-2.928C45.901,397.556,47.212,399.566,46.772,401.623z"/>
<path fill="#00E1FF" d="M44.562,413.585c-0.381,2.069-2.365,3.433-4.432,3.055c-2.069-0.391-3.438-2.372-3.053-4.437
	c0.389-2.075,2.373-3.436,4.443-3.046C43.585,409.542,44.949,411.518,44.562,413.585z"/>
<path fill="#00E1FF" d="M42.667,425.602c-0.328,2.078-2.274,3.494-4.35,3.168c-2.079-0.336-3.499-2.281-3.168-4.355
	c0.334-2.085,2.282-3.497,4.362-3.161C41.583,421.585,43,423.524,42.667,425.602z"/>
<circle fill="#395AFF" cx="594.51" cy="517.033" r="4.381"/>
<circle fill="#6300FF" cx="549.229" cy="311.075" r="4.382"/>
<circle fill="#A000F4" cx="542.899" cy="301.337" r="4.382"/>
<circle fill="#FF00B1" cx="555.558" cy="320.325" r="4.382"/>
<circle fill="#F46B2F" cx="563.07" cy="331.121" r="4.382"/>
<circle fill="#F3FF00" cx="629.959" cy="533.005" r="4.381"/>
<circle fill="#FF0000" cx="628.106" cy="561.339" r="4.381"/>
<circle fill="#FFB600" cx="625.185" cy="547.708" r="4.382"/>
<circle fill="#AA438D" cx="561.442" cy="366.622" r="4.382"/>
<circle fill="#009668" cx="574.061" cy="352.948" r="4.382"/>
<circle fill="#7C0000" cx="563.918" cy="342.931" r="4.382"/>
<circle fill="#01723C" cx="550.203" cy="273.096" r="4.383"/>
<circle fill="#A5007A" cx="638.818" cy="517.033" r="4.381"/>
<circle fill="#00E1FF" cx="493.235" cy="283.808" r="4.382"/>
<circle fill="#2CFF00" cx="565.783" cy="275.531" r="4.382"/>
<circle fill="#64478E" cx="555.493" cy="564.455" r="4.382"/>
<circle fill="#00FF85" cx="559.941" cy="265.306" r="4.381"/>
<path fill="none" stroke="#395AFF" stroke-width="1.5" stroke-miterlimit="10" d="M34.143,498.366
	c0,10.317,250.633,18.667,560.368,18.667"/>
<path fill="none" stroke="#395AFF" stroke-width="1.5" stroke-miterlimit="10" d="M34.47,510.625
	c0,3.542,250.487,6.407,560.041,6.407"/>
<path fill="none" stroke="#395AFF" stroke-width="1.5" stroke-miterlimit="10" d="M35.118,522.872
	c0-3.227,250.197-5.839,559.393-5.839"/>
<path fill="none" stroke="#395AFF" stroke-width="1.5" stroke-miterlimit="10" d="M36.087,535.099
	c0-9.985,249.764-18.066,558.423-18.066"/>
<path fill="none" stroke="#395AFF" stroke-width="1.5" stroke-miterlimit="10" d="M37.375,547.295
	c0-16.727,247.228-30.263,552.754-30.263"/>
<path fill="none" stroke="#395AFF" stroke-width="1.5" stroke-miterlimit="10" d="M38.982,559.454
	c0-23.447,248.469-42.421,555.528-42.421"/>
<path fill="none" stroke="#395AFF" stroke-width="1.5" stroke-miterlimit="10" d="M40.907,571.566
	c0-30.143,247.607-54.533,553.604-54.533"/>
<path fill="none" stroke="#395AFF" stroke-width="1.5" stroke-miterlimit="10" d="M43.149,583.625
	c0-36.808,246.605-66.592,551.362-66.592"/>
<path fill="none" stroke="#395AFF" stroke-width="1.5" stroke-miterlimit="10" d="M45.705,595.618
	c0-43.436,245.461-78.585,548.806-78.585"/>
<path fill="none" stroke="#395AFF" stroke-width="1.5" stroke-miterlimit="10" d="M48.575,607.543
	c0-50.028,244.178-90.511,545.936-90.511"/>
<path fill="none" stroke="#395AFF" stroke-width="1.5" stroke-miterlimit="10" d="M51.754,619.386
	c0-56.573,242.757-102.354,542.756-102.354"/>
<path fill="none" stroke="#FF00B1" stroke-width="1.5" stroke-miterlimit="10" d="M555.559,320.325
	c0,176.914-227.273,310.818-500.314,310.818"/>
<path fill="none" stroke="#FF00B1" stroke-width="1.5" stroke-miterlimit="10" d="M555.559,320.325
	c0,183.359-225.574,322.481-496.519,322.481"/>
<path fill="none" stroke="#FF00B1" stroke-width="1.5" stroke-miterlimit="10" d="M555.559,321.163
	c0,189.748-223.741,333.202-492.418,333.202"/>
<path fill="none" stroke="#FF00B1" stroke-width="1.5" stroke-miterlimit="10" d="M555.559,320.325
	c0,196.076-221.772,345.486-488.017,345.486"/>
<path fill="none" stroke="#FF00B1" stroke-width="1.5" stroke-miterlimit="10" d="M555.559,320.325
	c0,202.337-219.671,356.814-483.318,356.814"/>
<path fill="none" stroke="#395AFF" stroke-width="1.5" stroke-miterlimit="10" d="M77.234,688.339
	c0-94.687,231.36-171.307,517.276-171.307"/>
<path fill="none" stroke="#395AFF" stroke-width="1.5" stroke-miterlimit="10" d="M82.52,699.407
	c0-100.804,228.996-182.374,511.991-182.374"/>
<path fill="none" stroke="#FF00B1" stroke-width="1.5" stroke-miterlimit="10" d="M555.559,321.163
	c0,220.683-212.58,389.168-467.464,389.168"/>
<path fill="none" stroke="#FF00B1" stroke-width="1.5" stroke-miterlimit="10" d="M555.559,320.325
	c0,226.639-209.959,400.78-461.607,400.78"/>
<path fill="none" stroke="#A000F4" stroke-width="1.5" stroke-miterlimit="10" d="M100.089,731.724
	c0-237.89,196.094-430.387,438.428-430.387"/>
<path fill="none" stroke="#A000F4" stroke-width="1.5" stroke-miterlimit="10" d="M113.187,752.459
	c0-249.352,190.236-451.123,425.33-451.123"/>
<path fill="none" stroke="#A000F4" stroke-width="1.5" stroke-miterlimit="10" d="M120.139,762.562
	c0-254.935,189.085-461.225,422.759-461.225"/>
<path fill="none" stroke="#A000F4" stroke-width="1.5" stroke-miterlimit="10" d="M127.353,772.481
	c0-260.418,183.9-471.144,411.164-471.144"/>
<path fill="none" stroke="#A000F4" stroke-width="1.5" stroke-miterlimit="10" d="M134.824,782.207
	c0-265.794,182.519-480.87,408.075-480.87"/>
<path fill="none" stroke="#A000F4" stroke-width="1.5" stroke-miterlimit="10" d="M142.547,791.733
	c0-271.059,179.063-490.396,400.351-490.396"/>
<path fill="none" stroke="#FF00B1" stroke-width="1.5" stroke-miterlimit="10" d="M555.559,321.163
	c0,270.829-184.66,479.891-405.042,479.891"/>
<path fill="none" stroke="#FF00B1" stroke-width="1.5" stroke-miterlimit="10" d="M555.559,321.163
	c0,275.864-180.987,489.001-396.831,489.001"/>
<path fill="none" stroke="#6300FF" stroke-width="1.5" stroke-miterlimit="10" d="M167.175,819.056
	c0-280.778,170.879-507.981,382.054-507.981"/>
<path fill="none" stroke="#6300FF" stroke-width="1.5" stroke-miterlimit="10" d="M175.852,827.723
	c0-285.568,166.999-516.648,373.376-516.648"/>
<path fill="none" stroke="#6300FF" stroke-width="1.5" stroke-miterlimit="10" d="M184.752,836.163
	c0-290.235,163.018-525.088,364.476-525.088"/>
<path fill="none" stroke="#6300FF" stroke-width="1.5" stroke-miterlimit="10" d="M193.87,844.363
	c0-294.766,158.939-533.288,355.358-533.288"/>
<path fill="none" stroke="#6300FF" stroke-width="1.5" stroke-miterlimit="10" d="M203.2,852.324
	c0-299.167,156.726-541.249,350.41-541.249"/>
<path fill="none" stroke="#FF00B1" stroke-width="1.5" stroke-miterlimit="10" d="M555.559,321.163
	c0,297.854-153.333,538.875-342.823,538.875"/>
<path fill="none" stroke="#FF00B1" stroke-width="1.5" stroke-miterlimit="10" d="M555.559,321.163
	c0,301.977-148.979,546.334-333.089,546.334"/>
<path fill="none" stroke="#FF00B1" stroke-width="1.5" stroke-miterlimit="10" d="M555.559,321.163
	c0,305.958-144.54,553.539-323.164,553.539"/>
<path fill="none" stroke="#FF00B1" stroke-width="1.5" stroke-miterlimit="10" d="M555.559,321.163
	c0,309.796-140.018,560.48-313.053,560.48"/>
<path fill="none" stroke="#FF00B1" stroke-width="1.5" stroke-miterlimit="10" d="M555.559,321.163
	c0,313.485-135.417,567.154-302.764,567.154"/>
<path fill="none" stroke="#FF00B1" stroke-width="1.5" stroke-miterlimit="10" d="M555.559,321.163
	c0,317.025-130.737,573.557-292.304,573.557"/>
<path fill="none" stroke="#FF00B1" stroke-width="1.5" stroke-miterlimit="10" d="M555.559,321.163
	c0,320.411-125.985,579.683-281.68,579.683"/>
<path fill="none" stroke="#FF00B1" stroke-width="1.5" stroke-miterlimit="10" d="M555.559,321.163
	c0,323.642-121.164,585.529-270.898,585.529"/>
<path fill="none" stroke="#FF00B1" stroke-width="1.5" stroke-miterlimit="10" d="M555.559,321.163
	c0,326.716-116.275,591.091-259.968,591.091"/>
<path fill="none" stroke="#FF00B1" stroke-width="1.5" stroke-miterlimit="10" d="M555.559,321.163
	c0,349.495-48.494,636.077-107.808,636.077"/>
<path fill="none" stroke="#FF00B1" stroke-width="1.5" stroke-miterlimit="10" d="M555.559,321.163
	c0,348.359,17.285,630.246,38.646,630.246"/>
<path fill="none" stroke="#FFFFFF" stroke-width="1.5" stroke-miterlimit="10" d="M629.969,942.802"/>
<path fill="none" stroke="#FF0000" stroke-width="1.5" stroke-miterlimit="10" d="M628.106,561.339"/>
<path fill="none" stroke="#FFFFFF" stroke-width="1.5" stroke-miterlimit="10" d="M641.726,939.313"/>
<path fill="none" stroke="#FF0000" stroke-width="1.5" stroke-miterlimit="10" d="M628.106,561.339"/>
<path fill="none" stroke="#FFFFFF" stroke-width="1.5" stroke-miterlimit="10" d="M653.388,935.517"/>
<path fill="none" stroke="#FF0000" stroke-width="1.5" stroke-miterlimit="10" d="M628.106,561.339"/>
<path fill="none" stroke="#F3FF00" stroke-width="1.5" stroke-miterlimit="10" d="M666.003,930.889
	c0-215.835-20.21-397.884-36.044-397.884"/>
<path fill="none" stroke="#F3FF00" stroke-width="1.5" stroke-miterlimit="10" d="M677.451,926.489
	c0-213.402-24.792-393.413-46.952-393.413"/>
<path fill="none" stroke="#7C0000" stroke-width="1.5" stroke-miterlimit="10" d="M699.979,916.793
	c0-317.193-60.855-573.862-136.062-573.862"/>
<path fill="none" stroke="#7C0000" stroke-width="1.5" stroke-miterlimit="10" d="M711.047,911.509
	c0-314.273-65.806-568.578-147.129-568.578"/>
<path fill="none" stroke="#F46B2F" stroke-width="1.5" stroke-miterlimit="10" d="M721.971,905.935
	c0-317.72-69.111-574.814-154.519-574.814"/>
<path fill="none" stroke="#FF0000" stroke-width="1.5" stroke-miterlimit="10" d="M629.969,942.802
	c0-210.848-0.834-381.463-1.862-381.463"/>
<path fill="none" stroke="#FF0000" stroke-width="1.5" stroke-miterlimit="10" d="M641.726,939.313
	c0-208.919-6.092-377.974-13.619-377.974"/>
<path fill="none" stroke="#FF0000" stroke-width="1.5" stroke-miterlimit="10" d="M653.388,935.517
	c0-206.82-11.309-374.178-25.281-374.178"/>
<path fill="none" stroke="#AA438D" stroke-width="1.5" stroke-miterlimit="10" d="M561.442,366.622
	c0,294.86,76.617,533.456,171.303,533.456"/>
<path fill="none" stroke="#F46B2F" stroke-width="1.5" stroke-miterlimit="10" d="M743.363,893.939
	c0-311.088-80.639-562.819-180.294-562.819"/>
<path fill="none" stroke="#A5007A" stroke-width="1.5" stroke-miterlimit="10" d="M638.818,517.033
	c0,204.784,51.435,370.494,114.999,370.494"/>
<path fill="none" stroke="#395AFF" stroke-width="1.5" stroke-miterlimit="10" d="M594.511,517.033
	c0-103.594,155.421-187.421,347.491-187.421"/>
<path fill="none" stroke="#FFB600" stroke-width="1.5" stroke-miterlimit="10" d="M937.6,318.164
	c0,126.876-139.732,229.544-312.415,229.544"/>
<path fill="none" stroke="#FFB600" stroke-width="1.5" stroke-miterlimit="10" d="M932.9,306.836
	c0,133.138-137.631,240.872-307.716,240.872"/>
<path fill="none" stroke="#FFB600" stroke-width="1.5" stroke-miterlimit="10" d="M927.907,295.635
	c0,139.329-135.397,252.073-302.723,252.073"/>
<path fill="none" stroke="#FFB600" stroke-width="1.5" stroke-miterlimit="10" d="M922.622,284.567
	c0,145.446-133.034,263.14-297.438,263.14"/>
<path fill="none" stroke="#FFB600" stroke-width="1.5" stroke-miterlimit="10" d="M917.047,273.643
	c0,151.485-130.54,274.065-291.862,274.065"/>
<path fill="none" stroke="#FFB600" stroke-width="1.5" stroke-miterlimit="10" d="M911.19,262.868
	c0,157.44-127.921,284.84-286.006,284.84"/>
<path fill="none" stroke="#FFB600" stroke-width="1.5" stroke-miterlimit="10" d="M905.053,252.25
	c0,163.309-125.176,295.458-279.868,295.458"/>
<path fill="none" stroke="#FFB600" stroke-width="1.5" stroke-miterlimit="10" d="M898.639,241.796
	c0,169.087-122.307,305.911-273.454,305.911"/>
<path fill="none" stroke="#FFB600" stroke-width="1.5" stroke-miterlimit="10" d="M891.954,231.514
	c0,174.771-119.317,316.193-266.77,316.193"/>
<path fill="none" stroke="#FFB600" stroke-width="1.5" stroke-miterlimit="10" d="M885.003,221.411
	c0,180.355-116.208,326.297-259.818,326.297"/>
<path fill="none" stroke="#FFB600" stroke-width="1.5" stroke-miterlimit="10" d="M877.788,211.493
	c0,185.837-112.98,336.215-252.604,336.215"/>
<path fill="none" stroke="#FFB600" stroke-width="1.5" stroke-miterlimit="10" d="M870.317,201.766
	c0,191.213-109.64,345.941-245.133,345.941"/>
<path fill="none" stroke="#FFB600" stroke-width="1.5" stroke-miterlimit="10" d="M862.594,192.239
	c0,196.48-106.185,355.468-237.409,355.468"/>
<path fill="none" stroke="#FFB600" stroke-width="1.5" stroke-miterlimit="10" d="M854.625,182.918
	c0,201.631-102.621,364.79-229.44,364.79"/>
<path fill="none" stroke="#FFB600" stroke-width="1.5" stroke-miterlimit="10" d="M846.414,173.808
	c0,206.667-98.948,373.899-221.229,373.899"/>
<path fill="none" stroke="#FFB600" stroke-width="1.5" stroke-miterlimit="10" d="M836.91,164.917
	c0,211.582-94.698,382.791-211.726,382.791"/>
<path fill="none" stroke="#FFB600" stroke-width="1.5" stroke-miterlimit="10" d="M828.233,156.249
	c0,216.373-90.817,391.459-203.049,391.459"/>
<path fill="none" stroke="#FFB600" stroke-width="1.5" stroke-miterlimit="10" d="M819.332,147.811
	c0,221.037-86.835,399.896-194.147,399.896"/>
<path fill="none" stroke="#FFB600" stroke-width="1.5" stroke-miterlimit="10" d="M810.214,139.61
	c0,225.569-82.757,408.098-185.029,408.098"/>
<path fill="none" stroke="#FFB600" stroke-width="1.5" stroke-miterlimit="10" d="M800.884,131.649
	c0,229.969-78.584,416.058-175.699,416.058"/>
<path fill="none" stroke="#FFB600" stroke-width="1.5" stroke-miterlimit="10" d="M791.349,123.936
	c0,234.233-74.32,423.771-166.164,423.771"/>
<path fill="none" stroke="#FFB600" stroke-width="1.5" stroke-miterlimit="10" d="M781.615,116.475
	c0,238.357-69.966,431.232-156.431,431.232"/>
<path fill="none" stroke="#FFB600" stroke-width="1.5" stroke-miterlimit="10" d="M771.689,109.271
	c0,242.338-65.527,438.436-146.505,438.436"/>
<path fill="none" stroke="#FFB600" stroke-width="1.5" stroke-miterlimit="10" d="M761.578,102.33
	c0,246.175-61.004,445.377-136.394,445.377"/>
<path fill="none" stroke="#FFB600" stroke-width="1.5" stroke-miterlimit="10" d="M751.289,95.656
	c0,249.864-56.402,452.052-126.104,452.052"/>
<path fill="none" stroke="#FFB600" stroke-width="1.5" stroke-miterlimit="10" d="M740.828,89.253
	c0,253.404-51.723,458.455-115.644,458.455"/>
<path fill="none" stroke="#FFB600" stroke-width="1.5" stroke-miterlimit="10" d="M730.205,83.127
	c0,256.789-46.972,464.581-105.021,464.581"/>
<path fill="none" stroke="#FFB600" stroke-width="1.5" stroke-miterlimit="10" d="M719.424,77.28
	c0,260.021-42.149,470.427-94.239,470.427"/>
<path fill="none" stroke="#FFB600" stroke-width="1.5" stroke-miterlimit="10" d="M708.493,71.718
	c0,263.096-37.261,475.989-83.309,475.989"/>
<path fill="none" stroke="#FFB600" stroke-width="1.5" stroke-miterlimit="10" d="M697.42,66.444
	c0,266.011-32.308,481.264-72.235,481.264"/>
<path fill="none" stroke="#FFB600" stroke-width="1.5" stroke-miterlimit="10" d="M686.214,61.461
	c0,268.765-27.296,486.246-61.029,486.246"/>
<path fill="none" stroke="#2CFF00" stroke-width="1.5" stroke-miterlimit="10" d="M651.866,48.297
	c0,125.6-38.502,227.234-86.083,227.234"/>
<path fill="none" stroke="#2CFF00" stroke-width="1.5" stroke-miterlimit="10" d="M565.783,275.531
	c0-138.225-9.684-250.075-21.651-250.075"/>
<path fill="none" stroke="#2CFF00" stroke-width="1.5" stroke-miterlimit="10" d="M565.783,275.531
	c0-138.753-15.152-251.03-33.878-251.03"/>
<path fill="none" stroke="#01723C" stroke-width="1.5" stroke-miterlimit="10" d="M295.149,71.936
	c0,104.87,102.083,201.161,255.053,201.161"/>
<path fill="none" stroke="#00FF85" stroke-width="1.5" stroke-miterlimit="10" d="M175.499,156.591
	c0,60.091,171.948,108.715,384.442,108.715"/>
<path fill="none" stroke="#009668" stroke-width="1.5" stroke-miterlimit="10" d="M99.836,252.673
	c0,55.426,212.104,100.275,474.225,100.275"/>
<path fill="none" stroke="#00E1FF" stroke-width="1.5" stroke-miterlimit="10" d="M493.235,283.808
	c0,78.047-203.205,141.204-454.327,141.204"/>
<path fill="none" stroke="#00E1FF" stroke-width="1.5" stroke-miterlimit="10" d="M493.235,283.808
	c0,71.352-202.349,129.089-452.415,129.089"/>
<path fill="none" stroke="#00E1FF" stroke-width="1.5" stroke-miterlimit="10" d="M493.235,283.808
	c0,64.686-201.353,117.028-450.186,117.028"/>
<path fill="none" stroke="#00E1FF" stroke-width="1.5" stroke-miterlimit="10" d="M493.235,283.808
	c0,58.055-200.215,105.031-447.643,105.031"/>
<path fill="none" stroke="#00E1FF" stroke-width="1.5" stroke-miterlimit="10" d="M493.235,283.808
	c0,51.462-198.937,93.104-444.786,93.104"/>
<path fill="none" stroke="#00E1FF" stroke-width="1.5" stroke-miterlimit="10" d="M493.235,283.808
	c0,44.913-197.52,81.256-441.617,81.256"/>
<path fill="none" stroke="#00E1FF" stroke-width="1.5" stroke-miterlimit="10" d="M493.235,283.808
	c0,38.412-195.965,69.495-438.141,69.495"/>
<path fill="none" stroke="#00E1FF" stroke-width="1.5" stroke-miterlimit="10" d="M493.235,283.808
	c0,31.964-194.272,57.829-434.356,57.829"/>
<path fill="none" stroke="#00E1FF" stroke-width="1.5" stroke-miterlimit="10" d="M493.235,283.808
	c0,25.572-192.444,46.266-430.268,46.266"/>
<path fill="none" stroke="#00E1FF" stroke-width="1.5" stroke-miterlimit="10" d="M493.235,283.808
	c0,19.243-190.481,34.813-425.879,34.813"/>
<path fill="none" stroke="#00E1FF" stroke-width="1.5" stroke-miterlimit="10" d="M493.235,283.808
	c0,12.979-188.385,23.48-421.191,23.48"/>
<path fill="none" stroke="#00E1FF" stroke-width="1.5" stroke-miterlimit="10" d="M493.235,283.808
	c0,6.784-186.156,12.273-416.209,12.273"/>
<path fill="none" stroke="#00E1FF" stroke-width="1.5" stroke-miterlimit="10" d="M493.235,283.808
	c0,0.664-183.797,1.201-410.936,1.201"/>
<path fill="none" stroke="#F3FF00" stroke-width="1.5" stroke-miterlimit="10" d="M630.499,533.076
	c0-106.073,141.158-191.906,315.603-191.906"/>
<path fill="none" stroke="#F3FF00" stroke-width="1.5" stroke-miterlimit="10" d="M630.499,533.076
	c0-100.211,143.093-181.301,319.928-181.301"/>
<path fill="none" stroke="#F3FF00" stroke-width="1.5" stroke-miterlimit="10" d="M630.499,533.076
	c0-93.712,144.653-169.544,323.417-169.544"/>
<path fill="none" stroke="#F3FF00" stroke-width="1.5" stroke-miterlimit="10" d="M630.499,533.076
	c0-87.166,146.075-157.699,326.597-157.699"/>
<path fill="none" stroke="#64478E" stroke-width="1.5" stroke-miterlimit="10" d="M262.832,89.504
	c0,262.521,130.896,474.95,292.661,474.95"/>
</svg>
