<?xml version="1.0" encoding="utf-8"?>
<!-- Generator: Adobe Illustrator 16.0.0, SVG Export Plug-In . SVG Version: 6.00 Build 0)  -->
<!DOCTYPE svg PUBLIC "-//W3C//DTD SVG 1.1//EN" "http://www.w3.org/Graphics/SVG/1.1/DTD/svg11.dtd">
<svg version="1.1" id="Layer_1" xmlns="http://www.w3.org/2000/svg" xmlns:xlink="http://www.w3.org/1999/xlink" x="0px" y="0px"
	 width="1000px" height="996.864px" viewBox="0 0 1000 996.864" enable-background="new 0 0 1000 996.864" xml:space="preserve">
<rect x="0" fill="#020202" width="1000" height="996.864"/>
<text transform="matrix(0.9317 -0.3633 0.3633 0.9317 232.2334 -106.0068)"><tspan x="0" y="0" fill="#FFFFFF" font-family="'Futura-CondensedMedium'" font-size="41.4678">Senakhte</tspan><tspan x="121.406" y="-0.001" fill="#FFFFFF" font-family="'Futura-CondensedLight'" font-size="41.4678"> (1190–1186 B.C.)</tspan></text>
<text transform="matrix(0.9409 -0.3387 0.3387 0.9409 247.7373 -62.0576)"><tspan x="0" y="0" fill="#FFFFFF" font-family="'Futura-CondensedMedium'" font-size="41.4677">Tausret </tspan><tspan x="103.103" y="0" fill="#FFFFFF" font-family="'Futura-CondensedLight'" font-size="41.4677">(1191–1190 B.C.)</tspan></text>
<text transform="matrix(0.9494 -0.314 0.314 0.9494 262.1353 -17.9893)"><tspan x="0" y="0" fill="#FFFFFF" font-family="'Futura-CondensedMedium'" font-size="41.4674">Sekhaenre</tspan><tspan x="138.555" y="0" fill="#FFFFFF" font-family="'Futura-CondensedLight'" font-size="41.4674"> (1197–1191 B.C.)</tspan></text>
<text transform="matrix(0.9573 -0.2891 0.2891 0.9573 275.6602 26.6396)"><tspan x="0" y="0" fill="#FFFFFF" font-family="'Futura-CondensedMedium'" font-size="41.4677">Seti II </tspan><tspan x="83.441" y="0" fill="#FFFFFF" font-family="'Futura-CondensedLight'" font-size="41.4677">(1200–1197 B.C.)</tspan></text>
<text transform="matrix(0.9646 -0.2639 0.2639 0.9646 287.6357 71.7622)"><tspan x="0" y="0" fill="#FFFFFF" font-family="'Futura-CondensedMedium'" font-size="41.4677">Amenmesse</tspan><tspan x="154.593" y="0" fill="#FFFFFF" font-family="'Futura-CondensedLight'" font-size="41.4677"> (1203–1200 B.C.)</tspan></text>
<text transform="matrix(0.9711 -0.2385 0.2385 0.9711 298.585 116.9238)"><tspan x="0" y="0" fill="#FFFFFF" font-family="'Futura-CondensedMedium'" font-size="41.4676">Merenptah</tspan><tspan x="140.803" y="0" fill="#FFFFFF" font-family="'Futura-CondensedLight'" font-size="41.4676"> (1213–1203 B.C.)</tspan></text>
<text transform="matrix(0.977 -0.213 0.213 0.977 308.5127 162.3721)"><tspan x="0" y="0" fill="#FFFFFF" font-family="'Futura-CondensedMedium'" font-size="41.4677">Ramesses II </tspan><tspan x="161.538" y="0" fill="#FFFFFF" font-family="'Futura-CondensedLight'" font-size="41.4677">(1279–1213 B.C.)</tspan></text>
<text transform="matrix(0.9823 -0.1874 0.1874 0.9823 316.9316 208.2026)"><tspan x="0" y="0" fill="#FFFFFF" font-family="'Futura-CondensedMedium'" font-size="41.4675">Seti I</tspan><tspan x="65.825" y="0" fill="#FFFFFF" font-family="'Futura-CondensedLight'" font-size="41.4675"> (1290–1279 B.C.)</tspan></text>
<text transform="matrix(0.9869 -0.1616 0.1616 0.9869 324.3862 254.1504)"><tspan x="0" y="0" fill="#FFFFFF" font-family="'Futura-CondensedMedium'" font-size="41.4676">Ramesses I </tspan><tspan x="152.506" y="0" fill="#FFFFFF" font-family="'Futura-CondensedLight'" font-size="41.4676">(1292–1290 B.C.)</tspan></text>
<text transform="matrix(0.9907 -0.1357 0.1357 0.9907 330.4233 300.4985)"><tspan x="0" y="0" fill="#FFFFFF" font-family="'Futura-CondensedMedium'" font-size="41.4677">Horemheb</tspan><tspan x="135.519" y="0" fill="#FFFFFF" font-family="'Futura-CondensedLight'" font-size="41.4677"> (1319–1292 B.C.)</tspan></text>
<text transform="matrix(0.994 -0.1097 0.1097 0.994 335.5396 346.7676)"><tspan x="0" y="0" fill="#FFFFFF" font-family="'Futura-CondensedMedium'" font-size="41.4679">Ay </tspan><tspan x="40.779" y="0" fill="#FFFFFF" font-family="'Futura-CondensedLight'" font-size="41.4679">(1323–1319 B.C.)</tspan></text>
<text transform="matrix(0.9965 -0.0837 0.0837 0.9965 339.2422 393.0186)"><tspan x="0" y="0" fill="#FFFFFF" font-family="'Futura-CondensedMedium'" font-size="41.4676">Tutankhamun </tspan><tspan x="189.662" y="0" fill="#FFFFFF" font-family="'Futura-CondensedLight'" font-size="41.4676">(1334–1323 B.C.)</tspan></text>
<text transform="matrix(0.9983 -0.0576 0.0576 0.9983 341.6797 439.4365)"><tspan x="0" y="0" fill="#FFFFFF" font-family="'Futura-CondensedMedium'" font-size="41.4674">Smenkhkare </tspan><tspan x="173.402" y="0" fill="#FFFFFF" font-family="'Futura-CondensedLight'" font-size="41.4674">(1335–1334 B.C.)</tspan></text>
<text transform="matrix(0.9995 -0.0314 0.0314 0.9995 343.1846 485.9644)"><tspan x="0" y="0" fill="#FFFFFF" font-family="'Futura-CondensedMedium'" font-size="41.4676">Amenhotep IV </tspan><tspan x="189.459" y="0" fill="#FFFFFF" font-family="'Futura-CondensedLight'" font-size="41.4676">(1353–1336 B.C.)</tspan></text>
<text transform="matrix(1 -0.0053 0.0053 1 343.2329 532.6445)"><tspan x="0" y="0" fill="#FFFFFF" font-family="'Futura-CondensedMedium'" font-size="41.4677">Amenhotep III </tspan><tspan x="192.194" y="0" fill="#FFFFFF" font-family="'Futura-CondensedLight'" font-size="41.4677">(1391–1353 B.C.)</tspan></text>
<text transform="matrix(0.9998 0.0209 -0.0209 0.9998 342.1172 579.1885)"><tspan x="0" y="0" fill="#FFFFFF" font-family="'Futura-CondensedMedium'" font-size="41.4678">Thutmose IV </tspan><tspan x="166.701" y="0" fill="#FFFFFF" font-family="'Futura-CondensedLight'" font-size="41.4678">(1401–1391 B.C.)</tspan></text>
<text transform="matrix(0.9989 0.0471 -0.0471 0.9989 339.7285 625.5801)"><tspan x="0" y="0" fill="#FFFFFF" font-family="'Futura-CondensedMedium'" font-size="41.4675">Amenhotep II </tspan><tspan x="183.162" y="0" fill="#FFFFFF" font-family="'Futura-CondensedLight'" font-size="41.4675">(1425–1401 B.C.)</tspan></text>
<text transform="matrix(0.9973 0.0732 -0.0732 0.9973 336.2178 672.1699)"><tspan x="0" y="0" fill="#FFFFFF" font-family="'Futura-CondensedMedium'" font-size="41.4678">Thutmose III </tspan><tspan x="169.434" y="0" fill="#FFFFFF" font-family="'Futura-CondensedLight'" font-size="41.4678">(1458–1425 B.C.)</tspan></text>
<text transform="matrix(0.9951 0.0993 -0.0993 0.9951 331.4106 718.4912)"><tspan x="0" y="0" fill="#FFFFFF" font-family="'Futura-CondensedMedium'" font-size="41.4678">Hatshepsut </tspan><tspan x="152.447" y="0" fill="#FFFFFF" font-family="'Futura-CondensedLight'" font-size="41.4678">(1479–1458 B.C.)</tspan></text>
<text transform="matrix(0.9921 0.1253 -0.1253 0.9921 325.4136 764.6855)"><tspan x="0" y="0" fill="#FFFFFF" font-family="'Futura-CondensedMedium'" font-size="41.4678">Thutmose II </tspan><tspan x="160.404" y="-0.001" fill="#FFFFFF" font-family="'Futura-CondensedLight'" font-size="41.4678">(1493–1479 B.C.)</tspan></text>
<text transform="matrix(0.9885 0.1513 -0.1513 0.9885 318.1035 810.6953)"><tspan x="0" y="0" fill="#FFFFFF" font-family="'Futura-CondensedMedium'" font-size="41.4677">Thutmose I </tspan><tspan x="151.372" y="0" fill="#FFFFFF" font-family="'Futura-CondensedLight'" font-size="41.4677">(1506–1493 B.C.)</tspan></text>
<text transform="matrix(0.9842 0.1771 -0.1771 0.9842 309.7695 856.3896)"><tspan x="0" y="0" fill="#FFFFFF" font-family="'Futura-CondensedMedium'" font-size="41.4676">Amenhotep I </tspan><tspan x="174.132" y="0.001" fill="#FFFFFF" font-family="'Futura-CondensedLight'" font-size="41.4676">(unknown reign)</tspan></text>
<text transform="matrix(0.9792 0.2028 -0.2028 0.9792 300.0801 901.9375)"><tspan x="0" y="0" fill="#FFFFFF" font-family="'Futura-CondensedMedium'" font-size="41.4675">Ahmose I </tspan><tspan x="128.675" y="0" fill="#FFFFFF" font-family="'Futura-CondensedLight'" font-size="41.4675">(1550–1525 B.C.)</tspan></text>
<text transform="matrix(0.9736 0.2283 -0.2283 0.9736 289.5352 947.1738)"><tspan x="0" y="0" fill="#FFFFFF" font-family="'Futura-CondensedMedium'" font-size="41.4676">Kamose </tspan><tspan x="111.181" y="0" fill="#FFFFFF" font-family="'Futura-CondensedLight'" font-size="41.4676">(1555–1550 B.C.)</tspan></text>
<text transform="matrix(0.9673 0.2537 -0.2537 0.9673 277.5576 992.0586)"><tspan x="0" y="0" fill="#FFFFFF" font-family="'Futura-CondensedMedium'" font-size="41.4674">Seqenenre Tao </tspan><tspan x="200.676" y="0.001" fill="#FFFFFF" font-family="'Futura-CondensedLight'" font-size="41.4674">(1558–1555 B.C.)</tspan></text>
<text transform="matrix(0.9603 0.279 -0.279 0.9603 264.4766 1036.8613)"><tspan x="0" y="0" fill="#FFFFFF" font-family="'Futura-CondensedMedium'" font-size="41.4677">Heruhirmaat </tspan><tspan x="174.577" y="0" fill="#FFFFFF" font-family="'Futura-CondensedLight'" font-size="41.4677">(1560–1558 B.C.)</tspan></text>
<text transform="matrix(0.9527 0.304 -0.304 0.9527 250.085 1081.0479)"><tspan x="0" y="0" fill="#FFFFFF" font-family="'Futura-CondensedMedium'" font-size="41.4674">Nubkheperre </tspan><tspan x="178.564" y="0" fill="#FFFFFF" font-family="'Futura-CondensedLight'" font-size="41.4674">(1571–1560 B.C.)</tspan></text>
<text transform="matrix(0.9444 0.3289 -0.3289 0.9444 234.5161 1125.0996)"><tspan x="0" y="0" fill="#FFFFFF" font-family="'Futura-CondensedMedium'" font-size="41.4676">Wepmaat </tspan><tspan x="132.076" y="0" fill="#FFFFFF" font-family="'Futura-CondensedLight'" font-size="41.4676">(1573–1571 BC.)</tspan></text>
</svg>
