<?xml version="1.0" encoding="utf-8"?>
<!-- Generator: Adobe Illustrator 16.0.0, SVG Export Plug-In . SVG Version: 6.00 Build 0)  -->
<!DOCTYPE svg PUBLIC "-//W3C//DTD SVG 1.1//EN" "http://www.w3.org/Graphics/SVG/1.1/DTD/svg11.dtd">
<svg version="1.1" id="Layer_1" xmlns="http://www.w3.org/2000/svg" xmlns:xlink="http://www.w3.org/1999/xlink" x="0px" y="0px"
	 width="1000px" height="996.864px" viewBox="0 0 1000 996.864" enable-background="new 0 0 1000 996.864" xml:space="preserve">
<rect fill="#020202" width="1000" height="996.864"/>
<text transform="matrix(0.9154 -0.4024 0.4024 0.9154 26.9844 11.6768)"><tspan x="0" y="0" fill="#FFFFFF" font-family="'Futura-CondensedMedium'" font-size="29.1561">Ramesses XI</tspan><tspan x="112.14" y="0" fill="#FFFFFF" font-family="'Futura-CondensedLight'" font-size="29.1561"> (1107–1077 B.C.)</tspan></text>
<text transform="matrix(0.9257 -0.3783 0.3783 0.9257 39.3311 41.9697)"><tspan x="0" y="0" fill="#FFFFFF" font-family="'Futura-CondensedMedium'" font-size="29.1561">Ramesses X </tspan><tspan x="111.827" y="0" fill="#FFFFFF" font-family="'Futura-CondensedLight'" font-size="29.1561">(1111–1107 B.C.)</tspan></text>
<text transform="matrix(0.9353 -0.354 0.354 0.9353 50.8188 72.7041)"><tspan x="0" y="0" fill="#FFFFFF" font-family="'Futura-CondensedMedium'" font-size="29.1562">Ramesses IX </tspan><tspan x="118.177" y="0" fill="#FFFFFF" font-family="'Futura-CondensedLight'" font-size="29.1562">(1129–1111 B.C.)</tspan></text>
<text transform="matrix(0.9442 -0.3294 0.3294 0.9442 61.4854 103.5039)"><tspan x="0" y="0" fill="#FFFFFF" font-family="'Futura-CondensedMedium'" font-size="29.156">Ramesses VIII</tspan><tspan x="124.668" y="0" fill="#FFFFFF" font-family="'Futura-CondensedLight'" font-size="29.156"> (1130–1129 B.C.)</tspan></text>
<text transform="matrix(0.9525 -0.3045 0.3045 0.9525 71.3438 134.7397)"><tspan x="0" y="0" fill="#FFFFFF" font-family="'Futura-CondensedMedium'" font-size="29.156">Ramesses VII </tspan><tspan x="124.354" y="0" fill="#FFFFFF" font-family="'Futura-CondensedLight'" font-size="29.156">(1137–1130 B.C.)</tspan></text>
<text transform="matrix(0.9601 -0.2795 0.2795 0.9601 80.4165 166.1831)"><tspan x="0" y="0" fill="#FFFFFF" font-family="'Futura-CondensedMedium'" font-size="29.1561">Ramesses VI </tspan><tspan x="118.005" y="0" fill="#FFFFFF" font-family="'Futura-CondensedLight'" font-size="29.1561">(1145–1137 B.C.)</tspan></text>
<text transform="matrix(0.9671 -0.2543 0.2543 0.9671 88.7109 197.8901)"><tspan x="0" y="0" fill="#FFFFFF" font-family="'Futura-CondensedMedium'" font-size="29.1562">Ramesses V</tspan><tspan x="105.62" y="0" fill="#FFFFFF" font-family="'Futura-CondensedLight'" font-size="29.1562"> (1149–1145 B.C.)</tspan></text>
<text transform="matrix(0.9735 -0.2289 0.2289 0.9735 95.9443 229.7617)"><tspan x="0" y="0" fill="#FFFFFF" font-family="'Futura-CondensedMedium'" font-size="29.1559">Ramesses IV</tspan><tspan x="111.968" y="0" fill="#FFFFFF" font-family="'Futura-CondensedLight'" font-size="29.1559"> (1155–1149 B.C.)</tspan></text>
<text transform="matrix(0.9791 -0.2033 0.2033 0.9791 102.5552 261.877)"><tspan x="0" y="0" fill="#FFFFFF" font-family="'Futura-CondensedMedium'" font-size="29.1561">Ramesses III </tspan><tspan x="119.927" y="0" fill="#FFFFFF" font-family="'Futura-CondensedLight'" font-size="29.1561">(1186–1155 B.C.)</tspan></text>
<text transform="matrix(0.9841 -0.1776 0.1776 0.9841 108.4004 294.1304)"><tspan x="0" y="0" fill="#FFFFFF" font-family="'Futura-CondensedMedium'" font-size="29.1563">Senakhte</tspan><tspan x="85.362" y="0" fill="#FFFFFF" font-family="'Futura-CondensedLight'" font-size="29.1563"> (1190–1186 B.C.)</tspan></text>
<text transform="matrix(0.9884 -0.1518 0.1518 0.9884 113.1646 326.5479)"><tspan x="0" y="0" fill="#FFFFFF" font-family="'Futura-CondensedMedium'" font-size="29.1562">Tausret </tspan><tspan x="72.492" y="0" fill="#FFFFFF" font-family="'Futura-CondensedLight'" font-size="29.1562">(1191–1190 B.C.)</tspan></text>
<text transform="matrix(0.992 -0.1259 0.1259 0.992 117.1509 358.9023)"><tspan x="0" y="0" fill="#FFFFFF" font-family="'Futura-CondensedMedium'" font-size="29.156">Sekhaenre</tspan><tspan x="97.419" y="0" fill="#FFFFFF" font-family="'Futura-CondensedLight'" font-size="29.156"> (1197–1191 B.C.)</tspan></text>
<text transform="matrix(0.995 -0.0999 0.0999 0.995 120.4561 391.5239)"><tspan x="0" y="0" fill="#FFFFFF" font-family="'Futura-CondensedMedium'" font-size="29.1562">Seti II </tspan><tspan x="58.669" y="0" fill="#FFFFFF" font-family="'Futura-CondensedLight'" font-size="29.1562">(1200–1197 B.C.)</tspan></text>
<text transform="matrix(0.9973 -0.0738 0.0738 0.9973 122.6294 424.2773)"><tspan x="0" y="0" fill="#FFFFFF" font-family="'Futura-CondensedMedium'" font-size="29.1562">Amenmesse</tspan><tspan x="108.695" y="0" fill="#FFFFFF" font-family="'Futura-CondensedLight'" font-size="29.1562"> (1203–1200 B.C.)</tspan></text>
<text transform="matrix(0.9989 -0.0476 0.0476 0.9989 124.0869 456.9165)"><tspan x="0" y="0" fill="#FFFFFF" font-family="'Futura-CondensedMedium'" font-size="29.1561">Merenptah</tspan><tspan x="99" y="0" fill="#FFFFFF" font-family="'Futura-CondensedLight'" font-size="29.1561"> (1213–1203 B.C.)</tspan></text>
<text transform="matrix(0.9998 -0.0215 0.0215 0.9998 124.8003 489.6177)"><tspan x="0" y="0" fill="#FFFFFF" font-family="'Futura-CondensedMedium'" font-size="29.1562">Ramesses II </tspan><tspan x="113.578" y="0" fill="#FFFFFF" font-family="'Futura-CondensedLight'" font-size="29.1562">(1279–1213 B.C.)</tspan></text>
<text transform="matrix(1 0.0047 -0.0047 1 124.4238 522.3765)"><tspan x="0" y="0" fill="#FFFFFF" font-family="'Futura-CondensedMedium'" font-size="29.1561">Seti I</tspan><tspan x="46.282" y="-0.001" fill="#FFFFFF" font-family="'Futura-CondensedLight'" font-size="29.1561"> (1290–1279 B.C.)</tspan></text>
<text transform="matrix(0.9995 0.0309 -0.0309 0.9995 123.3643 555.0894)"><tspan x="0" y="0" fill="#FFFFFF" font-family="'Futura-CondensedMedium'" font-size="29.1562">Ramesses I </tspan><tspan x="107.229" y="0" fill="#FFFFFF" font-family="'Futura-CondensedLight'" font-size="29.1562">(1292–1290 B.C.)</tspan></text>
<text transform="matrix(0.9984 0.057 -0.057 0.9984 121.2749 587.8862)"><tspan x="0" y="0" fill="#FFFFFF" font-family="'Futura-CondensedMedium'" font-size="29.1562">Horemheb</tspan><tspan x="95.284" y="0" fill="#FFFFFF" font-family="'Futura-CondensedLight'" font-size="29.1562"> (1319–1292 B.C.)</tspan></text>
<text transform="matrix(0.9965 0.0831 -0.0831 0.9965 118.5581 620.5034)"><tspan x="0" y="0" fill="#FFFFFF" font-family="'Futura-CondensedMedium'" font-size="29.1564">Ay </tspan><tspan x="28.673" y="0" fill="#FFFFFF" font-family="'Futura-CondensedLight'" font-size="29.1564">(1323–1319 B.C.)</tspan></text>
<text transform="matrix(0.994 0.1092 -0.1092 0.994 114.8691 652.9155)"><tspan x="0" y="0" fill="#FFFFFF" font-family="'Futura-CondensedMedium'" font-size="29.1562">Tutankhamun </tspan><tspan x="133.353" y="0" fill="#FFFFFF" font-family="'Futura-CondensedLight'" font-size="29.1562">(1334–1323 B.C.)</tspan></text>
<text transform="matrix(0.9908 0.1352 -0.1352 0.9908 110.2847 685.2778)"><tspan x="0" y="0" fill="#FFFFFF" font-family="'Futura-CondensedMedium'" font-size="29.156">Smenkhkare </tspan><tspan x="121.92" y="0" fill="#FFFFFF" font-family="'Futura-CondensedLight'" font-size="29.156">(1335–1334 B.C.)</tspan></text>
<text transform="matrix(0.9869 0.1611 -0.1611 0.9869 105.0396 717.5845)"><tspan x="0" y="0" fill="#FFFFFF" font-family="'Futura-CondensedMedium'" font-size="29.1562">Amenhotep IV </tspan><tspan x="133.21" y="0" fill="#FFFFFF" font-family="'Futura-CondensedLight'" font-size="29.1562">(1353–1336 B.C.)</tspan></text>
<text transform="matrix(0.9824 0.1869 -0.1869 0.9824 98.7729 749.7993)"><tspan x="0" y="0" fill="#FFFFFF" font-family="'Futura-CondensedMedium'" font-size="29.1562">Amenhotep III </tspan><tspan x="135.133" y="0" fill="#FFFFFF" font-family="'Futura-CondensedLight'" font-size="29.1562">(1391–1353 B.C.)</tspan></text>
<text transform="matrix(0.9772 0.2125 -0.2125 0.9772 91.7188 781.7671)"><tspan x="0" y="0" fill="#FFFFFF" font-family="'Futura-CondensedMedium'" font-size="29.1563">Thutmose IV </tspan><tspan x="117.208" y="0" fill="#FFFFFF" font-family="'Futura-CondensedLight'" font-size="29.1563">(1401–1391 B.C.)</tspan></text>
<text transform="matrix(0.9713 0.238 -0.238 0.9713 83.8081 813.4556)"><tspan x="0" y="0" fill="#FFFFFF" font-family="'Futura-CondensedMedium'" font-size="29.1561">Amenhotep II </tspan><tspan x="128.782" y="-0.001" fill="#FFFFFF" font-family="'Futura-CondensedLight'" font-size="29.1561">(1425–1401 B.C.)</tspan></text>
<text transform="matrix(0.9647 0.2634 -0.2634 0.9647 75.0957 845.1294)"><tspan x="0" y="0" fill="#FFFFFF" font-family="'Futura-CondensedMedium'" font-size="29.1563">Thutmose III </tspan><tspan x="119.131" y="-0.001" fill="#FFFFFF" font-family="'Futura-CondensedLight'" font-size="29.1563">(1458–1425 B.C.)</tspan></text>
<text transform="matrix(0.9575 0.2885 -0.2885 0.9575 65.5254 876.4448)"><tspan x="0" y="0" fill="#FFFFFF" font-family="'Futura-CondensedMedium'" font-size="29.1563">Hatshepsut </tspan><tspan x="107.186" y="0.001" fill="#FFFFFF" font-family="'Futura-CondensedLight'" font-size="29.1563">(1479–1458 B.C.)</tspan></text>
<text transform="matrix(0.9496 0.3135 -0.3135 0.9496 55.1543 907.5103)"><tspan x="0" y="0" fill="#FFFFFF" font-family="'Futura-CondensedMedium'" font-size="29.1563">Thutmose II </tspan><tspan x="112.781" y="-0.001" fill="#FFFFFF" font-family="'Futura-CondensedLight'" font-size="29.1563">(1493–1479 B.C.)</tspan></text>
<text transform="matrix(0.9411 0.3382 -0.3382 0.9411 43.8965 938.271)"><tspan x="0" y="0" fill="#FFFFFF" font-family="'Futura-CondensedMedium'" font-size="29.1562">Thutmose I </tspan><tspan x="106.432" y="0" fill="#FFFFFF" font-family="'Futura-CondensedLight'" font-size="29.1562">(1506–1493 B.C.)</tspan></text>
<text transform="matrix(0.9319 0.3628 -0.3628 0.9319 31.9756 968.6763)"><tspan x="0" y="0" fill="#FFFFFF" font-family="'Futura-CondensedMedium'" font-size="29.1562">Amenhotep I </tspan><tspan x="122.433" y="-0.001" fill="#FFFFFF" font-family="'Futura-CondensedLight'" font-size="29.1562">(unknown reign)</tspan></text>
<text transform="matrix(0.9221 0.387 -0.387 0.9221 19.1416 998.7974)"><tspan x="0" y="0" fill="#FFFFFF" font-family="'Futura-CondensedMedium'" font-size="29.1561">Ahmose I </tspan><tspan x="90.472" y="0.001" fill="#FFFFFF" font-family="'Futura-CondensedLight'" font-size="29.1561">(1550–1525 B.C.)</tspan></text>
<path fill="#FFFFFF" d="M-18.727,1010.525c2.396-4.97,8.37-7.055,13.341-4.662c4.979,2.415,7.076,8.382,4.677,13.35
	c-2.422,4.984-8.392,7.075-13.368,4.652C-19.047,1021.455-21.138,1015.503-18.727,1010.525z"/>
<path fill="#FFFFFF" d="M-5.61,981.384c2.266-5.032,8.184-7.271,13.213-5.012c5.042,2.283,7.294,8.192,5.025,13.223
	c-2.289,5.047-8.203,7.29-13.242,5.003C-5.645,992.316-7.89,986.424-5.61,981.384z"/>
<path fill="#FFFFFF" d="M6.741,951.909c2.134-5.092,7.989-7.485,13.078-5.354c5.1,2.148,7.505,7.998,5.369,13.084
	c-2.158,5.104-8.01,7.503-13.106,5.347C6.991,962.837,4.593,957.004,6.741,951.909z"/>
<path fill="#FFFFFF" d="M18.315,922.117c2-5.142,7.791-7.688,12.935-5.693c5.153,2.016,7.711,7.797,5.709,12.94
	c-2.022,5.157-7.811,7.709-12.962,5.687C18.853,933.036,16.3,927.27,18.315,922.117z"/>
<path fill="#FFFFFF" d="M29.106,892.037c1.863-5.196,7.585-7.891,12.78-6.034c5.206,1.882,7.913,7.595,6.047,12.79
	c-1.888,5.207-7.607,7.909-12.81,6.023C29.928,902.938,27.227,897.237,29.106,892.037z"/>
<path fill="#FFFFFF" d="M39.107,861.683c1.725-5.243,7.376-8.088,12.616-6.366c5.254,1.743,8.11,7.384,6.38,12.627
	c-1.75,5.253-7.396,8.105-12.646,6.355C40.214,872.558,37.364,866.931,39.107,861.683z"/>
<path fill="#FFFFFF" d="M48.307,831.077c1.588-5.286,7.162-8.279,12.447-6.692c5.297,1.603,8.298,7.167,6.708,12.455
	c-1.611,5.298-7.181,8.298-12.477,6.685C49.698,841.92,46.705,836.368,48.307,831.077z"/>
<path fill="#FFFFFF" d="M56.704,800.24c1.451-5.324,6.944-8.462,12.267-7.017c5.34,1.466,8.484,6.95,7.032,12.274
	c-1.472,5.342-6.962,8.485-12.295,7.01C58.379,811.045,55.24,805.574,56.704,800.24z"/>
<path fill="#FFFFFF" d="M64.292,769.195c1.31-5.36,6.72-8.641,12.079-7.335c5.376,1.326,8.663,6.726,7.35,12.086
	c-1.331,5.378-6.738,8.661-12.109,7.328C66.249,779.952,62.968,774.565,64.292,769.195z"/>
<path fill="#FFFFFF" d="M71.063,737.962c1.171-5.394,6.492-8.816,11.882-7.647c5.41,1.185,8.837,6.493,7.663,11.887
	c-1.187,5.411-6.507,8.837-11.912,7.644C73.302,748.663,69.881,743.364,71.063,737.962z"/>
<path fill="#FFFFFF" d="M77.016,706.562c1.029-5.422,6.258-8.983,11.677-7.956c5.439,1.042,9.006,6.26,7.974,11.685
	c-1.047,5.439-6.276,9.003-11.709,7.95C79.535,717.203,75.974,711.996,77.016,706.562z"/>
<path fill="#FFFFFF" d="M82.145,675.017c0.885-5.447,6.02-9.144,11.464-8.259c5.464,0.9,9.166,6.022,8.275,11.47
	c-0.901,5.466-6.037,9.166-11.497,8.257C84.939,685.586,81.246,680.472,82.145,675.017z"/>
<path fill="#FFFFFF" d="M86.443,643.352c0.744-5.471,5.779-9.301,11.246-8.562c5.486,0.759,9.321,5.782,8.573,11.252
	c-0.76,5.489-5.796,9.321-11.275,8.556C89.515,653.843,85.689,648.827,86.443,643.352z"/>
<path fill="#FFFFFF" d="M89.916,611.581c0.599-5.487,5.531-9.449,11.017-8.852c5.502,0.614,9.468,5.538,8.865,11.025
	c-0.615,5.505-5.55,9.466-11.049,8.846C93.258,621.988,89.303,617.075,89.916,611.581z"/>
<path fill="#FFFFFF" d="M92.552,579.73c0.456-5.501,5.282-9.589,10.78-9.136c5.518,0.468,9.611,5.287,9.152,10.789
	c-0.471,5.519-5.301,9.608-10.814,9.132C96.167,590.046,92.084,585.241,92.552,579.73z"/>
<path fill="#FFFFFF" d="M94.355,547.823c0.311-5.511,5.028-9.726,10.537-9.416c5.528,0.325,9.748,5.034,9.431,10.546
	c-0.327,5.53-5.048,9.743-10.573,9.41C98.237,558.04,94.033,553.342,94.355,547.823z"/>
<path fill="#FFFFFF" d="M95.322,515.878c0.166-5.516,4.772-9.854,10.287-9.688c5.533,0.18,9.876,4.776,9.705,10.294
	c-0.183,5.536-4.792,9.871-10.323,9.687C99.47,525.992,95.143,521.405,95.322,515.878z"/>
<path fill="#FFFFFF" d="M93.447,481.999c0.021-5.519,4.512-9.976,10.029-9.956c5.537,0.037,9.999,4.521,9.971,10.039
	c-0.038,5.542-4.532,9.993-10.065,9.954C97.859,492,93.415,487.53,93.447,481.999z"/>
<path fill="#FFFFFF" d="M92.74,450.049c-0.122-5.518,4.25-10.09,9.766-10.214c5.537-0.113,10.114,4.254,10.229,9.773
	c0.106,5.54-4.269,10.109-9.802,10.212C97.413,459.931,92.853,455.578,92.74,450.049z"/>
<path fill="#FFFFFF" d="M91.199,418.125c-0.266-5.513,3.985-10.197,9.495-10.466c5.532-0.254,10.22,3.989,10.481,9.502
	c0.252,5.535-4.002,10.218-9.531,10.465C96.127,427.882,91.455,423.651,91.199,418.125z"/>
<path fill="#FFFFFF" d="M88.821,386.255c-0.41-5.503,3.715-10.297,9.218-10.711c5.522-0.4,10.32,3.72,10.726,9.225
	c0.396,5.526-3.735,10.32-9.253,10.711C94.003,395.879,89.222,391.772,88.821,386.255z"/>
<path fill="#FFFFFF" d="M85.612,354.458c-0.555-5.491,3.445-10.391,8.932-10.948c5.51-0.545,10.415,3.449,10.963,8.939
	c0.542,5.515-3.461,10.414-8.97,10.95C91.043,363.942,86.156,359.962,85.612,354.458z"/>
<path fill="#FFFFFF" d="M81.568,322.757c-0.697-5.476,3.172-10.477,8.645-11.178c5.492-0.69,10.501,3.176,11.193,8.65
	c0.684,5.495-3.19,10.499-8.681,11.179C87.247,332.094,82.257,328.246,81.568,322.757z"/>
<path fill="#FFFFFF" d="M76.696,291.17c-0.841-5.455,2.898-10.558,8.349-11.399c5.473-0.833,10.582,2.898,11.417,8.354
	c0.829,5.477-2.915,10.58-8.385,11.401C82.618,300.355,77.53,296.638,76.696,291.17z"/>
<path fill="#FFFFFF" d="M71,259.722c-0.982-5.429,2.62-10.627,8.048-11.615c5.449-0.975,10.655,2.623,11.63,8.055
	c0.973,5.453-2.635,10.65-8.082,11.618C77.162,268.752,71.976,265.167,71,259.722z"/>
<path fill="#FFFFFF" d="M64.483,228.436c-1.125-5.404,2.34-10.695,7.742-11.821c5.421-1.118,10.719,2.341,11.836,7.744
	c1.113,5.427-2.355,10.719-7.776,11.827C70.878,237.298,65.602,233.853,64.483,228.436z"/>
<path fill="#FFFFFF" d="M57.15,197.328c-1.268-5.371,2.059-10.752,7.428-12.02c5.391-1.259,10.778,2.061,12.036,7.433
	c1.257,5.396-2.075,10.777-7.463,12.025C63.773,206.021,58.41,202.714,57.15,197.328z"/>
<path fill="#FFFFFF" d="M49.003,166.426c-1.407-5.338,1.778-10.801,7.111-12.212c5.356-1.399,10.828,1.779,12.226,7.118
	c1.398,5.36-1.791,10.825-7.146,12.216C55.854,174.944,50.405,171.775,49.003,166.426z"/>
<path fill="#FFFFFF" d="M40.051,135.745c-1.546-5.296,1.495-10.842,6.789-12.391c5.317-1.541,10.872,1.495,12.409,6.794
	c1.538,5.322-1.509,10.868-6.824,12.397C47.123,144.083,41.592,141.059,40.051,135.745z"/>
<path fill="#FFFFFF" d="M30.3,105.311c-1.684-5.255,1.212-10.878,6.461-12.566c5.276-1.676,10.908,1.209,12.585,6.466
	c1.675,5.283-1.225,10.905-6.5,12.572C37.586,113.458,31.979,110.581,30.3,105.311z"/>
<path fill="#FFFFFF" d="M19.754,75.142c-1.82-5.209,0.926-10.906,6.131-12.733c5.231-1.813,10.934,0.926,12.749,6.137
	c1.813,5.235-0.939,10.932-6.168,12.738C27.251,83.097,21.57,80.366,19.754,75.142z"/>
<path fill="#FFFFFF" d="M8.423,45.259c-1.956-5.159,0.64-10.927,5.795-12.89c5.181-1.948,10.955,0.64,12.905,5.802
	c1.952,5.186-0.65,10.955-5.832,12.896C16.127,53.015,10.375,50.433,8.423,45.259z"/>
<path fill="#FFFFFF" d="M-3.687,15.685c-2.091-5.105,0.354-10.94,5.455-13.037C6.897,0.563,12.736,3,14.819,8.11
	c2.088,5.131-0.363,10.966-5.49,13.043C4.218,23.234-1.601,20.806-3.687,15.685z"/>
<line fill="none" stroke="#FFFFFF" stroke-width="0.5" stroke-miterlimit="10" x1="2316.643" y1="1984.087" x2="31.882" y2="971.527"/>
<line fill="none" stroke="#FFFFFF" stroke-width="0.5" stroke-miterlimit="10" x1="2354.428" y1="1893.497" x2="43.94" y2="941.093"/>
<line fill="none" stroke="#FFFFFF" stroke-width="0.5" stroke-miterlimit="10" x1="2389.825" y1="1801.947" x2="55.2" y2="910.349"/>
<line fill="none" stroke="#FFFFFF" stroke-width="0.5" stroke-miterlimit="10" x1="2422.811" y1="1709.501" x2="65.65" y2="879.325"/>
<line fill="none" stroke="#FFFFFF" stroke-width="0.5" stroke-miterlimit="10" x1="2453.369" y1="1616.224" x2="75.282" y2="848.033"/>
<line fill="none" stroke="#FFFFFF" stroke-width="0.5" stroke-miterlimit="10" x1="2481.474" y1="1522.179" x2="84.093" y2="816.503"/>
<line fill="none" stroke="#FFFFFF" stroke-width="0.5" stroke-miterlimit="10" x1="2507.106" y1="1427.43" x2="92.076" y2="784.752"/>
<line fill="none" stroke="#FFFFFF" stroke-width="0.5" stroke-miterlimit="10" x1="2530.252" y1="1332.043" x2="99.224" y2="752.806"/>
<line fill="none" stroke="#FFFFFF" stroke-width="0.5" stroke-miterlimit="10" x1="2550.892" y1="1236.084" x2="105.534" y2="720.678"/>
<line fill="none" stroke="#FFFFFF" stroke-width="0.5" stroke-miterlimit="10" x1="2569.012" y1="1139.615" x2="111.001" y2="688.399"/>
<line fill="none" stroke="#FFFFFF" stroke-width="0.5" stroke-miterlimit="10" x1="2584.604" y1="1042.706" x2="115.622" y2="655.989"/>
<line fill="none" stroke="#FFFFFF" stroke-width="0.5" stroke-miterlimit="10" x1="2597.65" y1="945.425" x2="119.394" y2="623.469"/>
<line fill="none" stroke="#FFFFFF" stroke-width="0.5" stroke-miterlimit="10" x1="2608.148" y1="847.831" x2="122.311" y2="590.859"/>
<line fill="none" stroke="#FFFFFF" stroke-width="0.5" stroke-miterlimit="10" x1="2616.084" y1="749.998" x2="124.372" y2="558.186"/>
<line fill="none" stroke="#FFFFFF" stroke-width="0.5" stroke-miterlimit="10" x1="2621.459" y1="651.992" x2="125.579" y2="525.47"/>
<line fill="none" stroke="#FFFFFF" stroke-width="0.5" stroke-miterlimit="10" x1="2624.267" y1="553.876" x2="125.929" y2="492.735"/>
<line fill="none" stroke="#FFFFFF" stroke-width="0.5" stroke-miterlimit="10" x1="2624.505" y1="455.724" x2="125.423" y2="460"/>
<line fill="none" stroke="#FFFFFF" stroke-width="0.5" stroke-miterlimit="10" x1="2622.171" y1="357.595" x2="124.059" y2="427.29"/>
<line fill="none" stroke="#FFFFFF" stroke-width="0.5" stroke-miterlimit="10" x1="2617.274" y1="259.564" x2="121.84" y2="394.626"/>
<line fill="none" stroke="#FFFFFF" stroke-width="0.5" stroke-miterlimit="10" x1="2609.811" y1="161.696" x2="118.767" y2="362.031"/>
<line fill="none" stroke="#FFFFFF" stroke-width="0.5" stroke-miterlimit="10" x1="2599.787" y1="64.053" x2="114.84" y2="329.531"/>
<line fill="none" stroke="#FFFFFF" stroke-width="0.5" stroke-miterlimit="10" x1="2587.21" y1="-33.292" x2="110.066" y2="297.142"/>
<line fill="none" stroke="#FFFFFF" stroke-width="0.5" stroke-miterlimit="10" x1="2572.09" y1="-130.276" x2="104.443" y2="264.89"/>
<line fill="none" stroke="#FFFFFF" stroke-width="0.5" stroke-miterlimit="10" x1="2554.436" y1="-226.829" x2="97.982" y2="232.795"/>
<line fill="none" stroke="#FFFFFF" stroke-width="0.5" stroke-miterlimit="10" x1="2534.263" y1="-322.888" x2="90.679" y2="200.881"/>
<line fill="none" stroke="#FFFFFF" stroke-width="0.5" stroke-miterlimit="10" x1="2511.577" y1="-418.386" x2="82.546" y2="169.171"/>
<line fill="none" stroke="#FFFFFF" stroke-width="0.5" stroke-miterlimit="10" x1="2486.406" y1="-513.257" x2="73.583" y2="137.683"/>
<line fill="none" stroke="#FFFFFF" stroke-width="0.5" stroke-miterlimit="10" x1="2458.756" y1="-607.437" x2="63.803" y2="106.439"/>
<line fill="none" stroke="#FFFFFF" stroke-width="0.5" stroke-miterlimit="10" x1="2428.651" y1="-700.862" x2="53.206" y2="75.464"/>
<line fill="#FFFFFF" stroke="#FFFFFF" stroke-width="0.5" stroke-miterlimit="10" x1="2396.111" y1="-793.465" x2="41.799" y2="44.776"/>
<line fill="#FFFFFF" stroke="#FFFFFF" stroke-width="0.5" stroke-miterlimit="10" x1="2361.156" y1="-885.186" x2="29.596" y2="14.397"/>
</svg>
