<?xml version="1.0" encoding="utf-8"?>
<!-- Generator: Adobe Illustrator 16.0.0, SVG Export Plug-In . SVG Version: 6.00 Build 0)  -->
<!DOCTYPE svg PUBLIC "-//W3C//DTD SVG 1.1//EN" "http://www.w3.org/Graphics/SVG/1.1/DTD/svg11.dtd">
<svg version="1.1" xmlns="http://www.w3.org/2000/svg" xmlns:xlink="http://www.w3.org/1999/xlink" x="0px" y="0px" width="1000px"
	 height="1200px" viewBox="0 0 1000 1200" enable-background="new 0 0 1000 1200" xml:space="preserve">
<g id="Layer_1">
	<rect width="1000" height="1200"/>
	<text transform="matrix(-0.4724 0.8814 -0.8814 -0.4724 1463.1387 2161.1328)"><tspan x="0" y="0" fill="#FFFFFF" font-family="'Futura-CondensedMedium'" font-size="38.5394">Sensuret I </tspan><tspan x="128.585" y="0" fill="#FFFFFF" font-family="'Futura-CondensedLight'" font-size="38.5394">(1962–1926 B.C.)</tspan></text>
	<text transform="matrix(-0.4953 0.8687 -0.8687 -0.4953 1425.6016 2139.5605)"><tspan x="0" y="0" fill="#FFFFFF" font-family="'Futura-CondensedMedium'" font-size="38.5394">Amenemhat I </tspan><tspan x="170.53" y="0.001" fill="#FFFFFF" font-family="'Futura-CondensedLight'" font-size="38.5394">(1991–1962 B.C.)</tspan></text>
	<text transform="matrix(-0.5179 0.8554 -0.8554 -0.5179 1388.8936 2116.9766)"><tspan x="0" y="0" fill="#FFFFFF" font-family="'Futura-CondensedMedium'" font-size="38.539">Mentuhotep IV</tspan><tspan x="175.044" y="0" fill="#FFFFFF" font-family="'Futura-CondensedLight'" font-size="38.539"> (1997–1991 B.C.)</tspan></text>
	<text transform="matrix(-0.5401 0.8416 -0.8416 -0.5401 1352.4268 2093.5186)"><tspan x="0" y="0" fill="#FFFFFF" font-family="'Futura-CondensedMedium'" font-size="38.5392">Mentuhotep III </tspan><tspan x="185.564" y="0" fill="#FFFFFF" font-family="'Futura-CondensedLight'" font-size="38.5392">(2010–1998 B.C.)</tspan></text>
	<text transform="matrix(-0.562 0.8272 -0.8272 -0.562 1316.709 2069.1982)"><tspan x="0" y="0" fill="#FFFFFF" font-family="'Futura-CondensedMedium'" font-size="38.5393">Mentuhotep II </tspan><tspan x="177.172" y="0.001" fill="#FFFFFF" font-family="'Futura-CondensedLight'" font-size="38.5393">(2060–2010 B.C.)</tspan></text>
	<text transform="matrix(-0.5834 0.8122 -0.8122 -0.5834 1281.6621 2043.8682)"><tspan x="0" y="0" fill="#FFFFFF" font-family="'Futura-CondensedMedium'" font-size="38.5392">Intef III </tspan><tspan x="97.345" y="0.001" fill="#FFFFFF" font-family="'Futura-CondensedLight'" font-size="38.5392">(2069–2060 B.C.)</tspan></text>
	<text transform="matrix(-0.6045 0.7966 -0.7966 -0.6045 1247.3809 2017.6221)"><tspan x="0" y="0" fill="#FFFFFF" font-family="'Futura-CondensedMedium'" font-size="38.539">Intef II </tspan><tspan x="88.951" y="0" fill="#FFFFFF" font-family="'Futura-CondensedLight'" font-size="38.539">(2117–2069 B.C)</tspan></text>
	<text transform="matrix(-0.6251 0.7805 -0.7805 -0.6251 1213.6113 1990.2715)"><tspan x="0" y="0" fill="#FFFFFF" font-family="'Futura-CondensedMedium'" font-size="38.5392">Intef I </tspan><tspan x="80.561" y="-0.001" fill="#FFFFFF" font-family="'Futura-CondensedLight'" font-size="38.5392">(2120–2117 B.C.)</tspan></text>
	<text transform="matrix(-0.6454 0.7639 -0.7639 -0.6454 1180.7363 1962.3945)"><tspan x="0" y="0" fill="#FFFFFF" font-family="'Futura-CondensedMedium'" font-size="38.539">Mentuhotep I </tspan><tspan x="168.777" y="0" fill="#FFFFFF" font-family="'Futura-CondensedLight'" font-size="38.539">(2134–2120 B.C.)</tspan></text>
	<text transform="matrix(-0.6651 0.7467 -0.7467 -0.6651 1148.4424 1933.3633)"><tspan x="0" y="0" fill="#FFFFFF" font-family="'Futura-CondensedMedium'" font-size="38.5391">Merykare </tspan><tspan x="123.446" y="0" fill="#FFFFFF" font-family="'Futura-CondensedLight'" font-size="38.5391">(2075–2040 B.C.)</tspan></text>
	<text transform="matrix(-0.6845 0.7291 -0.7291 -0.6845 1116.9336 1903.7012)"><tspan x="0" y="0" fill="#FFFFFF" font-family="'Futura-CondensedMedium'" font-size="38.5393">Acthoes III </tspan><tspan x="132.405" y="-0.001" fill="#FFFFFF" font-family="'Futura-CondensedLight'" font-size="38.5393">(unknown reign)</tspan></text>
	<text transform="matrix(-0.7033 0.7109 -0.7109 -0.7033 1086.2441 1873.0898)"><tspan x="0" y="0" fill="#FFFFFF" font-family="'Futura-CondensedMedium'" font-size="38.5393">Neferkare VIII </tspan><tspan x="176.344" y="0" fill="#FFFFFF" font-family="'Futura-CondensedLight'" font-size="38.5393">(unknown reign)</tspan></text>
	<text transform="matrix(-0.7217 0.6922 -0.6922 -0.7217 1056.4121 1841.9922)"><tspan x="0" y="0" fill="#FFFFFF" font-family="'Futura-CondensedMedium'" font-size="38.5393">Meryhathor </tspan><tspan x="148.776" y="0.001" fill="#FFFFFF" font-family="'Futura-CondensedLight'" font-size="38.5393">(2130 –? B.C.)</tspan></text>
	<text transform="matrix(-0.7395 0.6731 -0.6731 -0.7395 1027.5225 1809.9072)"><tspan x="0" y="0" fill="#FFFFFF" font-family="'Futura-CondensedMedium'" font-size="38.539">Unknown ruler </tspan><tspan x="188.197" y="0" fill="#FFFFFF" font-family="'Futura-CondensedLight'" font-size="38.539">(?–2130 B.C.)</tspan></text>
	<text transform="matrix(-0.7569 0.6535 -0.6535 -0.7569 999.3125 1777.0059)"><tspan x="0" y="0" fill="#FFFFFF" font-family="'Futura-CondensedMedium'" font-size="38.5391">Unknown ruler </tspan><tspan x="188.197" y="-0.001" fill="#FFFFFF" font-family="'Futura-CondensedLight'" font-size="38.5391">(unknown reign)</tspan></text>
	<text transform="matrix(-0.7738 0.6335 -0.6335 -0.7738 971.9287 1743.4043)"><tspan x="0" y="0" fill="#FFFFFF" font-family="'Futura-CondensedMedium'" font-size="38.5392">Setut </tspan><tspan x="69.346" y="-0.001" fill="#FFFFFF" font-family="'Futura-CondensedLight'" font-size="38.5392">(unknown reign)</tspan></text>
	<text transform="matrix(-0.7965 0.6046 -0.6046 -0.7965 943.6738 1706.2227)"><tspan x="0" y="0" fill="#FFFFFF" font-family="'Futura-CondensedMedium'" font-size="38.5392">Acthoes II </tspan><tspan x="124.01" y="-0.001" fill="#FFFFFF" font-family="'Futura-CondensedLight'" font-size="38.5392">(unknown reign)</tspan></text>
	<text transform="matrix(0.5656 0.8247 -0.8247 0.5656 1134 -856.2085)"><tspan x="0" y="0" fill="#FFFFFF" font-family="'Futura-CondensedMedium'" font-size="38.5391">Iry - Hor </tspan><tspan x="106.867" y="0" fill="#FFFFFF" font-family="'Futura-CondensedLight'" font-size="38.5391">(?–3150 B.C.)</tspan></text>
	<text transform="matrix(0.587 0.8096 -0.8096 0.587 1105.1357 -809.7524)"><tspan x="0" y="0" fill="#FFFFFF" font-family="'Futura-CondensedMedium'" font-size="38.539">Ka </tspan><tspan x="39.404" y="0.001" fill="#FFFFFF" font-family="'Futura-CondensedLight'" font-size="38.539">(3150–3100 B.C.)</tspan></text>
	<text transform="matrix(0.608 0.7939 -0.7939 0.608 1028.9619 -826.5474)"><tspan x="0" y="0" fill="#FFFFFF" font-family="'Futura-CondensedMedium'" font-size="38.5391">Narmer </tspan><tspan x="99.547" y="-0.001" fill="#FFFFFF" font-family="'Futura-CondensedLight'" font-size="38.5391">(3100–3050 B.C.)</tspan></text>
	<text transform="matrix(0.6286 0.7778 -0.7778 0.6286 985.8428 -797.5977)"><tspan x="0" y="0" fill="#FFFFFF" font-family="'Futura-CondensedMedium'" font-size="38.539">Hor-Aha</tspan><tspan x="96.555" y="0" fill="#FFFFFF" font-family="'Futura-CondensedLight'" font-size="38.539"> (3050–3049 B.C.)</tspan></text>
	<text transform="matrix(0.6487 0.761 -0.761 0.6487 976.9531 -728.145)"><tspan x="0" y="0" fill="#FFFFFF" font-family="'Futura-CondensedMedium'" font-size="38.539">Djer</tspan><tspan x="50.093" y="0" fill="#FFFFFF" font-family="'Futura-CondensedLight'" font-size="38.539"> (3049–3008 B.C.)</tspan></text>
	<text transform="matrix(0.6684 0.7438 -0.7438 0.6684 940.6523 -692.583)"><tspan x="0" y="0" fill="#FFFFFF" font-family="'Futura-CondensedMedium'" font-size="38.5391">Djet</tspan><tspan x="48.363" y="0" fill="#FFFFFF" font-family="'Futura-CondensedLight'" font-size="38.5391"> (3008–2970 B.C.)</tspan></text>
	<text transform="matrix(0.6877 0.726 -0.726 0.6877 887.5547 -675.0991)"><tspan x="0" y="0" fill="#FFFFFF" font-family="'Futura-CondensedMedium'" font-size="38.5392">Merneith </tspan><tspan x="116.087" y="0" fill="#FFFFFF" font-family="'Futura-CondensedLight'" font-size="38.5392">(c.a. 2970 B.C.)</tspan></text>
	<text transform="matrix(0.7064 0.7078 -0.7078 0.7064 869.4707 -620.6768)"><tspan x="0" y="0" fill="#FFFFFF" font-family="'Futura-CondensedMedium'" font-size="38.5392">Den </tspan><tspan x="55.721" y="-0.001" fill="#FFFFFF" font-family="'Futura-CondensedLight'" font-size="38.5392">(2970–2930 B.C.)</tspan></text>
	<text transform="matrix(0.7247 0.689 -0.689 0.7247 803.5322 -613.7012)"><tspan x="0" y="0" fill="#FFFFFF" font-family="'Futura-CondensedMedium'" font-size="38.5391">Anedjib </tspan><tspan x="99.227" y="0" fill="#FFFFFF" font-family="'Futura-CondensedLight'" font-size="38.5391">(2930–2920 B.C.)</tspan></text>
	<text transform="matrix(0.7425 0.6698 -0.6698 0.7425 740.4414 -601.0352)"><tspan x="0" y="0" fill="#FFFFFF" font-family="'Futura-CondensedMedium'" font-size="38.5389">Semerkhet</tspan><tspan x="130.068" y="0" fill="#FFFFFF" font-family="'Futura-CondensedLight'" font-size="38.5389"> (2920–2910 B.C.)</tspan></text>
	<text transform="matrix(0.7598 0.6502 -0.6502 0.7598 761.4258 -513.5205)"><tspan x="0" y="0" fill="#FFFFFF" font-family="'Futura-CondensedMedium'" font-size="38.539">Qa’a </tspan><tspan x="65.713" y="-0.001" fill="#FFFFFF" font-family="'Futura-CondensedLight'" font-size="38.539">(2910–2890 B.C.)</tspan></text>
	<text transform="matrix(0.7765 0.6301 -0.6301 0.7765 620.4258 -562.5024)"><tspan x="0" y="0" fill="#FFFFFF" font-family="'Futura-CondensedMedium'" font-size="38.5389">Hotepsekhemwy </tspan><tspan x="206.563" y="0" fill="#FFFFFF" font-family="'Futura-CondensedLight'" font-size="38.5389">(2890–2840 B.C.)</tspan></text>
	<text transform="matrix(0.7928 0.6095 -0.6095 0.7928 671.6445 -454.2026)"><tspan x="0" y="0" fill="#FFFFFF" font-family="'Futura-CondensedMedium'" font-size="38.5391">Raneb </tspan><tspan x="84.435" y="0" fill="#FFFFFF" font-family="'Futura-CondensedLight'" font-size="38.5391">(2840 – 2825 B.C.)</tspan></text>
	<text transform="matrix(0.8084 0.5886 -0.5886 0.8084 633.2549 -418.1372)"><tspan x="0" y="0" fill="#FFFFFF" font-family="'Futura-CondensedMedium'" font-size="38.539">Nynetjer </tspan><tspan x="110.743" y="0" fill="#FFFFFF" font-family="'Futura-CondensedLight'" font-size="38.539">(2825–2775 B.C.)</tspan></text>
	<text transform="matrix(0.8236 0.5672 -0.5672 0.8236 593.0352 -382.5449)"><tspan x="0" y="0" fill="#FFFFFF" font-family="'Futura-CondensedMedium'" font-size="38.5392">Wadjenes</tspan><tspan x="116.257" y="0.001" fill="#FFFFFF" font-family="'Futura-CondensedLight'" font-size="38.5392"> (2775–2773 B.C.)</tspan></text>
	<text transform="matrix(0.8381 0.5455 -0.5455 0.8381 594.1562 -319.3291)"><tspan x="0" y="0" fill="#FFFFFF" font-family="'Futura-CondensedMedium'" font-size="38.539">Senedj </tspan><tspan x="89.234" y="0" fill="#FFFFFF" font-family="'Futura-CondensedLight'" font-size="38.539">(2773–2753 B.C.)</tspan></text>
	<text transform="matrix(0.8521 0.5233 -0.5233 0.8521 548.6904 -286.8784)"><tspan x="0" y="0" fill="#FFFFFF" font-family="'Futura-CondensedMedium'" font-size="38.5393">Peribsen </tspan><tspan x="111.76" y="0" fill="#FFFFFF" font-family="'Futura-CondensedLight'" font-size="38.5393">(2740–2710 B.C.)</tspan></text>
	<text transform="matrix(0.8655 0.5008 -0.5008 0.8655 461.5532 -277.1406)"><tspan x="0" y="0" fill="#FFFFFF" font-family="'Futura-CondensedMedium'" font-size="38.5392">Khasekhemwy</tspan><tspan x="174.743" y="0" fill="#FFFFFF" font-family="'Futura-CondensedLight'" font-size="38.5392"> (2710–2686 B.C.)</tspan></text>
	<text transform="matrix(0.8784 0.478 -0.478 0.8784 522.7002 -182.4575)"><tspan x="0" y="0" fill="#FFFFFF" font-family="'Futura-CondensedMedium'" font-size="38.5392">Djoser </tspan><tspan x="84.248" y="0" fill="#FFFFFF" font-family="'Futura-CondensedLight'" font-size="38.5392">(2686–2649 B.C.)</tspan></text>
	<text transform="matrix(0.8906 0.4549 -0.4549 0.8906 433.7026 -170.397)"><tspan x="0" y="0" fill="#FFFFFF" font-family="'Futura-CondensedMedium'" font-size="38.5388">Sekhemkhet </tspan><tspan x="158.427" y="0" fill="#FFFFFF" font-family="'Futura-CondensedLight'" font-size="38.5388">(2649–2643 B.C.)</tspan></text>
	<text transform="matrix(0.9022 0.4314 -0.4314 0.9022 477.1621 -90.4331)"><tspan x="0" y="0" fill="#FFFFFF" font-family="'Futura-CondensedMedium'" font-size="38.5392">Khaba </tspan><tspan x="85.416" y="0" fill="#FFFFFF" font-family="'Futura-CondensedLight'" font-size="38.5392">(2643–2637 B.C.)</tspan></text>
	<text transform="matrix(0.9132 0.4076 -0.4076 0.9132 475.3906 -35.1138)"><tspan x="0" y="0" fill="#FFFFFF" font-family="'Futura-CondensedMedium'" font-size="38.5389">Huni </tspan><tspan x="64.941" y="0" fill="#FFFFFF" font-family="'Futura-CondensedLight'" font-size="38.5389">(2637–2613 B.C.)</tspan></text>
	<text transform="matrix(0.9235 0.3836 -0.3836 0.9235 422.1646 -1.9507)"><tspan x="0" y="0" fill="#FFFFFF" font-family="'Futura-CondensedMedium'" font-size="38.5391">Sneferu </tspan><tspan x="101.768" y="0" fill="#FFFFFF" font-family="'Futura-CondensedLight'" font-size="38.5391">(2613–2589 B.C.)</tspan></text>
	<text transform="matrix(0.9332 0.3593 -0.3593 0.9332 424.0698 54.1963)"><tspan x="0" y="0" fill="#FFFFFF" font-family="'Futura-CondensedMedium'" font-size="38.5392">Khufu </tspan><tspan x="80.56" y="-0.001" fill="#FFFFFF" font-family="'Futura-CondensedLight'" font-size="38.5392">(2589–2566 B.C.)</tspan></text>
	<text transform="matrix(0.9423 0.3347 -0.3347 0.9423 377.6138 91.9517)"><tspan x="0" y="0" fill="#FFFFFF" font-family="'Futura-CondensedMedium'" font-size="38.5389">Djedefra </tspan><tspan x="112.136" y="0" fill="#FFFFFF" font-family="'Futura-CondensedLight'" font-size="38.5389">(2566–2558 B.C.)</tspan></text>
	<text transform="matrix(0.9508 0.3099 -0.3099 0.9508 383.9175 148.7959)"><tspan x="0" y="0" fill="#FFFFFF" font-family="'Futura-CondensedMedium'" font-size="38.5388">Khafre </tspan><tspan x="88.951" y="0" fill="#FFFFFF" font-family="'Futura-CondensedLight'" font-size="38.5388">(2558–2532 B.C.)</tspan></text>
	<text transform="matrix(0.9585 0.2849 -0.2849 0.9585 330.3545 186.7104)"><tspan x="0" y="0" fill="#FFFFFF" font-family="'Futura-CondensedMedium'" font-size="38.5393">Menkaure </tspan><tspan x="130.202" y="0" fill="#FFFFFF" font-family="'Futura-CondensedLight'" font-size="38.5393">(2532–2503 B.C.)</tspan></text>
	<text transform="matrix(0.9657 0.2597 -0.2597 0.9657 311.606 235.9243)"><tspan x="0" y="0" fill="#FFFFFF" font-family="'Futura-CondensedMedium'" font-size="38.539">Shepseskaf</tspan><tspan x="135.977" y="0" fill="#FFFFFF" font-family="'Futura-CondensedLight'" font-size="38.539">(2503–2498 B.C.)</tspan></text>
	<text transform="matrix(0.9721 0.2344 -0.2344 0.9721 341.0967 297.3735)"><tspan x="0" y="0" fill="#FFFFFF" font-family="'Futura-CondensedMedium'" font-size="38.5391">Userkaf</tspan><tspan x="93.393" y="0" fill="#FFFFFF" font-family="'Futura-CondensedLight'" font-size="38.5391">(2498–2491 B.C.)</tspan></text>
	<text transform="matrix(0.9779 0.2089 -0.2089 0.9779 330.7524 348.0688)"><tspan x="0" y="0" fill="#FFFFFF" font-family="'Futura-CondensedMedium'" font-size="38.5392">Sahure </tspan><tspan x="93.319" y="0" fill="#FFFFFF" font-family="'Futura-CondensedLight'" font-size="38.5392">(2491–2477 B.C.)</tspan></text>
	<text transform="matrix(0.9831 0.1832 -0.1832 0.9831 269.2114 389.0503)"><tspan x="0" y="0" fill="#FFFFFF" font-family="'Futura-CondensedMedium'" font-size="38.5392">Neferirkare </tspan><tspan x="146.893" y="0.001" fill="#FFFFFF" font-family="'Futura-CondensedLight'" font-size="38.5392">(2477–2467 B.C.)</tspan></text>
	<text transform="matrix(0.9875 0.1574 -0.1574 0.9875 249.4727 439.4956)"><tspan x="0" y="0" fill="#FFFFFF" font-family="'Futura-CondensedMedium'" font-size="38.5392">Shepseskare</tspan><tspan x="151.033" y="0.001" fill="#FFFFFF" font-family="'Futura-CondensedLight'" font-size="38.5392"> (2467–2460 B.C.)</tspan></text>
	<text transform="matrix(0.9913 0.1315 -0.1315 0.9913 279.3501 497.0493)"><tspan x="0" y="0" fill="#FFFFFF" font-family="'Futura-CondensedMedium'" font-size="38.539">Neferefre</tspan><tspan x="114.336" y="0" fill="#FFFFFF" font-family="'Futura-CondensedLight'" font-size="38.539"> (2460–2425 B.C.)</tspan></text>
	<text transform="matrix(0.9944 0.1055 -0.1055 0.9944 241.1274 545.7046)"><tspan x="0" y="0" fill="#FFFFFF" font-family="'Futura-CondensedMedium'" font-size="38.5392">Nyuserre Ini </tspan><tspan x="155.831" y="0" fill="#FFFFFF" font-family="'Futura-CondensedLight'" font-size="38.5392">(2425–2422 B.C.)</tspan></text>
	<text transform="matrix(0.9968 0.0794 -0.0794 0.9968 246.6289 599.5288)"><tspan x="0" y="0" fill="#FFFFFF" font-family="'Futura-CondensedMedium'" font-size="38.539">Menkauhor </tspan><tspan x="146.44" y="0.001" fill="#FFFFFF" font-family="'Futura-CondensedLight'" font-size="38.539">(2422–2414 B.C.)</tspan></text>
	<text transform="matrix(0.9986 0.0533 -0.0533 0.9986 272.9741 654.1113)"><tspan x="0" y="0" fill="#FFFFFF" font-family="'Futura-CondensedMedium'" font-size="38.5393">Djedkare </tspan><tspan x="117.763" y="0" fill="#FFFFFF" font-family="'Futura-CondensedLight'" font-size="38.5393">(2414–2375 B.C.)</tspan></text>
	<text transform="matrix(0.9996 0.0271 -0.0271 0.9996 321.772 707.584)"><tspan x="0" y="0" fill="#FFFFFF" font-family="'Futura-CondensedMedium'" font-size="38.539">Unas </tspan><tspan x="67.952" y="0.001" fill="#FFFFFF" font-family="'Futura-CondensedLight'" font-size="38.539">(2375–2345 B.C.)</tspan></text>
	<text transform="matrix(1 9.606169e-04 -9.606169e-04 1 339.3696 758.4746)"><tspan x="0" y="0" fill="#FFFFFF" font-family="'Futura-CondensedMedium'" font-size="38.5392">Teti</tspan><tspan x="43.018" y="0" fill="#FFFFFF" font-family="'Futura-CondensedLight'" font-size="38.5392"> (2345–2333 B.C.)</tspan></text>
	<text transform="matrix(0.9997 -0.0252 0.0252 0.9997 275.8633 810.6465)"><tspan x="0" y="0" fill="#FFFFFF" font-family="'Futura-CondensedMedium'" font-size="38.5394">Userkare</tspan><tspan x="108.448" y="0" fill="#FFFFFF" font-family="'Futura-CondensedLight'" font-size="38.5394"> (2333–2332 B.C.)</tspan></text>
	<text transform="matrix(0.9987 -0.0514 0.0514 0.9987 318.5532 860.6816)"><tspan x="0" y="0" fill="#FFFFFF" font-family="'Futura-CondensedMedium'" font-size="38.5391">Pepi I</tspan><tspan x="68.723" y="0" fill="#FFFFFF" font-family="'Futura-CondensedLight'" font-size="38.5391"> (2332–2283 B.C.)</tspan></text>
	<text transform="matrix(0.997 -0.0775 0.0775 0.997 223.5469 919.2676)"><tspan x="0" y="0" fill="#FFFFFF" font-family="'Futura-CondensedMedium'" font-size="38.5391">Nemtyemsaf I </tspan><tspan x="176.625" y="0.001" fill="#FFFFFF" font-family="'Futura-CondensedLight'" font-size="38.5391">(2283–2278 B.C.)</tspan></text>
	<text transform="matrix(0.9946 -0.1036 0.1036 0.9946 320.5391 963.1748)"><tspan x="0" y="0" fill="#FFFFFF" font-family="'Futura-CondensedMedium'" font-size="38.5389">Pepi II </tspan><tspan x="85.094" y="0" fill="#FFFFFF" font-family="'Futura-CondensedLight'" font-size="38.5389">(2278–2184 B.C.)</tspan></text>
	<text transform="matrix(0.9916 -0.1296 0.1296 0.9916 328.3013 1014.0117)"><tspan x="0" y="0" fill="#FFFFFF" font-family="'Futura-CondensedMedium'" font-size="38.5391">Siptah </tspan><tspan x="84.586" y="-0.001" fill="#FFFFFF" font-family="'Futura-CondensedLight'" font-size="38.5391">(2184–2181 B.C.)</tspan></text>
	<text transform="matrix(0.9878 -0.1555 0.1555 0.9878 323.3311 1066.9043)"><tspan x="0" y="0" fill="#FFFFFF" font-family="'Futura-CondensedMedium'" font-size="38.5393">Netjerkare </tspan><tspan x="135.715" y="0" fill="#FFFFFF" font-family="'Futura-CondensedLight'" font-size="38.5393">(unknown reign)</tspan></text>
	<text transform="matrix(0.9834 -0.1813 0.1813 0.9834 361.6655 1112.418)"><tspan x="0" y="0" fill="#FFFFFF" font-family="'Futura-CondensedMedium'" font-size="38.539">Menkare</tspan><tspan x="106.565" y="0" fill="#FFFFFF" font-family="'Futura-CondensedLight'" font-size="38.539">(unknown reign)</tspan></text>
	<text transform="matrix(0.9783 -0.207 0.207 0.9783 326.7056 1171.875)"><tspan x="0" y="0" fill="#FFFFFF" font-family="'Futura-CondensedMedium'" font-size="38.5391">Neferkare II </tspan><tspan x="153.705" y="0.001" fill="#FFFFFF" font-family="'Futura-CondensedLight'" font-size="38.5391">(unknown reign)</tspan></text>
	<text transform="matrix(0.9726 -0.2325 0.2325 0.9726 363.5698 1216.6572)"><tspan x="0" y="0" fill="#FFFFFF" font-family="'Futura-CondensedMedium'" font-size="38.5392">Neferkare </tspan><tspan x="128.94" y="0" fill="#FFFFFF" font-family="'Futura-CondensedLight'" font-size="38.5392">(unknown reign)</tspan></text>
	<text transform="matrix(0.9662 -0.2579 0.2579 0.9662 394.7827 1261.6602)"><tspan x="0" y="0" fill="#FFFFFF" font-family="'Futura-CondensedMedium'" font-size="38.539">Djedkara</tspan><tspan x="110.781" y="-0.001" fill="#FFFFFF" font-family="'Futura-CondensedLight'" font-size="38.539">(unknown reign)</tspan></text>
	<text transform="matrix(0.9591 -0.2831 0.2831 0.9591 403.6904 1312.3525)"><tspan x="0" y="0" fill="#FFFFFF" font-family="'Futura-CondensedMedium'" font-size="38.539">Merenhor</tspan><tspan x="117.028" y="0.001" fill="#FFFFFF" font-family="'Futura-CondensedLight'" font-size="38.539">(unknown reign)</tspan></text>
	<text transform="matrix(0.9514 -0.3081 0.3081 0.9514 407.0938 1364.9453)"><tspan x="0" y="0" fill="#FFFFFF" font-family="'Futura-CondensedMedium'" font-size="38.5389">Seneferka </tspan><tspan x="130.596" y="0" fill="#FFFFFF" font-family="'Futura-CondensedLight'" font-size="38.5389">(unknown reign)</tspan></text>
	<text transform="matrix(0.943 -0.3329 0.3329 0.943 463.6509 1399.7422)"><tspan x="0" y="0" fill="#FFFFFF" font-family="'Futura-CondensedMedium'" font-size="38.5391">Nikara </tspan><tspan x="89.442" y="-0.001" fill="#FFFFFF" font-family="'Futura-CondensedLight'" font-size="38.5391">(unknown reign)</tspan></text>
	<text transform="matrix(0.9339 -0.3575 0.3575 0.9339 424.6597 1468.8496)"><tspan x="0" y="0" fill="#FFFFFF" font-family="'Futura-CondensedMedium'" font-size="38.5393">Neferkare V </tspan><tspan x="151.165" y="-0.001" fill="#FFFFFF" font-family="'Futura-CondensedLight'" font-size="38.5393">(unknown reign)</tspan></text>
	<text transform="matrix(0.9242 -0.3818 0.3818 0.9242 450.4146 1514.4268)"><tspan x="0" y="0" fill="#FFFFFF" font-family="'Futura-CondensedMedium'" font-size="38.539">Neferkahor </tspan><tspan x="145.18" y="0" fill="#FFFFFF" font-family="'Futura-CondensedLight'" font-size="38.539">(unknown reign)</tspan></text>
	<text transform="matrix(0.9139 -0.4059 0.4059 0.9139 458.8281 1567.5996)"><tspan x="0" y="0" fill="#FFFFFF" font-family="'Futura-CondensedMedium'" font-size="38.539">Neferkare VI </tspan><tspan x="159.557" y="0.001" fill="#FFFFFF" font-family="'Futura-CondensedLight'" font-size="38.539">(unknown reign)</tspan></text>
	<text transform="matrix(0.903 -0.4296 0.4296 0.903 489.3452 1611.124)"><tspan x="0" y="0" fill="#FFFFFF" font-family="'Futura-CondensedMedium'" font-size="38.5391">Neferkamin </tspan><tspan x="151.24" y="0" fill="#FFFFFF" font-family="'Futura-CondensedLight'" font-size="38.5391">(unknown reign)</tspan></text>
	<text transform="matrix(0.8914 -0.4531 0.4531 0.8914 528.9629 1649.3535)"><tspan x="0" y="0" fill="#FFFFFF" font-family="'Futura-CondensedMedium'" font-size="38.5391">Qakare </tspan><tspan x="96.384" y="0.001" fill="#FFFFFF" font-family="'Futura-CondensedLight'" font-size="38.5391">(2169–2167 B.C.)</tspan></text>
	<text transform="matrix(0.8793 -0.4763 0.4763 0.8793 502.7441 1722.2568)"><tspan x="0" y="0" fill="#FFFFFF" font-family="'Futura-CondensedMedium'" font-size="38.539">Neferkara II </tspan><tspan x="154.702" y="0" fill="#FFFFFF" font-family="'Futura-CondensedLight'" font-size="38.539">(2167–2163 B.C.)</tspan></text>
	<text transform="matrix(0.8665 -0.4992 0.4992 0.8665 521.0117 1773.166)"><tspan x="0" y="0" fill="#FFFFFF" font-family="'Futura-CondensedMedium'" font-size="38.539">Neferkawhor </tspan><tspan x="164.732" y="0" fill="#FFFFFF" font-family="'Futura-CondensedLight'" font-size="38.539">(2163–2161 B.C.)</tspan></text>
	<text transform="matrix(0.8531 -0.5217 0.5217 0.8531 563.7061 1809.7881)"><tspan x="0" y="0" fill="#FFFFFF" font-family="'Futura-CondensedMedium'" font-size="38.5392">Neferirkara</tspan><tspan x="139.911" y="0" fill="#FFFFFF" font-family="'Futura-CondensedLight'" font-size="38.5392"> (2161–2160 B.C.)</tspan></text>
	<text transform="matrix(-0.8377 0.5461 -0.5461 -0.8377 891.9941 1634.2559)"><tspan x="0" y="0" fill="#FFFFFF" font-family="'Futura-CondensedMedium'" font-size="38.5389">Acthoes I</tspan><tspan x="107.638" y="0" fill="#FFFFFF" font-family="'Futura-CondensedLight'" font-size="38.5389"> (2160–2140 B.C.)</tspan></text>
	<text transform="matrix(-0.8205 0.5716 -0.5716 -0.8205 917.1318 1671.5332)"><tspan x="0" y="0" fill="#FFFFFF" font-family="'Futura-CondensedMedium'" font-size="38.5387">Neferkare VII </tspan><tspan x="167.948" y="0.001" fill="#FFFFFF" font-family="'Futura-CondensedLight'" font-size="38.5387">(c.a. 2140–? B.C.)</tspan></text>
</g>
<g id="Layer_2">
</g>
</svg>
