<?xml version="1.0" encoding="utf-8"?>
<!-- Generator: Adobe Illustrator 16.0.0, SVG Export Plug-In . SVG Version: 6.00 Build 0)  -->
<!DOCTYPE svg PUBLIC "-//W3C//DTD SVG 1.1//EN" "http://www.w3.org/Graphics/SVG/1.1/DTD/svg11.dtd">
<svg version="1.1" id="Layer_1" xmlns="http://www.w3.org/2000/svg" xmlns:xlink="http://www.w3.org/1999/xlink" x="0px" y="0px"
	 width="1000px" height="996.864px" viewBox="0 0 1000 996.864" enable-background="new 0 0 1000 996.864" xml:space="preserve">
<rect x="0.024" y="-0.031" transform="matrix(-1 -2.303918e-05 2.303918e-05 -1 1000.0374 996.8147)" fill="#020202" width="1000" height="996.864"/>
<text transform="matrix(0.4007 0.9162 -0.9162 0.4007 1205.3008 219.3301)"><tspan x="0" y="0" fill="#FFFFFF" font-family="'Futura-CondensedMedium'" font-size="50.7892">Artaxerxes III </tspan><tspan x="223.939" y="0" fill="#FFFFFF" font-family="'Futura-CondensedLight'" font-size="50.7892">(343–338 B.C.)</tspan></text>
<text transform="matrix(0.4246 0.9054 -0.9054 0.4246 1144.0205 252.6523)"><tspan x="0" y="0" fill="#FFFFFF" font-family="'Futura-CondensedMedium'" font-size="50.7896">Artaxerxes IV </tspan><tspan x="220.592" y="0" fill="#FFFFFF" font-family="'Futura-CondensedLight'" font-size="50.7896">(338–336 B.C.)</tspan></text>
<text transform="matrix(0.4481 0.894 -0.894 0.4481 1110.8389 341.0571)"><tspan x="0" y="0" fill="#FFFFFF" font-family="'Futura-CondensedMedium'" font-size="50.7893">Darius III </tspan><tspan x="157.104" y="0" fill="#FFFFFF" font-family="'Futura-CondensedLight'" font-size="50.7893">(336–332 B.C.)</tspan></text>
<text transform="matrix(0.4714 0.8819 -0.8819 0.4714 1023.7051 321.8936)"><tspan x="0" y="0" fill="#FFFFFF" font-family="'Futura-CondensedMedium'" font-size="50.7894">Alexander III </tspan><tspan x="215.78" y="0.001" fill="#FFFFFF" font-family="'Futura-CondensedLight'" font-size="50.7894">(332–323 B.C.)</tspan></text>
<text transform="matrix(0.4943 0.8693 -0.8693 0.4943 998.8379 418.0874)"><tspan x="0" y="0" fill="#FFFFFF" font-family="'Futura-CondensedMedium'" font-size="50.7894">Philip III </tspan><tspan x="145.251" y="0" fill="#FFFFFF" font-family="'Futura-CondensedLight'" font-size="50.7894">(323–317 B.C.)</tspan></text>
<text transform="matrix(0.5169 0.856 -0.856 0.5169 906.7441 396.1509)"><tspan x="0" y="0" fill="#FFFFFF" font-family="'Futura-CondensedMedium'" font-size="50.7896">Alexander IV </tspan><tspan x="212.434" y="0" fill="#FFFFFF" font-family="'Futura-CondensedLight'" font-size="50.7896">(317–309 B.C.)</tspan></text>
<text transform="matrix(0.5391 0.8422 -0.8422 0.5391 875.8691 476.6538)"><tspan x="0" y="0" fill="#FFFFFF" font-family="'Futura-CondensedMedium'" font-size="50.7896">Ptolemy I</tspan><tspan x="151.154" y="-0.001" fill="#FFFFFF" font-family="'Futura-CondensedLight'" font-size="50.7896"> (305–285 B.C.)</tspan></text>
<text transform="matrix(0.561 0.8278 -0.8278 0.561 813.9355 505.9604)"><tspan x="0" y="0" fill="#FFFFFF" font-family="'Futura-CondensedMedium'" font-size="50.7892">Ptolemy II</tspan><tspan x="162.212" y="0" fill="#FFFFFF" font-family="'Futura-CondensedLight'" font-size="50.7892"> (285–246 B.C.)</tspan></text>
<text transform="matrix(0.5825 0.8129 -0.8129 0.5825 752.6553 537.4565)"><tspan x="0" y="0" fill="#FFFFFF" font-family="'Futura-CondensedMedium'" font-size="50.7895">Ptolemy III</tspan><tspan x="173.274" y="-0.001" fill="#FFFFFF" font-family="'Futura-CondensedLight'" font-size="50.7895"> (246–222 B.C.)</tspan></text>
<text transform="matrix(0.6035 0.7973 -0.7973 0.6035 700.3203 581.9165)"><tspan x="0" y="0" fill="#FFFFFF" font-family="'Futura-CondensedMedium'" font-size="50.7894">Ptolemy IV </tspan><tspan x="180.442" y="0" fill="#FFFFFF" font-family="'Futura-CondensedLight'" font-size="50.7894">(222–204 B.C.)</tspan></text>
<text transform="matrix(0.6242 0.7813 -0.7813 0.6242 654.167 633.9351)"><tspan x="0" y="0" fill="#FFFFFF" font-family="'Futura-CondensedMedium'" font-size="50.7897">Ptolemy V </tspan><tspan x="169.381" y="0.001" fill="#FFFFFF" font-family="'Futura-CondensedLight'" font-size="50.7897">(204–180 B.C.)</tspan></text>
<text transform="matrix(0.6444 0.7647 -0.7647 0.6444 595.5352 669.6665)"><tspan x="0" y="0" fill="#FFFFFF" font-family="'Futura-CondensedMedium'" font-size="50.7893">Ptolemy VI</tspan><tspan x="169.926" y="0" fill="#FFFFFF" font-family="'Futura-CondensedLight'" font-size="50.7893"> (180–164 B.C.)</tspan></text>
<text transform="matrix(0.6642 0.7475 -0.7475 0.6642 534.7412 704.0298)"><tspan x="0" y="0" fill="#FFFFFF" font-family="'Futura-CondensedMedium'" font-size="50.7891">Cleopatra II </tspan><tspan x="195.89" y="0" fill="#FFFFFF" font-family="'Futura-CondensedLight'" font-size="50.7891">(163–127 B.C.)</tspan></text>
<text transform="matrix(0.6836 0.7299 -0.7299 0.6836 480.4346 746.9097)"><tspan x="0" y="0" fill="#FFFFFF" font-family="'Futura-CondensedMedium'" font-size="50.7896">Ptolemy VIII </tspan><tspan x="202.564" y="0" fill="#FFFFFF" font-family="'Futura-CondensedLight'" font-size="50.7896">(127–116 B.C.)</tspan></text>
<text transform="matrix(0.7025 0.7117 -0.7117 0.7025 447.3745 811.1851)"><tspan x="0" y="0" fill="#FFFFFF" font-family="'Futura-CondensedMedium'" font-size="50.7892">Ptolemy IX </tspan><tspan x="180.738" y="0" fill="#FFFFFF" font-family="'Futura-CondensedLight'" font-size="50.7892">(116–110 B.C.)</tspan></text>
<text transform="matrix(0.7208 0.6931 -0.6931 0.7208 408.1167 868.5669)"><tspan x="0" y="0" fill="#FFFFFF" font-family="'Futura-CondensedMedium'" font-size="50.7892">Ptolemy X </tspan><tspan x="169.678" y="0" fill="#FFFFFF" font-family="'Futura-CondensedLight'" font-size="50.7892">(110–109 B.C.)</tspan></text>
<text transform="matrix(0.7387 0.674 -0.674 0.7387 377.6982 932.9204)"><tspan x="0" y="0" fill="#FFFFFF" font-family="'Futura-CondensedMedium'" font-size="50.7892">Ptolemy XII </tspan><tspan x="191.799" y="0" fill="#FFFFFF" font-family="'Futura-CondensedLight'" font-size="50.7892">(80–51 B.C.)</tspan></text>
<text transform="matrix(0.7561 0.6544 -0.6544 0.7561 316.8887 969.481)"><tspan x="0" y="0" fill="#FFFFFF" font-family="'Futura-CondensedMedium'" font-size="50.7891">Cleopatra VII </tspan><tspan x="214.663" y="0.001" fill="#FFFFFF" font-family="'Futura-CondensedLight'" font-size="50.7891">(51–30 B.C.)</tspan></text>
<text transform="matrix(0.773 0.6344 -0.6344 0.773 164.7471 933.1899)"><tspan x="0" y="0" fill="#FFFFFF" font-family="'Futura-CondensedMedium'" font-size="50.7894">Ptolemy XV Caesarion </tspan><tspan x="355.849" y="0" fill="#FFFFFF" font-family="'Futura-CondensedLight'" font-size="50.7894">(44–30 B.C.)</tspan></text>
<path fill="#508FFF" d="M895.602,46.91c-4.215,2.307-9.511,0.694-11.809-3.494c-2.292-4.241-0.73-9.54,3.515-11.792
	c4.195-2.314,9.501-0.761,11.796,3.466C901.376,39.342,899.812,44.593,895.602,46.91z"/>
<path fill="#508FFF" d="M828.475,85.299c-4.158,2.417-9.492,0.943-11.897-3.182c-2.402-4.181-0.981-9.522,3.208-11.881
	c4.131-2.421,9.474-1.008,11.883,3.158C834.048,77.586,832.628,82.876,828.475,85.299z"/>
<path fill="#508FFF" d="M762.374,125.432c-4.093,2.527-9.459,1.192-11.979-2.872c-2.511-4.114-1.226-9.491,2.896-11.956
	c4.069-2.533,9.444-1.258,11.96,2.842C767.744,117.576,766.46,122.9,762.374,125.432z"/>
<path fill="#508FFF" d="M697.343,167.283c-4.021,2.631-9.421,1.44-12.045-2.556c-2.619-4.047-1.475-9.457,2.583-12.03
	c3.998-2.636,9.407-1.502,12.03,2.529C702.51,159.287,701.365,164.645,697.343,167.283z"/>
<path fill="#508FFF" d="M633.438,210.823c-3.958,2.731-9.388,1.684-12.112-2.243c-2.722-3.978-1.724-9.412,2.265-12.093
	c3.929-2.74,9.368-1.748,12.095,2.213C638.386,202.694,637.388,208.078,633.438,210.823z"/>
<path fill="#508FFF" d="M570.69,256.02c-3.884,2.837-9.337,1.928-12.165-1.926c-2.828-3.903-1.973-9.363,1.948-12.145
	c3.855-2.842,9.313-1.999,12.145,1.893C575.421,247.764,574.564,253.172,570.69,256.02z"/>
<path fill="#508FFF" d="M509.143,302.842c-3.805,2.937-9.285,2.173-12.209-1.604c-2.931-3.829-2.213-9.308,1.629-12.196
	c3.78-2.943,9.264-2.237,12.194,1.579C513.661,294.464,512.945,299.894,509.143,302.842z"/>
<path fill="#508FFF" d="M448.849,351.261c-3.732,3.034-9.226,2.412-12.25-1.286c-3.026-3.752-2.456-9.248,1.313-12.23
	c3.696-3.042,9.196-2.483,12.227,1.254C453.145,342.767,452.57,348.213,448.849,351.261z"/>
<path fill="#508FFF" d="M389.84,401.242c-3.65,3.132-9.161,2.654-12.281-0.966c-3.125-3.67-2.695-9.18,0.989-12.263
	c3.622-3.136,9.136-2.719,12.26,0.938C393.912,392.64,393.48,398.099,389.84,401.242z"/>
<path fill="#FF7DCA" d="M332.16,452.75c-3.564,3.225-9.085,2.893-12.298-0.642c-3.223-3.591-2.937-9.106,0.672-12.289
	c3.529-3.226,9.052-2.956,12.274,0.619C336.006,444.042,335.717,449.512,332.16,452.75z"/>
<path fill="#508FFF" d="M275.849,505.75c-3.483,3.319-9.008,3.132-12.313-0.322c-3.315-3.502-3.173-9.024,0.347-12.299
	c3.447-3.319,8.977-3.191,12.292,0.297C279.464,496.944,279.32,502.422,275.849,505.75z"/>
<path fill="#508FFF" d="M220.942,560.206c-3.391,3.407-8.918,3.364-12.317,0c-3.404-3.412-3.409-8.938,0.027-12.301
	c3.361-3.41,8.894-3.428,12.294-0.027C224.326,551.31,224.326,556.786,220.942,560.206z"/>
<path fill="#508FFF" d="M167.48,616.081c-3.296,3.495-8.828,3.598-12.311,0.323c-3.49-3.323-3.642-8.845-0.298-12.299
	c3.27-3.501,8.799-3.66,12.289-0.347C170.633,607.097,170.774,612.572,167.48,616.081z"/>
<path fill="#508FFF" d="M115.501,673.333c-3.211,3.587-8.733,3.825-12.298,0.648c-3.58-3.233-3.872-8.748-0.621-12.29
	c3.176-3.577,8.701-3.891,12.274-0.67C118.417,664.273,118.703,669.748,115.501,673.333z"/>
<path fill="#FF7DCA" d="M65.038,731.929c-3.114,3.666-8.628,4.055-12.28,0.97c-3.661-3.137-4.101-8.642-0.941-12.271
	c3.086-3.659,8.599-4.111,12.252-0.985C67.714,722.794,68.144,728.258,65.038,731.929z"/>
<path fill="#508FFF" d="M16.123,791.829c-3.014,3.748-8.519,4.274-12.248,1.286c-3.741-3.037-4.322-8.527-1.262-12.237
	c2.986-3.741,8.488-4.338,12.227-1.31C18.563,782.629,19.132,788.077,16.123,791.829z"/>
<path fill="none" stroke="#FFFFFF" stroke-miterlimit="10" d="M891.563,118.332c-21.649,37.476-69.576,50.304-107.049,28.659
	c-37.476-21.646-50.306-69.577-28.654-107.051c21.644-37.472,69.571-50.302,107.043-28.656
	C900.38,32.933,913.209,80.86,891.563,118.332z"/>
<line fill="none" stroke="#FFFFFF" stroke-miterlimit="10" x1="887.308" y1="31.624" x2="819.785" y2="70.235"/>
<line fill="none" stroke="#FFFFFF" stroke-miterlimit="10" x1="895.602" y1="46.91" x2="828.475" y2="85.299"/>
<path fill="none" stroke="#FFFFFF" stroke-miterlimit="10" d="M694.526,201.604c-10.824,18.738-34.784,25.156-53.522,14.332
	c-18.736-10.825-25.154-34.789-14.328-53.528c10.824-18.733,34.786-25.15,53.523-14.327
	C698.938,158.902,705.35,182.868,694.526,201.604z"/>
<circle fill="none" stroke="#FFFFFF" stroke-miterlimit="10" cx="596.198" cy="225.802" r="39.179"/>
<path fill="none" stroke="#FFFFFF" stroke-miterlimit="10" d="M568.702,293.709c-10.827,18.739-34.79,25.156-53.529,14.332
	c-18.734-10.826-25.147-34.79-14.324-53.527c10.825-18.737,34.789-25.152,53.527-14.328
	C573.113,251.009,579.524,274.975,568.702,293.709z"/>
<path fill="none" stroke="#FFFFFF" stroke-miterlimit="10" d="M505.182,340.81c-10.824,18.736-34.786,25.152-53.522,14.328
	c-18.739-10.823-25.152-34.788-14.329-53.527c10.823-18.733,34.789-25.15,53.525-14.324
	C509.592,298.112,516.003,322.075,505.182,340.81z"/>
<path fill="none" stroke="#FFFFFF" stroke-miterlimit="10" d="M447.062,388.235c-10.826,18.738-34.787,25.154-53.525,14.327
	c-18.736-10.823-25.152-34.786-14.327-53.523c10.823-18.736,34.789-25.152,53.524-14.329
	C451.475,345.535,457.887,369.498,447.062,388.235z"/>
<path fill="none" stroke="#FFFFFF" stroke-miterlimit="10" d="M452.58,433.806c-21.651,37.475-69.577,50.306-107.055,28.657
	c-37.473-21.647-50.298-69.576-28.653-107.051c21.648-37.475,69.577-50.305,107.049-28.658
	C461.398,348.407,474.228,396.33,452.58,433.806z"/>
<path fill="none" stroke="#FFFFFF" stroke-miterlimit="10" d="M458.291,479.056c-32.29,55.895-103.775,75.029-159.667,42.739
	c-55.89-32.287-75.028-103.77-42.741-159.664c32.289-55.893,103.774-75.028,159.666-42.739
	C471.439,351.68,490.579,423.164,458.291,479.056z"/>
<line fill="none" stroke="#FFFFFF" stroke-miterlimit="10" x1="378.548" y1="388.013" x2="263.882" y2="493.128"/>
<line fill="none" stroke="#FFFFFF" stroke-miterlimit="10" x1="389.84" y1="401.242" x2="273.552" y2="507.311"/>
<line fill="none" stroke="#FFFFFF" stroke-miterlimit="10" x1="376.315" y1="390.062" x2="332.16" y2="452.75"/>
<line fill="none" stroke="#FFFFFF" stroke-miterlimit="10" x1="386.582" y1="404.21" x2="322.394" y2="438.533"/>
<line fill="none" stroke="#FFFFFF" stroke-miterlimit="10" x1="320.533" y1="439.82" x2="275.849" y2="505.75"/>
<line fill="none" stroke="#FFFFFF" stroke-miterlimit="10" x1="332.16" y1="452.75" x2="263.882" y2="493.128"/>
<path fill="none" stroke="#FFFFFF" stroke-miterlimit="10" d="M278.332,544.935c-10.824,18.738-34.783,25.156-53.522,14.328
	c-18.737-10.824-25.155-34.785-14.329-53.524c10.824-18.733,34.788-25.152,53.524-14.328
	C282.745,502.233,289.153,526.2,278.332,544.935z"/>
<path fill="none" stroke="#FFFFFF" stroke-miterlimit="10" d="M220.774,601.061c-10.825,18.737-34.789,25.154-53.526,14.33
	c-18.738-10.825-25.15-34.787-14.329-53.527c10.824-18.729,34.79-25.15,53.526-14.328
	C225.183,558.365,231.595,582.327,220.774,601.061z"/>
<path fill="none" stroke="#FFFFFF" stroke-miterlimit="10" d="M167.399,659.61c-10.823,18.734-34.787,25.152-53.522,14.33
	c-18.739-10.824-25.154-34.787-14.329-53.527c10.823-18.737,34.786-25.154,53.525-14.331
	C171.812,616.908,178.222,640.874,167.399,659.61z"/>
<path fill="none" stroke="#FFFFFF" stroke-miterlimit="10" d="M115.235,716.06c-10.823,18.739-34.785,25.155-53.523,14.329
	c-18.737-10.821-25.151-34.786-14.326-53.524c10.822-18.734,34.785-25.152,53.524-14.33
	C119.649,673.361,126.061,697.324,115.235,716.06z"/>
<circle fill="none" stroke="#FFFFFF" stroke-miterlimit="10" cx="32.125" cy="757.43" r="39.179"/>
<path fill="none" stroke="#FFFFFF" stroke-miterlimit="10" d="M376.315,390.062c-54.789-4.283-102.97,41.435-107.724,102.216"/>
<path fill="none" stroke="#FFFFFF" stroke-miterlimit="10" d="M277.259,500.147c57.624,4.505,108.117-41.159,112.882-102.098"/>
<line fill="none" stroke="#FFFFFF" stroke-width="0.5" stroke-miterlimit="10" x1="-223.52" y1="-3382.037" x2="1441.432" y2="640.352"/>
<line fill="none" stroke="#FFFFFF" stroke-width="0.5" stroke-miterlimit="10" x1="-380.023" y1="-3313.179" x2="1389.652" y2="664.252"/>
<line fill="none" stroke="#FFFFFF" stroke-width="0.5" stroke-miterlimit="10" x1="-534.672" y1="-3240.246" x2="1338.514" y2="689.5"/>
<line fill="none" stroke="#FFFFFF" stroke-width="0.5" stroke-miterlimit="10" x1="-687.358" y1="-3163.292" x2="1288.054" y2="716.076"/>
<line fill="none" stroke="#FFFFFF" stroke-width="0.5" stroke-miterlimit="10" x1="-837.979" y1="-3082.366" x2="1238.31" y2="743.962"/>
<line fill="none" stroke="#FFFFFF" stroke-width="0.5" stroke-miterlimit="10" x1="-986.428" y1="-2997.521" x2="1189.314" y2="773.141"/>
<line fill="none" stroke="#FFFFFF" stroke-width="0.5" stroke-miterlimit="10" x1="-1132.608" y1="-2908.82" x2="1141.092" y2="803.591"/>
<line fill="none" stroke="#FFFFFF" stroke-width="0.5" stroke-miterlimit="10" x1="-1276.411" y1="-2816.327" x2="1093.689" y2="835.297"/>
<line fill="none" stroke="#FFFFFF" stroke-width="0.5" stroke-miterlimit="10" x1="-1417.747" y1="-2720.1" x2="1047.131" y2="868.234"/>
<line fill="none" stroke="#FFFFFF" stroke-width="0.5" stroke-miterlimit="10" x1="-1556.513" y1="-2620.205" x2="1001.45" y2="902.373"/>
<line fill="none" stroke="#FFFFFF" stroke-width="0.5" stroke-miterlimit="10" x1="-1692.62" y1="-2516.709" x2="956.676" y2="937.698"/>
<line fill="none" stroke="#FFFFFF" stroke-width="0.5" stroke-miterlimit="10" x1="-1825.969" y1="-2409.691" x2="912.846" y2="974.185"/>
<line fill="none" stroke="#FFFFFF" stroke-width="0.5" stroke-miterlimit="10" x1="-1956.474" y1="-2299.213" x2="869.984" y2="1011.807"/>
<line fill="none" stroke="#FFFFFF" stroke-width="0.5" stroke-miterlimit="10" x1="-2084.036" y1="-2185.365" x2="828.125" y2="1050.537"/>
<line fill="none" stroke="#FFFFFF" stroke-width="0.5" stroke-miterlimit="10" x1="-2208.579" y1="-2068.211" x2="787.291" y2="1090.351"/>
<line fill="none" stroke="#FFFFFF" stroke-width="0.5" stroke-miterlimit="10" x1="-2330.011" y1="-1947.841" x2="747.509" y2="1131.218"/>
<line fill="none" stroke="#FFFFFF" stroke-width="0.5" stroke-miterlimit="10" x1="-2448.25" y1="-1824.327" x2="708.814" y2="1173.111"/>
<line fill="none" stroke="#FFFFFF" stroke-width="0.5" stroke-miterlimit="10" x1="-2563.219" y1="-1697.766" x2="671.234" y2="1216.008"/>
<line fill="none" stroke="#FFFFFF" stroke-width="0.5" stroke-miterlimit="10" x1="-2674.831" y1="-1568.237" x2="634.783" y2="1259.868"/>
<line fill="none" stroke="#FFFFFF" stroke-width="0.5" stroke-miterlimit="10" x1="-2783.017" y1="-1435.829" x2="599.498" y2="1304.67"/>
<line fill="none" stroke="#FFFFFF" stroke-width="0.5" stroke-miterlimit="10" x1="-2887.696" y1="-1300.636" x2="565.397" y2="1350.38"/>
</svg>
