<?xml version="1.0" encoding="utf-8"?>
<!-- Generator: Adobe Illustrator 16.0.0, SVG Export Plug-In . SVG Version: 6.00 Build 0)  -->
<!DOCTYPE svg PUBLIC "-//W3C//DTD SVG 1.1//EN" "http://www.w3.org/Graphics/SVG/1.1/DTD/svg11.dtd">
<svg version="1.1" id="Layer_1" xmlns="http://www.w3.org/2000/svg" xmlns:xlink="http://www.w3.org/1999/xlink" x="0px" y="0px"
	 width="1000px" height="996.864px" viewBox="0 0 1000 996.864" enable-background="new 0 0 1000 996.864" xml:space="preserve">
<rect x="1.073" width="998.927" height="996.864"/>
<g>
	<circle fill="none" stroke="#FFFFFF" stroke-width="0.75" stroke-miterlimit="10" cx="510.197" cy="673.071" r="11.162"/>
	<circle fill="none" stroke="#FFFFFF" stroke-width="0.75" stroke-miterlimit="10" cx="510.15" cy="673.028" r="22.325"/>
	<circle fill="none" stroke="#FFFFFF" stroke-width="0.75" stroke-miterlimit="10" cx="510.209" cy="673.08" r="33.485"/>
	<circle fill="none" stroke="#FFFFFF" stroke-width="0.75" stroke-miterlimit="10" cx="510.093" cy="672.977" r="44.649"/>
	<path fill="none" stroke="#FFFFFF" stroke-width="0.75" stroke-miterlimit="10" d="M465.604,723.039
		c-27.591-24.634-29.987-66.972-5.354-94.562c24.634-27.589,66.971-29.987,94.562-5.354c27.588,24.634,29.987,66.971,5.354,94.562
		S493.195,747.67,465.604,723.039z"/>
	<circle fill="none" stroke="#FFFFFF" stroke-width="0.75" stroke-miterlimit="10" cx="510.099" cy="672.982" r="55.81"/>
	<circle fill="none" stroke="#FFFFFF" stroke-width="0.75" stroke-miterlimit="10" cx="510.15" cy="673.028" r="78.134"/>
	<circle fill="none" stroke="#FFFFFF" stroke-width="0.75" stroke-miterlimit="10" cx="510.164" cy="673.041" r="89.295"/>
	<circle fill="none" stroke="#FFFFFF" stroke-width="0.75" stroke-miterlimit="10" cx="510.163" cy="673.041" r="100.458"/>
	<path fill="none" stroke="#FFFFFF" stroke-width="0.75" stroke-miterlimit="10" d="M435.811,756.292
		c-45.985-41.057-49.98-111.618-8.924-157.602c41.057-45.985,111.617-49.98,157.604-8.925
		c45.982,41.055,49.98,111.616,8.922,157.601C552.357,793.351,481.797,797.348,435.811,756.292z"/>
	<circle fill="none" stroke="#FFFFFF" stroke-width="0.75" stroke-miterlimit="10" cx="510.15" cy="673.028" r="5.581"/>
	<circle fill="none" stroke="#FFFFFF" stroke-width="0.75" stroke-miterlimit="10" cx="510.149" cy="673.028" r="16.742"/>
	<circle fill="none" stroke="#FFFFFF" stroke-width="0.75" stroke-miterlimit="10" cx="510.149" cy="673.028" r="27.905"/>
	<circle fill="none" stroke="#FFFFFF" stroke-width="0.75" stroke-miterlimit="10" cx="510.149" cy="673.027" r="39.067"/>
	<circle fill="none" stroke="#FFFFFF" stroke-width="0.75" stroke-miterlimit="10" cx="510.149" cy="673.028" r="50.229"/>
	<path fill="none" stroke="#FFFFFF" stroke-width="0.75" stroke-miterlimit="10" d="M469.262,718.824
		c-25.29-22.582-27.488-61.39-4.906-86.681c22.581-25.293,61.389-27.491,86.68-4.911c25.293,22.583,27.491,61.391,4.909,86.683
		C533.363,739.208,494.555,741.404,469.262,718.824z"/>
	<circle fill="none" stroke="#FFFFFF" stroke-width="0.75" stroke-miterlimit="10" cx="510.092" cy="672.977" r="72.553"/>
	<path fill="none" stroke="#FFFFFF" stroke-width="0.75" stroke-miterlimit="10" d="M454.396,735.476
		c-34.488-30.794-37.485-83.714-6.694-118.202c30.793-34.487,83.713-37.484,118.203-6.691c34.488,30.79,37.485,83.71,6.693,118.2
		C541.805,763.27,488.885,766.268,454.396,735.476z"/>
	<path fill="none" stroke="#FFFFFF" stroke-width="0.75" stroke-miterlimit="10" d="M446.904,743.75
		c-39.088-34.899-42.484-94.875-7.588-133.964c34.898-39.087,94.876-42.482,133.963-7.586c39.088,34.9,42.482,94.876,7.586,133.965
		C545.969,775.25,485.991,778.647,446.904,743.75z"/>
	<circle fill="none" stroke="#FFFFFF" stroke-width="0.75" stroke-miterlimit="10" cx="510.091" cy="672.976" r="106.038"/>
	<circle fill="none" stroke="#FFFFFF" stroke-width="0.75" stroke-miterlimit="10" cx="510.149" cy="673.028" r="117.201"/>
	<circle fill="none" stroke="#FFFFFF" stroke-width="0.75" stroke-miterlimit="10" cx="510.182" cy="672.992" r="122.782"/>
	<circle fill="none" stroke="#FFFFFF" stroke-width="0.75" stroke-miterlimit="10" cx="510.182" cy="672.992" r="128.364"/>
	<circle fill="none" stroke="#FFFFFF" stroke-width="0.75" stroke-miterlimit="10" cx="510.183" cy="672.992" r="133.944"/>
	<path fill="none" stroke="#FFFFFF" stroke-width="0.75" stroke-miterlimit="10" d="M416.982,777.032
		c-57.48-51.319-62.477-139.521-11.156-197.002s139.521-62.475,197.004-11.155c57.479,51.319,62.475,139.521,11.154,197.002
		S474.463,828.354,416.982,777.032z"/>
	<circle fill="none" stroke="#FFFFFF" stroke-width="0.75" stroke-miterlimit="10" cx="510.183" cy="672.993" r="145.106"/>
	<circle fill="none" stroke="#FFFFFF" stroke-width="0.75" stroke-miterlimit="10" cx="509.973" cy="673.014" r="150.687"/>
</g>
<path fill="none" stroke="#FFFFFF" stroke-width="0.75" stroke-miterlimit="10" d="M-29.727,850.383
	c-4.601-4.104-4.999-11.16-0.895-15.758c4.104-4.601,11.159-4.998,15.76-0.893c4.6,4.105,4.999,11.16,0.892,15.759
	C-18.075,854.09-25.129,854.493-29.727,850.383z"/>
<path fill="none" stroke="#FFFFFF" stroke-width="0.75" stroke-miterlimit="10" d="M-37.209,858.667
	c-9.196-8.209-9.996-22.32-1.786-31.52c8.213-9.195,22.324-9.994,31.52-1.785c9.199,8.212,9.997,22.325,1.784,31.523
	C-13.901,866.079-28.012,866.879-37.209,858.667z"/>
<path fill="none" stroke="#FFFFFF" stroke-width="0.75" stroke-miterlimit="10" d="M-44.585,867.047
	c-13.798-12.316-14.994-33.485-2.678-47.279c12.317-13.797,33.484-14.995,47.281-2.68c13.794,12.318,14.993,33.484,2.677,47.28
	C-9.623,878.167-30.791,879.365-44.585,867.047z"/>
<circle fill="none" stroke="#FFFFFF" stroke-width="0.75" stroke-miterlimit="10" cx="-22.399" cy="841.964" r="44.649"/>
<circle fill="none" stroke="#FFFFFF" stroke-width="0.75" stroke-miterlimit="10" cx="-22.394" cy="841.971" r="55.81"/>
<path fill="none" stroke="#FFFFFF" stroke-width="0.75" stroke-miterlimit="10" d="M-26.061,846.18
	c-2.297-2.055-2.499-5.582-0.446-7.879c2.053-2.302,5.582-2.502,7.884-0.45c2.298,2.055,2.497,5.584,0.445,7.881
	C-20.231,848.033-23.759,848.232-26.061,846.18z"/>
<circle fill="none" stroke="#FFFFFF" stroke-width="0.75" stroke-miterlimit="10" cx="-22.344" cy="842.016" r="16.744"/>
<path fill="none" stroke="#FFFFFF" stroke-width="0.75" stroke-miterlimit="10" d="M-40.928,862.833
	c-11.495-10.264-12.494-27.904-2.23-39.402c10.264-11.496,27.903-12.493,39.398-2.232c11.5,10.267,12.498,27.906,2.234,39.4
	C-11.791,872.097-29.431,873.096-40.928,862.833z"/>
<circle fill="none" stroke="#FFFFFF" stroke-width="0.75" stroke-miterlimit="10" cx="-22.341" cy="842.016" r="39.067"/>
<path fill="none" stroke="#FFFFFF" stroke-width="0.75" stroke-miterlimit="10" d="M-55.793,879.483
	c-20.694-18.475-22.494-50.225-4.017-70.92c18.473-20.69,50.228-22.491,70.919-4.015c20.696,18.473,22.491,50.229,4.018,70.922
	C-3.35,896.163-35.102,897.961-55.793,879.483z"/>
<circle fill="none" stroke="#FFFFFF" stroke-width="0.75" stroke-miterlimit="10" cx="360.814" cy="763.051" r="11.162"/>
<path fill="none" stroke="#FFFFFF" stroke-width="0.75" stroke-miterlimit="10" d="M345.897,779.66
	c-9.194-8.21-9.997-22.321-1.786-31.52c8.212-9.195,22.324-9.997,31.521-1.784c9.197,8.211,9.996,22.324,1.786,31.519
	C369.206,787.075,355.097,787.872,345.897,779.66z"/>
<path fill="none" stroke="#FFFFFF" stroke-width="0.75" stroke-miterlimit="10" d="M338.523,788.041
	c-13.796-12.317-14.995-33.487-2.678-47.284c12.314-13.792,33.483-14.993,47.278-2.676c13.798,12.315,14.998,33.484,2.677,47.281
	C373.486,799.156,352.317,800.358,338.523,788.041z"/>
<path fill="none" stroke="#FFFFFF" stroke-width="0.75" stroke-miterlimit="10" d="M330.973,796.264
	c-18.394-16.424-19.995-44.646-3.57-63.042c16.422-18.396,44.645-19.995,63.04-3.571c18.394,16.423,19.992,44.646,3.571,63.041
	C377.592,811.084,349.365,812.682,330.973,796.264z"/>
<path fill="none" stroke="#FFFFFF" stroke-width="0.75" stroke-miterlimit="10" d="M316.219,813.019
	c-27.589-24.637-29.983-66.972-5.353-94.561c24.634-27.595,66.973-29.99,94.562-5.357c27.591,24.633,29.986,66.971,5.358,94.562
	C386.147,835.252,343.812,837.654,316.219,813.019z"/>
<circle fill="none" stroke="#FFFFFF" stroke-width="0.75" stroke-miterlimit="10" cx="360.715" cy="762.962" r="55.811"/>
<circle fill="none" stroke="#FFFFFF" stroke-width="0.75" stroke-miterlimit="10" cx="360.766" cy="763.007" r="5.582"/>
<path fill="none" stroke="#FFFFFF" stroke-width="0.75" stroke-miterlimit="10" d="M349.616,775.498
	c-6.899-6.157-7.498-16.742-1.34-23.64c6.159-6.896,16.746-7.499,23.641-1.342c6.899,6.159,7.497,16.746,1.339,23.643
	C367.097,781.055,356.511,781.653,349.616,775.498z"/>
<path fill="none" stroke="#FFFFFF" stroke-width="0.75" stroke-miterlimit="10" d="M342.183,783.824
	c-11.498-10.265-12.497-27.905-2.233-39.399c10.265-11.497,27.904-12.496,39.402-2.233c11.494,10.267,12.495,27.902,2.233,39.402
	C371.318,793.087,353.678,794.086,342.183,783.824z"/>
<circle fill="none" stroke="#FFFFFF" stroke-width="0.75" stroke-miterlimit="10" cx="360.765" cy="763.008" r="39.066"/>
<path fill="none" stroke="#FFFFFF" stroke-width="0.75" stroke-miterlimit="10" d="M327.314,800.478
	c-20.694-18.479-22.49-50.229-4.016-70.921c18.476-20.695,50.226-22.492,70.922-4.019c20.694,18.479,22.489,50.229,4.015,70.923
	C379.762,817.155,348.006,818.952,327.314,800.478z"/>
<path fill="none" stroke="#FFFFFF" stroke-width="0.75" stroke-miterlimit="10" d="M319.878,808.803
	c-25.291-22.583-27.486-61.391-4.907-86.682s61.388-27.492,86.682-4.909c25.288,22.58,27.491,61.39,4.907,86.683
	C383.98,829.186,345.172,831.383,319.878,808.803z"/>
<path fill="none" stroke="#FFFFFF" stroke-width="0.75" stroke-miterlimit="10" d="M640.916,548.016
	c-4.602-4.104-4.999-11.158-0.894-15.759c4.105-4.597,11.162-4.999,15.758-0.893c4.603,4.106,5.001,11.162,0.893,15.759
	C652.57,551.725,645.514,552.124,640.916,548.016z"/>
<path fill="none" stroke="#FFFFFF" stroke-width="0.75" stroke-miterlimit="10" d="M633.434,556.3
	c-9.197-8.209-9.994-22.322-1.785-31.519c8.212-9.196,22.324-9.996,31.524-1.783c9.195,8.208,9.992,22.32,1.78,31.52
	C656.744,563.716,642.631,564.513,633.434,556.3z"/>
<path fill="none" stroke="#FFFFFF" stroke-width="0.75" stroke-miterlimit="10" d="M626.058,564.678
	c-13.794-12.315-14.993-33.482-2.677-47.28c12.314-13.795,33.485-14.992,47.279-2.675c13.793,12.314,14.994,33.485,2.68,47.278
	C661.021,575.797,639.854,576.997,626.058,564.678z"/>
<path fill="none" stroke="#FFFFFF" stroke-width="0.75" stroke-miterlimit="10" d="M618.51,572.902
	c-18.392-16.421-19.993-44.646-3.571-63.041c16.423-18.395,44.646-19.991,63.042-3.571c18.393,16.422,19.992,44.65,3.568,63.041
	C665.124,587.726,636.9,589.326,618.51,572.902z"/>
<path fill="none" stroke="#FFFFFF" stroke-width="0.75" stroke-miterlimit="10" d="M611.08,581.235
	c-22.99-20.527-24.99-55.809-4.461-78.803c20.53-22.989,55.806-24.99,78.8-4.461c22.995,20.53,24.991,55.81,4.461,78.802
	C669.354,599.764,634.074,601.76,611.08,581.235z"/>
<path fill="none" stroke="#FFFFFF" stroke-width="0.75" stroke-miterlimit="10" d="M644.583,543.811
	c-2.297-2.051-2.497-5.58-0.444-7.877c2.052-2.302,5.578-2.502,7.879-0.448c2.303,2.054,2.499,5.581,0.447,7.882
	C650.413,545.667,646.885,545.865,644.583,543.811z"/>
<path fill="none" stroke="#FFFFFF" stroke-width="0.75" stroke-miterlimit="10" d="M637.151,552.137
	c-6.897-6.158-7.495-16.741-1.342-23.641c6.161-6.895,16.745-7.497,23.644-1.336c6.896,6.156,7.497,16.742,1.339,23.642
	C654.635,557.698,644.049,558.295,637.151,552.137z"/>
<path fill="none" stroke="#FFFFFF" stroke-width="0.75" stroke-miterlimit="10" d="M629.719,560.465
	c-11.495-10.263-12.498-27.905-2.235-39.402c10.268-11.494,27.907-12.494,39.403-2.229c11.495,10.264,12.494,27.903,2.229,39.399
	C658.854,569.73,641.214,570.731,629.719,560.465z"/>
<path fill="none" stroke="#FFFFFF" stroke-width="0.75" stroke-miterlimit="10" d="M622.283,568.792
	c-16.092-14.368-17.494-39.068-3.121-55.16c14.367-16.096,39.062-17.495,55.158-3.123c16.095,14.366,17.495,39.065,3.124,55.159
	C663.076,581.763,638.38,583.16,622.283,568.792z"/>
<path fill="none" stroke="#FFFFFF" stroke-width="0.75" stroke-miterlimit="10" d="M614.851,577.12
	c-20.697-18.479-22.491-50.229-4.02-70.924c18.479-20.691,50.229-22.49,70.925-4.014c20.693,18.477,22.489,50.226,4.016,70.92
	C667.296,593.796,635.544,595.594,614.851,577.12z"/>
<path fill="none" stroke="#FFFFFF" stroke-width="0.75" stroke-miterlimit="10" d="M790.582,282.618
	c-4.601-4.105-4.999-11.162-0.895-15.761c4.108-4.598,11.162-4.997,15.761-0.892c4.6,4.106,5,11.161,0.894,15.76
	C802.235,286.324,795.179,286.725,790.582,282.618z"/>
<path fill="none" stroke="#FFFFFF" stroke-width="0.75" stroke-miterlimit="10" d="M783.1,290.902
	c-9.197-8.212-9.994-22.323-1.784-31.52c8.211-9.197,22.324-9.998,31.522-1.785c9.194,8.212,9.994,22.323,1.782,31.521
	C806.408,298.313,792.297,299.113,783.1,290.902z"/>
<circle fill="none" stroke="#FFFFFF" stroke-width="0.75" stroke-miterlimit="10" cx="798.025" cy="274.301" r="33.485"/>
<circle fill="none" stroke="#FFFFFF" stroke-width="0.75" stroke-miterlimit="10" cx="797.91" cy="274.199" r="44.648"/>
<circle fill="none" stroke="#FFFFFF" stroke-width="0.75" stroke-miterlimit="10" cx="798.026" cy="274.303" r="66.972"/>
<path fill="none" stroke="#FFFFFF" stroke-width="0.75" stroke-miterlimit="10" d="M760.747,315.835
	c-22.992-20.528-24.989-55.808-4.462-78.799c20.527-22.994,55.807-24.992,78.802-4.462c22.992,20.524,24.988,55.807,4.462,78.797
	C819.021,334.365,783.738,336.362,760.747,315.835z"/>
<circle fill="none" stroke="#FFFFFF" stroke-width="0.75" stroke-miterlimit="10" cx="797.968" cy="274.25" r="78.135"/>
<circle fill="none" stroke="#FFFFFF" stroke-width="0.75" stroke-miterlimit="10" cx="797.969" cy="274.25" r="5.58"/>
<circle fill="none" stroke="#FFFFFF" stroke-width="0.75" stroke-miterlimit="10" cx="797.969" cy="274.25" r="16.742"/>
<path fill="none" stroke="#FFFFFF" stroke-width="0.75" stroke-miterlimit="10" d="M779.383,295.065
	c-11.495-10.263-12.493-27.903-2.234-39.401c10.267-11.496,27.909-12.494,39.404-2.23c11.498,10.265,12.493,27.904,2.23,39.399
	C808.519,304.329,790.879,305.33,779.383,295.065z"/>
<circle fill="none" stroke="#FFFFFF" stroke-width="0.75" stroke-miterlimit="10" cx="797.967" cy="274.249" r="39.067"/>
<path fill="none" stroke="#FFFFFF" stroke-width="0.75" stroke-miterlimit="10" d="M764.514,311.719
	c-20.691-18.474-22.491-50.228-4.016-70.922c18.477-20.694,50.229-22.489,70.923-4.015c20.692,18.478,22.49,50.226,4.015,70.92
	C816.962,328.395,785.212,330.194,764.514,311.719z"/>
<circle fill="none" stroke="#FFFFFF" stroke-width="0.75" stroke-miterlimit="10" cx="797.969" cy="274.25" r="61.391"/>
<path fill="none" stroke="#FFFFFF" stroke-width="0.75" stroke-miterlimit="10" d="M749.591,328.319
	c-29.892-26.688-32.489-72.551-5.804-102.441c26.689-29.891,72.553-32.489,102.441-5.801c29.892,26.688,32.49,72.55,5.801,102.44
	C825.344,352.408,779.479,355.005,749.591,328.319z"/>
<path fill="none" stroke="#FFFFFF" stroke-width="0.75" stroke-miterlimit="10" d="M742.214,336.696
	c-34.487-30.79-37.485-83.712-6.695-118.2c30.795-34.488,83.713-37.486,118.204-6.691c34.488,30.788,37.484,83.711,6.693,118.199
	C829.623,364.492,776.702,367.487,742.214,336.696z"/>
<path fill="none" stroke="#FFFFFF" stroke-width="0.75" stroke-miterlimit="10" d="M716.288,440.319
	c-4.603-4.105-5.001-11.162-0.896-15.758c4.106-4.6,11.163-5,15.759-0.893c4.602,4.105,5,11.162,0.896,15.76
	C727.939,444.028,720.883,444.425,716.288,440.319z"/>
<circle fill="none" stroke="#FFFFFF" stroke-width="0.75" stroke-miterlimit="10" cx="723.672" cy="431.952" r="22.323"/>
<path fill="none" stroke="#FFFFFF" stroke-width="0.75" stroke-miterlimit="10" d="M701.43,456.985
	c-13.796-12.317-14.996-33.484-2.679-47.284c12.317-13.796,33.484-14.994,47.281-2.676c13.795,12.315,14.994,33.487,2.678,47.282
	C736.396,468.1,715.224,469.298,701.43,456.985z"/>
<path fill="none" stroke="#FFFFFF" stroke-width="0.75" stroke-miterlimit="10" d="M719.957,436.115
	c-2.301-2.051-2.502-5.578-0.447-7.878c2.053-2.3,5.58-2.5,7.881-0.447c2.299,2.054,2.498,5.581,0.447,7.881
	C725.781,437.968,722.256,438.168,719.957,436.115z"/>
<path fill="none" stroke="#FFFFFF" stroke-width="0.75" stroke-miterlimit="10" d="M712.52,444.441
	c-6.896-6.154-7.492-16.74-1.336-23.637c6.158-6.901,16.74-7.499,23.64-1.341c6.898,6.159,7.498,16.746,1.34,23.64
	C730.005,450.001,719.42,450.603,712.52,444.441z"/>
<path fill="none" stroke="#FFFFFF" stroke-width="0.75" stroke-miterlimit="10" d="M705.086,452.768
	c-11.496-10.264-12.497-27.906-2.229-39.399c10.263-11.497,27.904-12.496,39.399-2.231c11.498,10.264,12.496,27.902,2.23,39.399
	C734.226,462.032,716.584,463.034,705.086,452.768z"/>
<path fill="none" stroke="#FFFFFF" stroke-width="0.75" stroke-miterlimit="10" d="M697.654,461.094
	c-16.095-14.369-17.494-39.065-3.125-55.161c14.371-16.094,39.065-17.495,55.161-3.126c16.097,14.375,17.494,39.068,3.125,55.162
	C738.444,474.066,713.75,475.463,697.654,461.094z"/>
<path fill="none" stroke="#FFFFFF" stroke-width="0.75" stroke-miterlimit="10" d="M731.196,417.472
	c-2.297-2.052-2.497-5.582-0.444-7.879c2.054-2.301,5.58-2.5,7.879-0.446c2.3,2.052,2.502,5.582,0.448,7.88
	C737.022,419.324,733.497,419.526,731.196,417.472z"/>
<path fill="none" stroke="#FFFFFF" stroke-width="0.75" stroke-miterlimit="10" d="M748.188,383.177
	c-4.599-4.104-4.999-11.162-0.896-15.759c4.106-4.599,11.161-5,15.763-0.891c4.597,4.102,4.998,11.161,0.89,15.758
	C759.84,386.885,752.783,387.282,748.188,383.177z"/>
<path fill="none" stroke="#FFFFFF" stroke-width="0.75" stroke-miterlimit="10" d="M740.706,391.461
	c-9.199-8.212-9.997-22.323-1.786-31.52c8.212-9.197,22.323-9.998,31.518-1.787c9.199,8.212,9.999,22.325,1.786,31.522
	C764.012,398.875,749.899,399.672,740.706,391.461z"/>
<circle fill="none" stroke="#FFFFFF" stroke-width="0.75" stroke-miterlimit="10" cx="755.629" cy="374.86" r="33.487"/>
<path fill="none" stroke="#FFFFFF" stroke-width="0.75" stroke-miterlimit="10" d="M725.777,408.062
	c-18.393-16.422-19.992-44.646-3.568-63.041c16.421-18.395,44.645-19.993,63.038-3.569c18.396,16.422,19.993,44.647,3.571,63.04
	C772.394,422.885,744.172,424.483,725.777,408.062z"/>
<path fill="none" stroke="#FFFFFF" stroke-width="0.75" stroke-miterlimit="10" d="M718.352,416.394
	c-22.991-20.528-24.99-55.808-4.464-78.799c20.53-22.993,55.808-24.992,78.803-4.463c22.99,20.528,24.989,55.808,4.46,78.8
	C776.624,434.926,741.342,436.92,718.352,416.394z"/>
<path fill="none" stroke="#FFFFFF" stroke-width="0.75" stroke-miterlimit="10" d="M751.854,378.97
	c-2.298-2.05-2.5-5.579-0.447-7.88c2.054-2.298,5.582-2.496,7.884-0.443c2.3,2.051,2.496,5.58,0.447,7.88
	C757.684,380.828,754.154,381.026,751.854,378.97z"/>
<circle fill="none" stroke="#FFFFFF" stroke-width="0.75" stroke-miterlimit="10" cx="755.571" cy="374.809" r="16.742"/>
<path fill="none" stroke="#FFFFFF" stroke-width="0.75" stroke-miterlimit="10" d="M736.988,395.623
	c-11.5-10.265-12.497-27.904-2.233-39.4c10.266-11.496,27.904-12.494,39.4-2.23c11.495,10.261,12.497,27.905,2.232,39.399
	C766.121,404.89,748.482,405.887,736.988,395.623z"/>
<path fill="none" stroke="#FFFFFF" stroke-width="0.75" stroke-miterlimit="10" d="M729.553,403.951
	c-16.094-14.369-17.495-39.066-3.126-55.161c14.372-16.095,39.069-17.494,55.166-3.122c16.091,14.367,17.489,39.066,3.12,55.16
	S745.649,418.321,729.553,403.951z"/>
<path fill="none" stroke="#FFFFFF" stroke-width="0.75" stroke-miterlimit="10" d="M722.121,412.28
	c-20.694-18.478-22.492-50.23-4.019-70.924c18.479-20.69,50.228-22.491,70.921-4.017s22.493,50.227,4.019,70.922
	C774.564,428.954,742.814,430.752,722.121,412.28z"/>
<path fill="none" stroke="#FFFFFF" stroke-width="0.75" stroke-miterlimit="10" d="M826.032,133.044
	c-4.601-4.106-4.999-11.162-0.896-15.761c4.106-4.598,11.162-4.997,15.763-0.892c4.599,4.105,4.995,11.161,0.89,15.76
	C837.687,136.75,830.629,137.15,826.032,133.044z"/>
<path fill="none" stroke="#FFFFFF" stroke-width="0.75" stroke-miterlimit="10" d="M818.55,141.328
	c-9.2-8.211-9.998-22.323-1.784-31.521c8.211-9.196,22.322-9.996,31.519-1.785c9.198,8.213,9.996,22.324,1.785,31.522
	C841.857,148.739,827.744,149.538,818.55,141.328z"/>
<circle fill="none" stroke="#FFFFFF" stroke-width="0.75" stroke-miterlimit="10" cx="833.476" cy="124.728" r="33.486"/>
<path fill="none" stroke="#FFFFFF" stroke-width="0.75" stroke-miterlimit="10" d="M803.622,157.928
	c-18.393-16.421-19.993-44.646-3.567-63.04c16.42-18.396,44.645-19.994,63.04-3.572c18.393,16.423,19.993,44.649,3.57,63.043
	C850.243,172.751,822.017,174.35,803.622,157.928z"/>
<path fill="none" stroke="#FFFFFF" stroke-width="0.75" stroke-miterlimit="10" d="M788.872,174.686
	c-27.593-24.633-29.988-66.971-5.354-94.562c24.632-27.591,66.971-29.989,94.561-5.352c27.588,24.63,29.988,66.968,5.357,94.558
	C858.798,196.921,816.462,199.318,788.872,174.686z"/>
<circle fill="none" stroke="#FFFFFF" stroke-width="0.75" stroke-miterlimit="10" cx="833.365" cy="124.629" r="55.809"/>
<circle fill="none" stroke="#FFFFFF" stroke-width="0.75" stroke-miterlimit="10" cx="833.417" cy="124.676" r="5.581"/>
<circle fill="none" stroke="#FFFFFF" stroke-width="0.75" stroke-miterlimit="10" cx="833.417" cy="124.675" r="16.742"/>
<circle fill="none" stroke="#FFFFFF" stroke-width="0.75" stroke-miterlimit="10" cx="833.417" cy="124.675" r="27.905"/>
<path fill="none" stroke="#FFFFFF" stroke-width="0.75" stroke-miterlimit="10" d="M807.396,153.817
	c-16.092-14.367-17.494-39.064-3.124-55.161c14.37-16.095,39.068-17.492,55.162-3.124c16.096,14.371,17.493,39.066,3.124,55.162
	C848.189,166.79,823.493,168.187,807.396,153.817z"/>
<path fill="none" stroke="#FFFFFF" stroke-width="0.75" stroke-miterlimit="10" d="M799.965,162.143
	c-20.693-18.475-22.491-50.226-4.018-70.92c18.479-20.694,50.229-22.49,70.921-4.016c20.695,18.477,22.491,50.226,4.018,70.922
	C852.408,178.823,820.66,180.621,799.965,162.143z"/>
<path fill="none" stroke="#FFFFFF" stroke-width="0.75" stroke-miterlimit="10" d="M792.531,170.47
	c-25.292-22.581-27.492-61.39-4.909-86.679c22.581-25.292,61.389-27.491,86.682-4.911c25.292,22.583,27.489,61.39,4.907,86.68
	C856.63,190.853,817.822,193.051,792.531,170.47z"/>
<circle fill="none" stroke="#FFFFFF" stroke-width="0.75" stroke-miterlimit="10" cx="842.046" cy="-6.031" r="5.58"/>
<circle fill="none" stroke="#FFFFFF" stroke-width="0.75" stroke-miterlimit="10" cx="841.73" cy="-27.928" r="11.163"/>
<circle fill="none" stroke="#FFFFFF" stroke-width="0.75" stroke-miterlimit="10" cx="841.682" cy="-27.969" r="5.581"/>
<circle fill="none" stroke="#FFFFFF" stroke-width="0.75" stroke-miterlimit="10" cx="836.492" cy="-93.29" r="11.162"/>
<path fill="none" stroke="#FFFFFF" stroke-width="0.75" stroke-miterlimit="10" d="M821.575-76.681
	c-9.197-8.21-9.996-22.322-1.784-31.52c8.212-9.196,22.323-9.998,31.519-1.787c9.2,8.213,9.997,22.326,1.785,31.521
	C844.882-69.267,830.772-68.468,821.575-76.681z"/>
<path fill="none" stroke="#FFFFFF" stroke-width="0.75" stroke-miterlimit="10" d="M832.726-89.169
	c-2.301-2.053-2.498-5.581-0.448-7.881c2.057-2.298,5.584-2.499,7.883-0.446c2.299,2.053,2.498,5.582,0.446,7.881
	C838.554-87.315,835.024-87.116,832.726-89.169z"/>
<path fill="none" stroke="#FFFFFF" stroke-width="0.75" stroke-miterlimit="10" d="M825.293-80.844
	c-6.899-6.157-7.497-16.741-1.34-23.641c6.162-6.896,16.741-7.495,23.641-1.337c6.896,6.157,7.496,16.742,1.339,23.64
	C842.773-75.284,832.189-74.684,825.293-80.844z"/>
<circle fill="none" stroke="#FFFFFF" stroke-width="0.75" stroke-miterlimit="10" cx="826.595" cy="-158.653" r="5.581"/>
<circle fill="none" stroke="#FFFFFF" stroke-width="0.75" stroke-miterlimit="10" cx="810.51" cy="-222.477" r="11.161"/>
<circle fill="none" stroke="#FFFFFF" stroke-width="0.75" stroke-miterlimit="10" cx="810.462" cy="-222.519" r="5.581"/>
<line fill="none" stroke="#FFFFFF" stroke-width="0.75" stroke-miterlimit="10" x1="-87.907" y1="837.217" x2="-20.946" y2="283.153"/>
<line fill="none" stroke="#FFFFFF" stroke-width="0.75" stroke-miterlimit="10" x1="-66.094" y1="839.368" x2="-13.657" y2="283.74"/>
<line fill="none" stroke="#FFFFFF" stroke-width="0.75" stroke-miterlimit="10" x1="-44.231" y1="840.949" x2="-6.357" y2="284.135"/>
<line fill="none" stroke="#FFFFFF" stroke-width="0.75" stroke-miterlimit="10" x1="-22.333" y1="841.95" x2="0.952" y2="284.34"/>
<line fill="none" stroke="#FFFFFF" stroke-width="0.75" stroke-miterlimit="10" x1="-0.418" y1="842.381" x2="8.262" y2="284.353"/>
<line fill="none" stroke="#FFFFFF" stroke-width="0.75" stroke-miterlimit="10" x1="21.502" y1="842.239" x2="15.571" y2="284.175"/>
<line fill="none" stroke="#FFFFFF" stroke-width="0.75" stroke-miterlimit="10" x1="43.409" y1="841.525" x2="22.872" y2="283.805"/>
<line fill="none" stroke="#FFFFFF" stroke-width="0.75" stroke-miterlimit="10" x1="65.291" y1="840.235" x2="30.162" y2="283.245"/>
<line fill="none" stroke="#FFFFFF" stroke-width="0.75" stroke-miterlimit="10" x1="87.13" y1="838.375" x2="37.436" y2="282.493"/>
<line fill="none" stroke="#FFFFFF" stroke-width="0.75" stroke-miterlimit="10" x1="108.917" y1="835.942" x2="44.685" y2="281.552"/>
<line fill="none" stroke="#FFFFFF" stroke-width="0.75" stroke-miterlimit="10" x1="130.631" y1="832.938" x2="51.908" y2="280.424"/>
<line fill="none" stroke="#FFFFFF" stroke-width="0.75" stroke-miterlimit="10" x1="152.256" y1="829.37" x2="59.099" y2="279.102"/>
<line fill="none" stroke="#FFFFFF" stroke-width="0.75" stroke-miterlimit="10" x1="173.783" y1="825.238" x2="66.255" y2="277.594"/>
<line fill="none" stroke="#FFFFFF" stroke-width="0.75" stroke-miterlimit="10" x1="195.193" y1="820.54" x2="73.366" y2="275.9"/>
<line fill="none" stroke="#FFFFFF" stroke-width="0.75" stroke-miterlimit="10" x1="216.475" y1="815.283" x2="80.433" y2="274.02"/>
<line fill="none" stroke="#FFFFFF" stroke-width="0.75" stroke-miterlimit="10" x1="237.61" y1="809.474" x2="87.447" y2="271.954"/>
<line fill="none" stroke="#FFFFFF" stroke-width="0.75" stroke-miterlimit="10" x1="258.588" y1="803.112" x2="94.402" y2="269.711"/>
<line fill="none" stroke="#FFFFFF" stroke-width="0.75" stroke-miterlimit="10" x1="279.391" y1="796.2" x2="101.298" y2="267.281"/>
<line fill="none" stroke="#FFFFFF" stroke-width="0.75" stroke-miterlimit="10" x1="300.006" y1="788.752" x2="108.129" y2="264.675"/>
<line fill="none" stroke="#FFFFFF" stroke-width="0.75" stroke-miterlimit="10" x1="320.417" y1="780.761" x2="114.891" y2="261.886"/>
<line fill="none" stroke="#FFFFFF" stroke-width="0.75" stroke-miterlimit="10" x1="340.615" y1="772.246" x2="121.574" y2="258.927"/>
<line fill="none" stroke="#FFFFFF" stroke-width="0.75" stroke-miterlimit="10" x1="360.578" y1="763.197" x2="128.178" y2="255.791"/>
<line fill="none" stroke="#FFFFFF" stroke-width="0.75" stroke-miterlimit="10" x1="380.304" y1="753.633" x2="134.696" y2="252.483"/>
<line fill="none" stroke="#FFFFFF" stroke-width="0.75" stroke-miterlimit="10" x1="399.77" y1="743.551" x2="141.132" y2="249.005"/>
<line fill="none" stroke="#FFFFFF" stroke-width="0.75" stroke-miterlimit="10" x1="418.966" y1="732.97" x2="147.468" y2="245.361"/>
<line fill="none" stroke="#FFFFFF" stroke-width="0.75" stroke-miterlimit="10" x1="437.877" y1="721.887" x2="153.709" y2="241.553"/>
<line fill="none" stroke="#FFFFFF" stroke-width="0.75" stroke-miterlimit="10" x1="456.492" y1="710.313" x2="159.847" y2="237.581"/>
<line fill="none" stroke="#FFFFFF" stroke-width="0.75" stroke-miterlimit="10" x1="474.798" y1="698.253" x2="165.88" y2="233.451"/>
<line fill="none" stroke="#FFFFFF" stroke-width="0.75" stroke-miterlimit="10" x1="492.78" y1="685.722" x2="171.803" y2="229.165"/>
<line fill="none" stroke="#FFFFFF" stroke-width="0.75" stroke-miterlimit="10" x1="510.433" y1="672.719" x2="177.611" y2="224.725"/>
<line fill="none" stroke="#FFFFFF" stroke-width="0.75" stroke-miterlimit="10" x1="527.735" y1="659.267" x2="183.302" y2="220.132"/>
<line fill="none" stroke="#FFFFFF" stroke-width="0.75" stroke-miterlimit="10" x1="544.679" y1="645.36" x2="188.871" y2="215.395"/>
<line fill="none" stroke="#FFFFFF" stroke-width="0.75" stroke-miterlimit="10" x1="561.255" y1="631.02" x2="194.312" y2="210.513"/>
<line fill="none" stroke="#FFFFFF" stroke-width="0.75" stroke-miterlimit="10" x1="577.448" y1="616.247" x2="199.623" y2="205.491"/>
<line fill="none" stroke="#FFFFFF" stroke-width="0.75" stroke-miterlimit="10" x1="593.25" y1="601.053" x2="204.804" y2="200.33"/>
<line fill="none" stroke="#FFFFFF" stroke-width="0.75" stroke-miterlimit="10" x1="608.649" y1="585.452" x2="209.844" y2="195.035"/>
<line fill="none" stroke="#FFFFFF" stroke-width="0.75" stroke-miterlimit="10" x1="623.634" y1="569.454" x2="214.746" y2="189.61"/>
<line fill="none" stroke="#FFFFFF" stroke-width="0.75" stroke-miterlimit="10" x1="638.534" y1="552.154" x2="218.827" y2="184.297"/>
<line fill="none" stroke="#FFFFFF" stroke-width="0.75" stroke-miterlimit="10" x1="648.826" y1="540.386" x2="222.924" y2="179.717"/>
<line fill="none" stroke="#FFFFFF" stroke-width="0.75" stroke-miterlimit="10" x1="662.616" y1="523.35" x2="227.423" y2="173.954"/>
<line fill="none" stroke="#FFFFFF" stroke-width="0.75" stroke-miterlimit="10" x1="675.962" y1="505.959" x2="231.77" y2="168.074"/>
<line fill="none" stroke="#FFFFFF" stroke-width="0.75" stroke-miterlimit="10" x1="688.844" y1="488.224" x2="235.958" y2="162.083"/>
<line fill="none" stroke="#FFFFFF" stroke-width="0.75" stroke-miterlimit="10" x1="701.257" y1="470.157" x2="239.992" y2="155.983"/>
<line fill="none" stroke="#FFFFFF" stroke-width="0.75" stroke-miterlimit="10" x1="713.192" y1="451.776" x2="243.863" y2="149.782"/>
<line fill="none" stroke="#FFFFFF" stroke-width="0.75" stroke-miterlimit="10" x1="724.646" y1="433.082" x2="247.572" y2="143.479"/>
<line fill="none" stroke="#FFFFFF" stroke-width="0.75" stroke-miterlimit="10" x1="735.606" y1="414.099" x2="251.112" y2="137.084"/>
<line fill="none" stroke="#FFFFFF" stroke-width="0.75" stroke-miterlimit="10" x1="746.062" y1="394.835" x2="254.483" y2="130.598"/>
<line fill="none" stroke="#FFFFFF" stroke-width="0.75" stroke-miterlimit="10" x1="756.014" y1="375.302" x2="257.686" y2="124.023"/>
<line fill="none" stroke="#FFFFFF" stroke-width="0.75" stroke-miterlimit="10" x1="765.449" y1="355.519" x2="260.713" y2="117.37"/>
<line fill="none" stroke="#FFFFFF" stroke-width="0.75" stroke-miterlimit="10" x1="774.364" y1="335.491" x2="263.568" y2="110.638"/>
<line fill="none" stroke="#FFFFFF" stroke-width="0.75" stroke-miterlimit="10" x1="782.751" y1="315.24" x2="266.244" y2="103.833"/>
<line fill="none" stroke="#FFFFFF" stroke-width="0.75" stroke-miterlimit="10" x1="790.604" y1="294.775" x2="268.74" y2="96.961"/>
<line fill="none" stroke="#FFFFFF" stroke-width="0.75" stroke-miterlimit="10" x1="797.92" y1="274.111" x2="271.056" y2="90.027"/>
<line fill="none" stroke="#FFFFFF" stroke-width="0.75" stroke-miterlimit="10" x1="804.69" y1="253.265" x2="273.191" y2="83.035"/>
<line fill="none" stroke="#FFFFFF" stroke-width="0.75" stroke-miterlimit="10" x1="810.919" y1="232.249" x2="275.143" y2="75.989"/>
<line fill="none" stroke="#FFFFFF" stroke-width="0.75" stroke-miterlimit="10" x1="816.588" y1="211.073" x2="276.907" y2="68.893"/>
<line fill="none" stroke="#FFFFFF" stroke-width="0.75" stroke-miterlimit="10" x1="821.704" y1="189.759" x2="278.485" y2="61.754"/>
<line fill="none" stroke="#FFFFFF" stroke-width="0.75" stroke-miterlimit="10" x1="826.26" y1="168.318" x2="279.875" y2="54.578"/>
<line fill="none" stroke="#FFFFFF" stroke-width="0.75" stroke-miterlimit="10" x1="830.252" y1="146.765" x2="281.079" y2="47.366"/>
<line fill="none" stroke="#FFFFFF" stroke-width="0.75" stroke-miterlimit="10" x1="833.679" y1="125.114" x2="282.092" y2="40.127"/>
<line fill="none" stroke="#FFFFFF" stroke-width="0.75" stroke-miterlimit="10" x1="836.54" y1="103.382" x2="282.917" y2="32.862"/>
<line fill="none" stroke="#FFFFFF" stroke-width="0.75" stroke-miterlimit="10" x1="838.829" y1="81.583" x2="283.549" y2="25.577"/>
<line fill="none" stroke="#FFFFFF" stroke-width="0.75" stroke-miterlimit="10" x1="840.549" y1="59.729" x2="283.993" y2="18.28"/>
<line fill="none" stroke="#FFFFFF" stroke-width="0.75" stroke-miterlimit="10" x1="841.694" y1="37.839" x2="284.243" y2="10.973"/>
<line fill="none" stroke="#FFFFFF" stroke-width="0.75" stroke-miterlimit="10" x1="842.267" y1="15.926" x2="284.305" y2="3.662"/>
<line fill="none" stroke="#FFFFFF" stroke-width="0.75" stroke-miterlimit="10" x1="842.264" y1="-5.994" x2="284.175" y2="-3.649"/>
<line fill="none" stroke="#FFFFFF" stroke-width="0.75" stroke-miterlimit="10" x1="841.689" y1="-27.905" x2="283.851" y2="-10.955"/>
<line fill="none" stroke="#FFFFFF" stroke-width="0.75" stroke-miterlimit="10" x1="840.54" y1="-49.794" x2="283.336" y2="-18.246"/>
<line fill="none" stroke="#FFFFFF" stroke-width="0.75" stroke-miterlimit="10" x1="838.82" y1="-71.647" x2="282.632" y2="-25.522"/>
<line fill="none" stroke="#FFFFFF" stroke-width="0.75" stroke-miterlimit="10" x1="836.528" y1="-93.448" x2="281.736" y2="-32.779"/>
<line fill="none" stroke="#FFFFFF" stroke-width="0.75" stroke-miterlimit="10" x1="833.663" y1="-115.18" x2="280.652" y2="-40.01"/>
<line fill="none" stroke="#FFFFFF" stroke-width="0.75" stroke-miterlimit="10" x1="830.232" y1="-136.831" x2="279.38" y2="-47.208"/>
<line fill="none" stroke="#FFFFFF" stroke-width="0.75" stroke-miterlimit="10" x1="826.239" y1="-158.381" x2="277.917" y2="-54.373"/>
<line fill="none" stroke="#FFFFFF" stroke-width="0.75" stroke-miterlimit="10" x1="821.678" y1="-179.822" x2="276.27" y2="-61.497"/>
<line fill="none" stroke="#FFFFFF" stroke-width="0.75" stroke-miterlimit="10" x1="816.559" y1="-201.137" x2="274.437" y2="-68.575"/>
<line fill="none" stroke="#FFFFFF" stroke-width="0.75" stroke-miterlimit="10" x1="810.885" y1="-222.309" x2="272.416" y2="-75.6"/>
<line fill="none" stroke="#FFFFFF" stroke-width="0.75" stroke-miterlimit="10" x1="804.66" y1="-243.326" x2="270.217" y2="-82.573"/>
<line fill="none" stroke="#FFFFFF" stroke-width="0.75" stroke-miterlimit="10" x1="797.885" y1="-264.173" x2="267.831" y2="-89.483"/>
<line fill="none" stroke="#FFFFFF" stroke-width="0.75" stroke-miterlimit="10" x1="790.563" y1="-284.835" x2="265.267" y2="-96.332"/>
<circle fill="none" stroke="#FFFFFF" stroke-width="0.75" stroke-miterlimit="10" cx="131.197" cy="833.071" r="11.162"/>
<circle fill="none" stroke="#FFFFFF" stroke-width="0.75" stroke-miterlimit="10" cx="131.15" cy="833.028" r="22.325"/>
<circle fill="none" stroke="#FFFFFF" stroke-width="0.75" stroke-miterlimit="10" cx="131.209" cy="833.08" r="33.485"/>
<circle fill="none" stroke="#FFFFFF" stroke-width="0.75" stroke-miterlimit="10" cx="131.093" cy="832.977" r="44.649"/>
<path fill="none" stroke="#FFFFFF" stroke-width="0.75" stroke-miterlimit="10" d="M86.604,883.039
	c-27.591-24.634-29.987-66.972-5.354-94.562c24.634-27.589,66.971-29.987,94.562-5.354c27.588,24.634,29.987,66.971,5.354,94.562
	S114.195,907.67,86.604,883.039z"/>
<circle fill="none" stroke="#FFFFFF" stroke-width="0.75" stroke-miterlimit="10" cx="131.099" cy="832.982" r="55.81"/>
<circle fill="none" stroke="#FFFFFF" stroke-width="0.75" stroke-miterlimit="10" cx="131.15" cy="833.028" r="78.134"/>
<circle fill="none" stroke="#FFFFFF" stroke-width="0.75" stroke-miterlimit="10" cx="131.15" cy="833.028" r="5.581"/>
<circle fill="none" stroke="#FFFFFF" stroke-width="0.75" stroke-miterlimit="10" cx="131.149" cy="833.028" r="16.742"/>
<circle fill="none" stroke="#FFFFFF" stroke-width="0.75" stroke-miterlimit="10" cx="131.149" cy="833.028" r="27.905"/>
<circle fill="none" stroke="#FFFFFF" stroke-width="0.75" stroke-miterlimit="10" cx="131.149" cy="833.027" r="39.067"/>
<circle fill="none" stroke="#FFFFFF" stroke-width="0.75" stroke-miterlimit="10" cx="131.149" cy="833.028" r="50.229"/>
<path fill="none" stroke="#FFFFFF" stroke-width="0.75" stroke-miterlimit="10" d="M90.262,878.824
	c-25.29-22.582-27.488-61.39-4.906-86.681c22.581-25.293,61.389-27.491,86.68-4.911c25.293,22.583,27.491,61.391,4.909,86.683
	C154.363,899.208,115.555,901.404,90.262,878.824z"/>
<circle fill="none" stroke="#FFFFFF" stroke-width="0.75" stroke-miterlimit="10" cx="131.092" cy="832.977" r="72.553"/>
<path fill="none" stroke="#FFFFFF" stroke-width="0.75" stroke-miterlimit="10" d="M75.396,895.476
	c-34.488-30.794-37.485-83.714-6.694-118.202c30.793-34.487,83.713-37.484,118.203-6.691c34.488,30.79,37.485,83.71,6.693,118.2
	C162.805,923.27,109.885,926.268,75.396,895.476z"/>
<circle fill="none" stroke="#FFFFFF" stroke-width="0.75" stroke-miterlimit="10" cx="15.722" cy="14.197" r="824.555"/>
</svg>
